<svg width="570" height="730" viewBox="0 0 570 730" fill="none" xmlns="http://www.w3.org/2000/svg">
<g clip-path="url(#clip0_201_1475)">
<path d="M310.997 636.683C282.207 657.364 239.015 658.124 201.293 651.959C163.729 645.331 131.635 631.779 112.919 609.349C94.3607 586.456 89.1811 554.686 69.7201 528.381C50.8806 501.771 18.5277 481.406 16.2159 459.409C14.209 438.033 41.9267 415.951 64.6846 394.761C87.1375 372.949 104.472 352.492 137.011 286.022C169.392 220.016 217.599 107.691 252.928 102.693C288.099 98.1582 310.393 200.95 371.547 261.156C432.702 321.363 532.876 338.521 538.314 377.104C544.373 415.382 455.855 474.622 404.553 524.853C353.41 574.621 339.325 615.844 310.997 636.683Z" fill="#F0F0C7"/>
<path d="M190.854 203.845C190.854 203.845 208.742 167.034 163.803 172.494M184.885 203.318C184.885 203.318 198.089 167.56 152.937 178.302M180.621 202.257C180.621 202.257 177.641 167.025 136.11 189.927M172.743 202.078C172.743 202.078 168.059 174.778 130.151 195.208M164.009 202.961C164.009 202.961 132.488 183.583 119.498 211.419M158.04 206.485C158.04 206.485 131.204 212.65 130.356 222.339C129.499 232.028 131.204 240.129 130.998 240.655C130.784 241.182 128.018 258.097 128.866 261.969C129.723 265.841 120.56 244.358 120.988 239.067C121.416 233.786 114.172 218.458 117.794 213.703M194.886 202.257C194.886 202.257 199.57 186.224 211.07 188.874M201.06 203.497C201.06 203.497 217.03 191.345 225.764 199.973M205.958 206.316C205.958 206.316 218.734 213.89 218.101 237.14C218.101 237.14 225.131 249.996 224.489 254.225C223.846 258.454 228.744 246.124 229.387 243.305C230.029 240.486 235.56 210.188 226.621 202.792M223.213 266.823C223.213 266.823 224.167 281.882 215.228 293.775C206.279 305.668 197.661 314.911 182.967 315.972C168.273 317.025 140.803 302.5 134.094 277.395M229.288 244.108C229.288 244.108 240.467 238.559 236.319 258.374C232.17 278.189 223.543 276.869 223.543 276.869M122.282 249.657C122.282 249.657 115.573 248.605 121.961 267.626C128.349 286.647 134.737 281.097 134.737 281.097M220.67 284.8L219.073 311.217M139.527 290.34L141.767 314.911C141.767 314.911 166.364 332.879 176.909 338.16M220.991 309.361C220.991 309.361 212.043 322.307 186.17 338.954M139.215 311.208L134.103 333.137C134.103 333.137 139.536 352.426 148.797 361.937C148.797 361.937 169.879 340.534 177.23 340.007M187.134 340.275C187.134 340.275 206.618 350.053 216.2 359.822C216.2 359.822 228.655 337.643 228.655 328.641C228.655 323.359 221.946 311.467 221.946 311.467M175.946 341.06L185.528 340.792M198.303 350.035L189.676 361.66C189.676 361.66 175.625 360.866 173.385 362.713C168.594 356.896 162.528 352.408 162.528 352.408M129.303 333.646C129.303 333.646 53.9151 361.651 41.1392 374.864C28.3634 388.077 9.19073 479.489 5.36334 508.555C1.52702 537.622 29.0058 653.345 43.6998 673.428M85.8636 620.585C85.8636 620.585 53.2816 674.481 49.4453 686.106M77.5575 439.859C77.5575 439.859 82.6696 594.685 87.1394 600.502C87.1394 600.502 138.252 635.903 197.028 626.393C255.804 616.882 294.8 604.214 294.8 604.214C313.009 596.684 317.319 513.855 317.319 499.197C317.319 484.538 332.173 427.859 332.173 427.859C332.173 427.859 432.792 449.655 459.146 434.996C485.501 420.329 474.956 401.701 470.646 372.384C466.337 343.058 459.146 310.557 459.146 310.557L444.774 268.152C432.319 262.21 397.337 272.907 397.337 272.907C397.337 272.907 405.964 342.264 407.401 345.03C408.837 347.805 410.273 357.315 408.355 371.982C406.437 386.65 415.064 404.877 415.064 404.877M76.2728 496.931C76.2728 496.931 71.1607 543.43 70.5272 552.414C69.8849 561.399 78.191 631.674 78.191 631.674M64.1393 529.691C65.0315 534.125 37.9631 534.83 32.8332 534.973M61.5877 542.369C56.9574 548.203 46.9473 550.568 41.8262 556.001C54.8697 558.312 45.9748 565.61 46.8937 573.55M230.894 328.355C230.894 328.355 266.67 337.866 275.619 336.278C284.567 334.69 329.283 338.392 356.761 357.413C371.848 367.861 396.374 376.434 400.21 376.961C404.046 377.487 403.404 374.846 406.598 375.373M296.71 606.828L297.352 614.224C297.352 614.224 328.016 656.236 323.546 686.355M170.851 628.668L171.28 648.751C171.28 648.751 192.156 650.16 198.33 649.455C204.504 648.751 177.034 645.583 176.187 645.405C175.33 645.227 175.758 630.078 175.758 630.078C175.758 630.078 200.034 629.899 200.677 629.373C201.319 628.846 197.054 626.375 197.054 626.375M212.81 629.373C212.81 629.899 215.156 646.815 213.881 649.803C212.605 652.801 220.483 648.92 220.483 648.92C220.483 648.92 221.553 635.529 219.421 629.721M255.197 616.865C255.197 616.865 259.667 634.128 258.177 637.117C256.687 640.114 263.182 636.412 263.182 635.886C263.182 635.886 262.441 620.389 260.728 615.981M135.504 624.439C135.504 624.439 134.656 634.654 134.656 638.178L130.186 636.947C130.186 636.947 130.829 625.849 131.462 622.503M87.4873 604.187L85.248 613.171C85.248 613.171 96.1057 627.178 129.651 635.368M136.681 637.75L170.86 645.673M201.212 648.84L213.568 648.751M221.66 647.787C221.66 647.787 253.181 640.739 258.186 637.126M263.191 635.894C263.191 635.894 288.742 624.796 296.415 615.285M220.706 629.025C220.706 629.025 248.176 624.002 253.93 620.041M189.337 364.765C189.337 364.765 209.464 430.562 211.383 471.78C213.301 512.998 222.883 590.688 222.883 590.688L192.21 617.641L165.374 596.238C165.374 596.238 159.628 409.159 163.464 398.061C167.301 386.962 173.43 362.695 173.43 362.695M445.916 267.313C445.916 267.313 472.752 246.704 474.67 243.002C476.588 239.299 461.894 212.088 461.894 212.088C461.894 212.088 441.446 206.013 438.252 206.013C435.058 206.013 421.64 206.28 421.64 206.28C421.64 206.28 417.803 211.829 425.476 213.676M465.088 237.194C464.134 237.194 451.349 221.34 446.879 217.905C442.409 214.47 425.155 215.523 420.685 213.418C420.685 213.418 409.827 207.342 408.23 211.571C406.633 215.8 410.47 220.029 422.282 221.875C434.103 223.722 436.655 226.898 436.655 226.898M453.267 235.615L431.222 225.837C431.222 225.837 415.252 225.837 412.058 225.569C408.864 225.301 397.685 223.722 403.109 228.477C408.543 233.233 417.803 232.706 422.594 233.759C427.385 234.812 429.946 238.514 429.303 239.835M471.467 230.324L470.191 213.676L459.967 202.845C459.967 202.845 451.661 196.77 449.743 194.129C447.825 191.488 444.952 201.266 451.34 207.074M421.31 234.821C421.31 234.821 409.81 242.217 410.452 250.933C411.094 259.65 410.452 269.428 410.452 269.428M474.982 233.233C474.982 233.233 535.355 226.095 556.125 186.465C576.886 146.835 565.073 70.4745 479.14 57.0028C479.14 57.0028 335.073 42.9958 314.624 44.0574C294.176 45.1102 224.542 50.9271 216.236 126.494C207.93 202.06 294.185 226.363 336.348 226.898L333.155 278.153L398.961 231.127" stroke="#161616" stroke-width="2" stroke-linecap="round" stroke-linejoin="round"/>
<path d="M356.057 163.527C350.98 139.823 361.561 125.967 373.944 118.473C380.073 114.824 386.693 114.084 392.573 116.368C398.577 118.723 403.154 124.103 405.197 131.097C408.105 141.063 406.125 152.072 400.12 159.816C394.981 166.373 387.434 169.844 379.021 169.532C368.315 168.916 362.248 166.498 356.065 163.527" stroke="#161616" stroke-width="2" stroke-miterlimit="10" stroke-linecap="round"/>
<path d="M564.61 156.096C478.935 138.494 447.37 196.877 397.212 201.9C389.103 202.578 380.689 201.409 372.705 198.617C364.167 195.583 356.057 190.694 349.187 184.262C338.294 173.993 332.227 160.869 332.352 148.12C332.414 145.399 332.664 143.784 332.664 143.784C333.155 139.885 334.208 135.987 335.822 132.213C340.399 121.569 348.821 113.272 356.922 105.234C362.802 99.4166 368.868 93.4748 373.445 86.6051C374.311 85.3025 375.113 84.0089 375.979 82.7063C380.743 75.1586 385.695 67.4235 394.358 64.0154C403.823 60.3664 416.082 64.631 421.149 73.4188C425.36 80.6632 424.308 91.4317 423.442 100.032C423.317 101.576 423.13 103.066 423.005 104.422C422.452 111.782 423.496 119.401 424.548 126.699C426.029 137.155 427.519 147.924 424.486 158.63C420.462 172.86 408.828 187.465 391.931 187.902C384.321 188.089 376.398 185.484 369.591 180.657C363.274 176.143 359.563 170.504 356.039 163.456C349.107 160.423 339.204 154.606 332.334 148.049C328.078 144.328 249.229 73.4099 244.572 68.3513" stroke="#161616" stroke-width="2" stroke-miterlimit="10" stroke-linecap="round"/>
</g>
<defs>
<clipPath id="clip0_201_1475">
<rect width="570" height="730" fill="white"/>
</clipPath>
</defs>
</svg>
