<svg width="252" height="180" viewBox="0 0 252 180" fill="none" xmlns="http://www.w3.org/2000/svg">
<path d="M122.589 176.549C134.248 173.468 144.858 150.806 158.595 139.256C172.125 127.732 188.871 137.111 185.347 130.686C162.45 112.95 164.249 125.567 154.35 117.9C136.373 103.961 154.999 75.6317 147.15 57.6001C145.194 53.107 141.785 48.6159 137.7 44.7733C131.449 38.8923 149.722 25.2769 143.1 24.75C137.369 24.2563 108.988 10.9735 98.1 17.55C94.6093 19.6585 68.7978 49.7475 68.4 54.9001C67.643 64.706 88.2973 59.1716 88.2 63C85.95 79.6501 105.879 98.0382 93.6 112.5C81.3206 126.962 45.5703 125.618 40.6679 135.691C35.7654 145.764 60.9056 141.264 79.5643 152.198C98.4297 163.106 110.93 179.63 122.589 176.549Z" fill="#D3D360"/>
<path d="M42 138.385C44.9833 137.311 47.9677 136.237 56.7986 134.148C65.6296 132.059 80.3094 128.956 89.3198 122.571C98.3301 116.187 101.672 106.519 101.701 99.9262C101.732 93.333 98.4489 89.8116 96.1518 86.5301C93.8547 83.2486 92.5418 80.2048 90.5429 79.429C88.544 78.6532 85.8589 80.1454 84.6358 82.5613C83.4127 84.9785 83.6515 88.3193 84.4564 91.3329C85.2625 94.3464 86.6347 97.0315 88.3354 97.897C90.0362 98.7625 92.0654 97.8073 93.1685 97.1212C94.2728 96.4351 94.4511 96.0169 95.1978 97.7176C95.9433 99.4183 97.2561 103.237 98.9568 107.563C100.658 111.89 102.746 116.723 107.669 120.154C112.592 123.585 120.349 125.614 126.674 124.749C132.999 123.883 137.892 120.124 141.025 115.291C144.158 110.458 145.531 104.55 146.515 99.0607C147.5 93.5706 148.096 88.4987 148.396 82.0546C148.694 75.6105 148.694 67.793 147.411 62.1841C146.129 56.5752 143.562 53.1737 139.714 51.1445C135.865 49.1153 130.734 48.4595 123.543 50.5481C116.352 52.6367 107.103 57.4698 100.808 61.6168C94.5128 65.7638 91.1708 69.2246 89.3209 70.8659C87.4711 72.5073 87.1135 72.3279 87.0238 70.2695C86.9341 68.2112 87.1135 64.2727 89.4409 58.1559C91.7683 52.0391 96.2438 43.7452 101.704 38.7921C107.163 33.839 113.608 32.228 119.306 32.9141C125.005 33.6002 129.958 36.5835 133.299 39.4479C136.641 42.3124 138.371 45.0568 139.475 46.0715C140.579 47.0861 141.056 46.3697 142.19 43.8931C143.324 41.4166 145.114 37.1799 148.546 33.2415C151.976 29.303 157.049 25.6627 157.377 23.8432C157.705 22.0237 153.289 22.0237 147.382 21.1873C141.475 20.3521 134.076 18.6805 127.691 16.8912C121.306 15.1008 115.936 13.1915 111.251 10.835C106.567 8.47843 102.569 5.6734 99.9435 6.03101C97.3178 6.38863 96.0644 9.91007 92.3356 15.3105C88.6057 20.7108 82.4004 27.9902 75.8957 34.4949C69.391 40.9996 62.5893 46.7273 56.4422 51.2028C50.2963 55.6782 44.8062 58.9003 44.5977 60.5416C44.3892 62.1829 49.4611 62.2423 55.727 63.137C61.9928 64.0316 69.4516 65.7626 71.9875 76.0555C74.5235 86.3484 72.1366 105.205 69.8989 112.156C67.6612 119.108 65.5725 114.155 65.244 107.86C64.9155 101.565 66.3483 93.9271 66.2586 86.4975C66.1689 79.0679 64.5579 71.8479 65.0949 68.5071C65.6319 65.165 68.317 65.702 70.7632 66.4184C73.2095 67.1348 75.4181 68.0295 77.2376 68.3871C79.0572 68.7447 80.49 68.5665 84.2793 65.6717C88.0687 62.7782 94.2146 57.1681 100.152 53.4684C106.089 49.7688 111.818 47.9784 116.531 46.9346C121.246 45.8909 124.945 45.5915 129.123 48.188C133.3 50.7834 137.954 56.2735 139.952 63.1358C141.951 69.9981 141.296 78.2326 139.863 87.78C138.431 97.3274 136.223 108.188 140.608 114.543C144.994 120.899 155.974 122.749 160.211 125.075C164.448 127.402 161.942 130.206 156.392 134.545C150.843 138.884 142.251 144.758 136.343 152.335C130.435 159.914 127.212 169.197 125.154 172.526C123.095 175.855 122.2 173.23 118.62 167.799C115.039 162.368 108.774 154.134 102.539 147.093C96.3032 140.052 90.0967 134.204 88.7245 131.49C87.3523 128.774 90.8131 129.193 94.3928 131.072C97.9737 132.952 101.672 136.293 105.82 140.41C109.967 144.528 114.563 149.421 117.456 153.18C120.35 156.939 121.544 159.565 123.095 159.714C124.647 159.863 126.556 157.535 128.704 154.522C130.852 151.508 133.239 147.809 138.195 141.715C143.15 135.622 150.674 127.133 155.903 123.308C161.132 119.483 164.068 120.322 168.797 121.72C173.527 123.118 180.05 125.075 187.023 129.436C193.996 133.799 201.419 140.564 208.842 147.331" stroke="#161616" stroke-width="2" stroke-linecap="round" stroke-linejoin="round"/>
</svg>
