<svg fill="none" height="400" viewBox="0 0 1920 400" width="1920" xmlns="http://www.w3.org/2000/svg" xmlns:xlink="http://www.w3.org/1999/xlink"><clipPath id="a"><path d="m0 0h1920v400h-1920z"/></clipPath><clipPath id="b"><path d="m1095 199h226v201h-226z"/></clipPath><g clip-path="url(#a)" stroke="#161616" stroke-width="2"><path d="m1296.76 308s184.92-102.925 34.46-162.332c-43.18-17.051-134.91-82.7386-110-113.9616 58.78-73.6764 496.73 8.6999 713.78 9.3522"/><g clip-path="url(#b)" stroke-miterlimit="10"><path d="m1280.07 293.246c.98-12.745 1.87-26.152.57-39.513m-133.49 121.253c7.56 7.293 15.9 13.549 28.42 17.802 30.86 10.496 54.01 6.275 73.76-8.54 21.06-15.795 27.47-40.748 29.63-75.634.16-2.493.34-5.002.53-7.534m-157.55 44.235c.47 1.191.99 2.362 1.57 3.514 3.47 6.978 8.64 13.076 14.61 18.054 1.25 1.042 2.86 2.612 4.53 4.182m23.95-111.076c-1.91 1.535-3.94 2.927-6.1 4.138-4.21 2.355-8.73 4.083-12.81 6.671-3.92 2.489-7.59 5.49-10.87 8.78-11.89 11.932-18.78 28.441-18.65 45.312.03 4.469.52 8.954 1.54 13.301m71.62-110.823c-4.2 6.311-8.27 12.985-12.59 19.214-2.25 3.238-4.95 6.477-7.69 9.289m108.56-10.019c-.99-5.952-2.48-11.944-4.63-17.952-.7-2.232-1.57-4.433-2.65-6.587-1.79-3.554-4.2-6.773-7-9.582-3.29-3.167-7.05-5.786-11.12-7.853-3.76-1.917-8.21-2.6-12.36-3.089-8.9-1.049-18.26-.067-26.56 3.428-4.54 1.913-8.35 4.591-11.74 7.779"/><path d="m1262.56 233.052c-2.42-8.233-7.34-15.384-16.62-19.826 0 0-13.43-4.268-27.6 2.509"/><path d="m1194.26 241.6c-9.4 14.961-15.86 26.649-31.61 33.434-19.56 8.425-37.22 32.338-29.61 61.145s56.51 50.818 97.81 26.634c30.98-21.471 29.34-66.037 31.25-85.33.32-3.297.81-6.989 1.27-10.906"/><path d="m1165.48 337.84c-.41-.62-13.99-11.731-7.4-35.604 6.58-23.873 37.45-28.606 54.94-20.788 17.49 7.822 21.4 28.606 14.81 42.807-6.58 14.2-20.58 20.937-34.98 21.403-19.13.619-27.37-7.818-27.37-7.818z"/><path d="m1173.49 237.745c.29-2.224-2.38-2.765-3.9-1.79-.57-.501-1.15-.935-1.61-1.278-1.21-.9-4.11-2.509-4.34.284-.08.899.47 1.439 1.09 1.936-.15-.015-.3-.031-.46-.035-1.16-.02-1.83 1.522-.96 2.331.1.099.22.193.32.292-.23.032-.47.071-.71.118-1.04.198-1.42 1.72-.64 2.407 1.04.907 2.15 1.573 3.43 2.007.13 1.314.28 2.643.43 3.988-.25 4.75.09 9.546.45 14.284.24 3.065 5.09 3.033 4.77 0-.17-4.339-.36-8.738-.98-13.049-.21-1.818-.44-3.633-.67-5.447-.01-.127-.04-.249-.08-.363 1.79-1.401 3.58-3.578 3.86-5.677z"/><path d="m1319.04 278.899c-.98-.635-2.13-.994-3.33-1.191.85-.351 1.68-.769 2.46-1.302.91-.623.69-2.414-.63-2.295-3.13.284-6.21 1.025-9.06 2.268.11-.454.16-.915.24-1.389.17-.982.54-1.727 1.05-2.576.73-1.234 1.46-2.291 1.19-3.755-.19-.994-1.57-1.258-2.22-.584-2.24 2.32-3.67 4.892-5.13 7.736-1.01 1.948-2.58 3.499-4.26 4.911-2.17.757-4.59 2.481-6.5 3.704-2.31 1.475-4.13 2.69-6.37 4.268-2.14 1.511-4.27 3.033-6.42 4.544-2.25 1.59-4.79 3.108-6.56 5.246-.38.458-.52.856-.6 1.499-.32 1.771 1.8 3.921 3.98 2.856 2.23-1.089 4.08-2.769 5.97-4.347 2.01-1.68 4.05-3.337 6.1-4.97 1.71-1.357 3.43-2.702 5.14-4.055.46-.308.93-.615 1.39-.919 2.02-1.31 4.25-2.422 6.14-3.929 1.71-.813 3.47-1.4 5.51-1.483 2.92-.122 5.76.856 8.65 1.144 1.21.122 1.72-1.807.63-2.316-.81-.378-1.64-.706-2.49-1.002 1.49.028 3 .119 4.5.225 1.28.091 1.58-1.672.62-2.288z"/><path d="m1130.43 348.505c-.62-2.737-1.53-5.668-3.6-7.684-2.1-2.047-5.02-2.69-7.87-2.437-4.75.426-8.85 2.859-12.05 6.232-.62-1.156-1.35-2.244-2.21-3.219-1.75-1.976-4.86-3.361-7.19-1.44-2.61 2.15-.05 4.588 1.85 5.984 0 .004.01.008.01.012.9 1.168 1.83 2.316 2.8 3.424 1.22 1.4 2.69 3.507 4.84 2.777.53-.181.95-.493 1.25-.891 2.95-2.379 4.73-5.479 8.79-6.32 3.75-.773 7.73.998 8.85 4.809.86 2.907 5.21 1.704 4.53-1.247z"/><path d="m1162.58 377.861c-.62-2.737-1.54-5.668-3.61-7.684-2.1-2.047-5.01-2.69-7.86-2.437-4.76.426-8.86 2.859-12.05 6.232-.62-1.156-1.36-2.244-2.21-3.219-1.75-1.976-4.87-3.361-7.2-1.44-2.61 2.15-.04 4.588 1.85 5.984.01.004.02.008.02.012.9 1.168 1.83 2.316 2.8 3.424 1.22 1.4 2.69 3.507 4.83 2.777.53-.181.96-.493 1.25-.891 2.96-2.379 4.73-5.479 8.8-6.32 3.74-.773 7.73.998 8.85 4.809.86 2.907 5.21 1.704 4.53-1.247z"/><path d="m1285.54 255.137c-.61-3.005-3-5.838-4.93-8.122-1.31-1.538-2.86-3.857-4.84-4.769-.77-2.228-3.18-3.431-5.24-4.705-2.8-1.732-5.68-3.353-8.68-4.702-2.97-1.334-6.07-2.363-9.26-2.998-2.85-.568-7.03-1.333-9.68.256-.22.134-.41.304-.57.497-1.01-1.104-2.49-1.7-3.88-2.185-.24-.087-.72-.217-1.3-.351-.38-.237-.69-.418-.89-.501-1.35-.576-2.84-1.14-4.34-1.006.02-.248-.01-.497-.08-.749-.88-2.959-4.48-5.215-6.97-6.718-2.78-1.684-5.76-3.018-8.85-4.035-3.13-1.03-6.35-1.779-9.58-2.391-2.34-.442-4.88-1.156-6.94-.118-1.93 1.396-3.31 3.724-3.71 4.438.02 0-2.26 4.208-3.1 6.544-1.58 4.39-3.57 8.938-1.62 13.557 1.73 4.067 5.28 7.227 9.11 9.262 3.93 2.083 8.59 3.4 13.05 3.451 4.59.056 8.51-1.901 11.5-5.344 1.53-1.764 2.68-3.85 3.64-5.965.98-2.169 2.08-4.583 2.61-6.95.13-.063.26-.142.38-.248.42-.375.7-.494 1.16-.458.92.079 1.85.58 2.77.765.15.032.38.075.66.126.21.142.38.253.5.324.8.481 1.82.738 2.56 1.306.36.284.48.556.54 1.12.02.162.06.307.11.442-1.2 2.106-2.02 4.627-2.76 6.895-.72 2.209-1.28 4.524-1.34 6.859-.12 4.56 1.45 8.647 4.87 11.704 3.33 2.97 7.66 5.148 11.96 6.26 4.2 1.085 8.95 1.152 12.97-.686 4.56-2.087 6.16-6.789 7.96-11.093.95-2.291 1.96-4.631 2.09-6.962.27.272.54.541.81.817.82.848 1.6 1.724 2.38 2.603 1.5 1.7 3.01 3.807 4.93 5.053.87.564 2.22-.067 1.99-1.207zm-60.02-20.862c-.73 1.948-1.53 3.897-2.64 5.66-1.84 2.883-4.57 5.329-8.13 5.487-3.41.15-7.08-.568-10.25-1.755-3.02-1.129-5.89-2.959-7.85-5.558-2.47-3.27-2.54-6.671-1.17-10.418.66-1.815 1.33-3.645 2.06-5.436.61-1.503 1.39-3.187 3.05-3.711.46-.142.92-.237 1.39-.296.53-.048 1.05-.063 1.58-.052 2.76.119 5.58 1.239 8.17 1.724 2.26.765 4.48 1.696 6.61 2.722 1.87.903 3.7 1.905 5.44 3.033 1.18.762 2.77 1.712 3.14 3.172.42 1.656-.82 3.905-1.39 5.424zm45.1 16.366c-.67 1.81-1.41 3.613-2.15 5.4-1.52 3.684-3.87 6.145-7.89 6.895-3.2.595-6.55.008-9.54-1.195-3.14-1.267-6.34-3.215-8.75-5.621-2.52-2.517-2.89-6.17-2.29-9.534.36-2.056 1.09-4.032 1.86-5.965.61-1.51 1.21-4.007 2.63-4.946 1.26-.825 3.07-.454 4.46-.221 2.05.347 4.07.84 6.07 1.44 2.26.678 4.52 1.491 6.71 2.453 2.23 1.385 5.07 2.47 7.19 4.241.39.343.77.714 1.13 1.1.3.355.58.738.82 1.152.88 1.507.31 3.278-.25 4.801z"/><path d="m1232.09 261.468c-5.31 4.821-15 .292-15.41-6.631"/></g><path d="m-1 232 41-50.522c40-50.326 120-149.1096 200-170.8687 80-20.9581 160 35.1082 240 56.8673 80 20.9582 160 7.609 240 21.3586 80 14.2838 160 57.0008 240 57.0008s160-42.717 240-28.434c80 13.75 160 85.835 240 113.868 80 28.034 160 14.684 240-28.433 80-42.317 160-114.4023 200-149.5105l40-35.6421"/></g></svg>