<svg viewBox="0 0 240 240" fill="none" xmlns="http://www.w3.org/2000/svg">
<path opacity="0.46" d="M102.268 6.30975C111.359 0.324154 170.135 -18.3257 190.342 59.7301C206.616 122.574 229.343 117.228 230.891 162.718C232.7 215.95 195.545 231.611 149.937 231.611C104.329 231.611 29.4509 238.083 23.7534 175.203C21.4852 121.134 46.0846 104.483 58.6229 86.9128C71.1611 69.343 67.9208 28.938 102.268 6.31875V6.30975Z" fill="#EEEED7"/>
<path opacity="0.46" d="M95.3216 5.74313C103.564 0.294623 156.856 -16.6818 175.177 54.3701C189.932 111.575 210.539 106.709 211.943 148.117C213.583 196.572 179.894 210.828 138.542 210.828C97.1904 210.828 29.2989 216.719 24.133 159.481C22.0764 110.264 44.3805 95.1069 55.7488 79.1137C67.1171 63.1205 64.1791 26.341 95.3216 5.75133V5.74313Z" fill="#E8E8CC"/>
<path opacity="0.46" d="M0.0359943 195.77C0.378029 192.709 2.93428 190.216 6.0936 190.306C8.16381 190.369 9.70296 191.512 10.7111 193.087C12.7363 195.176 13.2943 198.731 10.8731 201.224C10.558 201.548 10.225 201.818 9.89198 202.052C8.74887 203.078 6.99369 203.474 5.44554 203.141C4.25742 202.889 3.30332 202.34 2.58325 201.62C0.89108 200.297 -0.225032 198.191 0.0449952 195.77H0.0359943Z" fill="#E8E8CC"/>
<path opacity="0.46" d="M240.099 195.067C239.271 194.86 238.857 193.951 239.055 193.168C239.046 192.601 239.271 192.043 239.694 191.638C240.324 191.044 241.125 190.9 241.953 191.035C242.313 191.089 242.7 191.449 242.871 191.746C243.069 192.079 243.15 192.565 243.024 192.934C242.97 193.096 242.898 193.231 242.808 193.357C242.772 193.717 242.619 194.077 242.349 194.356C242.025 194.698 241.584 194.896 241.134 194.959C240.819 195.112 240.441 195.157 240.081 195.067H240.099Z" fill="#E8E8CC"/>
<path opacity="0.46" d="M52.0972 232.853C51.0711 230.819 48.6229 229.757 46.4177 230.639C44.9685 231.215 44.1765 232.412 43.8614 233.772C42.9613 235.752 43.4744 238.353 45.8236 239.46C46.1296 239.604 46.4267 239.703 46.7327 239.775C47.8038 240.189 49.1449 240.009 50.1621 239.37C50.9361 238.884 51.4762 238.254 51.8002 237.57C52.6643 236.211 52.9073 234.456 52.0972 232.853Z" fill="#E8E8CC"/>
<path opacity="0.46" d="M183.861 239.109C184.788 238.47 184.887 237.174 184.284 236.301C184.041 235.598 183.51 235.013 182.808 234.716C181.764 234.275 180.72 234.455 179.757 234.995C179.343 235.229 179.028 235.842 178.947 236.283C178.857 236.778 178.974 237.417 179.298 237.813C179.433 237.984 179.586 238.119 179.748 238.245C179.955 238.677 180.297 239.046 180.756 239.271C181.314 239.55 181.944 239.595 182.52 239.46C182.979 239.505 183.465 239.388 183.87 239.118L183.861 239.109Z" fill="#E8E8CC"/>
<path d="M193.288 107.561C193.435 106.886 192.472 109.584 192.331 110.165C192.144 112.462 190.505 115.053 189.187 116.308C187.567 117.844 185.593 118.766 183.492 119.133C183.205 119.193 182.91 119.233 182.623 119.253C182.623 119.253 182.609 119.253 182.603 119.253C182.495 119.26 182.388 119.273 182.288 119.273C181.291 119.347 180.281 119.307 179.27 119.146C179.009 119.106 178.775 118.993 178.574 118.839C177.571 118.425 176.908 117.47 177.377 116.121C178.039 114.198 179.919 114.399 181.545 114.165C185.011 113.671 187.688 111.187 188.778 107.961C188.397 106.906 187.909 105.904 187.213 105.023C185.714 103.127 185.245 101.47 184.356 99.2C184.095 98.5389 184.71 97.6775 185.453 97.8578C186.55 98.1249 186.53 98.6858 187.146 99.574C187.574 100.188 187.627 100.823 188.25 101.25C188.551 101.457 189.588 101.517 189.862 101.731" stroke="#161616" stroke-width="2" stroke-miterlimit="10"/>
<path d="M103.695 232.595C103.554 231.573 103.367 230.598 103.086 229.663C103.18 228.555 103.16 227.426 103.133 226.324C103.066 223.793 103.012 221.256 102.932 218.725C102.858 216.288 102.711 213.85 102.417 211.426C102.27 210.231 102.102 209.029 101.888 207.84C101.687 206.732 101.58 205.616 100.463 205.062C100.128 204.895 99.7538 204.842 99.3925 204.875C99.3523 204.875 99.3122 204.869 99.272 204.862C99.1382 204.829 99.0044 204.802 98.8572 204.788C98.3286 204.735 97.8201 204.855 97.345 205.082C96.5019 205.49 95.9466 206.324 95.9332 207.199C95.4514 208.515 96.4216 210.805 96.6424 211.92C97.0907 214.184 97.539 216.454 97.8803 218.738C98.5092 222.912 98.6163 227.192 98.3487 231.406C98.1145 231.62 97.887 231.807 97.7331 231.94C97.0305 232.548 96.2343 233.089 95.3912 233.483C93.8656 234.197 92.0122 234.224 90.8881 235.626C90.1856 236.508 90.3194 237.583 91.1692 238.164C92.3401 239.646 94.227 239.339 95.9599 239.179C97.8401 239.005 99.7805 238.631 101.4 237.603C103.313 236.388 104.003 234.812 103.695 232.588V232.595Z" stroke="#161616" stroke-width="2" stroke-miterlimit="10"/>
<path d="M143.607 232.595C143.747 231.573 143.935 230.598 144.216 229.663C144.122 228.555 144.142 227.426 144.169 226.324C144.236 223.793 144.289 221.256 144.37 218.725C144.443 216.288 144.591 213.85 144.885 211.426C145.032 210.231 145.199 209.029 145.414 207.84C145.614 206.732 145.721 205.616 146.839 205.062C147.173 204.895 147.548 204.842 147.909 204.875C147.949 204.875 147.99 204.869 148.03 204.862C148.164 204.829 148.297 204.802 148.445 204.788C148.973 204.735 149.482 204.855 149.957 205.082C150.8 205.49 151.355 206.324 151.369 207.199C151.85 208.515 150.88 210.805 150.659 211.92C150.211 214.184 149.763 216.454 149.421 218.738C148.793 222.912 148.685 227.192 148.953 231.406C149.187 231.62 149.415 231.807 149.569 231.94C150.271 232.548 151.067 233.089 151.911 233.483C153.436 234.197 155.29 234.224 156.414 235.626C157.116 236.508 156.982 237.583 156.133 238.164C154.962 239.646 153.075 239.339 151.342 239.179C149.462 239.005 147.521 238.631 145.902 237.603C143.988 236.388 143.299 234.812 143.607 232.588V232.595Z" stroke="#161616" stroke-width="2" stroke-miterlimit="10"/>
<path d="M49.1226 107.681C49.5642 108.642 50.3002 109.47 51.1834 110.051C51.2236 110.278 51.2637 110.499 51.3038 110.625C51.3641 111.22 51.4377 111.587 51.5715 112.161C51.7588 114.459 53.3981 117.049 54.7163 118.305C56.3355 119.841 58.3094 120.762 60.4104 121.13C60.6981 121.19 60.9925 121.23 61.2802 121.25C61.2802 121.25 61.2936 121.25 61.3003 121.25C61.4073 121.256 61.5144 121.27 61.6148 121.27C62.6117 121.343 63.6221 121.303 64.6324 121.143C64.8934 121.103 65.1276 120.989 65.3283 120.836C66.332 120.422 66.9944 119.467 66.526 118.118C65.8636 116.195 63.9834 116.395 62.3575 116.161C58.8915 115.667 56.2151 113.183 55.1244 109.958C55.4456 109.07 55.8404 108.222 56.3757 107.447C58.015 106.205 58.8179 104.382 57.4663 102.278" stroke="#161616" stroke-width="2" stroke-miterlimit="10"/>
<path d="M185.312 126.932C180.836 118.391 173.723 111.22 170.833 104.555C162.556 85.5103 169.669 40.7093 123.106 40.8696C76.5425 40.7093 83.6551 85.5036 75.3782 104.555C72.481 111.22 65.3684 118.391 60.8988 126.932C52.3811 143.193 50.3738 165.416 63.234 184.982C80.149 210.705 114.073 209.75 123.112 208.995C132.152 209.75 166.076 210.705 182.991 184.982C195.857 165.416 193.843 143.199 185.326 126.932H185.312Z" fill="#D3D360"/>
<path d="M192.238 140.288C191.04 135.34 189.207 130.552 186.858 126.031C184.021 120.682 180.254 115.954 176.781 111.026C174.459 107.734 172.559 104.595 171.382 100.903C169.635 95.4269 168.812 89.6773 167.795 84.0346C165.547 71.5807 162.583 57.9848 152.921 48.9899C147.441 43.8814 140.375 40.9632 133.022 39.8213C124.169 38.4457 114.474 38.6794 105.93 41.5709C99.2654 43.828 93.5311 47.8747 89.289 53.484C85.4015 58.6192 82.9793 64.736 81.2731 70.8995C79.5736 77.0297 78.5699 83.3201 77.4324 89.5705C76.4422 95.0062 75.405 100.936 72.8691 105.637C70.1793 110.625 66.4257 114.993 63.2474 119.66C60.0424 124.362 57.4529 129.397 55.5928 134.772C51.993 145.203 51.2503 156.602 53.726 167.366C56.2017 178.124 61.9293 188.428 70.2262 195.793C76.8771 201.696 84.9799 205.703 93.5177 208.087C100.503 210.03 107.796 210.952 115.043 211.052C117.412 211.085 119.787 211.032 122.155 210.865C124.103 210.731 126.076 210.999 128.03 211.039C143.246 211.366 159.391 208.154 171.89 199.092C190.143 185.85 197.457 161.844 192.258 140.295L192.238 140.288ZM177.932 188.722C167.233 201.136 150.86 206.464 134.889 207.339C130.372 207.586 125.849 207.065 121.359 207.326C115.712 207.66 109.998 207.466 104.391 206.685C96.4953 205.583 88.6734 203.353 81.6746 199.499C73.1635 194.818 66.4658 187.86 61.936 179.286C56.7236 169.41 54.8167 158.024 56.3155 146.972C57.0113 141.871 58.4031 136.822 60.4104 132.081C62.6318 126.839 65.7565 122.124 69.0954 117.537C72.0729 113.443 75.2913 109.39 77.2384 104.676C77.8607 103.173 78.3625 101.63 78.7974 100.061C80.6375 95.5404 82.7719 89.0496 83.809 81.4103C85.8364 66.4922 93.9326 49.2369 110.747 45.5108C127.569 41.7779 143.293 47.6877 150.144 52.9698C156.996 58.2519 162.449 78.1449 164.316 90.4252C165.239 96.4953 167.039 100.929 168.625 103.868C170.003 107.38 172.024 110.525 174.225 113.604C177.551 118.258 181.07 122.772 183.76 127.841C193.817 147.199 192.452 171.874 177.932 188.722Z" fill="#8F8F2D"/>
<path d="M113.772 123.687C113.772 123.687 96.9904 127.46 92.1126 143.66C87.2348 159.86 94.9362 170.805 102.102 175.673C109.268 180.541 124.691 187.165 139.311 178.938C153.931 170.712 156.507 156.401 153.403 146.271C151.262 139.293 146.431 128.795 134.795 124.254C129.529 122.198 121.62 121.41 113.772 123.7V123.687Z" fill="#D8B79F"/>
<path d="M52.2606 158.832C52.2071 158.004 52.8896 157.316 53.7193 157.35C59.8282 157.61 83.6885 157.931 115.846 149.47C149.074 140.722 172.532 119.527 177.417 114.846C177.966 114.318 178.829 114.325 179.371 114.846C182.609 118.004 192.572 129.069 193.288 146.325C193.301 146.585 193.235 146.846 193.107 147.066C191.08 150.659 172.432 180.368 105.97 190.057C74.4816 194.01 65.7699 190.278 64.3648 189.503C64.2309 189.429 64.1105 189.336 64.0034 189.222C62.7522 187.84 53.378 176.969 52.2673 158.825L52.2606 158.832Z" stroke="#161616" stroke-width="2" stroke-miterlimit="10"/>
<path d="M77.5863 184.461L77.7067 185.844L70.36 186.471L68.7073 167.226L76.0541 166.598L76.1745 167.981L70.3198 168.481L71.1294 177.924L76.0206 177.503L76.141 178.885L71.2499 179.306L71.7383 184.955L77.593 184.455L77.5863 184.461ZM92.7349 174.919C93.0427 177.537 92.4338 179.914 90.9149 181.984C89.3893 184.061 87.1612 185.289 84.2907 185.63L83.1667 185.763L80.885 166.585L82.0091 166.451C84.8595 166.111 87.3151 166.792 89.2957 168.461C91.2695 170.131 92.4271 172.301 92.7349 174.919ZM82.5109 167.814L84.4513 184.161C86.6861 183.867 88.4593 182.839 89.7172 181.116C91.0019 179.353 91.5238 177.323 91.2561 175.092C90.9885 172.862 90.0116 170.999 88.3455 169.57C86.7196 168.174 84.7591 167.58 82.5109 167.814ZM106.492 162.472L105.033 162.779L107.877 176.194C108.158 177.51 107.977 178.645 107.321 179.667C106.672 180.682 105.756 181.309 104.518 181.57C103.28 181.83 102.183 181.63 101.166 180.956C100.149 180.281 99.5196 179.319 99.2386 178.017L96.3949 164.602L94.9362 164.909L97.7866 178.345C98.1345 180.001 98.9843 181.276 100.309 182.144C101.266 182.772 102.303 183.086 103.4 183.086C103.822 183.086 104.25 183.039 104.685 182.945L104.926 182.892C106.485 182.565 107.716 181.717 108.573 180.381C109.429 179.046 109.683 177.523 109.329 175.854L106.492 162.465V162.472ZM128.833 173.61C127.682 175.006 126.25 175.961 124.591 176.441C122.349 177.096 120.155 176.842 118.081 175.693C116.006 174.545 114.621 172.822 113.959 170.572C113.303 168.321 113.544 166.131 114.682 164.054C115.819 161.977 117.532 160.595 119.773 159.941C121.439 159.46 123.152 159.493 124.879 160.054L125.481 160.248L124.992 158.572L124.805 158.525C122.965 158.064 121.138 158.091 119.385 158.605C116.756 159.366 114.748 160.989 113.404 163.413C112.065 165.837 111.771 168.388 112.534 170.999C113.015 172.655 113.912 174.118 115.183 175.333C116.455 176.555 117.974 177.403 119.686 177.864C120.516 178.084 121.353 178.198 122.182 178.198C123.072 178.198 123.955 178.071 124.832 177.817L125.093 177.744C126.853 177.229 128.365 176.288 129.596 174.932L129.723 174.792L129.235 173.123L128.833 173.61ZM135.558 152.261L152.54 167.012L151.054 167.64L145.019 162.465L136.2 166.191L135.765 174.097L134.367 174.685L135.558 152.261ZM136.755 155.273L136.26 164.662L143.901 161.436L136.762 155.273H136.755ZM161.265 150.665C162.623 152.929 163.031 155.346 162.496 157.857C161.954 160.375 160.422 162.405 157.939 163.887L156.969 164.468L147.039 147.887L148.01 147.306C150.479 145.837 152.988 145.457 155.484 146.171C157.966 146.886 159.913 148.402 161.265 150.659V150.665ZM149.027 148.348L157.491 162.478C159.411 161.296 160.609 159.64 161.051 157.557C161.506 155.42 161.144 153.356 159.993 151.427C158.836 149.497 157.183 148.201 155.075 147.573C153.021 146.959 150.987 147.22 149.033 148.348H149.027ZM182.02 142.412C181.94 145.183 180.896 147.507 178.916 149.323L178.641 149.577C176.841 151.22 174.674 152.054 172.178 152.054C171.957 152.054 171.729 152.048 171.495 152.034C168.719 151.874 166.39 150.792 164.577 148.822C162.763 146.852 161.914 144.448 162.041 141.684C162.168 138.919 163.259 136.575 165.286 134.719C167.313 132.862 169.742 131.981 172.492 132.101C175.249 132.221 177.564 133.283 179.391 135.266C181.211 137.25 182.094 139.654 182.02 142.418V142.412ZM166.216 135.741C164.49 137.323 163.56 139.32 163.466 141.684C163.372 144.048 164.122 146.118 165.708 147.847C167.293 149.57 169.301 150.505 171.676 150.619C174.051 150.732 176.126 149.991 177.845 148.415C179.571 146.839 180.488 144.836 180.582 142.472C180.675 140.101 179.913 138.024 178.327 136.301C176.741 134.579 174.74 133.644 172.379 133.53C172.225 133.524 172.071 133.517 171.917 133.517C169.749 133.517 167.835 134.265 166.216 135.741Z" fill="#161616"/>
<path d="M129.054 92.3083C127.247 96.2548 120.757 96.0478 118.877 92.2949" stroke="#161616" stroke-width="2" stroke-miterlimit="10"/>
<path d="M168.243 75.4939C166.899 73.4038 164.262 71.9681 162.128 70.8128C160.689 70.0315 158.836 68.7361 157.069 68.6292C155.825 67.1802 153.65 66.9731 151.723 66.6192C149.1 66.1317 146.444 65.7511 143.774 65.6176C141.138 65.484 138.495 65.6176 135.892 66.065C133.57 66.4723 130.185 67.1201 128.652 69.09C128.525 69.2569 128.432 69.4372 128.371 69.6309C127.281 69.0967 125.983 69.0833 124.798 69.1234C124.624 69.1234 124.33 69.1701 123.982 69.2436C123.5 69.1701 123.106 69.1301 122.891 69.1234C121.7 69.0833 120.402 69.0967 119.318 69.6309C119.258 69.4372 119.165 69.2569 119.037 69.09C117.505 67.1134 114.119 66.4656 111.798 66.065C109.195 65.6109 106.552 65.4773 103.916 65.6176C101.253 65.7578 98.5962 66.1317 95.9666 66.6192C94.0396 66.9731 91.865 67.1802 90.6205 68.6292C88.854 68.7361 87.0006 70.0315 85.562 70.8128C83.4276 71.9681 80.7913 73.4038 79.4464 75.4939C78.9379 76.2886 79.7743 77.1634 80.5973 76.9898C82.4105 76.6091 84.1703 75.4606 85.8029 74.6192C86.6527 74.1851 87.5024 73.751 88.3723 73.3504C88.6533 73.2235 88.941 73.0966 89.222 72.9698C88.6332 74.7661 88.7068 76.8228 88.7604 78.8328C88.854 82.6057 88.6868 86.6257 91.5171 89.5306C94.0128 92.0948 97.626 93.437 101.125 93.8511C104.705 94.2717 108.619 93.8978 112.005 92.6357C115.491 91.3335 117.88 88.7092 119.131 85.2368C119.773 83.4605 120.028 81.544 120.135 79.6675C120.242 77.7443 120.362 75.6008 120.068 73.6576C120.148 73.5708 120.222 73.4773 120.282 73.3571C120.496 72.9497 120.663 72.7761 121.025 72.6759C121.747 72.4622 122.597 72.5691 123.346 72.4422C123.453 72.4222 123.621 72.3888 123.821 72.342C124.049 72.3821 124.236 72.4155 124.357 72.4422C125.106 72.5691 125.956 72.4622 126.679 72.6759C127.04 72.7828 127.214 72.9564 127.421 73.3571C127.482 73.4706 127.555 73.5708 127.635 73.6576C127.341 75.6008 127.461 77.7443 127.568 79.6675C127.676 81.544 127.93 83.4605 128.572 85.2368C129.823 88.7092 132.212 91.3335 135.698 92.6357C139.084 93.9045 142.998 94.2717 146.578 93.8511C150.071 93.437 153.684 92.0948 156.186 89.5306C159.023 86.6191 158.849 82.6057 158.943 78.8328C158.996 76.8228 159.063 74.7661 158.481 72.9698C158.769 73.0966 159.05 73.2168 159.331 73.3504C160.201 73.751 161.051 74.1784 161.9 74.6192C163.533 75.4606 165.293 76.6091 167.106 76.9898C167.929 77.1634 168.765 76.2886 168.257 75.4939H168.243ZM116.401 82.3854C115.866 85.0965 114.508 87.7476 111.865 88.9028C109.335 90.0114 106.351 90.5456 103.601 90.579C100.985 90.6123 98.2817 90.0715 96.0335 88.6825C93.2099 86.9396 92.1594 84.3954 92.0925 81.17C92.0591 79.6074 92.0256 78.0315 92.0524 76.4689C92.0724 75.1534 92.1661 73.6576 93.2701 72.7761C93.5712 72.5357 93.8924 72.3287 94.2336 72.1484C94.615 71.9614 95.0098 71.7945 95.4113 71.6476C97.5256 70.9264 99.9946 70.9464 102.096 70.5524C104.036 70.4656 105.983 70.519 107.89 70.6659C109.57 70.7995 111.249 71.0199 112.902 71.3604C114.019 71.5875 115.498 71.8412 116.207 72.8295C117.01 73.9581 116.729 76.0148 116.742 77.3303C116.762 79.0131 116.729 80.7226 116.401 82.3787V82.3854ZM155.604 81.1767C155.537 84.402 154.487 86.9463 151.663 88.6892C149.421 90.0781 146.712 90.6123 144.095 90.5856C141.345 90.5522 138.361 90.018 135.832 88.9095C133.189 87.7476 131.837 85.1032 131.295 82.392C130.968 80.736 130.941 79.0265 130.954 77.3437C130.968 76.0282 130.687 73.9647 131.489 72.8429C132.199 71.8546 133.677 71.6008 134.795 71.3738C136.448 71.0332 138.12 70.8128 139.806 70.6793C141.713 70.5324 143.667 70.479 145.601 70.5658C147.695 70.9531 150.164 70.9397 152.285 71.6609C152.687 71.8078 153.081 71.9681 153.463 72.1617C153.797 72.342 154.119 72.5491 154.426 72.7895C155.53 73.6709 155.624 75.1667 155.644 76.4822C155.671 78.0448 155.644 79.6208 155.604 81.1834V81.1767Z" stroke="#161616" stroke-width="2" stroke-miterlimit="10"/>
<path d="M56.6971 66.6924C57.7008 66.1315 57.3461 64.5889 56.3559 65.1298C53.4051 66.7258 50.5748 68.5822 47.798 70.4653C46.4063 71.4069 45.0547 72.4086 43.7031 73.4035C42.4519 74.3184 41.1872 75.2332 40.1836 76.4286C39.7018 77.0028 39.3271 77.7307 38.8052 78.2583C38.745 78.3184 38.6915 78.3718 38.6513 78.4185C38.1629 78.1915 37.6477 77.684 37.1927 77.4102C35.8946 76.6155 34.5631 75.9077 33.1245 75.3935C30.602 74.4987 27.2498 73.664 24.6871 74.7792C24.4529 74.8793 24.2856 75.1064 24.212 75.3468C23.737 75.3735 22.5593 76.4286 22.0977 76.5488" stroke="#161616" stroke-width="2" stroke-miterlimit="10"/>
<path d="M22.0505 76.4087L38.8183 80.1549L57.7875 65.8779L68.2924 95.694L50.4675 107.681L31.0634 104.388C31.0634 104.388 29.7386 97.2833 29.6047 96.9294C29.4709 96.5755 22.0505 76.4087 22.0505 76.4087Z" stroke="#161616" stroke-width="2" stroke-miterlimit="10"/>
<path d="M38.8184 80.1548L50.4675 107.674" stroke="#161616" stroke-width="2" stroke-miterlimit="10"/>
<path d="M42.8932 81.33L51.5247 102.512L65.1744 94.0444L56.6968 71.0396L42.8932 81.33Z" stroke="#161616" stroke-width="2" stroke-miterlimit="10"/>
<path d="M108.506 74.873C107.723 74.1251 106.86 73.9047 106.063 74.0583C105.481 73.7311 104.739 73.691 104.049 74.2052C101.888 75.8412 101.48 78.2519 101.788 80.8028C102.069 83.14 103.427 85.3103 106.03 85.3704C111.216 85.4839 111.396 77.6442 108.499 74.873H108.506Z" fill="#161616"/>
<path d="M141.954 75.1401C141.171 74.3922 140.308 74.1718 139.512 74.3254C138.93 73.9982 138.187 73.9581 137.498 74.4723C135.337 76.1083 134.929 78.519 135.236 81.0699C135.517 83.4071 136.876 85.5774 139.479 85.6375C144.664 85.751 144.845 77.9113 141.948 75.1401H141.954Z" fill="#161616"/>
<path d="M215.395 131.754C215.041 131.513 212.946 130.098 209.902 127.367C206.429 124.261 201.719 119.453 196.895 112.756C187.821 100.155 179.926 82.3452 179.25 80.8026C179.217 80.7292 179.203 80.6557 179.21 80.5756L180.06 69.3703C180.093 68.9697 180.568 68.776 180.869 69.0431L189.407 76.6224C189.467 76.6758 189.514 76.7492 189.541 76.8227C189.869 77.7643 195.79 89.851 198.781 95.9411C199.926 98.2649 201.284 100.469 202.85 102.532C204.991 105.357 207.767 108.983 209.199 110.732L209.186 110.746C216.392 119.173 222.374 124.535 222.374 124.535C222.916 125.023 223.264 125.724 223.317 126.452C223.358 126.979 223.251 127.507 223.077 128.008C222.561 129.49 221.444 130.752 220.032 131.453C218.64 132.141 216.988 132.268 215.509 131.801L215.389 131.74L215.395 131.754Z" stroke="#161616" stroke-width="2" stroke-miterlimit="10"/>
<path d="M211.28 128.568C212.284 128.695 214.278 128.521 216.734 126.131C219.136 123.794 218.875 121.784 218.58 120.896" stroke="#161616" stroke-width="2" stroke-miterlimit="10"/>
<path d="M214.278 116.441C214.03 117.216 213.241 119.099 211.066 120.889C208.764 122.785 206.269 122.999 205.412 123.006" stroke="#161616" stroke-width="2" stroke-miterlimit="10"/>
<path d="M179.25 80.8093C179.25 80.8093 179.27 80.856 179.284 80.8827C179.926 81.1699 181.05 81.4303 181.759 80.2016C182.803 78.3986 183.405 81.2166 184.998 80.609C186.59 80.0013 185.995 77.5706 187.373 77.5172C188.116 77.4905 188.986 77.2768 189.474 76.6958" stroke="#161616" stroke-width="2" stroke-miterlimit="10"/>
<path d="M179.712 74.0178C180.789 74.2182 182.857 74.2582 184.456 72.2148" stroke="#161616" stroke-width="2" stroke-miterlimit="10"/>
<path d="M173.052 44.4435C169.969 42.1445 166.416 40.3288 162.856 38.8658C160.986 30.5712 156.142 20.069 147.367 17.6394C143.847 16.6662 139.864 16.7511 136.226 16.6858C132.041 16.6009 127.843 16.7054 123.671 17.0385C119.948 17.339 116.194 17.7831 112.575 18.7236C110.268 19.3244 107.888 20.0886 106.102 21.7475C101.891 25.6532 99.2767 31.7207 97.3667 37.1089C93.9246 37.3375 90.4174 37.9449 87.1645 39.0683C84.7981 39.8847 79.3025 42.4384 80.9453 45.8477C82.3208 48.7018 86.8515 50.1256 89.5439 51.1379C95.1437 53.2475 100.998 54.7105 106.832 55.9776C121.624 59.1779 136.702 60.7127 151.839 60.2816C157.53 60.1183 163.398 59.7853 168.887 58.1655C171.67 57.3491 174.747 56.0886 176.416 53.561C178.841 49.8905 176.025 46.6641 173.039 44.4369L173.052 44.4435Z" stroke="#161616" stroke-width="2" stroke-miterlimit="10"/>
<path d="M97.3732 37.1025C96.5388 39.3362 95.7304 40.9951 95.1372 43.3072C94.7069 44.9857 95.8152 45.4298 97.2167 45.985C103.801 48.5975 111.07 49.9821 118.006 51.223C127.458 52.9081 137.256 53.9661 146.826 52.6729C151.937 51.9806 158.098 50.6417 161.931 46.8798C163.873 44.9726 163.385 41.387 162.87 38.8594" stroke="#161616" stroke-width="2" stroke-miterlimit="10"/>
<path d="M98.2272 34.7905C104.577 37.9908 113.006 39.9371 119.961 40.8254C131.82 42.3275 144.74 42.5104 156.174 38.5068C158.013 37.8602 160.431 36.8936 162.042 35.7702" stroke="#161616" stroke-width="2" stroke-miterlimit="10"/>
</svg>
