<svg viewBox="0 0 240 240" fill="none" xmlns="http://www.w3.org/2000/svg">
<path opacity="0.46" d="M113.11 6.03486C121.878 0.023626 178.145 -18.1575 195.827 62.7786C210.061 127.949 231.781 122.846 232.359 169.824C233.029 224.798 197.37 240.291 153.998 239.463C110.615 238.635 39.2741 243.943 35.089 178.931C34.0001 123.072 57.7275 106.343 69.9995 88.4341C82.2828 70.5252 79.9917 28.7641 113.11 6.03486Z" fill="#EEEED7"/>
<path opacity="0.46" d="M116.513 14.6322C125.325 9.43764 181.355 -5.25018 196.576 68.9942C208.836 128.778 230.409 124.853 229.683 167.624C228.832 217.687 193.23 230.617 150.448 228.439C107.666 226.262 37.1192 228.757 34.7827 169.438C35.2364 118.558 59.1112 104.109 71.7234 88.2074C84.3243 72.306 83.2242 34.2198 116.524 14.6209L116.513 14.6322Z" fill="#E8E8CC"/>
<path opacity="0.46" d="M221.056 81.4478C221.567 76.7223 225.477 72.8809 230.288 73.0028C233.446 73.0943 235.792 74.8626 237.325 77.3015C240.393 80.5332 241.265 86.0209 237.566 89.8622C237.085 90.35 236.574 90.7769 236.062 91.1427C234.318 92.728 231.642 93.3378 229.296 92.8195C227.492 92.4232 226.048 91.5696 224.936 90.472C222.349 88.4294 220.665 85.1672 221.056 81.4478Z" fill="#E8E8CC"/>
<path opacity="0.46" d="M238.865 212.738C236.52 208.119 230.898 205.697 225.831 207.719C222.503 209.043 220.688 211.764 219.957 214.835C217.889 219.33 219.074 225.247 224.47 227.769C225.175 228.093 225.856 228.318 226.562 228.493C229.033 229.442 232.083 229.017 234.428 227.569C236.218 226.47 237.428 225.047 238.184 223.474C240.151 220.378 240.731 216.408 238.865 212.738Z" fill="#E8E8CC"/>
<path opacity="0.46" d="M18.9388 224.451C22.4698 222.056 22.8482 217.183 20.5782 213.88C19.6534 211.237 17.6357 209.049 14.9033 207.934C10.9099 206.282 6.91645 206.943 3.21727 208.966C1.61989 209.833 0.400845 212.146 0.106592 213.797C-0.229697 215.656 0.232701 218.051 1.45175 219.579C1.95618 220.239 2.54469 220.735 3.17523 221.189C3.97392 222.799 5.27704 224.203 7.04256 225.029C9.1864 226.062 11.5825 226.227 13.7683 225.731C15.5339 225.896 17.3835 225.484 18.9388 224.451Z" fill="#E8E8CC"/>
<path d="M210.808 142.26C210.792 144.294 210.705 146.337 210.498 148.363C210.347 149.833 209.997 151.16 209.608 152.575C209.171 154.164 209.012 155.817 208.75 157.439C208.615 158.281 208.527 160.419 207.74 160.943C207.168 161.325 205.833 161.261 205.166 161.356C202.281 161.77 199.388 162.143 196.495 162.485C195.446 162.612 194.302 162.866 193.245 162.755C191.91 162.612 190.575 161.913 189.407 161.229C190.027 158.527 190.352 155.746 190.503 152.98C190.678 149.801 190.853 146.424 190.352 143.245C190.416 143.261 190.48 143.277 190.559 143.285M221.131 137.19C220.368 135.544 220.305 133.47 220.178 131.69C219.995 129.155 219.963 126.612 219.963 124.069C219.963 118.895 220.432 113.698 219.375 108.596C218.858 106.101 218.064 103.542 216.673 101.388C215.417 99.4412 213.78 98.4398 211.658 97.5895C207.256 95.8253 202.519 95.3802 197.966 94.1723C197.568 94.069 197.171 93.9498 196.766 93.8465C196.853 92.0504 196.948 90.2465 197.036 88.4504C197.068 87.8782 197.274 87.0359 197.115 86.4796C196.917 85.7564 195.844 85.2955 195.256 84.922C194.143 84.2226 192.887 83.4438 191.568 83.2213C190.527 83.0385 189.399 83.1418 188.35 83.1736C186.919 83.2213 185.481 83.3008 184.05 83.4438C183.184 83.5312 182.095 83.5233 181.293 83.8968C180.387 84.318 180.236 85.51 180.021 86.4001C179.807 87.2743 179.624 88.1564 179.457 89.0385C178.781 88.8637 177.931 88.6491 177.375 89.0147C177.335 89.0147 177.287 89.0306 177.248 89.0385C174.57 89.8729 174.697 93.9259 174.49 96.1908C174.172 99.7034 174.188 103.24 174.522 106.744C175.189 113.65 177.065 120.413 180.101 126.644C181.65 129.823 183.581 132.715 185.497 135.672C187.69 139.057 188.962 142.299 189.081 146.376C189.28 153.441 188.898 161.015 185.687 167.444C183.899 171.028 180.856 173.786 179.163 177.401C178.249 179.356 177.605 181.407 176.532 183.29C175.666 184.8 174.625 186.183 173.449 187.446C173.203 187.542 173.012 187.748 172.94 187.987C172.845 188.082 172.75 188.186 172.654 188.281C171.971 188.956 173.028 190.013 173.711 189.338C173.799 189.25 173.886 189.155 173.974 189.06C180.053 191.714 187.213 193.979 193.833 193.137C198.156 192.588 202.241 190.824 206.032 188.726C206.922 188.233 208.05 187.772 208.821 187.097C209.656 186.366 210.109 185.134 210.522 184.14C211.229 182.448 211.809 180.691 212.318 178.927C212.572 178.037 213.049 176.901 213.049 175.923C213.915 175.534 214.781 175.144 215.656 174.771C216.8 174.27 217.332 173.976 217.507 172.601C217.897 169.566 217.364 166.315 217.07 163.295C216.84 160.888 216.856 158.488 216.959 156.072C217.126 152.122 217.452 148.172 217.897 144.239C219.144 143.372 220.36 142.315 221.155 141.036C222.053 139.582 221.799 138.628 221.139 137.197L221.131 137.19Z" stroke="#161616" stroke-width="2" stroke-miterlimit="10"/>
<path d="M197.966 94.1724C197.568 94.0691 197.171 93.9499 196.766 93.8466L179.465 89.0387C178.789 88.8638 177.939 88.6493 177.383 89.0148C177.343 89.0148 177.295 89.0307 177.256 89.0387C174.578 89.8731 174.705 93.9261 174.498 96.191C174.18 99.7036 174.196 103.24 174.53 106.745C175.197 113.651 177.073 120.414 180.109 126.644C181.658 129.823 183.589 132.715 185.505 135.672C187.698 139.057 188.97 142.3 189.089 146.376C189.287 153.441 188.906 161.015 185.695 167.444C183.907 171.028 180.864 173.786 179.171 177.402C178.67 178.474 178.241 179.579 177.788 180.668C178.257 180.843 178.718 181.049 179.163 181.288C179.187 181.224 179.219 181.168 179.25 181.105C179.592 180.278 179.918 179.452 180.283 178.641C185.354 179.968 190.885 180.024 196.09 180.048C198.323 180.056 200.596 180.119 202.789 179.651C205.309 179.118 207.74 178.172 210.117 177.195C210.562 177.012 210.999 176.821 211.436 176.639C211.976 176.4 212.588 176.09 213.041 175.931" stroke="#161616" stroke-width="2" stroke-miterlimit="10"/>
<path d="M217.714 144.787C217.642 144.842 217.563 144.874 217.483 144.906C217.364 144.803 217.174 144.691 217.078 144.612C216.037 143.785 215.123 142.649 214.011 141.926C214.011 141.926 214.003 141.926 213.995 141.926C213.844 141.783 213.621 141.719 213.415 141.727C212.85 141.648 212.215 141.815 211.674 141.862C209.783 142.029 207.899 142.18 206.008 142.315C201.518 142.641 196.972 142.999 192.466 142.792C192.276 142.784 192.125 142.84 192.005 142.927M217.499 144.922C217.785 144.882 217.69 145.136 217.555 144.978C217.539 144.962 217.515 144.946 217.499 144.922Z" stroke="#161616" stroke-width="2" stroke-miterlimit="10"/>
<path d="M192.371 142.26C193.086 132.397 193.952 117.576 192.617 107.754C192.101 103.963 191.028 100.14 188.334 97.2953C185.584 94.3946 181.746 92.8688 178.106 91.4304C177.2 91.0728 176.803 92.535 177.701 92.8926" stroke="#161616" stroke-width="2" stroke-miterlimit="10"/>
<path d="M189.129 176.488C189.129 176.488 198.864 176.646 200.604 176.646C202.344 176.646 214.607 171.425 214.607 171.425" stroke="#161616" stroke-width="2" stroke-miterlimit="10" stroke-linecap="round"/>
<path d="M189.931 94.2437C192.045 95.8569 194.628 98.7099 195.55 103.367C197.211 111.751 197.37 118.562 197.29 122.281C197.211 126 196.575 139.923 196.575 139.923" stroke="#161616" stroke-width="2" stroke-miterlimit="10" stroke-linecap="round"/>
<path d="M196.543 158.623C196.543 158.623 205.428 157.812 205.778 157.582C206.127 157.351 206.127 153.831 206.588 152.448C207.049 151.065 207.224 149.507 207.335 148.522C207.446 147.537 207.51 145.518 207.51 145.518" stroke="#161616" stroke-width="2" stroke-miterlimit="10" stroke-linecap="round"/>
<path d="M182.246 188.353C182.461 188.353 188.056 190.729 192.649 190.172C197.242 189.616 205.277 186.056 206.207 184.872C207.136 183.688 208.36 178.228 208.36 178.228" stroke="#161616" stroke-width="1.99" stroke-miterlimit="10" stroke-linecap="round"/>
<path d="M58.8212 111.6C58.7735 112.864 59.0835 114.183 59.2821 115.375C60.0133 119.801 61.4199 124.141 63.1046 128.289C63.8517 130.117 66.6649 129.568 66.4742 127.828C66.9987 127.383 67.2768 126.652 66.8715 125.881C65.7192 123.664 64.8212 121.335 64.0901 118.943C63.8676 118.22 63.6212 117.441 63.3907 116.631C63.3351 116.344 63.2795 116.058 63.2239 115.772C63.0411 114.827 62.755 113.793 62.6358 112.784C62.604 112.323 62.6119 111.87 62.6517 111.433C62.7391 110.559 63.1285 109.756 63.4305 108.946" stroke="#161616" stroke-width="2" stroke-miterlimit="10"/>
<path d="M64.559 105.806C65.8941 105.751 67.2292 105.655 68.5563 105.52C69.8596 105.385 73.7537 105.353 74.0159 103.534C74.1192 102.818 73.6265 101.928 73.3643 101.292C72.7762 99.8938 72.0848 98.5428 71.3855 97.1918C69.804 94.1401 68.1192 91.1441 66.4265 88.156C64.8927 85.454 63.7802 82.6249 62.7391 79.7004C62.159 78.0792 61.6106 76.4501 61.0305 74.8368C60.7444 74.0421 60.5219 72.9136 59.9894 72.2302C59.1153 71.1017 57.8994 72.2779 57.1921 72.9772C55.9285 74.2249 54.6729 75.1786 53.0994 76.0209C51.5179 76.8713 49.5947 77.8646 47.751 77.8487C46.249 77.8329 44.8345 77.8408 43.3404 78.0474C41.751 78.262 40.1696 78.556 38.604 78.8819C37.8808 79.0329 37.5947 79.1203 37.1417 79.1282C34.6146 79.1918 32.0795 79.168 29.5523 79.2554C28.1219 79.3031 26.6914 79.3587 25.2609 79.4858C24.5457 79.5494 23.5603 79.5335 22.9086 79.8991C21.2557 80.8368 22.2649 83.9997 22.6305 85.3428C24.5378 92.3997 28.2967 98.964 31.7934 105.33C34.71 110.63 37.7139 115.891 40.7576 121.12C40.9404 121.438 41.1311 121.756 41.3139 122.082" stroke="#161616" stroke-width="2" stroke-miterlimit="10"/>
<path d="M41.2662 121.947C41.608 122.805 42.2755 123.624 43.245 123.743C44.1907 123.854 45.0331 123.203 45.7722 122.71C48.3788 120.962 50.8662 118.991 53.2821 116.98C55.0464 115.518 56.5007 113.92 58.0265 112.212C58.8768 111.258 59.5285 110.678 60.3788 109.732" stroke="#161616" stroke-width="2" stroke-miterlimit="10"/>
<path d="M63.5576 103.629C64.5431 103.525 67.4914 103.502 67.6901 102.119C67.7696 101.578 67.396 100.903 67.1974 100.426C66.7523 99.3692 66.2278 98.344 65.7033 97.3268C64.5033 95.0222 63.2318 92.7493 61.9523 90.4924C60.7921 88.45 59.9497 86.3122 59.1629 84.095C58.7258 82.8712 58.3047 81.6394 57.8676 80.4076C57.653 79.8036 57.4782 78.9533 57.0808 78.4367C56.4212 77.5864 55.4994 78.4765 54.9669 79.001C54.0053 79.9467 53.0596 80.6619 51.8676 81.3056C50.6676 81.9493 49.2133 82.7043 47.8225 82.6884C46.6861 82.6725 45.6212 82.6884 44.4848 82.8394C43.2848 83.0063 42.0848 83.2288 40.9007 83.4751C40.3523 83.5864 40.1378 83.6579 39.7961 83.6659C37.8808 83.7136 35.9656 83.6977 34.0504 83.7612C32.9696 83.793 31.8808 83.8407 30.8 83.9361C30.2596 83.9838 29.5126 83.9679 29.0199 84.254C27.7722 84.9692 28.5351 87.3612 28.8053 88.3785C30.2437 93.7189 33.0888 98.6857 35.7431 103.502C37.9523 107.515 40.2252 111.496 42.5298 115.454C42.6729 115.692 42.808 115.939 42.951 116.177" stroke="#161616" stroke-width="2" stroke-miterlimit="10"/>
<path d="M42.9113 116.066C43.1735 116.71 43.6742 117.338 44.4053 117.425C45.1206 117.512 45.7563 117.02 46.3206 116.638C48.2914 115.311 50.1749 113.825 52.0027 112.307C53.3378 111.194 54.4424 109.994 55.5947 108.699C56.4053 107.785 57.2239 106.879 58.0424 105.965C58.4318 105.536 58.9086 105.099 59.3139 104.638" stroke="#161616" stroke-width="2" stroke-miterlimit="10"/>
<path d="M87.3272 190.927C83.1947 191.428 78.4901 192.397 75.049 194.885C73.3484 196.108 71.9815 197.777 70.8053 199.589C70.3921 200.058 69.9788 200.535 69.5735 201.004C69.0331 200.662 68.6755 200.447 68.6755 200.447C67.563 200.885 60.5855 209.873 60.5855 209.873C60.5855 209.873 59.6557 209.658 58.9961 209.118C58.3365 208.577 58.4239 205.454 55.9524 203.753C53.4729 202.045 48.9033 202.935 49.0941 204.914C49.2769 206.892 53.7192 214.291 54.204 215.014C54.6888 215.738 56.151 215.928 56.151 215.928C56.151 215.928 56.159 217.915 56.0636 218.233C55.9682 218.551 58.3047 222.961 59.2106 222.461C60.1166 221.96 61.8411 220.021 62.7471 218.71C63.653 217.398 73.1894 206.177 73.5073 206.098C74.8265 205.748 74.3179 204.779 73.2451 203.745C74.6278 202.029 76.0265 200.328 77.751 198.961C79.102 197.889 80.5802 197.038 82.2014 196.53C84.1007 195.934 86.9855 195.504 88.9086 194.988C90.8875 194.463 89.4888 190.673 87.3272 190.935V190.927Z" stroke="#161616" stroke-width="2" stroke-miterlimit="10"/>
<path d="M160.44 233.38C159.725 231.957 154.503 218.185 154.583 217.867C154.893 216.636 153.963 216.524 152.675 216.882C152.286 215.992 151.952 215.213 151.698 214.617C150.943 212.885 150.132 211.144 149.242 209.467C148.328 207.759 144.363 200.122 142.909 198.818C142.265 198.238 140.874 198.572 140.993 199.613C141.041 200.018 141.121 200.416 141.216 200.805C141.081 200.694 140.954 200.591 140.811 200.487C140.008 199.923 138.959 200.853 139.205 201.727C139.658 203.356 143.56 209.388 144.426 210.826C145.324 212.312 146.914 215.396 147.748 216.922C148.09 217.549 148.344 218.114 148.575 218.67C147.82 219.075 147.311 219.377 147.311 219.377C147.152 220.561 151.666 231.012 151.666 231.012C151.666 231.012 151.03 231.727 150.244 232.037C149.457 232.347 146.763 230.773 144.069 232.116C141.375 233.459 139.952 237.894 141.772 238.681C143.592 239.475 152.215 239.157 153.089 239.078C153.963 238.998 154.829 237.814 154.829 237.814C154.829 237.814 156.57 238.76 156.808 238.998C157.046 239.237 162.029 239.316 162.029 238.283C162.029 237.25 161.155 234.802 160.448 233.38H160.44Z" stroke="#161616" stroke-width="2" stroke-miterlimit="10"/>
<path d="M167.687 38.1933C167.576 33.282 167.163 28.3787 166.217 23.5628C165.279 18.8105 163.793 14.0184 161.139 9.91778C157.595 4.43434 152.032 1.06481 145.483 0.810501C140.588 0.619772 135.717 1.96282 131.266 3.90189C129.136 4.83169 127.086 5.68202 124.694 5.56282C121.793 5.41977 119.139 3.99726 116.238 3.886C111.192 3.69527 107.06 7.486 104.874 11.69C102.538 16.18 101.584 21.3138 101.068 26.3125C100.901 27.9257 100.781 29.5549 100.718 31.184" stroke="#161616" stroke-width="2" stroke-miterlimit="10"/>
<path d="M166.861 27.3851C153.852 21.2738 142.623 21.6156 128.453 21.9096C118.646 22.1162 110.922 22.4023 101.298 24.4209" stroke="#161616" stroke-width="2" stroke-miterlimit="10"/>
<path d="M98.8742 62.1614C97.9762 62.0343 97.0861 61.772 96.2199 61.5257C88.8848 59.4594 79.2848 55.4939 76.6464 47.6263C74.8345 42.2065 78.204 37.5733 82.8292 35.0144C86.5484 32.9561 90.7921 31.9151 94.9563 31.2793C100.996 30.3495 107.147 30.2541 113.242 30.5323C126.379 31.1363 139.587 32.6859 152.556 34.8316C162.959 36.5482 173.91 38.527 183.47 43.168C186.323 44.5508 189.399 46.3469 191.139 49.0965C192.959 51.9733 192.578 55.8594 190.996 58.7522C188.747 62.8369 184.336 65.3641 180.172 67.0886C174.895 69.2661 169.181 70.4025 163.507 70.8873C155.56 71.5707 147.494 70.3707 139.642 69.274C125.989 67.3747 112.384 64.927 98.8742 62.1773" stroke="#161616" stroke-width="2" stroke-miterlimit="10"/>
<path d="M110.509 46.3151C110.509 46.3151 93.7722 49.1601 87.3669 81.2104C80.9537 113.261 53.8941 127.144 63.51 160.975C73.1259 194.805 114.427 213.679 162.506 195.87C200.254 179.134 194.556 144.596 186.363 122.869C178.17 101.15 175.325 81.2104 172.829 68.7416C170.334 56.2806 148.138 34.2038 110.517 46.3071L110.509 46.3151Z" fill="#D3D360"/>
<path d="M194.064 143.738C193.221 137.261 191.624 130.919 189.454 124.76C187.738 119.857 185.91 115.017 184.4 110.042C182.763 104.646 181.34 99.1867 180.085 93.6874C178.13 85.1046 176.898 76.3708 174.943 67.796C173.823 62.9007 170.739 58.4583 167.33 54.8662C156.625 43.5894 140.445 39.2742 125.282 40.8556C120.045 41.404 114.919 42.5245 109.905 44.1218C107.997 44.4556 106.09 45.4728 104.461 46.4742C99.9232 49.2636 96.3153 53.396 93.5338 57.894C91.4119 61.3192 89.751 65.0305 88.3841 68.8212C86.6596 73.6132 85.7378 78.5404 84.5298 83.4675C82.4557 91.9311 78.649 99.7112 74.3497 107.245C70.4159 114.151 66.1802 120.89 63.1285 128.257C60.0133 135.783 58.5669 143.897 59.449 152.026C61.2053 168.27 69.9788 182.718 83.2186 192.175C97.1735 202.14 114.879 205.828 131.799 204.819C142.146 204.199 152.366 201.942 162.109 198.429C170.31 195.473 178.257 189.973 183.883 183.322C193.237 172.268 195.891 157.828 194.056 143.738H194.064ZM94.6305 193.621C81.5974 187.335 70.9961 176.472 66.3868 162.612C63.8119 154.864 62.906 146.559 64.6305 138.532C66.204 131.229 69.6212 124.585 73.3007 118.148C77.2504 111.226 81.4543 104.44 84.6331 97.1126C86.3497 93.147 87.8199 89.0861 88.861 84.8901C90.053 80.1139 90.9192 75.3139 92.5484 70.641C94.6941 64.4901 97.7934 58.4424 102.442 53.841C103.221 53.0702 104.048 52.3311 104.914 51.6556C104.898 51.6715 105.597 51.1629 105.74 51.0596C106.114 50.7973 106.503 50.551 106.893 50.3126C107.513 49.9391 108.148 49.6053 108.8 49.2874C108.927 49.2238 109.054 49.1682 109.189 49.1126C109.42 49.0252 109.642 48.9377 109.873 48.8583C110.143 48.7629 110.421 48.6755 110.699 48.604C110.834 48.5881 110.97 48.5563 111.113 48.5086C111.327 48.4689 111.518 48.4053 111.693 48.3338C123.017 44.8291 135.335 43.8834 146.509 47.3563C152.183 51.0675 160.789 60.0636 163.563 81.2185C167.838 113.738 171.16 116.114 175.436 128.694C179.552 140.813 190.154 182.758 152.143 196.824C149.743 197.483 147.319 198.064 144.88 198.556C128.215 201.918 110.119 201.099 94.6305 193.629V193.621Z" fill="#8F8F2D"/>
<path d="M125.584 110.781C125.584 110.781 150.037 115.597 152.366 143.46C154.694 171.322 128.262 185.674 106.909 179.499C85.555 173.324 81.0252 151.526 83.6159 140.336C86.8106 126.517 97.7298 105.989 125.584 110.781Z" fill="#D8B79F"/>
<path d="M135.303 69.3457C136.066 68.7338 136.861 68.6146 137.56 68.8212C138.109 68.5748 138.784 68.5987 139.348 69.1232C141.144 70.7762 141.311 72.9775 140.819 75.2424C140.366 77.3166 138.975 79.1523 136.63 78.9854C131.974 78.6517 132.474 71.5947 135.303 69.3457Z" fill="#161616"/>
<path d="M105.303 66.7866C106.066 66.1747 106.861 66.0555 107.56 66.2621C108.109 66.0158 108.784 66.0396 109.348 66.5641C111.144 68.2171 111.311 70.4184 110.819 72.6833C110.366 74.7575 108.975 76.5932 106.63 76.4264C101.974 76.0926 102.474 69.0356 105.303 66.7866Z" fill="#161616"/>
<path d="M177.828 79.6688C176.755 77.5946 161.06 68.1615 159.168 66.898C157.897 66.0397 156.268 64.6648 154.63 64.4105C153.597 62.9403 151.579 62.5589 149.815 62.0582C147.407 61.3748 144.959 60.7867 142.472 60.4211C140.016 60.0635 137.536 59.9602 135.065 60.1509C132.864 60.3258 129.637 60.6357 128.032 62.3523C127.897 62.4953 127.793 62.6622 127.722 62.837C126.752 62.241 125.536 62.1138 124.424 62.0503C124.225 62.0344 123.852 62.0423 123.391 62.0662C123.065 61.9708 122.803 61.9072 122.636 61.8834C121.531 61.7403 120.315 61.645 119.25 62.0503C119.211 61.8675 119.139 61.6847 119.036 61.5178C117.772 59.5311 114.665 58.6331 112.535 58.0529C110.143 57.4013 107.687 57.0436 105.208 56.9403C102.705 56.837 100.185 56.9562 97.6901 57.1867C95.8861 57.3536 93.8755 57.3536 92.5881 58.5456C91.4676 59.9761 90.9351 61.9629 90.7921 62.5668C90.808 62.5668 90.8239 62.5589 90.8398 62.5509C90.1325 64.1801 90.0212 66.1191 89.8941 68.0026C89.6556 71.547 89.1391 75.29 91.5391 78.2622C93.6451 80.8847 96.9113 82.4582 100.138 83.1417C103.444 83.8489 107.139 83.841 110.413 82.9509C113.783 82.037 116.246 79.788 117.717 76.641C118.472 75.0357 118.877 73.2635 119.139 71.5152C119.409 69.7191 119.703 67.7244 119.608 65.8807C119.687 65.8092 119.767 65.7218 119.83 65.6185C120.061 65.2529 120.244 65.1099 120.585 65.0463C121.277 64.9112 122.064 65.086 122.771 65.0304C122.89 65.0225 123.065 65.0066 123.279 64.9827C123.462 65.0463 123.613 65.086 123.709 65.1178C124.4 65.3006 125.203 65.2768 125.854 65.539C126.18 65.6662 126.331 65.8489 126.49 66.2463C126.538 66.3576 126.593 66.4609 126.665 66.5483C126.22 68.3443 126.14 70.3629 126.077 72.1748C126.013 73.939 126.077 75.7589 126.522 77.4754C127.388 80.837 129.391 83.5072 132.53 85.033C135.581 86.5191 139.205 87.2026 142.591 87.1231C145.897 87.0436 149.385 86.0979 151.944 83.9205C154.845 81.441 155.036 77.6662 155.457 74.1377C155.679 72.2622 155.926 70.339 155.536 68.6066C155.791 68.7496 156.045 68.8927 156.299 69.0357C157.078 69.4887 157.833 69.9655 158.588 70.4423C160.042 71.3721 174.943 80.4556 176.604 80.9721C177.359 81.2026 178.217 80.4635 177.812 79.6688H177.828ZM116.167 69.0436C116.04 70.6251 115.857 72.2145 115.404 73.7403C114.665 76.2357 113.163 78.596 110.596 79.4542C108.132 80.2728 105.295 80.5112 102.721 80.3046C100.273 80.1059 97.7934 79.3668 95.8146 77.8728C93.3272 75.9893 92.5643 73.5178 92.7868 70.49C92.8901 69.0198 93.0013 67.5417 93.1603 66.0794C93.2954 64.8476 93.5179 63.4569 94.6225 62.7258C94.9245 62.5271 95.2424 62.3602 95.5762 62.2172C95.9497 62.0741 96.3311 61.9549 96.7205 61.8516C98.7629 61.3668 101.068 61.5973 103.062 61.4145C104.882 61.5019 106.702 61.7244 108.474 62.0264C110.032 62.2966 111.581 62.6463 113.099 63.1152C114.125 63.4251 115.483 63.7907 116.056 64.784C116.707 65.9046 116.262 67.8119 116.159 69.0436H116.167ZM152.604 71.6264C152.493 73.0887 152.326 74.5668 152.159 76.0291C151.809 79.041 150.609 81.3377 147.812 82.7205C145.595 83.8251 143.02 84.0953 140.572 83.833C138.005 83.5628 135.264 82.7999 132.991 81.5364C130.623 80.2172 129.589 77.6185 129.319 75.0357C129.16 73.4542 129.279 71.8569 129.446 70.2754C129.574 69.0436 129.494 67.0887 130.344 66.1032C131.091 65.237 132.498 65.1337 133.563 65.0145C135.136 64.8397 136.726 64.7761 138.307 64.7999C140.103 64.8238 141.931 64.9509 143.735 65.1973C145.658 65.7456 147.971 65.9443 149.886 66.8026C150.244 66.9695 150.601 67.1602 150.943 67.3748C151.245 67.5734 151.523 67.796 151.785 68.0503C152.739 68.9721 152.699 70.3867 152.604 71.6185V71.6264Z" stroke="#161616" stroke-width="2" stroke-miterlimit="10"/>
<path d="M126.299 88.5219C123.78 92.5749 116.755 91.4385 115.229 87.0835" stroke="#161616" stroke-width="2" stroke-miterlimit="10"/>
<path d="M64.1298 104.813C63.351 103.152 61.4755 101.722 59.5841 102.262C58.9484 102.445 58.5749 103.112 58.7417 103.748C59.0278 104.853 59.6159 105.671 60.4186 106.45C60.8398 106.855 60.8636 107.014 60.7682 107.61C60.5696 107.984 60.3709 108.365 60.2994 108.763C60.2517 109.009 60.0848 109.271 60.1563 109.486C60.1245 109.987 60.7762 110.36 61.2609 110.392C61.6662 110.519 62.1272 110.44 62.5166 110.058C63.8358 108.755 64.9881 106.641 64.1298 104.813Z" stroke="#161616" stroke-width="2" stroke-miterlimit="10"/>
<path d="M162.347 142.172C162.951 139.311 164.008 136.593 165.16 133.764C166.909 129.481 168.959 125.372 171.876 121.756C177.009 115.391 184.813 110.185 192.371 107.165M187.348 96.3574C177.748 99.5442 169.142 107.896 164.079 116.511C159.883 123.647 157.293 131.69 156.657 139.923" stroke="#161616" stroke-width="2" stroke-miterlimit="10"/>
<path d="M162.061 154.895C162.919 159.298 165.526 170.074 171.399 176.32C178.694 184.061 185.401 180.731 185.465 180.699L187.507 179.642M182.699 188.32C182.389 188.527 180.403 188.527 179.91 188.527C178.527 188.527 176.588 187.812 174.967 186.993C165.987 182.44 156.109 171.155 155.234 151.335" stroke="#161616" stroke-width="2" stroke-miterlimit="10"/>
<path d="M185.036 130.8C184.535 129.282 182.366 129.568 182.27 131.173C182.024 135.488 180.808 139.255 178.472 142.895C176.246 146.368 173.592 149.69 169.221 150.079C168.172 150.175 167.115 150.159 166.066 150.135C165.295 150.119 164.58 150.326 164.199 149.571C163.762 148.696 164.048 147.29 163.936 146.336C163.841 145.502 163.611 144.715 163.221 143.968C161.687 141.051 158.246 139.518 155.068 140.32C153.613 140.686 153.645 142.474 154.686 143.245C154.917 143.412 155.147 143.571 155.378 143.729C154.249 144.532 153.597 145.772 154.003 147.568C154.034 147.695 154.082 147.814 154.146 147.926C153.987 148.212 153.876 148.537 153.844 148.903C153.677 150.794 155.25 151.549 156.935 151.812C158.095 154.235 160.996 155.165 163.507 154.053C163.603 154.013 163.682 153.965 163.762 153.91C164.485 154.1 165.264 154.172 166.066 154.188C168.395 154.235 170.842 154.188 173.052 153.377C177.311 151.82 180.283 147.79 182.509 144.024C184.797 140.153 186.498 135.226 185.028 130.784L185.036 130.8Z" stroke="#161616" stroke-width="2" stroke-miterlimit="10"/>
</svg>
