<svg width="1530" height="878" viewBox="0 0 1530 878" fill="none" xmlns="http://www.w3.org/2000/svg">
<g opacity="0.2" clip-path="url(#clip0_233_5229)">
<path d="M1236.06 227.72C1228.87 193.4 1210.68 159.57 1178.79 142.52C1161.38 133.21 1138.11 136.11 1119.93 142.24C1105.41 147.14 1091.83 157.18 1080.02 166.71C1048.38 192.24 1019.26 220.93 993.19 252.12C968.59 281.56 946.14 313.99 935.31 351.21C925.46 385.04 926.38 423.3 943.17 454.83C960.03 486.49 991.94 505.14 1024.63 517.02C1059.73 529.78 1100.72 540.34 1137.67 529.5C1170.37 519.91 1193.38 493.38 1207.83 463.57C1224.48 429.21 1232.73 390.63 1237.66 353C1243.03 312.02 1244.59 268.4 1236.07 227.73L1236.06 227.72ZM1229.71 321.55C1227.29 359.71 1220.56 398.37 1207.96 434.54C1198.23 462.46 1183.18 491.26 1157.9 508.06C1126.76 528.74 1088.13 524.21 1053.93 514.78C1022.41 506.09 989.48 493.75 966.78 469.19C943.97 444.51 936.99 409.58 941.09 376.95C945.53 341.63 963.37 309.41 984.18 281.16C1006.27 251.17 1032.19 223.68 1059.69 198.62C1072.95 186.54 1086.55 174.28 1101.57 164.41C1112.1 157.49 1123.52 151.31 1135.96 148.73C1148.84 146.06 1164.68 146.65 1176.19 153.63C1194.07 164.47 1207.64 181.45 1216.04 200.46C1217.06 202.76 1218 205.1 1218.87 207.46C1232.07 243.32 1232.09 283.88 1229.7 321.54L1229.71 321.55Z" fill="#8F8F2D"/>
<path d="M1123.38 324.04C1095.21 305.09 1056.71 304.92 1029.34 325.41C1014.38 336.61 1003.03 352.5 998.09 370.6C992.38 391.48 995.85 414.09 1006.47 432.81C1006.95 433.66 1007.55 434.28 1008.2 434.71C1023.79 458.83 1051.5 474.78 1080.79 473.24C1114.68 471.46 1146.12 447.85 1155.64 415C1165.38 381.4 1152.53 343.64 1123.39 324.04H1123.38ZM1147.43 400.22C1144.23 429.91 1121.02 453.87 1092.31 460.58C1059.96 468.14 1024.88 449.47 1012.02 418.98C1011.92 418.75 1011.81 418.53 1011.69 418.32C1001.14 391.88 1007.17 361.56 1027.86 341.09C1048.76 320.41 1080.34 315.09 1107.03 327.45C1135 340.4 1150.72 369.7 1147.43 400.22Z" fill="#8F8F2D"/>
<path d="M598.05 59.9894C633.1 59.0794 669.65 47.2694 692.16 18.9694C704.45 3.51942 705.78 -19.8905 703.01 -38.8905C700.8 -54.0605 693.36 -69.2205 686.11 -82.5405C666.69 -118.251 643.7 -152.061 617.7 -183.311C593.17 -212.801 565.3 -240.711 530.63 -258.061C499.12 -273.831 461.32 -279.801 427.28 -268.951C393.11 -258.061 369.03 -230.021 351.46 -200.001C332.6 -167.771 314.84 -129.341 318.86 -91.0505C322.42 -57.1505 344.38 -29.7506 371.11 -10.1906C401.92 12.3594 438.38 27.4095 474.52 39.0295C513.87 51.6795 556.5 61.0594 598.04 59.9794L598.05 59.9894ZM506.89 36.8795C469.79 27.6395 432.96 14.0794 399.65 -4.82056C373.93 -19.4106 348.3 -39.3906 336.33 -67.2806C321.58 -101.631 332.99 -138.811 348.41 -170.771C362.62 -200.211 380.68 -230.391 408.92 -248.311C437.3 -266.311 472.92 -266.901 504.28 -257.001C538.23 -246.291 566.71 -222.951 590.76 -197.391C616.29 -170.271 638.67 -139.831 658.39 -108.271C667.89 -93.0606 677.5 -77.4705 684.51 -60.9305C689.42 -49.3305 693.45 -36.9805 693.75 -24.2905C694.07 -11.1405 690.63 4.32948 681.7 14.3995C667.82 30.0395 648.68 40.3395 628.47 45.1895C626.02 45.7795 623.55 46.2894 621.07 46.7194C583.43 53.2594 543.52 45.9894 506.9 36.8694L506.89 36.8795Z" fill="#8F8F2D"/>
<path d="M1377.58 756.27C1342.61 758.87 1306.68 772.43 1285.56 801.78C1274.03 817.81 1273.83 841.26 1277.51 860.09C1280.45 875.13 1288.61 889.92 1296.49 902.88C1317.61 937.61 1342.21 970.27 1369.68 1000.23C1395.61 1028.5 1424.79 1055.04 1460.26 1070.69C1492.5 1084.92 1530.54 1089.06 1564.01 1076.58C1597.62 1064.05 1620.32 1034.88 1636.42 1004.05C1653.71 970.94 1669.59 931.7 1663.72 893.65C1658.53 859.97 1635.27 833.66 1607.63 815.4C1575.77 794.36 1538.62 781.08 1501.97 771.22C1462.06 760.48 1419.03 753.17 1377.58 756.25V756.27ZM1469.75 774.96C1507.25 782.4 1544.69 794.17 1578.88 811.44C1605.27 824.77 1631.83 843.49 1645.14 870.77C1661.53 904.36 1651.93 942.06 1638.07 974.72C1625.3 1004.81 1608.71 1035.83 1581.37 1055.08C1553.89 1074.43 1518.35 1076.73 1486.54 1068.36C1452.12 1059.3 1422.54 1037.36 1397.28 1012.99C1370.47 987.13 1346.65 957.81 1325.43 927.24C1315.21 912.51 1304.85 897.4 1297.06 881.21C1291.6 869.86 1286.98 857.72 1286.06 845.05C1285.11 831.93 1287.8 816.31 1296.23 805.82C1309.34 789.53 1327.96 778.32 1347.91 772.5C1350.33 771.79 1352.77 771.17 1355.23 770.62C1392.52 762.27 1432.73 767.61 1469.75 774.95V774.96Z" fill="#8F8F2D"/>
<path d="M1458.18 880.691C1435.68 906.111 1430.43 944.251 1447.12 974.091C1456.24 990.391 1470.5 1003.74 1487.78 1011.04C1507.72 1019.46 1530.59 1019 1550.55 1010.95C1551.45 1010.59 1552.14 1010.08 1552.66 1009.48C1578.63 997.211 1598.09 971.851 1600.44 942.621C1603.15 908.791 1583.9 874.511 1552.6 860.741C1520.58 846.651 1481.46 854.401 1458.18 880.701V880.691ZM1536.87 866.921C1565.88 874.011 1586.56 900.191 1589.42 929.531C1592.64 962.591 1569.5 994.911 1537.58 1003.62C1537.34 1003.69 1537.11 1003.77 1536.88 1003.86C1509.28 1010.83 1480.02 1000.85 1462.46 977.631C1444.72 954.181 1443.62 922.181 1459.4 897.351C1475.93 871.341 1507.05 859.631 1536.86 866.911L1536.87 866.921Z" fill="#8F8F2D"/>
<path d="M-228.73 390.05C-212.1 420.92 -185.05 448.19 -149.64 455.5C-130.3 459.49 -108.81 450.1 -93.1199 439.06C-80.5899 430.24 -70.4099 416.75 -61.7999 404.28C-38.6999 370.82 -18.9199 335.05 -2.76987 297.74C12.4701 262.53 24.7901 225.06 24.6101 186.3C24.4501 151.06 12.7101 114.64 -12.3299 89.1701C-37.4799 63.6001 -73.3699 54.7701 -108.09 52.6501C-145.37 50.3701 -187.67 51.8801 -220.02 72.7601C-248.66 91.2401 -263.19 123.21 -268.58 155.89C-274.79 193.56 -271.76 232.89 -265.81 270.38C-259.33 311.2 -248.45 353.47 -228.74 390.05H-228.73ZM-249.26 298.28C-257.77 261.01 -262.29 222.02 -260.47 183.76C-259.06 154.22 -252.81 122.34 -233.33 99.0601C-209.34 70.4001 -171.01 63.78 -135.54 63.11C-102.85 62.49 -67.7699 64.98 -39.0399 82.09C-10.1599 99.29 6.44011 130.8 11.7701 163.25C17.5401 198.38 9.57013 234.33 -2.36987 267.33C-15.0499 302.36 -32.0899 336.07 -51.3499 367.91C-60.6299 383.25 -70.1999 398.87 -81.7999 412.59C-89.9299 422.21 -99.1299 431.38 -110.32 437.38C-121.91 443.6 -137.27 447.52 -150.29 444.09C-170.51 438.77 -188.34 426.33 -201.79 410.5C-203.42 408.58 -204.99 406.61 -206.5 404.59C-229.33 373.95 -240.86 335.06 -249.26 298.27V298.28Z" fill="#8F8F2D"/>
<path d="M256.9 713.28C251.53 747.93 256.63 786 280.45 813.2C293.46 828.05 316.26 833.54 335.44 834.21C350.76 834.75 367.01 830.13 381.41 825.38C420.02 812.65 457.39 796.07 492.78 776.07C526.18 757.2 558.62 734.76 581.88 703.75C603.02 675.56 615.65 639.44 611.06 604.01C606.45 568.44 583.16 539.74 556.76 517.09C528.41 492.77 493.78 468.44 455.38 465.56C421.39 463.01 390.51 479.72 366.48 502.53C338.79 528.81 317.46 562 299.58 595.48C280.11 631.94 263.26 672.2 256.9 713.27V713.28ZM295.92 627.72C311.64 592.87 331.56 559.06 356.11 529.65C375.06 506.95 399.3 485.3 428.88 478.5C465.31 470.13 499.86 487.99 528.54 508.87C554.97 528.11 581.44 551.27 594.02 582.26C606.67 613.4 600.88 648.55 585.54 677.64C568.94 709.13 540.88 732.99 511.44 752.08C480.19 772.35 446.25 788.94 411.68 802.7C395.02 809.33 377.96 816.01 360.43 819.94C348.14 822.7 335.27 824.46 322.72 822.49C309.72 820.45 295.11 814.31 286.8 803.72C273.89 787.27 267.18 766.59 266.02 745.85C265.88 743.33 265.82 740.81 265.84 738.3C266.13 700.09 280.41 662.12 295.93 627.72H295.92Z" fill="#8F8F2D"/>
<path d="M396.3 662.87C415.98 690.53 451.95 704.26 484.79 694.74C502.73 689.54 518.96 678.66 529.97 663.47C542.67 645.94 547.39 623.56 544.06 602.3C543.91 601.34 543.57 600.55 543.11 599.91C537.02 571.84 516.72 547.15 488.77 538.26C456.43 527.98 418.69 538.99 398.2 566.37C377.24 594.38 375.95 634.24 396.31 662.86L396.3 662.87ZM400.66 583.1C414.12 556.44 444.29 542.2 473.52 546.05C506.45 550.38 532.71 580.22 533.99 613.28C533.99 613.53 534.03 613.77 534.06 614.01C534.61 642.47 518.28 668.72 491.7 680.58C464.85 692.56 433.43 686.41 412.81 665.43C391.21 643.45 386.83 610.49 400.66 583.09V583.1Z" fill="#8F8F2D"/>
</g>
<defs>
<clipPath id="clip0_233_5229">
<rect width="1530" height="878" fill="white"/>
</clipPath>
</defs>
</svg>
