<svg fill="none" height="100" viewBox="0 0 180 100" width="180" xmlns="http://www.w3.org/2000/svg" xmlns:xlink="http://www.w3.org/1999/xlink">

<path d="m161.953 1.7399.001-.00015c4.125-1.311245 8.406-.845364 11.628 1.1258 3.19 1.95235 5.418 5.42485 5.418 10.34025v75.299c0 5.777-4.697 10.4952-10.42 10.4952h-155.6476c-7.36285 0-11.9324-5.6108-11.9324-11.4039v-24.3658c0-7.2375 5.59764-12.1881 12.0468-14.2374.0001-.0001.0002-.0001.0003-.0001l145.7089-46.23816z" stroke="#161616" stroke-width="2"/>

<path d="m10 64.3141 3.9362-1.2074v1.9927l-2.6012.7656v23.2933h-1.335zm14.9791.1669c1.1191 2.6012 1.6786 5.9288 1.6786 9.9141s-.5595 7.4994-1.6589 10.5031c-1.1289 3.0625-2.454 4.5546-4.0442 4.5546h-.1963c-1.5117 0-2.7387-1.3841-3.7301-4.2405-.9227-2.6307-1.3644-5.6442-1.3644-9.2074s.4515-6.6847 1.3841-9.5509c.9914-3.043 2.2085-4.7509 3.7202-5.2319 1.6491-.5104 3.0724.5791 4.2209 3.2589zm-1.0699 19.4748c.9816-2.6405 1.4822-5.811 1.4822-9.4135 0-3.6024-.4908-6.6061-1.4626-8.9129-.7558-1.7865-1.6-2.6895-2.5128-2.6895-.1473 0-.2847.0196-.432.0687-1.119.3337-2.1006 1.7865-2.9153 4.2994-.8343 2.5619-1.2368 5.4086-1.2368 8.7067 0 3.2982.4025 6.0074 1.227 8.3141.7951 2.2086 1.7178 3.2884 2.7975 3.3178 1.1191-.0098 2.1497-1.2466 3.0528-3.681zm10.9742-11.3276c.589 1.6295.8835 3.7693.8835 6.3706 0 2.6012-.4221 4.9178-1.2565 6.8711-.8441 1.9927-1.9043 3.0037-3.1313 3.0135h-.7951v-29.4773l.7068-.2159c.5791-.1767 1.4135-.108 2.0908 1.2073.5006.9718.7558 2.3362.7558 4.0442 0 1.0307-.1374 2.1203-.4122 3.2393-.2258.9227-.481 1.6-.7755 2.0515.7755.4614 1.4037 1.4135 1.9337 2.8761zm-2.3951-4.7215c.3632-1.011.5399-2.13.5399-3.3472s-.1767-2.1988-.53-2.9448c-.3632-.7754-.6675-.8442-.8442-.8245v8.5202c.2356-.1668.5202-.5497.8245-1.3938zm2.1596 10.8467c0-2.3068-.3436-4.2602-1.0111-5.8111-.5791-1.3349-1.2368-1.973-1.973-1.9141v16.1669c.7166-.1178 1.3742-.9227 1.9534-2.3853.6773-1.708 1.0208-3.7399 1.0208-6.0564zm17.8552-20.8295c1.7963 3.1902 2.6993 7.3718 2.6993 12.4172s-.903 9.5411-2.6699 13.3595c-1.7276 3.7203-3.7693 5.6049-6.0957 5.6049h-.3043c-2.1595 0-4.0049-1.7178-5.4773-5.0945-1.4135-3.2294-2.0908-6.93-2.0908-11.3276 0-4.3975.6969-8.2748 2.1203-11.8773 1.4822-3.7398 3.3472-5.9779 5.5656-6.6748 2.3951-.746 4.5055.4613 6.2626 3.5926zm-.962 1.335c-1.227-2.2282-2.5816-3.3276-4.1129-3.3276-.3435 0-.6871.0491-1.0503.1669-1.8846.5693-3.5043 2.5325-4.8098 5.8306-1.2957 3.2687-1.9239 6.8516-1.9239 10.9546 0 4.1031.6282 7.4896 1.9141 10.3559 1.2761 2.8466 2.8564 4.2993 4.692 4.2993h.0393c1.9632-.0196 3.7202-1.6589 5.2319-4.8687 1.6-3.4061 2.4049-7.4699 2.4049-12.0932s-.8049-8.4221-2.3951-11.308zm13.5853-6.1841c1.4037 2.1497 2.1202 4.9865 2.1202 8.4221s-.7362 6.5276-2.1791 9.2172c-1.4135 2.6307-2.9841 4.0638-4.6724 4.2503h-.0393v13.6835h-1.2466v-37.5951l.9914-.3043c1.9338-.589 3.6221.1865 5.016 2.3263zm-.9914 1.4528c-1.1191-1.7571-2.3362-2.4147-3.7105-2.0123l-.0687.0197v20.6429c1.4135-.1865 2.6896-1.3939 3.7988-3.5926 1.1583-2.3068 1.7472-4.9571 1.7472-7.8822 0-2.9252-.5889-5.3301-1.7668-7.1657zm8.4221 30.4295v-38.2724l-1.3448.4122v41.4528h1.227l18.7582-43.7988v43.7104h1.6687v-48.0098l-1.6294.5006-18.6896 44.0148zm25.6687-46.4v2.1202l8.3042-2.454v50.1006h1.875v-50.6503l9.256-2.7288v-2.346l-19.3665 5.9484-.0687.0197zm68.7412-21.5951-40.304 67.3177v-54.9496l-2.091.638v58.1595h1.963l40.432-66.719v66.5227l3.121-.0196v-71.9117z" fill="#000"/></svg>