<svg fill="none" height="572" viewBox="0 0 1920 572" width="1920" xmlns="http://www.w3.org/2000/svg" xmlns:xlink="http://www.w3.org/1999/xlink"><clipPath id="a"><path d="m0 0h1920v572h-1920z"/></clipPath><g clip-path="url(#a)" fill="#8f8f2d" opacity=".2"><path d="m1236.06 227.72c-7.19-34.32-25.38-68.15-57.27-85.2-17.41-9.31-40.68-6.41-58.86-.28-14.52 4.9-28.1 14.94-39.91 24.47-31.64 25.53-60.76 54.22-86.83 85.41-24.6 29.44-47.05 61.87-57.88 99.09-9.85 33.83-8.93 72.09 7.86 103.62 16.86 31.66 48.77 50.31 81.46 62.19 35.1 12.76 76.09 23.32 113.04 12.48 32.7-9.59 55.71-36.12 70.16-65.93 16.65-34.36 24.9-72.94 29.83-110.57 5.37-40.98 6.93-84.6-1.59-125.27zm-6.35 93.83c-2.42 38.16-9.15 76.82-21.75 112.99-9.73 27.92-24.78 56.72-50.06 73.52-31.14 20.68-69.77 16.15-103.97 6.72-31.52-8.69-64.45-21.03-87.15-45.59-22.81-24.68-29.79-59.61-25.69-92.24 4.44-35.32 22.28-67.54 43.09-95.79 22.09-29.99 48.01-57.48 75.51-82.54 13.26-12.08 26.86-24.34 41.88-34.21 10.53-6.92 21.95-13.1 34.39-15.68 12.88-2.67 28.72-2.08 40.23 4.9 17.88 10.84 31.45 27.82 39.85 46.83 1.02 2.3 1.96 4.64 2.83 7 13.2 35.86 13.22 76.42 10.83 114.08z"/><path d="m1123.38 324.04c-28.17-18.95-66.67-19.12-94.04 1.37-14.96 11.2-26.31 27.09-31.25 45.19-5.71 20.88-2.24 43.49 8.38 62.21.48.85 1.08 1.47 1.73 1.9 15.59 24.12 43.3 40.07 72.59 38.53 33.89-1.78 65.33-25.39 74.85-58.24 9.74-33.6-3.11-71.36-32.25-90.96zm24.05 76.18c-3.2 29.69-26.41 53.65-55.12 60.36-32.35 7.56-67.43-11.11-80.29-41.6-.1-.23-.21-.45-.33-.66-10.55-26.44-4.52-56.76 16.17-77.23 20.9-20.68 52.48-26 79.17-13.64 27.97 12.95 43.69 42.25 40.4 72.77z"/><path d="m598.05 59.9894c35.05-.91 71.6-12.72 94.11-41.02 12.29-15.44998 13.62-38.8599 10.85-57.8599-2.21-15.17-9.65-30.33-16.9-43.65-19.42-35.7105-42.41-69.5205-68.41-100.7705-24.53-29.49-52.4-57.4-87.07-74.75-31.51-15.77-69.31-21.74-103.35-10.89-34.17 10.89-58.25 38.93-75.82 68.95-18.86 32.23-36.62 70.66-32.6 108.9505 3.56 33.9 25.52 61.2999 52.25 80.8599 30.81 22.55 67.27 37.6001 103.41 49.2201 39.35 12.65 81.98 22.0299 123.52 20.9499zm-91.16-23.1099c-37.1-9.24-73.93-22.8001-107.24-41.70006-25.72-14.59004-51.35-34.57004-63.32-62.46004-14.75-34.3504-3.34-71.5304 12.08-103.4904 14.21-29.44 32.27-59.62 60.51-77.54 28.38-18 64-18.59 95.36-8.69 33.95 10.71 62.43 34.05 86.48 59.61 25.53 27.12 47.91 57.56 67.63 89.12 9.5 15.2104 19.11 30.8005 26.12 47.3405 4.91 11.6 8.94 23.95 9.24 36.64.32 13.15-3.12 28.61998-12.05 38.69-13.88 15.64-33.02 25.94-53.23 30.79-2.45.59-4.92 1.0999-7.4 1.5299-37.64 6.54-77.55-.73-114.17-9.85z"/><path d="m1771.27 390.05c16.63 30.87 43.68 58.14 79.09 65.45 19.34 3.99 40.83-5.4 56.52-16.44 12.53-8.82 22.71-22.31 31.32-34.78 23.1-33.46 42.88-69.23 59.03-106.54 15.24-35.21 27.56-72.68 27.38-111.44-.16-35.24-11.9-71.66-36.94-97.1299-25.15-25.57-61.04-34.4-95.76-36.52-37.28-2.28-79.58-.77-111.93 20.11-28.64 18.48-43.17 50.4499-48.56 83.1299-6.21 37.67-3.18 77 2.77 114.49 6.48 40.82 17.36 83.09 37.07 119.67zm-20.53-91.77c-8.51-37.27-13.03-76.26-11.21-114.52 1.41-29.54 7.66-61.42 27.14-84.6999 23.99-28.66 62.32-35.2801 97.79-35.9501 32.69-.62 67.77 1.87 96.5 18.98 28.88 17.2 45.48 48.71 50.81 81.16 5.77 35.13-2.2 71.08-14.14 104.08-12.68 35.03-29.72 68.74-48.98 100.58-9.28 15.34-18.85 30.96-30.45 44.68-8.13 9.62-17.33 18.79-28.52 24.79-11.59 6.22-26.95 10.14-39.97 6.71-20.22-5.32-38.05-17.76-51.5-33.59-1.63-1.92-3.2-3.89-4.71-5.91-22.83-30.64-34.36-69.53-42.76-106.32z"/><path d="m1851.99 265.71c32.39 10.17 69.36-.59 89.79-28 11.16-14.98 17.54-33.44 17.15-52.2-.45-21.64-10.2-42.34-25.69-57.27-.7-.68-1.45-1.1-2.2-1.33-21.8-18.7-52.89-26.13-80.54-16.35-32 11.32-55.43 42.89-55.24 77.08.2 34.98 23.23 67.54 56.74 78.07zm-44.68-66.23c-5.36-29.38 10.1-58.94 35.73-73.52 28.87-16.43 67.82-8.48 88.79 17.1.16.2.33.37.5.54 17.62 22.36 20.45 53.14 6.41 78.65-14.18 25.76-42.94 39.82-72.04 35.55-30.49-4.48-53.88-28.12-59.39-58.31z"/><path d="m-228.73 390.05c16.63 30.87 43.68 58.14 79.09 65.45 19.34 3.99 40.83-5.4 56.5201-16.44 12.53-8.82 22.71-22.31 31.32-34.78 23.1-33.46 42.88-69.23 59.03003-106.54 15.23997-35.21 27.55997-72.68 27.37997-111.44-.16-35.24-11.9-71.66-36.94-97.1299-25.15-25.57-61.04-34.4-95.7601-36.52-37.28-2.28-79.58-.77-111.93 20.11-28.64 18.48-43.17 50.4499-48.56 83.1299-6.21 37.67-3.18 77 2.77 114.49 6.48 40.82 17.36 83.09 37.07 119.67zm-20.53-91.77c-8.51-37.27-13.03-76.26-11.21-114.52 1.41-29.54 7.66-61.42 27.14-84.6999 23.99-28.66 62.32-35.2801 97.79-35.9501 32.69-.62 67.7701 1.87 96.5001 18.98 28.88 17.2 45.48001 48.71 50.81 81.16 5.77 35.13-2.19997 71.08-14.13997 104.08-12.68003 35.03-29.72003 68.74-48.98003 100.58-9.28 15.34-18.85 30.96-30.45 44.68-8.13 9.62-17.33 18.79-28.5201 24.79-11.59 6.22-26.95 10.14-39.97 6.71-20.22-5.32-38.05-17.76-51.5-33.59-1.63-1.92-3.2-3.89-4.71-5.91-22.83-30.64-34.36-69.53-42.76-106.32z"/><path d="m256.9 713.28c-5.37 34.65-.27 72.72 23.55 99.92 13.01 14.85 35.81 20.34 54.99 21.01 15.32.54 31.57-4.08 45.97-8.83 38.61-12.73 75.98-29.31 111.37-49.31 33.4-18.87 65.84-41.31 89.1-72.32 21.14-28.19 33.77-64.31 29.18-99.74-4.61-35.57-27.9-64.27-54.3-86.92-28.35-24.32-62.98-48.65-101.38-51.53-33.99-2.55-64.87 14.16-88.9 36.97-27.69 26.28-49.02 59.47-66.9 92.95-19.47 36.46-36.32 76.72-42.68 117.79zm39.02-85.56c15.72-34.85 35.64-68.66 60.19-98.07 18.95-22.7 43.19-44.35 72.77-51.15 36.43-8.37 70.98 9.49 99.66 30.37 26.43 19.24 52.9 42.4 65.48 73.39 12.65 31.14 6.86 66.29-8.48 95.38-16.6 31.49-44.66 55.35-74.1 74.44-31.25 20.27-65.19 36.86-99.76 50.62-16.66 6.63-33.72 13.31-51.25 17.24-12.29 2.76-25.16 4.52-37.71 2.55-13-2.04-27.61-8.18-35.92-18.77-12.91-16.45-19.62-37.13-20.78-57.87-.14-2.52-.2-5.04-.18-7.55.29-38.21 14.57-76.18 30.09-110.58z"/><path d="m396.3 662.87c19.68 27.66 55.65 41.39 88.49 31.87 17.94-5.2 34.17-16.08 45.18-31.27 12.7-17.53 17.42-39.91 14.09-61.17-.15-.96-.49-1.75-.95-2.39-6.09-28.07-26.39-52.76-54.34-61.65-32.34-10.28-70.08.73-90.57 28.11-20.96 28.01-22.25 67.87-1.89 96.49zm4.36-79.77c13.46-26.66 43.63-40.9 72.86-37.05 32.93 4.33 59.19 34.17 60.47 67.23 0 .25.04.49.07.73.55 28.46-15.78 54.71-42.36 66.57-26.85 11.98-58.27 5.83-78.89-15.15-21.6-21.98-25.98-54.94-12.15-82.34z"/></g></svg>