<svg width="80" height="80" viewBox="0 0 80 80" fill="none" xmlns="http://www.w3.org/2000/svg">
<path d="M15.6589 40.7511C15.1392 40.5205 14.6339 40.2754 14.1575 39.9871C13.9121 39.8573 13.6811 39.7132 13.4501 39.5546C13.3346 39.4825 13.2191 39.4104 13.1181 39.3384C13.0603 39.3095 13.017 39.2663 12.9593 39.2374C12.9304 39.2086 12.8871 39.1942 12.8582 39.1654C11.9487 38.5166 11.1114 37.7814 10.3318 36.9885C10.1442 36.7867 9.95649 36.5848 9.76881 36.383C9.75438 36.3686 9.69663 36.2965 9.68219 36.2821C9.65332 36.2389 9.61001 36.1956 9.58114 36.1668C9.49452 36.0514 9.39346 35.9505 9.30684 35.8352C8.96037 35.3883 8.62833 34.9414 8.32516 34.4657C8.022 33.9899 7.73327 33.5142 7.45898 33.0096C7.40123 32.8943 7.32905 32.779 7.2713 32.6492C7.24243 32.5915 7.21356 32.5483 7.19912 32.4906C7.19912 32.4906 7.17025 32.4041 7.14137 32.3609C7.02588 32.1158 6.91039 31.8563 6.80933 31.5968C6.56391 31.0202 6.34737 30.4147 6.17413 29.8092C6.08751 29.5209 6.00089 29.2181 5.92871 28.9154C5.8854 28.7568 5.85653 28.5982 5.81322 28.4397C5.79878 28.3676 5.78434 28.2955 5.76991 28.209C5.76991 28.1658 5.75547 28.1225 5.74103 28.0793C5.74103 28.036 5.7266 27.9928 5.71216 27.9495C5.89984 27.8486 6.10195 27.7333 6.27518 27.6179C7.15581 27.1854 7.67552 26.1763 7.64665 25.2393C7.61778 24.6338 7.4301 23.9706 7.06919 23.4372C7.4301 22.7452 7.77658 22.0533 8.07974 21.3324C8.35404 20.6981 8.816 19.7755 8.75826 19.17C8.72939 18.7664 8.44066 18.5069 8.022 18.4924C7.57447 18.4924 7.34348 18.7519 7.14137 19.1123C6.59279 20.1359 6.30406 21.2604 6.01533 22.3848C5.76991 21.1306 5.59667 19.862 5.07696 18.6943C4.91816 18.3195 4.70161 18.0311 4.25408 18.0023C3.84986 17.9735 3.54669 18.2185 3.47451 18.6222C3.35902 19.17 3.63331 19.689 3.80655 20.1936C4.03753 20.8711 4.25408 21.5487 4.51393 22.2118C4.52837 22.2551 4.55724 22.3128 4.57168 22.356C3.99422 22.4137 3.4312 22.6299 2.92592 22.9759C2.11748 23.5381 1.87206 24.7779 2.05973 25.6862C2.11748 25.9312 2.18966 26.1619 2.30515 26.3926C2.42064 26.6232 2.57945 26.8395 2.75268 27.0125C3.22909 27.4738 3.89317 27.69 4.36957 28.1513C4.42732 28.4397 4.48506 28.7424 4.55724 29.0307C5.03365 31.0634 5.81322 32.9952 6.92483 34.7684C8.15193 36.7434 9.73994 38.5022 11.5878 39.9006C12.6561 40.7079 13.811 41.3855 15.0237 41.9333C15.3413 42.0774 15.7744 41.9909 15.9332 41.645C16.0776 41.3278 15.9909 40.8809 15.6445 40.7367L15.6589 40.7511Z" fill="white"/>
<path d="M29.5 68.5C26.4368 72.9702 27.9312 71.3563 25.3124 76.0923C25.2198 75.8371 25.0964 75.597 24.9576 75.3719C24.4485 74.5465 23.5384 73.9161 22.5511 73.7961C21.5947 73.676 20.2372 74.0662 20.0212 75.1318C19.9132 75.6721 20.2372 76.2123 20.5457 76.6326C20.8851 77.0678 21.3016 77.443 21.7798 77.7431C22.2426 78.0433 22.7208 78.2834 23.199 78.5235C23.6926 78.7636 24.2171 78.8987 24.757 78.9888C24.9113 79.0188 25.0656 78.9888 25.1735 78.8987C25.2353 78.8537 25.297 78.8087 25.3432 78.7336C25.5438 78.5986 25.7289 78.4335 25.8369 78.2234C26.6236 76.7976 27.4103 75.3569 28.2125 73.9312C30.3583 70.0343 28.4815 72.6754 31 69.0001C30.4755 68.895 30.5091 69.1501 30 69L29.5 68.5Z" fill="white"/>
<path d="M56.9613 74.065C56.7383 73.008 55.3361 72.6154 54.3323 72.7513C53.3126 72.8872 52.3885 73.5365 51.8627 74.367C51.7193 74.5935 51.5918 74.8502 51.4962 75.0918C48.9469 70.6978 47.8541 69.0344 48 69.0004C47.4901 69.1665 46.5099 68.8796 46 69.0004C48.2595 72.4473 46.3807 69.3941 48.4689 72.9476C49.2974 74.3821 50.126 75.8165 50.9704 77.2359C51.0979 77.4473 51.2891 77.6285 51.4962 77.7493C51.544 77.8097 51.6078 77.8701 51.6715 77.9003C51.799 77.9758 51.9424 78.0211 52.1176 77.9909C52.6753 77.9003 53.233 77.7493 53.7269 77.5077C54.2208 77.2661 54.7147 77.0094 55.1927 76.7074C55.6707 76.3903 56.1169 76.0279 56.4515 75.575C56.7701 75.1522 57.0888 74.5935 56.9773 74.065H56.9613Z" fill="white"/>
<path d="M77.3911 27.0088C76.9725 26.6093 76.4562 26.3063 75.9259 26.1686C75.9539 26.1272 75.9818 26.0859 76.0097 26.0446C76.3585 25.4523 76.6795 24.8463 77.0004 24.254C77.2376 23.7994 77.5865 23.3587 77.5725 22.8215C77.5725 22.4358 77.3214 22.1603 76.9307 22.119C76.512 22.0777 76.2469 22.3118 76.0376 22.6424C75.3538 23.6617 74.9771 24.8463 74.5584 25.9895C74.4468 24.8876 74.3631 23.7719 74.0003 22.7251C73.8747 22.3532 73.6933 22.0639 73.2607 22.0088C72.87 21.9537 72.549 22.1603 72.4513 22.5322C72.3118 23.0832 72.5909 24.0198 72.7583 24.6672C72.9397 25.3834 73.1491 26.0997 73.3863 26.8022C72.9677 27.2567 72.6886 27.849 72.563 28.4137C72.3816 29.2815 72.7165 30.3145 73.484 30.8655C73.6375 31.0032 73.8049 31.141 73.9724 31.2649C73.9444 31.3063 73.9305 31.3476 73.9165 31.3889C73.9026 31.4302 73.8886 31.4715 73.8747 31.5129C73.8468 31.5817 73.8189 31.6506 73.791 31.7195C73.7351 31.871 73.6793 32.0087 73.6095 32.1465C73.4979 32.4219 73.3723 32.6837 73.2328 32.9454C72.9677 33.4825 72.6607 34.0197 72.3397 34.5294C72.2002 34.7497 72.0467 34.9701 71.8932 35.1905C71.8653 35.2181 71.8513 35.2594 71.8234 35.2869C71.8234 35.2869 71.8234 35.2869 71.8234 35.3007C71.7955 35.342 71.7536 35.3834 71.7257 35.4384C71.656 35.5349 71.5722 35.6451 71.4885 35.7415C71.1536 36.1685 70.8047 36.5817 70.428 36.9811C70.0652 37.3806 69.6744 37.7525 69.2698 38.1106C69.1721 38.207 69.0605 38.2897 68.9628 38.3861C68.9209 38.4136 68.8791 38.4549 68.8512 38.4825C68.8372 38.4825 68.7814 38.5376 68.7535 38.5651C68.5442 38.7304 68.3348 38.8957 68.1255 39.0472C67.2604 39.6808 66.3394 40.2456 65.3766 40.7001C65.3347 40.7139 65.3068 40.7277 65.2649 40.7552C65.2091 40.7828 65.1533 40.8103 65.0975 40.8241C64.9858 40.8792 64.8602 40.9205 64.7486 40.9756C64.4974 41.072 64.2602 41.1684 64.009 41.2648C63.4927 41.4439 62.9764 41.6092 62.4462 41.7469C62.0973 41.8433 61.9299 42.2428 62.0275 42.5596C62.1252 42.9039 62.5159 43.0692 62.8508 42.9728C64.1067 42.656 65.3068 42.1877 66.451 41.5954C68.4465 40.5761 70.2466 39.1574 71.7257 37.4908C73.0514 35.9894 74.1259 34.2952 74.8933 32.4633C75.005 32.2016 75.1026 31.9399 75.2003 31.6644C75.7306 31.3063 76.3864 31.2098 76.9167 30.8517C77.126 30.714 77.2935 30.5349 77.447 30.3421C77.5865 30.1492 77.7121 29.9426 77.7958 29.7222C78.1307 28.8958 78.0888 27.6837 77.4051 27.0363L77.3911 27.0088Z" fill="white"/>
<path d="M68.1132 42.3991C67.5356 39.1646 66.3093 36.0368 64.6032 33.2999C64.3633 32.8911 64.1144 32.4912 63.8656 32.0914C63.4658 31.4694 63.1281 30.8918 62.6927 30.2786C59.8225 26.351 56.8013 22.6189 54.7219 18.3269C54.3754 17.6072 54.0555 16.8785 53.7622 16.1321C52.7404 13.333 52.145 10.4362 50.3589 7.94808C48.1374 4.76689 44.7963 2.82085 41.233 2.32324C39.358 1.89671 37.3853 1.88782 35.5193 2.32324C35.2083 2.39433 34.8972 2.48319 34.5862 2.58093C33.9731 2.77642 33.36 3.02523 32.7735 3.31847C28.8192 5.27339 26.6955 9.12103 25.0693 13.253C23.381 17.545 21.115 21.7125 18.5648 25.4713C15.1792 30.4563 11.3937 35.5214 9.90978 41.6616C8.40804 47.8463 9.95421 54.9284 13.633 59.8957C14.2462 60.7488 14.9215 61.5396 15.6679 62.286C16.4677 63.0947 17.3296 63.8322 18.2449 64.4987C21.9059 67.1733 26.3667 68.7728 30.7208 69.2349C31.7783 69.4037 32.8623 69.5459 33.9642 69.6437C36.4434 69.8747 39.0026 69.9191 41.5173 69.7236C47.3554 69.6259 53.2024 68.4529 58.3563 65.4406C58.845 65.1296 59.3338 64.8008 59.7958 64.4542C61.2087 63.4146 62.5061 62.1972 63.6701 60.7932C64.3366 59.9935 64.9497 59.1226 65.5184 58.1896C67.7844 54.4308 68.7085 50.0233 68.4864 45.6514C68.433 44.5584 68.3086 43.4655 68.1132 42.3903V42.3991Z" stroke="white" stroke-width="2" stroke-miterlimit="10"/>
<path d="M57.3167 33.1846C54.6064 29.7368 52.4382 25.6937 51.1409 21.2152C49.9235 16.9854 49.2926 12.4358 45.6671 10.0721C39.9179 6.33108 32.2315 8.75696 29.0947 15.7414C27.2997 19.7401 25.9313 23.4633 23.3988 26.9911C18.7514 33.4601 13.6241 39.5203 14.8415 48.6996C15.739 55.4352 19.9243 60.829 25.2382 63.1482C31.5917 65.9562 38.2828 66.0717 45.0717 65.2542C48.2796 64.8899 51.3186 64.1435 54.2154 62.1708C58.5074 59.2384 61.2976 53.2848 61.733 47.5622C62.124 42.4527 60.8089 38.1785 58.223 34.4287C58.223 34.4287 57.9062 33.9335 57.3167 33.1846Z" stroke="white" stroke-width="2" stroke-miterlimit="10"/>
<path d="M33.7154 27.4952C33.431 27.2198 33.1111 27.1398 32.8268 27.1931C32.6135 27.0687 32.338 27.0598 32.0892 27.2464C31.2984 27.8418 31.1473 28.7304 31.2628 29.6634C31.3695 30.5165 31.8582 31.3162 32.8179 31.334C34.7106 31.3784 34.7817 28.4994 33.7243 27.4863L33.7154 27.4952Z" fill="white"/>
<path d="M45.9515 27.5929C45.6671 27.3174 45.3472 27.2374 45.0629 27.2908C44.8496 27.1664 44.5741 27.1575 44.3253 27.3441C43.5345 27.9394 43.3834 28.828 43.4989 29.7611C43.6056 30.6141 44.0943 31.4139 45.054 31.4316C46.9467 31.4761 47.0178 28.597 45.9603 27.584L45.9515 27.5929Z" fill="white"/>
<path d="M40.5221 34.0801C39.6779 35.9284 36.6567 35.8306 35.777 34.0801" stroke="white" stroke-width="2" stroke-miterlimit="10"/>
</svg>
