<svg width="788" height="766" viewBox="0 0 788 766" fill="none" xmlns="http://www.w3.org/2000/svg">
<path d="M266.349 3.50115C266.349 3.50115 345.008 11.5046 355.089 37.0811C365.171 62.6577 336.699 90.4582 352.048 110.13C367.397 129.802 417.223 153.64 408.6 158.856C399.961 164.071 386.572 155.097 410.607 131.603C434.642 108 478.197 106.528 486.287 75.0309C494.268 43.534 460.041 -5.89623 337.984 30.362C215.927 66.6202 336.871 -37.2835 515.402 18.7092C693.934 74.702 696.693 142.3 687.208 141.893C677.722 141.502 664.599 107.483 646.741 95.4702C628.883 83.4572 619.367 83.7235 619.508 93.2461C619.665 102.769 610.367 126.325 610.32 140.875C610.257 155.425 620.825 182.662 632.505 169.694C644.186 156.835 645.926 170.258 647.964 173.938C650.003 177.635 659.535 203.18 667.97 189.538C676.405 175.896 658.641 171.981 652.448 147.657C646.255 123.333 651.806 110.772 654.878 115.393C657.967 119.997 684.589 178.637 682.99 190.822C681.391 203.008 672.235 207.659 653.687 196.273C635.139 184.886 637.005 208.38 631.157 214.911C625.309 221.442 598.42 224.152 604.143 233.909C609.85 243.667 634.935 258.045 629.636 264.607C624.337 271.17 581.487 242.477 579.81 269.76C578.132 297.028 608.266 323.983 629.73 317.656C651.194 311.328 666.01 317.53 677.424 337.468C688.823 357.516 709.597 367.9 709.471 357.829C709.346 347.759 711.384 338.33 729.085 343.545C746.676 348.761 770.743 361.463 772.64 341.963C774.553 322.464 754.28 326.113 746.3 318.564C738.194 310.999 729.446 295.556 746.896 291.249C764.346 286.942 769.645 280.489 767.811 258.656C765.882 236.807 712.622 150.821 678.867 116.489" stroke="black" stroke-width="2" stroke-linecap="round"/>
<path d="M255.688 253.988C310.359 240.08 273.812 220.079 257.334 214.363C240.856 208.646 231.355 221.708 238.52 222.554C245.7 223.4 316.818 205.686 316.818 205.686C316.818 205.686 295.386 224.371 314.074 232.374C332.763 240.378 345.918 231.513 343.895 227.488C341.872 223.462 328.044 206.704 326.586 186.515C325.238 166.326 321.929 138.307 299.838 146.357C277.763 154.407 265.549 179.827 266.537 169.365C267.525 158.902 267.086 129.912 253.054 130.961C239.021 132.026 251.015 153.734 237.704 163.789C224.503 173.844 181.011 184.291 200.248 205.216C219.486 226.141 220.536 187.58 201.064 172.325C181.591 157.07 165.599 139.466 206.253 128.909C246.908 118.353 232.295 93.7943 258.745 88.7667C285.179 83.7391 262.586 91.1161 267.447 108.157C272.307 125.197 285.555 142.927 305.796 124.304C326.021 105.682 323.591 45.758 287.28 59.8854C250.968 74.0128 249.463 96.8015 238.112 88.5788C226.761 80.3404 233.33 82.7994 251.392 63.4251C269.469 44.0508 277.826 32.1475 261.598 33.6667C245.246 35.28 25.2134 172.999 50.3147 320.929C50.3147 320.929 51.7728 325.471 53.9834 327.21C56.1 328.932 67.028 321.086 67.028 321.086C75.6355 313.427 83.4277 298.125 45.6738 298.125C21.9422 298.125 -1.14714 349.411 1.64481 418" stroke="#8F8F2D" stroke-width="2" stroke-linecap="round"/>
<path d="M339.787 419.069C326.962 359.082 353.71 323.92 385.177 305.047C400.683 295.744 417.443 293.88 432.385 299.691C447.577 305.643 459.258 319.191 464.4 336.889C471.769 362.168 466.815 390.015 451.497 409.578C438.436 426.242 419.434 434.951 397.97 434.089C370.815 432.773 355.607 426.681 339.772 419.053" stroke="black" stroke-width="2" stroke-miterlimit="10" stroke-linecap="round"/>
<path d="M768.328 514.405C768.328 514.405 785.324 481.64 782.125 477.035C778.927 472.415 774.506 486.777 769.645 482.642C764.785 478.507 767.717 421.089 762.59 397.471C757.447 373.852 764.456 365.723 768.94 378.707C773.424 391.691 770.429 463.644 775.478 463.299C780.526 462.97 785.606 443.048 786.029 396.155C786.343 349.246 787.801 261.584 757.557 250.276C727.313 238.952 728.427 267.552 742.208 283.104C756.083 298.782 728.975 278.077 726.498 298.093C724.021 318.11 728.693 313.818 712.497 285.266C696.411 256.714 679.98 249.9 680.607 261.083C681.234 272.266 705.583 291.218 705.614 303.465C705.646 315.713 691.221 326.27 689.152 323.451C687.082 320.631 685.985 278.594 677.409 269.369C668.832 260.05 644.578 254.552 635.876 287.756C627.175 320.976 612.045 298.469 597.621 321.931C583.196 345.393 570.591 341.259 563.316 355.825C556.041 370.391 566.655 383.202 558.565 401.778C555.132 409.813 551.385 426.916 542.401 450.284C526.675 489.032 474.528 513.544 443.924 516.16C423.322 517.929 402.078 514.969 381.853 507.874C360.154 500.262 339.646 487.905 322.337 471.538C294.821 445.507 279.362 412.287 279.691 380.117M279.691 380.117C279.864 373.288 280.413 369.216 280.413 369.216C281.62 359.333 284.301 349.513 288.44 339.896C300.074 312.879 321.349 291.938 341.92 271.687C356.814 257.027 372.21 241.866 383.703 224.59C385.851 221.364 387.967 218.028 390.1 214.66C402.188 195.631 414.684 175.943 436.602 167.438C460.543 158.151 491.634 169.036 504.506 191.214C515.199 209.617 512.502 236.744 510.338 258.53C509.946 262.446 509.586 266.174 509.303 269.666C507.845 288.367 510.558 307.553 513.192 326.113C516.923 352.504 520.796 379.804 513.082 406.978C502.875 443.032 473.431 479.917 430.691 480.998C411.469 481.468 391.385 474.952 374.123 462.61C358.115 451.192 348.755 436.94 339.756 419.085C322.149 411.473 297.079 396.687 279.691 380.117ZM279.691 380.117C253.399 357.109 220.113 318.627 198.759 291.171C198.759 291.171 151.708 252.109 192.864 237.731C234.02 223.353 268.481 237.292 221.022 270.669C187.768 295.258 167.762 336.341 167.81 353.146C167.872 375.246 187.345 366.757 192.143 359.192C196.94 351.517 154.765 303.935 110.113 331.72C65.3503 359.49 102.007 405.756 120.445 406.523C138.883 407.291 152.617 384.455 134.743 385.896C116.76 387.447 131.263 417.033 140.435 422.452C149.607 427.871 163.325 421.105 163.247 436.203C163.231 439.508 163.42 444.082 164.094 448.107C164.454 450.221 162.902 452.195 160.754 452.398C160.754 452.398 160.723 452.398 160.707 452.398C157.963 452.618 154.796 452.806 151.284 452.884C130.071 453.197 129.021 436.313 121.166 425.6C113.311 414.887 100.611 425.725 82.8319 409.343C65.0368 392.96 68.2352 342.355 45.5797 338.016M337.89 753.992C427.885 778.957 537.572 756.184 615.431 710.2C693.291 664.231 750.533 549.364 762.496 529.739C774.459 510.114 761.32 518.54 747.507 527.468C733.694 536.411 700.707 619.907 658.798 660.597C616.999 701.288 580.688 699.236 577.646 693.535C574.604 687.834 597.887 677.105 608.501 663.542C619.116 650.088 627.739 629.241 631.188 614.832C634.622 600.423 658.532 588.081 652.872 563.789C647.212 539.496 660.539 526.591 675.7 511.586C690.861 496.582 681.642 489.628 671.027 489.737C660.429 489.847 647.008 515.533 635.03 509.018C623.067 502.502 634.81 501.139 640.172 492.932C645.534 484.741 607.67 509.957 562.595 505.885C554.85 505.165 549.409 502.173 545.756 497.615" stroke="black" stroke-width="2" stroke-miterlimit="10" stroke-linecap="round"/>
</svg>
