<svg width="750" height="410" viewBox="0 0 750 410" fill="none" xmlns="http://www.w3.org/2000/svg">
<g clip-path="url(#clip0_81_3130)">
<path d="M511.023 97.3654C505.019 81.8955 498.531 65.7045 489.494 50.8039M522.328 126.101C521.081 122.783 519.757 119.409 518.361 115.972C517.14 112.968 515.945 109.929 514.749 106.858M370.172 70.1075C368.935 78.8764 368.082 87.3286 366.765 96.1346M483.861 42.1599C479.364 35.7472 474.258 29.5708 468.364 23.7482C466.293 21.5273 464.041 19.4388 461.557 17.5301C457.465 14.3773 452.846 11.9588 447.983 10.2493C442.359 8.3867 436.485 7.43534 430.564 7.30007C425.085 7.16926 419.498 8.86684 414.364 10.6269C403.356 14.3981 392.951 20.8079 385.206 29.5559C380.968 34.3439 378.004 39.6239 375.83 45.2563" stroke="#8F8F2D" stroke-width="2" stroke-miterlimit="10"/>
<path d="M456.72 36.7538C449.271 28.4755 439.499 22.8684 426.139 22.8848C426.139 22.8848 408.021 25.4341 395.252 41.3203" stroke="#8F8F2D" stroke-width="2" stroke-miterlimit="10"/>
<path d="M502.323 165.389C501.73 134.747 487.076 105.319 481.14 89.0103C479.666 84.97 478.164 80.3737 476.501 75.5322" stroke="#8F8F2D" stroke-width="2" stroke-miterlimit="10"/>
<path d="M381.596 85.1152C381.245 88.1953 380.922 91.1757 380.592 94.0669" stroke="#8F8F2D" stroke-width="2" stroke-miterlimit="10"/>
<path d="M412.324 122.948C417.639 120.906 423.06 119.746 428.083 119.611C450.11 119.018 464.502 138.622 464.744 156.62C464.982 174.62 453.822 188.569 439.125 196.217C436.953 197.347 434.866 198.294 432.871 199.085" stroke="#8F8F2D" stroke-width="2" stroke-miterlimit="10"/>
<path d="M548.577 58.6838C547.066 58.495 545.525 58.7165 544.003 59.1639C544.803 58.275 545.537 57.3207 546.152 56.2578C546.873 55.0151 545.608 53.0425 544.134 53.9211C540.623 56.0155 537.435 58.6124 534.806 61.6642C534.671 61.0756 534.471 60.5077 534.297 59.9087C533.945 58.663 533.969 57.5778 534.079 56.3054C534.244 54.4488 534.51 52.7988 533.365 51.2409C532.589 50.1825 530.831 50.6448 530.447 51.8013C529.124 55.7762 528.893 59.5906 528.778 63.7409C528.699 66.5845 527.73 69.2825 526.557 71.8779C524.439 73.9858 522.582 77.3587 521.03 79.8634C519.159 82.8855 517.71 85.3307 515.978 88.4345C514.316 91.4075 512.673 94.388 511.016 97.358C509.269 100.486 507.154 103.687 506.277 107.187C506.091 107.934 506.157 108.477 506.421 109.275C507.038 111.529 510.729 112.853 512.684 110.383C514.674 107.859 515.901 104.851 517.225 101.944C518.639 98.846 520.091 95.763 521.579 92.6978C522.816 90.15 524.069 87.6125 525.312 85.0676C525.679 84.4478 526.05 83.8264 526.425 83.2095C528.048 80.5457 530.036 77.9904 531.399 75.1646C532.951 73.25 534.675 71.5762 537.019 70.332C540.365 68.5497 544.239 68.0993 547.789 66.8105C549.269 66.2753 548.786 63.7305 547.223 63.7483C546.06 63.7617 544.901 63.8464 543.743 63.9757C545.507 63.1686 547.318 62.4298 549.136 61.7118C550.692 61.0964 550.042 58.8681 548.581 58.6838H548.577Z" stroke="#8F8F2D" stroke-width="2" stroke-miterlimit="10"/>
<path d="M496.025 49.6907C493.625 46.5141 489.233 44.5444 485.689 42.9569C483.297 41.8896 480.176 40.0478 477.351 40.0909C475.19 37.9191 471.694 37.8641 468.574 37.5282C464.328 37.0718 460.044 36.7939 455.769 36.9024C451.544 37.0094 447.342 37.5445 443.247 38.5955C439.596 39.5305 434.273 40.9828 432.07 44.3289C431.882 44.6128 431.76 44.9146 431.685 45.2297C429.877 44.5073 427.808 44.6426 425.916 44.8522C425.58 44.8878 424.949 45.0038 424.191 45.1747C423.619 45.1078 423.148 45.0736 422.871 45.087C420.968 45.1703 418.904 45.3501 417.23 46.3461C417.11 46.0458 416.937 45.7708 416.711 45.5151C414.019 42.5466 408.54 41.9282 404.786 41.5655C400.578 41.1597 396.343 41.2727 392.153 41.8182C387.913 42.3697 383.721 43.3032 379.598 44.4017C376.617 45.1955 373.243 45.7872 371.418 48.1566C369.94 50.8769 369.626 54.3776 369.561 55.4375C369.585 55.4256 369.286 61.6302 369.613 64.8351C370.233 70.8599 370.451 77.3024 375.336 81.6102C379.638 85.4023 385.571 87.1043 391.2 87.3333C396.962 87.5666 403.159 86.4904 408.406 84.0451C413.809 81.5315 417.295 77.0408 418.859 71.3326C419.659 68.4102 419.831 65.3227 419.769 62.3081C419.705 59.2147 419.628 55.7764 418.92 52.7068C419.038 52.5596 419.142 52.3961 419.223 52.2029C419.512 51.525 419.763 51.2337 420.328 51.0137C421.452 50.5871 422.824 50.651 423.998 50.3537C424.196 50.3046 424.487 50.2273 424.841 50.1307C425.165 50.1798 425.429 50.211 425.603 50.2303C426.81 50.3433 428.156 50.0668 429.333 50.321C429.922 50.4473 430.217 50.6971 430.604 51.3244C430.714 51.5042 430.846 51.6514 430.982 51.7792C430.757 54.9202 431.207 58.3332 431.618 61.4013C432.018 64.3892 432.663 67.4142 433.901 70.1821C436.324 75.5855 440.455 79.486 446.179 81.1405C451.739 82.7489 458.03 82.8649 463.69 81.75C469.216 80.6604 474.815 78.0694 478.485 73.6619C482.651 68.6584 481.878 62.259 481.566 56.212C481.396 52.9937 481.259 49.6907 480.103 46.8901C480.574 47.0566 481.042 47.2172 481.508 47.3926C482.945 47.9233 484.354 48.5089 485.762 49.0991C488.476 50.2452 491.421 51.864 494.364 52.246C495.698 52.4184 496.93 50.9171 496.017 49.7145L496.022 49.6892L496.025 49.6907ZM414.065 58.9843C414.3 61.6763 414.464 64.404 414.148 67.0946C413.622 71.4991 411.791 75.8991 407.716 78.0813C403.817 80.1683 399.117 81.3902 394.735 81.7842C390.565 82.1602 386.181 81.6296 382.427 79.6882C377.705 77.2459 375.712 73.3067 375.205 68.1545C374.961 65.6586 374.713 63.142 374.562 60.6373C374.432 58.5354 374.401 56.1257 376.052 54.5768C376.509 54.1532 376.995 53.783 377.512 53.4501C378.099 53.1007 378.709 52.7841 379.329 52.5046C382.621 51.094 386.561 50.8175 389.856 49.9345C392.941 49.5554 396.056 49.4008 399.12 49.4068C401.819 49.4127 404.523 49.5569 407.199 49.8973C409.007 50.1262 411.4 50.3462 412.654 51.8461C414.079 53.5482 413.884 56.8794 414.067 58.9783L414.064 58.9858L414.065 58.9843ZM476.033 52.8094C476.265 55.3052 476.41 57.8308 476.555 60.334C476.843 65.5011 475.478 69.6989 471.193 72.8355C467.783 75.3298 463.53 76.5235 459.356 76.7955C454.966 77.0794 450.132 76.5933 445.962 75.1306C441.598 73.601 439.114 69.5339 437.92 65.2618C437.191 62.653 436.935 59.9297 436.755 57.2332C436.612 55.1268 435.912 51.8669 437.049 49.9687C438.059 48.2979 440.391 47.7122 442.142 47.2068C444.738 46.4605 447.387 45.9001 450.055 45.4824C453.081 45.0067 456.185 44.6872 459.287 44.5846C462.683 44.9488 466.614 44.6232 470.084 45.5092C470.738 45.689 471.389 45.9105 472.022 46.1632C472.583 46.4055 473.119 46.6984 473.634 47.0477C475.505 48.3187 475.84 50.709 476.04 52.8049L476.036 52.8079L476.033 52.8094Z" stroke="#8F8F2D" stroke-width="2" stroke-miterlimit="10"/>
<path d="M437.026 87.1221C433.515 95.7482 419.637 95.8879 415.272 88.014" stroke="#8F8F2D" stroke-width="2" stroke-miterlimit="10"/>
<path d="M534.669 396.82C535.857 383.153 538.959 370.864 539.234 357.523C539.67 336.467 536.514 317.409 537.172 296.358C537.334 291.199 539.346 284.401 544.504 284.622C549.932 284.856 551.031 292.251 551.469 297.666C552.858 314.859 565.214 330.668 581.562 336.168C586.317 337.768 591.618 338.719 595.117 342.313C600.057 347.39 599.419 355.442 599.39 362.525C599.36 369.608 601.499 378.221 608.332 380.09C613.516 367.429 601.04 351.626 608.257 340.003C610.581 336.259 614.521 333.892 618.097 331.318C629.494 323.112 638.374 311.461 643.65 298.462C647.444 282.44 651.239 266.42 655.032 250.399C656.266 245.19 657.73 239.596 661.866 236.197C667.661 231.432 676.372 232.879 683.186 236.02C695.667 241.776 705.554 252.16 712.913 263.768C720.273 275.376 725.338 288.261 729.721 300.511C743.601 318.928 749.12 342.566 749.393 365.626" stroke="#161616" stroke-width="2" stroke-linecap="round" stroke-linejoin="round"/>
<path d="M92.53 401.331C95.3068 398.908 97.0489 395.542 98.7272 392.261C106.89 376.296 115.053 360.332 122.226 346.264C129.532 333.278 133.696 317.555 129.083 303.388C124.472 289.22 108.941 278.156 94.6185 282.263C101.557 273.433 112.807 268.164 124.033 268.485C117.01 260.307 118.85 247.238 125.267 238.576C131.686 229.915 141.559 224.621 150.037 218.162C158.517 202.162 167.124 185.978 179.28 172.555C191.436 159.132 207.714 148.547 225.751 146.931C232.649 146.313 239.87 147.087 245.898 150.495C251.926 153.906 256.538 160.284 257.729 165.829C278.8 177.376 289.998 204.385 283.276 227.456C280.291 237.698 274.164 247.674 275.8 258.216C276.628 263.548 279.432 268.525 279.531 273.921C279.635 279.564 276.698 284.919 272.732 288.933C268.766 292.948 263.82 295.826 258.939 298.658C258.939 298.658 243.128 308.33 241.386 309.505C232.228 318.534 225.619 330.121 222.512 342.601C221.113 348.222 219.961 354.7 215.05 357.77C209.59 361.183 202.513 358.532 196.655 356.294C194.15 351.564 187.198 351.804 182.274 353.903C177.351 356.002 172.477 359.35 167.176 358.614C158.428 357.399 152.118 345.488 143.746 348.301C139.908 349.591 137.783 353.588 136.034 357.24C132.484 364.655 128.853 372.976 131.302 380.824C132.392 384.314 134.642 387.448 135.102 391.075M100.68 383.987C108.37 371.429 118.6 360.485 125.447 347.449C132.294 334.412 135.298 317.929 127.827 305.24C124.812 300.119 120.088 295.374 120.244 289.434C120.463 281.112 129.727 276.489 137.578 272.124C133.446 268.546 129.238 264.877 126.49 260.151C123.742 255.427 122.673 249.368 125.12 244.482C128.46 237.812 137.443 234.649 139.026 227.361C126.104 230.83 111.881 229.183 99.3337 222.653C86.6747 221.873 73.9458 222.09 61.3507 220.611C48.7541 219.132 36.0892 215.83 26.7495 210.003C18.003 207.507 10.3906 201.157 6.54953 192.911C2.70842 184.666 2.77085 174.659 6.88994 166.55C7.4548 165.438 8.12819 164.323 9.17766 163.65C11.5739 162.111 14.6792 163.444 17.3564 164.415C26.7064 167.804 37.7645 165.982 45.5299 159.768C53.2969 153.556 57.5037 143.169 57.8679 134.273C57.4769 131.174 56.7203 128.977 59.6695 127.95C68.5587 124.853 69.0344 154.561 59.6234 166.756C50.2124 178.953 33.0077 183.621 17.9822 180.222C10.1617 178.454 1.89382 173.557 0.732867 165.624C0.266107 162.431 1.03909 159.197 1.86112 156.076C4.73006 145.187 8.26941 134.474 12.4494 124.018C13.7026 120.883 16.567 117.115 19.595 118.612C21.468 119.538 21.9169 122.138 21.2034 124.1C20.4884 126.062 18.9439 127.583 17.6046 129.184C10.9629 137.12 8.88779 148.63 12.3394 158.387C16.4154 127.938 29.7448 98.7877 53.178 75.0335C52.185 72.8394 51.1712 70.5621 51.1697 68.154C51.1682 65.7459 52.4704 63.1608 54.773 62.4562C57.0756 61.7516 59.9698 63.8996 59.3588 66.229C55.873 64.9298 53.719 60.7973 54.6526 57.197C55.5846 53.5952 59.4733 51.0281 63.1509 51.584C60.7026 49.0689 60.1021 44.9409 61.7342 41.8341C63.3664 38.7258 67.1049 36.8766 70.5655 37.4653C67.982 35.1404 69.2589 30.4639 72.2051 28.6191C75.1514 26.7744 78.9285 27.033 82.3371 27.7183C89.3221 29.1245 95.992 32.0737 101.731 36.2969C103.94 37.9231 106.105 39.8645 106.974 42.4658C107.844 45.0672 106.931 48.4386 104.392 49.4747C102.357 50.3056 100.065 49.4553 98.036 48.611C92.6311 46.3619 87.2276 44.1129 81.8227 41.8638C88.1641 42.8062 94.2499 45.4269 99.2935 49.3855C102.165 51.6405 104.886 55.5515 102.965 58.6568C101.45 61.105 98.0077 61.3325 95.1447 61.0262C87.9367 60.2562 80.9086 57.8436 74.7455 54.0263C82.7384 55.3969 90.2779 59.296 96.0173 65.0249C97.5647 66.5694 99.081 68.7768 98.1995 70.7762C97.4324 72.5169 95.2637 73.0788 93.3713 73.2646C85.7664 74.0123 77.9252 72.0858 71.5317 67.8998C79.6361 68.1272 87.3168 73.7744 89.9524 81.4418C82.3415 85.1476 72.99 85.048 65.4594 81.1802C59.0244 77.8742 53.7354 70.0091 57.0533 63.5815C58.9025 59.9991 62.9041 57.9343 64.838 54.3965C66.497 51.361 66.3944 47.7057 67.2001 44.3418C68.5067 38.8849 72.4117 34.1088 77.5 31.7437C80.085 30.5412 82.9406 29.9332 85.3993 28.4883C90.8086 25.3102 93.2376 18.78 94.3391 12.6036C94.8474 9.75399 95.1908 6.781 96.6684 4.29112C98.146 1.80123 101.168 -0.0672918 103.921 0.833525C107.386 1.96624 108.303 6.39897 108.317 10.0453C108.345 18.0531 106.806 26.0623 102.003 34.9397C103.203 43.603 104.4 52.4432 102.831 61.047C101.263 69.6509 96.435 78.1388 88.512 81.8431C84.6278 83.6596 80.2025 84.2572 76.5457 86.4974C69.5829 90.7636 67.2595 99.6083 67.8155 105.087C64.0814 113.092 60.2626 121.507 60.7249 130.328C60.8736 133.17 61.4682 135.966 61.8636 138.785C64.2182 155.569 59.1448 173.258 48.2502 186.241C47.061 187.659 39.0815 193.851 65.2186 162.906C65.0105 168.451 61.3567 184.046 64.5957 179.542C71.4098 170.067 69.6751 168.781 69.4209 162.912C70.8227 163.394 72.2259 163.877 75.8129 163.832C87.9843 166.153 100.23 162.535 112.618 162.72C144.991 163.208 133.788 165.766 162.669 152.481C167.643 150.194 188.393 149.088 197.016 151.233C210.145 152.487 223.443 151.972 239.302 150.041C242.9 138.657 244.838 126.752 244.548 115.077C245.881 106.678 244.45 97.8631 240.527 90.3191C238.824 87.0429 235.666 83.5942 232.094 84.5322C229.121 85.3141 227.742 88.7286 227.266 91.7655C226.495 96.6903 227.113 102.177 230.475 105.856C233.838 109.535 240.469 110.318 243.656 106.485C246.849 102.645 245.146 96.7036 242.189 92.6797C239.231 88.6557 235.146 85.3453 233.289 80.7104C231.51 76.2718 232.064 71.1716 233.783 66.7091C235.501 62.2467 238.297 58.2955 243.536 54.4604C241.578 57.2892 238.348 59.1993 234.927 59.5531C239.439 43.3369 252.489 29.7637 268.515 24.6175C284.541 19.4727 303.054 22.9125 316.838 34.5235C320.191 39.9314 322.003 46.2846 322.008 52.6483C321.989 49.2235 321.412 45.803 320.306 42.561C324.071 44.2719 326.808 48.064 327.243 52.1771C327.679 56.2903 325.8 60.5714 322.091 64.2326C322.403 81.6068 319.542 99.0315 313.691 115.393C316.477 116.38 319.668 114.898 321.507 112.584C323.344 110.269 324.102 107.296 324.682 104.398C325.082 102.398 325.418 100.316 324.921 98.3373C324.425 96.3603 322.888 94.5051 320.579 93.8109C320.927 85.818 321.274 77.8251 321.621 69.8322C321.712 67.7393 321.791 65.569 320.993 63.6306C320.196 61.6937 318.259 60.0556 314.098 60.393C313.956 54.9227 309.237 50.4305 304.026 48.7597C298.814 47.0874 293.186 47.6225 287.741 48.174C279.714 48.9886 271.687 49.8017 263.66 50.6163C260.541 50.9329 257.302 51.2882 254.631 52.9278C251.96 54.5674 250.047 57.8957 251.057 60.8627C248.044 60.4346 245.651 63.7495 245.58 66.7909C245.507 69.8322 246.925 72.6819 247.744 75.6117C249.601 82.2564 248.232 89.7245 244.703 96.17C242.671 105.574 244.582 115.671 249.443 123.973C254.304 132.276 261.997 138.788 270.771 142.735C276.438 145.282 282.846 146.805 288.88 145.328C299.88 142.638 306.129 131.336 311.063 121.142C300.863 134.913 295.954 152.504 298.277 171.012C297.065 176.613 298.072 182.421 298.847 188.098C299.621 193.775 300.124 199.749 297.995 205.069C295.866 210.389 290.314 214.766 284.686 213.679C290.212 214.513 296.112 211.959 299.284 207.358C299.648 212.303 300.011 217.245 300.375 222.189C307.828 220.49 315.548 219.961 323.163 220.631C320.306 213.563 320.576 205.68 320.78 198.059C320.984 190.438 321.01 182.503 317.743 175.616C314.476 168.727 306.905 163.265 299.47 164.943C304.626 199.822 303.012 235.69 296.535 269.543C295.016 276.393 293.495 283.243 291.976 290.092C298.636 288.741 305.297 287.39 315.463 286.54C322.365 304.494 330.783 324.126 348.255 332.169C354.928 335.24 362.554 336.377 368.495 340.694C385.857 353.31 378.214 382.936 392.501 398.952C392.117 385.549 391.732 372.146 391.349 358.743C391.187 353.107 391.14 347.053 394.295 342.38C397.149 338.151 402.054 335.905 406.483 333.367C426.226 322.049 439.957 300.843 443.308 278.685C461.666 288.222 480.903 296.067 500.695 302.087C503.499 302.94 506.423 303.764 509.32 303.325C512.534 302.838 515.296 300.862 517.921 298.945C529.035 290.825 540.15 282.706 552.867 277.405C552.574 291.124 552.644 306.02 560.979 316.921C570.91 329.91 590.585 332.747 605.511 326.07C620.436 319.391 630.826 305.039 636.383 289.661C641.939 274.284 643.277 257.755 646.09 241.735C642.922 244.03 638.786 245.168 634.997 244.195C631.208 243.223 627.969 239.904 627.657 236.005C628.238 243.467 634.022 250.234 641.305 251.967C637.035 255.521 630.303 254.724 625.884 251.356C621.466 247.987 618.988 242.655 617.433 237.322C615.878 231.988 615.069 226.436 613.064 221.428C612.431 207.73 611.798 188.086 611.166 174.388C609.886 178.303 608.593 191.374 609.504 195.391C610.415 199.407 614.438 200.049 618.408 198.954C622.554 197.809 624.045 192.328 622.655 188.258C621.267 184.188 617.969 181.128 615.141 177.887C609.055 170.917 604.815 162.573 600.079 154.624C595.343 146.675 589.857 138.849 582.108 133.793C574.359 128.738 563.871 126.972 554.831 133.347C544.697 129.549 532.152 133.914 526.565 143.182C522.102 150.583 522.068 159.752 522.432 168.387C523.465 192.919 527.501 219.227 544.534 236.913C549.14 241.697 554.823 245.786 561.362 246.953C569.447 248.396 577.801 245.135 584.251 240.051C590.701 234.967 595.574 228.198 600.359 221.522C600.448 227.819 595.027 232.81 589.481 235.794C583.935 238.777 577.653 240.797 573.309 245.358C568.966 249.917 567.762 258.374 571.986 261.865C567.316 267 561.639 271.214 555.373 274.199C557.462 267.508 558.312 260.431 557.866 253.435C559.846 259.277 557.899 266.24 553.176 270.208C548.453 274.175 541.259 274.892 535.846 271.935C540.029 266.934 541.963 260.12 541.028 253.667C543.772 259.63 539.231 266.906 533.19 269.47C527.149 272.033 520.268 271.181 513.779 270.193C512.143 269.943 510.349 269.6 509.321 268.302C507.868 266.465 508.69 263.801 509.458 261.587C515.67 243.721 513.897 223.24 507.976 207.259C500.056 197.626 498.439 183.994 500.902 171.769C503.365 159.544 509.433 148.385 515.612 137.554C520.326 129.292 525.326 120.892 532.798 115.004C540.269 109.116 550.841 106.207 559.48 110.189C554.147 114.979 550.951 122.065 550.888 129.233C552.312 117.721 562.068 107.759 573.547 106.094C585.026 104.429 597.21 111.207 601.541 122.655C625.958 146.127 639.828 180.184 639.846 214.199C642.024 218.318 644.295 222.552 647.905 225.498C651.514 228.444 656.843 229.8 660.899 227.509C659.038 232.394 654.973 236.388 650.057 238.163C645.141 239.938 639.46 239.461 634.908 236.891C638.773 241.604 646.466 242.541 651.349 238.893C654.922 236.223 656.864 231.684 660.699 229.402C664.296 227.261 668.788 227.553 672.948 228.022C677.571 228.546 682.177 229.206 688.125 231.507C712.166 251.601 729.635 279.433 737.279 309.818C722.072 316.992 708.668 327.953 698.618 341.433C679.534 320.711 667.868 293.294 666.171 265.174C672.454 290.681 682.584 315.238 695.343 337.192C698.738 346.139 702.135 355.086 705.53 364.034C706.527 361.019 707.525 358.005 708.524 354.991C704.137 357.532 702.832 363.152 701.982 368.148" stroke="#161616" stroke-width="2" stroke-linecap="round" stroke-linejoin="round"/>
<path d="M255.123 341.314C259.716 342.438 260.724 348.422 260.794 353.151C261.006 367.434 261.217 381.717 261.429 396M31.4528 349.283C43.5781 332.41 56.5656 316.154 70.3455 300.602C85.8199 283.137 105.176 265.317 128.502 265.952C138.849 273.452 146.172 284.02 149.574 296.075C152.978 308.129 151.965 321.949 144.467 331.983C143.399 333.41 142.173 334.839 141.879 336.597C141.335 339.86 144.407 342.83 147.663 343.422C150.917 344.014 154.212 342.896 157.332 341.796C153.869 343.309 149.632 342.888 146.536 340.722C150.775 350.19 155.296 355.201 160.944 358.691C166.593 362.181 173.63 364.005 179.969 362.025C186.307 360.044 191.392 353.54 190.338 346.984C188.507 351.795 186.676 356.607 184.844 361.419C198.162 358.082 205.832 343.193 205.768 329.464C205.704 315.734 199.806 302.809 194.496 290.149C189.186 277.488 184.272 263.909 186.295 250.33C179.224 238.74 181.416 222.078 190.756 210.902C195.333 205.426 201.514 201.084 204.451 194.579C206.329 190.423 206.688 185.769 207.765 181.337C208.841 176.906 210.938 172.332 214.968 170.197C223.373 165.747 235.507 173.955 242.555 167.569C256.308 172.185 265.105 184.233 268.113 197.192C271.121 210.15 268.967 223.856 264.549 236.403C261.854 246.083 257.889 255.322 251.966 263.312C246.042 271.302 237.884 278.044 228.202 280.325C218.521 282.605 207.293 279.66 201.411 271.64C207.317 275.098 213.225 278.556 219.13 282.013C215.234 288.377 215.359 298.118 217.837 306.337C220.315 314.556 224.782 322.076 227.152 330.326C232.716 349.697 225.649 369.347 220.706 389" stroke="#161616" stroke-width="2" stroke-linecap="round" stroke-linejoin="round"/>
<path d="M232.323 332.749C233.243 326.156 239.081 311.393 245.95 305.427C251.943 302.976 257.937 300.523 263.93 298.072C263.285 301.247 265.045 316.909 261.997 318.001C259.313 318.963 260.104 302.118 261.898 299.905C263.694 297.691 266.483 296.584 269.144 295.564C290.79 287.277 297.277 291.777 328.174 276.57C330.352 274.093 333.515 272.506 336.803 272.241C335.388 288.374 344.018 304.965 358.041 313.069C372.061 321.172 390.746 320.368 404.019 311.088C417.291 301.808 424.463 284.536 422.984 269.945C417.208 266.668 415.397 259.187 415.358 252.547C415.32 245.906 416.438 239.039 412.892 232.301C403.081 240.237 392.114 248.591 379.497 248.315C372.668 248.166 366.093 245.405 360.473 241.524C354.854 237.643 350.083 232.669 346.85 227.637C340.655 221.602 339.843 212.142 338.394 203.614C337.466 198.157 336.128 192.769 334.396 187.511C333.799 185.696 333.128 183.85 331.883 182.4C330.637 180.951 328.684 179.961 326.815 180.362C323.578 181.058 322.5 185.069 322.143 188.36C321.535 193.976 321.241 199.901 323.616 205.026C325.992 210.152 331.868 214.079 336.527 211.605C338.297 202.401 334.896 193.014 330.799 184.582C326.704 176.151 321.783 167.892 320.212 158.651C318.807 150.387 320.188 141.933 321.592 133.671C322.39 128.968 323.246 124.133 325.769 120.085C328.966 114.956 334.414 111.743 339.653 108.728C350.914 102.247 362.659 95.6097 375.611 94.5736C388.564 93.539 403.083 99.8418 407.797 112.569C409.27 116.247 410.743 119.923 412.216 123.6C412.712 124.839 413.294 126.175 414.471 126.802C415.608 127.407 416.983 127.184 418.272 127.192C422.998 127.223 427.209 130.722 429.19 135.012C431.172 139.302 431.261 144.234 430.692 148.926C430.122 153.617 428.935 158.222 428.825 164.51C426.586 174.904 424.347 185.297 422.109 195.691C421.814 197.06 420.03 204.415 420.261 205.796C420.491 207.177 421.373 208.545 422.721 208.925C424.322 209.376 425.947 208.349 427.195 207.249C431.792 203.198 436.276 191.434 436.908 185.339C437.165 182.857 437.006 180.212 435.694 178.091C434.38 175.97 431.652 174.581 429.097 177.346C426.956 178.188 425.342 180.243 425.033 182.524C423.054 175.124 423.8 167.3 423.087 159.673C422.373 152.046 419.663 143.866 413.193 139.695C410.411 128.869 399.2 121.848 388.083 120.672C376.967 119.496 365.922 123.003 355.457 126.935C350.874 128.656 346.187 130.557 342.73 134.025C339.274 137.492 337.34 142.941 340.491 148.97C334.536 159.236 333.625 172.277 337.74 183.798C340.225 208.255 342.712 232.711 345.197 257.168C345.459 259.749 345.718 262.39 345.096 264.908C344.475 267.426 342.789 269.84 341.265 270.218C335.001 273.881 328.737 277.542 322.472 281.205C325.363 298.924 337.695 314.817 354.139 322.021C370.584 329.225 390.626 327.514 405.611 317.625C420.597 307.737 430.054 289.984 431.032 273.823C429.159 272.533 427.286 271.241 425.413 269.95C446.242 279.244 467.071 288.539 487.054 298.809C496.482 296.273 506.747 300.947 513.173 308.298C519.599 315.648 522.822 325.239 525.072 334.739M491.259 363C493.633 328.563 495.312 302.739 489.359 338.268C487.356 350.226 485.71 361.901 484.765 373.5" stroke="#161616" stroke-width="2" stroke-linecap="round" stroke-linejoin="round"/>
</g>
<defs>
<clipPath id="clip0_81_3130">
<rect width="750" height="410" fill="white"/>
</clipPath>
</defs>
</svg>
