<svg viewBox="0 0 240 240" fill="none" xmlns="http://www.w3.org/2000/svg">
<path opacity="0.46" d="M97.835 24.0548C106.538 19.1222 162.77 3.76867 182.109 68.0375C197.677 119.782 219.425 115.383 220.906 152.836C222.64 196.663 187.086 209.566 143.444 209.566C99.8023 209.566 28.1568 214.897 22.7031 163.118C20.5305 118.595 44.0692 104.887 56.0691 90.4204C68.069 75.9511 64.9648 42.6862 97.835 24.0579V24.0548Z" fill="#EEEED7"/>
<path opacity="0.46" d="M131.617 38C131.617 38 166.833 38.4137 182.405 95.7131C193.362 136.042 203.556 125.71 204.298 164.52C204.914 196.673 169.824 216.245 152.399 214.584C134.977 212.923 93.8329 148.888 93.8329 148.888L131.617 38Z" fill="#E8E8CC"/>
<path opacity="0.46" d="M200.949 207.571C201.16 205.664 202.758 204.107 204.729 204.167C206.017 204.205 206.977 204.918 207.608 205.9C208.868 207.205 209.222 209.418 207.706 210.972C207.511 211.174 207.305 211.341 207.091 211.487C206.374 212.128 205.284 212.374 204.315 212.166C203.573 212.008 202.979 211.667 202.531 211.218C201.473 210.394 200.778 209.08 200.949 207.571Z" fill="#E8E8CC"/>
<path opacity="0.46" d="M180.852 213.965C180.198 213.798 179.873 213.091 180.031 212.472C180.025 212.027 180.198 211.588 180.536 211.272C181.035 210.804 181.66 210.691 182.314 210.795C182.595 210.839 182.901 211.117 183.04 211.354C183.192 211.613 183.258 211.998 183.164 212.289C183.122 212.415 183.062 212.522 182.996 212.623C182.965 212.908 182.851 213.185 182.639 213.41C182.38 213.681 182.039 213.836 181.686 213.88C181.433 214 181.139 214.038 180.855 213.965H180.852Z" fill="#E8E8CC"/>
<path opacity="0.46" d="M51.3575 197.718C50.5523 196.12 48.6292 195.283 46.8892 195.978C45.7523 196.436 45.1271 197.374 44.8776 198.438C44.1734 199.995 44.5713 202.044 46.4218 202.91C46.6618 203.02 46.8986 203.102 47.1355 203.159C47.9786 203.484 49.0302 203.342 49.8291 202.843C50.4386 202.461 50.8586 201.969 51.1176 201.429C51.7965 200.361 51.9923 198.981 51.3544 197.715L51.3575 197.718Z" fill="#E8E8CC"/>
<path opacity="0.46" d="M24.8063 154.686C24.2378 153.556 22.88 152.965 21.6516 153.458C20.8495 153.78 20.4074 154.443 20.2305 155.195C19.7316 156.294 20.0158 157.743 21.32 158.352C21.4874 158.431 21.6579 158.488 21.8252 158.529C22.4221 158.76 23.1642 158.659 23.7294 158.305C24.1589 158.037 24.4557 157.686 24.6389 157.307C25.1189 156.552 25.2547 155.58 24.8063 154.686Z" fill="#E8E8CC"/>
<path d="M49.6271 184.676C50.3534 184.177 50.4323 183.157 49.9587 182.466C49.766 181.916 49.3524 181.455 48.7934 181.218C47.9692 180.868 47.1482 181.01 46.3934 181.436C46.0682 181.619 45.8155 182.099 45.7524 182.45C45.6829 182.838 45.7777 183.34 46.024 183.656C46.1313 183.792 46.2513 183.899 46.3808 183.994C46.5482 184.332 46.8166 184.619 47.1766 184.799C47.6155 185.017 48.1082 185.052 48.5629 184.948C48.926 184.982 49.3081 184.894 49.6239 184.676H49.6271Z" fill="#EFEFD2"/>
<path d="M113.326 222.223C113.004 221.585 112.594 220.749 111.935 220.398C111.144 219.973 110.434 220.405 109.68 220.5C109.68 220.449 109.673 220.398 109.673 220.346C109.856 219.452 110.09 218.558 110.2 217.642C110.368 216.22 110.419 214.791 110.536 213.362C110.756 210.613 111.012 207.865 111.115 205.109C111.188 203.116 107.93 202.596 107.571 204.626C107.074 207.411 106.876 210.247 106.927 213.076C106.942 213.875 106.956 214.674 106.993 215.473C106.956 215.443 106.927 215.414 106.891 215.392C105.06 213.999 102.718 213.955 100.785 215.26C98.6763 216.682 100.155 219.445 98.6764 221.241C94.95 221.314 91.2382 222.113 89.6495 225.975C89.0272 227.492 88.6758 229.632 89.2981 231.201C89.8033 232.476 91.4432 232.894 92.6731 233.004C94.7596 233.194 96.8461 233.333 98.9399 233.245C99.899 233.209 100.858 233.128 101.81 232.982C103.179 232.769 104.416 232.249 105.814 232.439C108.055 232.747 110.617 232.366 112.828 231.963C114.636 231.633 114.46 229.302 114.556 227.815C114.673 225.865 114.219 223.96 113.348 222.223H113.326Z" stroke="#161616" stroke-width="2" stroke-miterlimit="10"/>
<path d="M137.031 222.223C137.353 221.585 137.763 220.749 138.422 220.398C139.213 219.973 139.923 220.405 140.677 220.5C140.677 220.449 140.684 220.398 140.684 220.346C140.501 219.452 140.267 218.558 140.157 217.642C139.989 216.22 139.938 214.791 139.821 213.362C139.601 210.613 139.345 207.865 139.242 205.109C139.169 203.116 142.427 202.596 142.786 204.626C143.283 207.411 143.481 210.247 143.43 213.076C143.415 213.875 143.4 214.674 143.364 215.473C143.4 215.443 143.43 215.414 143.466 215.392C145.297 213.999 147.639 213.955 149.572 215.26C151.681 216.682 150.202 219.445 151.681 221.241C155.407 221.314 159.119 222.113 160.707 225.975C161.33 227.492 161.681 229.632 161.059 231.201C160.554 232.476 158.914 232.894 157.684 233.004C155.597 233.194 153.511 233.333 151.417 233.245C150.458 233.209 149.499 233.128 148.547 232.982C147.178 232.769 145.941 232.249 144.543 232.439C142.302 232.747 139.74 232.366 137.529 231.963C135.721 231.633 135.896 229.302 135.801 227.815C135.684 225.865 136.138 223.96 137.009 222.223H137.031Z" stroke="#161616" stroke-width="2" stroke-miterlimit="10"/>
<path d="M183.263 111.738C163.577 83.8804 169.383 72.0515 160.356 49.5368C151.886 28.4 130.728 37.935 128.165 39.1809C125.61 37.9277 104.467 28.378 95.9676 49.5002C86.9115 72.0002 92.7024 83.8365 72.9796 111.672C53.2641 139.5 55.5263 171.381 77.1013 190.334C96.6265 207.484 125.098 205.498 128.063 205.241C131.021 205.505 159.492 207.528 179.039 190.4C200.636 171.477 202.942 139.603 183.263 111.745V111.738Z" fill="#D3D360"/>
<path d="M191.397 121.932C189.501 118.055 187.275 114.362 184.801 110.836C179.2 102.877 174.332 94.3827 171.396 85.0603C169.251 78.2663 168.204 71.2231 166.674 64.2752C165.839 60.4788 164.836 56.7191 163.563 53.0472C162.128 48.9064 160.488 44.8534 157.684 41.4381C153.518 36.3591 147.222 33.9625 140.743 34.1971C136.438 34.3583 132.111 35.443 128.173 37.2239C121.657 34.2704 113.662 32.9145 106.883 35.509C100.968 37.7736 96.9266 42.6547 94.518 48.4007C92.0289 54.3298 90.3816 60.5448 89.0858 66.8257C87.9291 72.4617 86.9481 78.1417 85.3009 83.6678C83.2217 90.6523 80.0956 97.2264 76.296 103.434C73.8654 107.406 71.0395 111.122 68.587 115.08C66.2955 118.781 64.3261 122.665 62.6716 126.696C59.6626 134.025 57.8836 141.897 57.7079 149.827C57.3712 164.719 63.0816 179.23 73.7629 189.645C84.21 199.84 98.2883 204.941 112.564 206.612C116.964 207.125 121.423 207.33 125.852 207.147C127.975 207.059 130.032 207.169 132.163 207.205C144.096 207.41 156.307 205.27 167.15 200.199C180.899 193.764 191.675 181.84 196.141 167.255C200.753 152.186 198.228 135.909 191.404 121.925L191.397 121.932ZM191.705 169.263C188.395 178.102 182.356 185.98 174.771 191.565C167.377 197.003 158.694 200.331 149.733 202.104C143.591 203.321 137.287 203.827 131.028 203.621C129.864 203.585 128.685 203.423 127.521 203.497C125.684 203.614 123.853 203.665 122.016 203.651C105.485 203.511 88.1634 198.821 76.113 186.977C69.4948 180.476 64.8093 172.239 62.6423 163.217C60.4094 153.909 60.9511 144.117 63.5574 134.949C64.9997 129.87 67.0642 124.989 69.6119 120.364C72.4378 115.248 76.0251 110.638 79.0926 105.669C83.8 98.0399 87.4679 89.8534 89.6715 81.1539C91.4652 74.0961 92.4462 66.855 94.3643 59.8265C96.3849 52.4243 98.9326 43.6588 106.136 39.7231C111.071 37.0261 117.023 37.3705 122.272 38.8583C123.26 39.1368 124.241 39.4666 125.208 39.8257C125.537 39.9503 125.859 40.0822 126.189 40.2142C126.247 40.2435 126.709 40.4414 126.833 40.5C127.799 40.9324 128.466 40.9617 129.447 40.522C130.281 40.1482 130.076 40.2215 131.043 39.855C135.64 38.1034 140.831 37.0847 145.707 38.1254C148.833 38.7923 151.651 40.2801 153.906 42.5521C156.944 45.6156 158.592 49.6099 159.997 53.6116C162.523 60.816 163.826 68.2915 165.364 75.7451C167.011 83.7117 169.463 91.3778 173.16 98.6409C175.642 103.522 178.578 108.154 181.726 112.625C193.198 128.968 198.93 149.966 191.705 169.256V169.263Z" fill="#8F8F2D"/>
<path d="M117.008 122.892C117.008 122.892 100.36 126.645 95.5137 142.769C90.6672 158.892 98.3176 169.783 105.426 174.628C112.542 179.472 127.843 186.068 142.346 177.874C156.849 169.688 159.412 155.44 156.329 145.356C154.206 138.415 149.411 127.964 137.866 123.442C132.646 121.397 124.79 120.606 117.008 122.885V122.892Z" fill="#D8B79F"/>
<path d="M115.2 70.4096C114.504 69.7427 113.736 69.5448 113.033 69.6841C112.513 69.3909 111.854 69.3543 111.247 69.816C109.328 71.2745 108.97 73.4219 109.241 75.6938C109.49 77.7753 110.697 79.7101 113.011 79.7614C117.616 79.864 117.777 72.8795 115.2 70.4096Z" fill="#161616"/>
<path d="M144.901 70.6513C144.206 69.9844 143.437 69.7865 142.734 69.9258C142.214 69.6326 141.556 69.596 140.948 70.0577C139.03 71.5162 138.671 73.6636 138.942 75.9356C139.191 78.017 140.399 79.9518 142.712 80.0031C147.317 80.1057 147.478 73.1212 144.901 70.6513Z" fill="#161616"/>
<path d="M67.9354 116.465C63.9162 115.615 59.5968 117.132 56.6098 119.88C54.9772 121.375 53.6448 123.127 52.5393 125.04C52.0634 125.861 51.4778 126.88 51.0751 127.928C49.5304 127.319 48.4395 128.147 47.8612 129.357C47.5757 128.939 47.1437 128.617 46.4921 128.477C44.23 127.986 43.4979 130.156 43.798 131.827C43.9518 132.684 44.1055 133.63 44.4423 134.487C44.3837 134.875 44.4862 135.286 44.7717 135.696C44.7864 135.718 44.801 135.74 44.8156 135.762C45.1304 136.202 45.8772 136.415 46.397 136.305C46.8436 136.209 47.173 136.019 47.4219 135.77C47.4512 135.894 47.4878 136.011 47.5391 136.136C47.5537 136.165 47.561 136.195 47.5757 136.224C47.8026 136.774 48.4908 137.169 49.0838 137.206C49.0984 137.206 49.1131 137.206 49.135 137.206C49.1643 137.206 49.1936 137.206 49.2229 137.206C50.0868 137.184 50.6578 136.788 51.0605 136.217C51.0678 136.239 51.0751 136.261 51.0897 136.283C51.3167 136.832 52.0049 137.228 52.5979 137.265C52.6125 137.265 52.6272 137.265 52.6491 137.265C52.6784 137.265 52.7077 137.265 52.737 137.265C54.8747 137.206 55.2042 134.875 55.724 133.234C56.2291 131.658 56.7562 129.503 55.3067 128.375C55.3872 128.25 55.4604 128.125 55.5409 128.008C56.5 126.542 57.4517 125.077 58.6963 123.823C60.9731 121.537 64.0626 120.078 67.3058 120.767C70.0512 121.346 70.6662 117.029 67.9281 116.45L67.9354 116.465Z" stroke="#161616" stroke-width="2" stroke-miterlimit="10"/>
<path d="M164.163 40.8738C162.252 36.3445 159.763 32.2623 157.23 28.0628C154.814 24.0538 152.091 20.1401 148.745 16.8421C146.27 14.4015 143.32 12.9064 140.04 11.7997C133.268 9.5204 125.962 9.05135 119.007 10.759C115.551 11.6092 111.949 12.8771 109.08 15.0391C105.646 17.6263 102.937 21.3567 100.565 24.8966C97.3366 29.7264 94.5473 34.6662 92.2339 40.0823" stroke="#161616" stroke-width="2" stroke-miterlimit="10"/>
<path d="M169.222 55.9204C168.922 52.5051 168.446 49.0532 167.626 45.7185C167.362 44.6558 167.077 43.5491 166.542 42.5817C166.52 42.5304 166.498 42.4791 166.462 42.4278C166.425 42.3691 166.388 42.3178 166.345 42.2812C165.202 40.8007 162.801 40.1045 161.161 39.5035C157.391 38.1037 153.46 37.1069 149.528 36.2861C139.264 34.1387 128.678 33.4278 118.224 34.3146C109.504 35.0548 100.426 36.6086 92.2632 39.87C90.6526 40.5149 88.5002 41.2112 87.6875 42.8895C86.3405 45.6745 86.011 49.1338 85.5937 52.1607C85.3814 53.7217 85.1911 55.2975 85.0886 56.8732C85.0154 57.9726 84.8616 59.2478 85.5205 60.2079C86.216 61.2046 87.4826 61.5638 88.632 61.6444C89.8326 61.7323 90.777 61.1387 91.8971 60.7356C99.1669 58.1191 107.096 57.203 114.753 56.5141C119.205 56.111 123.766 55.6566 128.239 55.8105C134.425 56.0157 140.611 56.4848 146.746 57.2983C150.692 57.826 154.631 58.4929 158.482 59.5116C160.195 59.966 161.893 60.4791 163.541 61.1387C164.617 61.5711 165.232 61.7616 166.388 61.5638C169.507 61.0361 169.434 58.4783 169.214 55.9204H169.222Z" stroke="#161616" stroke-width="2" stroke-miterlimit="10"/>
<path d="M92.9879 60.083C92.0435 58.9323 91.6043 56.8949 91.5457 55.4437C91.4652 53.223 91.5164 50.9877 91.6336 48.767C91.7434 46.7662 91.8825 44.7434 92.168 42.7646C92.373 41.3721 92.7537 40.0309 93.8957 39.1221" stroke="#161616" stroke-width="2" stroke-miterlimit="10"/>
<path d="M99.1961 58.4415C98.2517 57.2908 97.6953 55.0702 97.6441 53.619C97.5636 51.3983 97.6148 49.163 97.7319 46.9423C97.8418 44.9415 97.9809 42.9187 98.2664 40.9399C98.4714 39.5474 98.8521 38.2062 99.9941 37.2974" stroke="#161616" stroke-width="2" stroke-miterlimit="10"/>
<path d="M105.866 57.2322C104.921 56.0815 104.292 53.6117 104.233 52.1532C104.152 49.9325 104.204 47.6972 104.321 45.4765C104.431 43.4757 104.57 41.4529 104.855 39.4741C105.06 38.0815 105.441 36.7403 106.583 35.8315" stroke="#161616" stroke-width="2" stroke-miterlimit="10"/>
<path d="M157.091 58.7929C158.035 57.6423 158.474 55.6048 158.533 54.1537C158.614 51.933 158.562 49.6977 158.445 47.477C158.335 45.4762 158.196 43.4534 157.911 41.4745C157.706 40.082 157.325 38.7408 156.183 37.832" stroke="#161616" stroke-width="2" stroke-miterlimit="10"/>
<path d="M150.883 57.8846C151.827 56.7339 152.383 54.5132 152.435 53.0621C152.515 50.8414 152.464 48.6061 152.347 46.3854C152.237 44.3846 152.098 42.3618 151.812 40.383C151.607 38.9904 151.227 37.3121 150.085 36.4106" stroke="#161616" stroke-width="2" stroke-miterlimit="10"/>
<path d="M144.213 56.6751C145.158 55.5244 145.787 53.0545 145.846 51.5961C145.926 49.3754 145.875 47.14 145.758 44.9194C145.648 42.9186 145.509 40.8958 145.223 38.9169C145.018 37.5244 144.638 36.1832 143.496 35.2744" stroke="#161616" stroke-width="2" stroke-miterlimit="10"/>
<path d="M198.652 87.6769C198.557 87.7869 198.476 87.9188 198.418 88.0654C198.484 87.5157 198.535 86.966 198.586 86.4237C198.755 84.5621 195.936 84.6281 195.716 86.4237C195.599 87.3471 195.482 88.2706 195.372 89.194C195.182 90.2127 194.911 91.9351 194.369 92.067C194.077 92.2136 194.552 87.8821 194.64 85.8154C194.721 83.9684 191.844 83.9684 191.77 85.8154C191.668 88.3219 191.836 91.0556 191.236 93.5035C191.155 93.8259 191.038 93.0271 191.024 92.6606C191.024 92.6093 191.024 92.558 191.009 92.5141C191.046 92.0743 191.053 91.6272 191.009 91.1802C190.848 89.6264 190.065 89.0108 188.776 88.0947C186.873 86.7461 184.713 88.7836 186.631 90.1468C187.619 90.8504 187.466 92.1476 187.29 93.2103C187.041 94.7128 186.609 96.1859 186.792 97.725C186.939 98.9489 187.436 100.158 188.308 101.038C188.769 101.499 189.296 101.844 189.911 102.071C190.716 102.372 190.767 102.181 191.002 103.075C191.536 105.083 191.997 107.143 192.334 109.217C192.356 109.349 192.371 109.481 192.393 109.613C192.568 110.763 192.708 111.914 192.795 113.065C193 115.718 192.532 118.986 189.713 120.042C188.835 120.372 188.535 121.112 188.637 121.83C188.608 122.101 188.637 122.394 188.762 122.709C189.735 125.223 192.554 124.512 194.099 123.032C195.621 121.573 196.397 119.507 196.58 117.433C196.734 115.674 196.602 113.863 196.39 112.09C196.258 110.411 195.98 108.733 195.658 107.172C195.336 105.428 194.948 103.698 194.494 101.983C197.598 100.715 199.45 97.615 199.069 94.3316C199.377 93.9066 199.611 93.4448 199.816 92.9538C200.402 91.532 200.849 90.0442 201.354 88.593C201.939 86.8927 199.348 86.1305 198.645 87.6842L198.652 87.6769Z" stroke="#161616" stroke-width="2" stroke-miterlimit="10"/>
<path d="M214.019 39.8917C213.558 38.0228 212.892 35.934 211.398 34.6368C209.692 33.1563 207.452 32.6946 205.285 32.3355C200.431 31.544 191.104 28.4511 190.972 28.4071C186.96 26.9487 182.077 26.5456 177.765 27.3884C173.907 28.1433 170.137 30.1295 168.885 34.1164C167.662 38.0008 169.463 41.7459 172.509 44.1645C174.251 45.5423 176.235 46.4438 178.197 47.4479C178.607 47.6531 179.061 47.8729 179.413 48.1661C180.225 48.833 180.137 49.456 180.057 50.3795C179.91 52.0138 179.471 53.6775 179.178 55.2899C179.09 55.7736 179.434 56.3892 180.02 56.2133C182.297 55.5244 183.388 53.465 185.379 52.3363C188.322 50.6653 191.046 51.7866 194.055 52.4755C196.668 53.0765 199.348 53.0252 202.005 52.7394C204.56 52.4682 207.723 52.3216 209.912 50.8265C211.332 49.8591 212.438 48.0342 213.118 46.4951C214.1 44.2744 214.619 42.3176 214.026 39.8917H214.019Z" stroke="#161616" stroke-width="2" stroke-miterlimit="10"/>
<path d="M179.347 32.541C179.347 32.541 179.413 32.541 179.442 32.541C179.866 32.5923 180.211 32.6949 180.606 32.8488C181.118 33.0467 181.411 33.677 181.074 34.168C180.716 34.6811 180.394 35.2161 180.071 35.7584C180.628 35.9783 181.177 36.2495 181.697 36.4547C181.792 36.4913 181.88 36.5426 181.953 36.5939C182.085 36.3814 182.224 36.1762 182.363 35.971C182.487 35.7584 182.597 35.5459 182.685 35.3333C182.268 34.7763 182.605 33.8602 183.285 33.8602C183.388 33.8602 183.498 33.8822 183.615 33.9262C184.01 34.0801 184.186 34.1607 184.53 34.4172C185.211 34.9229 184.845 35.8904 184.237 36.0516C184.157 36.2128 184.069 36.3887 183.966 36.5793C183.878 36.7478 183.798 36.9091 183.71 37.0776C183.168 38.4042 182.443 39.7014 181.77 40.9034C181.865 40.984 181.953 41.0793 182.012 41.2039C182.246 41.6656 181.99 42.2519 181.477 42.3692C181.404 42.3838 181.331 42.3912 181.257 42.3912C180.891 42.3912 180.584 42.1786 180.291 41.9441C180.02 41.7242 179.691 41.4897 179.53 41.1672C179.405 40.9254 179.449 40.6395 179.618 40.4343C179.705 40.3317 179.808 40.2658 179.918 40.2364C180.276 39.5695 180.643 38.8806 181.016 38.199C180.972 38.1843 180.935 38.1697 180.891 38.1477C180.364 37.8765 179.735 37.5907 179.186 37.2316C178.959 37.5907 178.732 37.9498 178.483 38.2943C178.541 38.3456 178.607 38.3969 178.666 38.4482C179.317 39.0198 178.666 39.8847 177.963 39.8847C177.824 39.8847 177.677 39.848 177.546 39.7747C177.282 39.6208 177.033 39.4449 176.792 39.2544C176.704 39.2104 176.616 39.1591 176.535 39.0785C176.323 38.8879 176.111 38.6974 175.898 38.5068C175.218 37.8985 175.877 37.041 176.616 37.041C176.762 37.041 176.909 37.0776 177.048 37.1509C177.758 36.1102 178.322 34.9669 179.039 33.9335C179.025 33.9262 179.01 33.9115 178.995 33.9042C178.461 33.5231 178.637 32.5263 179.339 32.5263M187.912 35.7218C188.373 35.7218 188.842 35.8244 189.245 35.971C190.218 36.3301 189.867 37.6786 188.967 37.6786C188.879 37.6786 188.791 37.664 188.696 37.642C188.417 37.5687 188.212 37.5247 188.051 37.5247C187.693 37.5247 187.554 37.7446 187.312 38.3236C187.231 38.5068 187.166 38.6974 187.092 38.8879C187.195 38.8952 187.297 38.9099 187.407 38.9246C187.92 39.0198 188.505 39.2544 188.6 39.8407C188.659 40.1851 188.52 40.5223 188.205 40.6908C188.051 40.7715 187.905 40.8008 187.759 40.8008C187.517 40.8008 187.275 40.7128 187.026 40.6175C186.895 40.5662 186.756 40.5223 186.624 40.4783C186.507 40.918 186.404 41.4091 186.485 41.7682C186.609 42.3692 187.085 42.5964 187.502 42.9555C187.985 43.3659 187.502 44.0988 186.968 44.0988C184.171 44.0915 184.501 41.2625 185.028 39.3276C185.299 38.3236 185.731 36.6819 186.653 36.0662C187.019 35.8171 187.458 35.7218 187.912 35.7218ZM192.144 36.3887C192.583 36.3887 193.015 36.7405 192.847 37.3195C192.495 38.5508 192.239 39.8114 191.932 41.05C191.932 41.0573 191.924 41.0793 191.917 41.1013C191.902 41.3065 191.88 41.519 191.844 41.7242C191.785 42.1053 191.346 43.3146 191.565 43.6664C191.719 43.9156 192.349 43.8936 192.671 44.0109C193.425 44.2747 193.293 45.3301 192.598 45.4913C192.598 45.4913 192.598 45.4987 192.598 45.506C192.276 45.5866 191.968 45.6233 191.683 45.6233C190.35 45.6233 189.508 44.7511 189.684 43.1461C189.801 42.076 190.123 41.0133 190.299 39.9506C190.482 38.8439 190.731 37.8179 191.265 36.8285C191.353 36.6672 191.485 36.5939 191.624 36.5866C191.763 36.4474 191.946 36.3887 192.137 36.3887M196.844 37.2096C197.283 37.2096 197.715 37.5614 197.547 38.1403C197.195 39.3716 196.939 40.6322 196.632 41.8708C196.632 41.8781 196.624 41.9001 196.617 41.9221C196.602 42.1273 196.58 42.3399 196.544 42.5451C196.485 42.9262 196.046 44.1355 196.266 44.4873C196.419 44.7364 197.049 44.7145 197.371 44.8317C198.125 45.0956 197.993 46.1509 197.298 46.3122C197.298 46.3122 197.298 46.3195 197.298 46.3268C196.976 46.4075 196.668 46.4441 196.383 46.4441C195.05 46.4441 194.208 45.5719 194.384 43.9669C194.501 42.8969 194.823 41.8342 194.999 40.7715C195.182 39.6648 195.431 38.6387 195.965 37.6493C196.053 37.4881 196.185 37.4148 196.324 37.4075C196.463 37.2682 196.646 37.2096 196.837 37.2096M202.84 37.5027C203.616 37.5027 204.436 37.7739 204.97 38.3162C205.754 39.1078 205.849 40.2511 205.885 41.3065C205.929 42.5524 205.981 44.0988 205.278 45.1982C204.67 46.1436 203.535 46.6786 202.423 46.6786C201.537 46.6786 200.658 46.3342 200.087 45.5939C199.377 44.6705 199.531 43.4465 199.692 42.3692C199.831 41.4311 200.007 40.493 200.358 39.6208C200.665 38.6607 201.097 37.8105 202.181 37.576C202.393 37.532 202.62 37.5027 202.847 37.5027M202.43 44.9783C202.796 44.9783 203.177 44.861 203.455 44.6851C204.538 43.9816 204.502 41.6509 204.216 40.5369C204.048 39.87 203.923 39.335 203.038 39.335C202.269 39.335 202.232 39.7161 201.983 40.3464C201.888 40.5956 201.72 40.7568 201.529 40.8447C201.405 41.5337 201.31 42.2299 201.258 42.9408C201.215 43.5711 201.032 44.3333 201.668 44.7658C201.888 44.9123 202.152 44.9783 202.423 44.9783M179.325 31.0605C178.395 31.0605 177.604 31.6469 177.319 32.5557C177.18 33.0027 177.18 33.4718 177.304 33.9042C177.106 34.2193 176.923 34.5345 176.74 34.8496C176.587 35.1061 176.44 35.3553 176.294 35.5972C175.401 35.7145 174.595 36.3228 174.281 37.1583C173.951 38.0231 174.193 38.9685 174.91 39.6061L175.554 40.1778C175.686 40.2951 175.825 40.3904 175.979 40.4856C176.279 40.7128 176.543 40.8887 176.806 41.0426C177.158 41.2478 177.553 41.3504 177.956 41.3504C177.985 41.3504 178.007 41.3504 178.036 41.3504C178.073 41.519 178.139 41.6876 178.219 41.8488C178.505 42.4058 178.944 42.7503 179.266 43.0068L179.361 43.0801C179.647 43.3146 180.313 43.857 181.25 43.857C181.433 43.857 181.616 43.835 181.792 43.7983C182.443 43.6518 182.985 43.234 183.293 42.6404C183.41 43.256 183.637 43.7837 183.981 44.2381C184.442 44.839 185.335 45.5646 186.961 45.5719C187.51 45.5719 188.037 45.3447 188.439 44.9783C188.608 45.4254 188.835 45.7625 189.054 46.0044C189.684 46.7079 190.614 47.0964 191.683 47.0964C192.085 47.0964 192.517 47.0377 192.949 46.9351L193.696 46.7519C193.696 46.7519 193.74 46.8032 193.769 46.8325C194.399 47.5361 195.328 47.9246 196.397 47.9246C196.8 47.9246 197.232 47.8659 197.664 47.7633L199.253 47.3675L199.026 46.7519C199.026 46.7519 199.055 46.7006 199.077 46.6713C199.889 47.6241 201.105 48.1591 202.437 48.1591C204.106 48.1591 205.673 47.3309 206.522 46.0044C207.481 44.5092 207.408 42.6404 207.364 41.2698C207.328 40.2511 207.269 38.5581 206.024 37.2975C205.241 36.506 204.084 36.0516 202.854 36.0516C202.518 36.0516 202.188 36.0882 201.881 36.1542C199.846 36.6013 199.231 38.4042 198.996 39.1371C198.601 40.1558 198.411 41.1892 198.264 42.164C198.206 42.5671 198.132 43.0508 198.11 43.5638C198.03 43.5272 197.949 43.4905 197.869 43.4612H197.854C197.854 43.4392 197.869 43.4172 197.869 43.4026C197.927 43.1754 197.986 42.9702 198.008 42.7943C198.037 42.611 198.059 42.4132 198.081 42.1933C198.198 41.7389 198.301 41.2698 198.411 40.8081C198.594 40.0312 198.762 39.291 198.974 38.5654C199.172 37.8838 199.048 37.1803 198.645 36.6379C198.235 36.0882 197.569 35.7658 196.866 35.7658C196.449 35.7658 196.046 35.8757 195.709 36.0882C195.285 36.2495 194.94 36.5573 194.713 36.975C194.443 37.4807 194.23 37.9938 194.069 38.4848C194.135 38.2356 194.201 37.9864 194.267 37.7373C194.465 37.0557 194.34 36.3521 193.937 35.8097C193.527 35.2601 192.861 34.9376 192.158 34.9376C191.741 34.9376 191.339 35.0475 191.002 35.2601C190.936 35.2894 190.87 35.3187 190.804 35.348C190.541 35.0255 190.189 34.7617 189.764 34.6078C189.347 34.4539 188.688 34.2706 187.927 34.2706C187.341 34.2706 186.792 34.3879 186.316 34.6078C186.192 34.0801 185.884 33.5964 185.423 33.2519C184.962 32.9075 184.669 32.7682 184.157 32.563C183.871 32.4531 183.586 32.3944 183.3 32.3944C182.985 32.3944 182.685 32.4604 182.407 32.585C182.136 32.0866 181.682 31.6908 181.148 31.4783C180.591 31.2658 180.145 31.1485 179.64 31.0825C179.544 31.0679 179.449 31.0679 179.361 31.0679L179.325 31.0605ZM193.352 41.3578C193.432 41.028 193.513 40.6908 193.593 40.361C193.586 40.4197 193.571 40.4856 193.564 40.5443C193.498 40.9474 193.403 41.3578 193.308 41.7902C193.308 41.7975 193.308 41.8048 193.308 41.8195C193.33 41.6729 193.344 41.5263 193.359 41.3578H193.352ZM202.884 41.6363C202.884 41.6363 202.898 41.6216 202.906 41.6143C202.964 42.3545 202.862 43.1094 202.693 43.3952C202.693 43.3806 202.693 43.3586 202.693 43.3439C202.701 43.2413 202.715 43.1461 202.723 43.0508C202.752 42.5964 202.811 42.1346 202.884 41.6363ZM193.125 42.6257C193.125 42.6257 193.139 42.5817 193.139 42.5597C193.139 42.5597 193.139 42.5597 193.139 42.5524C193.139 42.5744 193.132 42.6037 193.125 42.6257Z" fill="#161616"/>
<path d="M133.488 90.7622C131.511 95.0936 124.41 94.8665 122.353 90.7476" stroke="#161616" stroke-width="2" stroke-miterlimit="10"/>
<path d="M168.731 71.0692C167.487 69.127 165.041 67.7931 163.072 66.7231C161.74 65.9975 160.019 64.7955 158.387 64.7003C157.237 63.3517 155.224 63.1612 153.438 62.8314C151.007 62.377 148.547 62.0252 146.08 61.9006C143.635 61.776 141.19 61.9006 138.781 62.3183C136.636 62.6921 133.502 63.2931 132.082 65.1327C131.965 65.2866 131.877 65.4551 131.819 65.631C130.808 65.1327 129.608 65.118 128.51 65.1547C128.348 65.1547 128.078 65.1986 127.748 65.2646C127.302 65.1986 126.935 65.162 126.738 65.1547C125.64 65.118 124.439 65.1327 123.429 65.631C123.37 65.4551 123.29 65.2866 123.165 65.1327C121.745 63.3004 118.611 62.6994 116.466 62.3183C114.058 61.8933 111.613 61.776 109.167 61.9006C106.7 62.0252 104.24 62.3843 101.81 62.8314C100.023 63.1612 98.0102 63.3517 96.8608 64.7003C95.2282 64.8029 93.5077 66.0048 92.1753 66.7231C90.1986 67.7931 87.7534 69.127 86.5162 71.0692C86.0476 71.8094 86.8236 72.6156 87.585 72.4543C89.2615 72.1025 90.8941 71.0325 92.4096 70.2556C93.1929 69.8525 93.9836 69.4494 94.7889 69.083C95.0525 68.9657 95.316 68.8485 95.5796 68.7312C95.0378 70.3949 95.1037 72.3151 95.1476 74.1766C95.2355 77.6799 95.0744 81.4104 97.7027 84.1147C100.016 86.4967 103.362 87.7426 106.598 88.1237C109.914 88.5121 113.531 88.1677 116.671 86.995C119.9 85.7858 122.111 83.3452 123.268 80.1205C123.861 78.4714 124.095 76.6905 124.197 74.9535C124.3 73.1652 124.41 71.1791 124.139 69.3688C124.212 69.2882 124.278 69.2003 124.337 69.0903C124.534 68.7092 124.695 68.5553 125.025 68.4527C125.691 68.2548 126.482 68.3574 127.17 68.2328C127.272 68.2182 127.426 68.1815 127.609 68.1449C127.821 68.1815 127.99 68.2182 128.107 68.2328C128.802 68.3501 129.586 68.2548 130.252 68.4527C130.589 68.548 130.742 68.7092 130.94 69.0903C130.999 69.2003 131.065 69.2882 131.138 69.3688C130.867 71.1718 130.977 73.1652 131.079 74.9535C131.182 76.6978 131.416 78.4714 132.009 80.1205C133.166 83.3452 135.377 85.7858 138.605 86.995C141.739 88.175 145.362 88.5195 148.679 88.1237C151.915 87.7426 155.261 86.4967 157.574 84.1147C160.195 81.4104 160.041 77.6799 160.129 74.1766C160.173 72.3151 160.246 70.3949 159.697 68.7312C159.961 68.8485 160.224 68.9657 160.488 69.083C161.293 69.4568 162.076 69.8525 162.867 70.2556C164.382 71.0398 166.008 72.1025 167.692 72.4543C168.453 72.6156 169.229 71.802 168.76 71.0692H168.731ZM120.735 77.4674C120.237 79.9885 118.985 82.4437 116.532 83.5211C114.19 84.5545 111.422 85.0455 108.882 85.0822C106.459 85.1115 103.955 84.6131 101.876 83.3232C99.262 81.7035 98.2883 79.3362 98.2225 76.346C98.1932 74.8949 98.1639 73.4291 98.1859 71.9779C98.2078 70.7613 98.2957 69.3615 99.3133 68.548C99.5915 68.3208 99.8917 68.1302 100.206 67.9617C100.558 67.7858 100.924 67.6319 101.297 67.4999C103.259 66.833 105.543 66.8477 107.484 66.4885C109.277 66.4079 111.085 66.4592 112.85 66.5985C114.409 66.7231 115.961 66.9283 117.491 67.2434C118.524 67.456 119.893 67.6905 120.552 68.6139C121.298 69.662 121.035 71.5748 121.049 72.7915C121.064 74.3599 121.042 75.9356 120.735 77.482V77.4674ZM157.032 76.346C156.966 79.3436 155.993 81.7035 153.379 83.3232C151.3 84.6131 148.796 85.1115 146.373 85.0822C143.825 85.0529 141.065 84.5545 138.722 83.5211C136.277 82.4437 135.025 79.9885 134.52 77.4674C134.213 75.9283 134.191 74.3452 134.205 72.7768C134.22 71.5529 133.956 69.64 134.703 68.5993C135.355 67.6758 136.731 67.4486 137.763 67.2288C139.293 66.9136 140.845 66.7084 142.405 66.5838C144.169 66.4446 145.977 66.3933 147.771 66.4739C149.711 66.833 151.995 66.8257 153.957 67.4853C154.323 67.6172 154.697 67.7711 155.048 67.947C155.363 68.1156 155.656 68.3061 155.941 68.5333C156.966 69.3542 157.054 70.7467 157.069 71.9633C157.091 73.4144 157.069 74.8802 157.032 76.3314V76.346Z" stroke="#161616" stroke-width="2" stroke-miterlimit="10"/>
</svg>
