<svg width="252" height="180" viewBox="0 0 252 180" fill="none" xmlns="http://www.w3.org/2000/svg">
<path d="M189.673 47.0987C194.024 47.6661 198.335 48.5513 202.562 49.7212C211.158 52.1015 219.484 55.6628 226.976 60.5066C241.558 69.9338 251.1 84.3304 251.1 102.187C251.1 133.011 218.973 158.4 177.5 158.4C176.162 158.4 174.825 158.367 173.49 158.304C157.283 157.544 140.656 152.787 126.959 144.037C120.22 139.732 114.099 134.295 109.675 127.609C107.106 123.726 98.6843 112.858 101.676 108.296C105.013 103.207 114.19 105.219 119.261 105.127C127.737 104.972 136.2 104.079 144.52 102.466C154.484 100.534 163.993 99.1502 169.937 89.9024C176.309 79.9929 172.977 67.4721 171.824 56.561C171.352 52.1034 171.293 47.8657 176.177 46.4445C176.588 46.3244 177.015 46.232 177.455 46.1618C181.251 45.5519 186.02 46.6256 189.673 47.1024V47.0987ZM9.61944 8.30731C5.32016 15.4908 5.95716 23.3046 5.42044 31.2754C4.88001 39.2869 4.3823 47.339 4.14087 55.4152C3.7583 68.167 2.87244 81.6137 4.7853 94.2897C6.3453 104.622 15.0274 106.716 24.0903 107.308C27.7154 107.544 32.31 107.079 35.534 108.906C37.2314 109.869 48.1979 124.144 47.728 124.388C47.1839 116.567 48.8497 111.948 56.282 108.247C62.2379 105.28 69.1316 104.955 75.6297 104.192C93.8353 102.048 112.217 102.37 130.503 101.479C141.503 100.943 154.681 98.9007 162.15 90.0225C167.478 83.6891 166.671 71.22 167.306 63.2621C168.121 53.0404 168.418 42.7705 168.032 32.521C167.796 26.2412 169.146 15.3892 162.646 11.9129C154.27 7.43501 143.859 8.17055 134.659 7.65494C101.698 5.80315 68.7379 3.80351 35.7699 1.85193C29.1714 1.46198 20.7363 -0.609726 14.7043 2.95709C13.0459 3.93843 11.6716 5.32819 10.5443 6.89537C10.2156 7.35185 9.9073 7.82496 9.61944 8.30546V8.30731Z" fill="#D3D360"/>
<path d="M6 124.634L44.7362 124.574C45.8548 124.573 46.9093 125.096 47.5841 125.988C52.1461 132.006 58.3159 136.799 65.2786 139.723C65.5806 139.85 65.8623 139.499 65.67 139.232C62.5083 134.827 59.4057 130.257 58.0999 125.011C56.703 119.402 57.83 112.766 62.3498 109.164C65.9855 106.266 70.9524 105.866 75.5936 105.584C93.7302 104.486 111.867 103.386 130.005 102.288C138.461 101.775 147.674 100.887 154.487 95.335C161.66 89.4874 161.468 78.5246 161.589 70.143C161.713 61.7681 161.61 53.3916 161.497 45.0167C161.402 38.0354 162.787 28.5892 158.576 22.4869C154.876 17.1236 146.169 16.0084 139.672 15.5259C104.707 12.9243 64.3591 10.3059 30.3333 8.49902C25.5503 8.24426 20.1347 8.23245 16.7773 11.6472C13.0926 15.3943 13.6848 20.8639 13.6207 25.6604C13.5296 32.527 13.4368 39.3952 13.3457 46.2618C13.3457 58.3567 12.9341 70.4551 12.8615 82.55C12.8143 90.4069 12.2575 101.375 20.9799 105.011C24.3002 106.394 28.0236 106.259 31.6189 106.364C37.1881 106.526 40.92 108.707 44.0513 113.193C48.8899 120.129 56.1091 129.018 64.0588 132.452C69.5892 134.841 75.5801 136.02 81.5779 136.352C86.1044 136.604 95.5219 137.936 98.3984 133.302C100.941 129.206 95.8205 125.313 93.1042 123.053C91.1927 121.462 89.2762 119.667 88.5338 117.295C87.7932 114.921 88.7093 111.859 91.0611 111.051C93.7453 110.128 96.4532 112.488 97.8332 114.968C100.833 120.36 102.724 126.478 106.584 131.293C110.433 136.092 115.238 140.278 120.26 143.801C140.354 157.892 173.273 163.873 196.153 153.397C198.193 152.463 199.767 152.287 200.186 154.787C200.478 156.528 200.062 158.313 199.928 160.048C199.639 163.739 198.684 167.355 197.355 170.801C197.237 171.109 197.596 171.378 197.857 171.179C203.362 166.987 209.252 160.22 211.532 153.436C213.143 148.638 219.8 147.943 223.724 145.911C241.846 136.536 249.267 116.247 244.673 96.8214C239.232 73.8158 218.297 57.9501 196.219 52.4485C190.694 51.0718 185.04 50.3277 179.389 49.6934C177.249 49.4538 175.097 49.108 172.951 48.7857C171.321 48.5411 169.58 48.45 168.098 49.1721C165.358 50.5083 165.392 53.7543 168.296 54.7969C169.882 55.3672 171.633 55.0281 173.283 54.6822C183.942 52.4535 194.5 50.1422 204.933 46.9873" stroke="#161616" stroke-width="2" stroke-miterlimit="10" stroke-linecap="round"/>
</svg>
