<svg width="252" height="180" viewBox="0 0 252 180" fill="none" xmlns="http://www.w3.org/2000/svg">
<circle cx="108.45" cy="86.85" r="85.95" fill="#D3D360"/>
<path d="M15.838 6C2.7916 14.8819 -3.77116 57.9941 38.9288 69.3749C64.3377 76.1467 69.4928 76.9858 80.3715 72.1678C91.2501 67.3498 91.4631 54.5124 94.298 52.2343C101.137 46.7354 96.6777 40.9346 87.7704 43.4364C77.6928 46.2655 71.2688 42.4986 72.9754 39.2466C76.2412 33.0238 90.7255 21.6488 103.769 20.9924C139.989 19.1695 133.9 34.7851 115.925 29.9075C88.2687 22.402 63.2954 34.2341 59.5109 37.8809C46.6921 50.2327 44.4814 68.8024 55.1862 77.7312C66.3159 87.0146 74.9654 92.4246 81.7225 98.6748C92.1801 108.348 75.3239 131.836 61.1326 139.46C55.5936 142.436 75.3385 117.886 50.8615 109.507C44.4424 107.31 65.2521 84.8068 47.3027 84.2832C41.1092 84.1025 35.9473 94.2886 40.5905 115.237C46.5368 142.064 66.6198 174.892 114.247 173.511C159.117 172.208 192.642 141.308 193.799 95.4559C194.661 61.3224 168.251 25.8749 141.459 35.1827C107.989 46.8097 103.347 54.4568 101.725 59.9264C97.217 75.1317 115.316 89.8603 132.539 93.5266C142.281 95.5995 138.487 88.0794 129.059 87.0322C119.631 85.985 118.076 87.0117 107.493 95.1629C100.965 100.191 99.0223 112.54 111.187 117.228C117.812 119.782 122.288 125.117 123.158 131.611C124.274 139.937 124.573 154.967 132.732 155.491C140.891 156.014 152.313 124.175 154.489 119.461C156.665 114.748 162.36 85.5923 157.139 88.3158C147.573 93.3048 159.391 105.79 167.681 107.069C181.196 109.153 189.575 100.818 177.141 90.3995C159.543 75.6543 211.559 58.6769 246.003 91.4995" stroke="#161616" stroke-width="2"/>
</svg>
