<svg width="95" height="82" viewBox="0 0 95 82" fill="none" xmlns="http://www.w3.org/2000/svg">
<path d="M53.2101 78.1601C53.2401 77.7601 53.2401 77.3501 53.2301 76.9501C53.2101 76.0301 53.1901 75.1201 53.1601 74.2001C53.1301 73.3201 53.0801 72.4401 52.9701 71.5601C52.9701 71.5101 52.9501 71.4601 52.9501 71.4001C52.1701 71.3701 51.4301 71.2801 50.7301 71.1201C50.7901 71.3601 50.8601 71.5801 50.8901 71.7301C51.0501 72.5501 51.2101 73.3701 51.3401 74.2001C51.5701 75.7101 51.6001 77.2601 51.5101 78.7801C51.4301 78.8601 51.3401 78.9201 51.2901 78.9701C51.0401 79.1901 50.7501 79.3901 50.4501 79.5301C49.9001 79.7901 49.2401 79.8001 48.8301 80.3101C48.5801 80.6301 48.6301 81.0201 48.9301 81.2301C49.3501 81.7701 50.0301 81.6501 50.6501 81.6001C51.3301 81.5401 52.0201 81.4001 52.6001 81.0301C53.2901 80.5901 53.5301 80.0201 53.4201 79.2201C53.3701 78.8501 53.3001 78.5001 53.2001 78.1601H53.2101Z" fill="#161616"/>
<path d="M70.7401 79.54C70.4401 79.4 70.1501 79.2 69.9001 78.98C69.8401 78.93 69.7601 78.86 69.6801 78.79C69.5901 77.27 69.6201 75.72 69.8501 74.21C69.9701 73.38 70.1301 72.56 70.3001 71.74C70.3201 71.61 70.3801 71.44 70.4301 71.25C69.7401 71.47 69.0001 71.62 68.2101 71.71C68.1201 72.53 68.0601 73.36 68.0401 74.19C68.0101 75.11 67.9901 76.02 67.9701 76.94C67.9601 77.34 67.9501 77.75 67.9901 78.15C67.8901 78.49 67.8201 78.84 67.7701 79.21C67.6601 80.01 67.9101 80.58 68.5901 81.02C69.1701 81.39 69.8701 81.53 70.5401 81.59C71.1601 81.65 71.8401 81.76 72.2601 81.22C72.5701 81.01 72.6101 80.62 72.3601 80.3C71.9601 79.79 71.2901 79.78 70.7401 79.52V79.54Z" fill="#161616"/>
<path d="M83.1401 32.1601C83.8301 31.4801 85.3701 31.9101 86.2101 32.1301C87.2501 32.4001 88.2701 32.8701 89.1501 33.5001C90.6801 34.6001 91.7601 36.1901 92.1401 38.0301C92.8001 38.3701 93.3501 38.9901 93.6801 39.6601C93.9201 40.1501 94.2801 41.2001 93.5901 41.5001C93.3901 41.5901 93.1401 41.5201 93.0801 41.2801C93.0801 41.2501 93.0401 41.1501 93.0101 41.0301C92.9201 41.2301 92.7801 41.3701 92.5901 41.4901C92.3701 41.6301 92.0801 41.4301 92.0901 41.1901C92.0901 41.1701 92.0901 41.1401 92.0901 41.0901C91.9301 41.2901 91.5901 41.1801 91.5201 40.9501C91.3601 40.4001 91.7301 39.8301 91.5201 39.3101C91.4001 39.4501 91.3101 39.6101 91.2401 39.8101C91.1601 40.0201 91.1101 40.1701 90.9601 40.3301C90.7601 40.5401 90.2701 40.4001 90.3501 40.1601C90.5401 39.5601 90.2201 38.8301 90.8101 38.2701C90.6601 37.6801 90.4301 37.3501 90.0901 36.8701C89.6501 36.2301 89.1001 35.6401 88.5001 35.1501C88.4501 35.1101 88.3901 35.0701 88.3401 35.0201C87.8201 34.6701 87.2601 34.3801 86.6701 34.1901C86.0901 34.0001 85.4901 33.8801 84.9001 33.7701C84.5001 33.7001 84.0501 33.7401 83.7101 33.5501C83.4901 33.5101 83.3701 33.4001 83.1501 33.2201C82.8701 32.9701 82.8701 32.4201 83.1101 32.1801L83.1401 32.1601Z" fill="#161616"/>
<path d="M28.9701 22.58L30.4801 22.92C30.4801 22.79 30.5201 22.65 30.5901 22.51C30.6801 22.33 30.8001 22.21 30.9401 22.07C31.1301 21.87 31.1101 21.72 31.2001 21.47C31.3801 20.96 31.7501 20.77 32.1101 20.86C32.2201 20.86 32.3301 20.92 32.4701 21.06C32.5501 21.13 32.6301 21.22 32.6901 21.33C32.7101 21.37 32.7201 21.41 32.7201 21.44C32.9601 22.1 32.4901 23.11 32.2401 23.58C32.6901 25.12 33.5401 26.49 34.7801 27.52C35.4001 28.04 36.1101 28.47 36.8701 28.76C37.2601 28.91 37.6801 29.03 38.0901 29.1C38.5201 29.17 39.1801 29.28 39.6001 29.12C40.0801 28.94 40.6501 29.58 40.1601 29.94C40.0801 30 40.0101 30.05 39.9401 30.1C40.2701 30.61 40.0001 31.5 39.2101 31.44C35.9601 31.22 32.9901 29.32 31.5901 26.49C31.1801 25.8 30.8601 25.07 30.6601 24.3C30.1501 24.22 29.5101 24.05 29.1401 23.72C28.4501 23.09 28.9801 22.59 28.9801 22.59L28.9701 22.58Z" fill="#161616"/>
<path d="M88.7201 43.0001C88.2401 41.0001 87.5001 39.0701 86.5601 37.2401C85.4201 35.0801 83.9101 33.1701 82.5201 31.1801C81.5901 29.8501 80.8301 28.5801 80.3501 27.0901C79.6501 24.8801 79.3201 22.5501 78.9101 20.2701C78.0101 15.2401 76.8201 9.74006 72.9401 6.11006C70.7401 4.05006 67.9101 2.87006 64.9601 2.40006C61.4101 1.84006 57.5201 1.94006 54.0901 3.11006C51.4201 4.02006 49.1201 5.66006 47.4101 7.92006C45.8501 10.0001 44.8801 12.4701 44.1901 14.9601C43.5101 17.4401 43.1101 19.9801 42.6501 22.5001C42.2501 24.7001 41.8401 27.0901 40.8201 28.9901C39.7401 31.0101 38.2401 32.7701 36.9601 34.6601C35.6701 36.5601 34.6401 38.5901 33.8901 40.7701C32.4501 44.9801 32.1501 49.5901 33.1401 53.9401C34.1301 58.2901 36.4301 62.4501 39.7601 65.4301C42.4301 67.8101 45.6801 69.4401 49.1001 70.4001C51.9001 71.1901 54.8301 71.5601 57.7301 71.6001C58.6801 71.6101 59.6301 71.6001 60.5801 71.5201C61.3601 71.4701 62.1501 71.5701 62.9401 71.5901C69.0401 71.7201 75.5201 70.4201 80.5301 66.7601C87.8501 61.4101 90.7901 51.7101 88.7001 43.0001H88.7201Z" stroke="#161616" stroke-width="2" stroke-miterlimit="10"/>
<path d="M57.2401 36.29C57.2401 36.29 50.5101 37.81 48.5501 44.36C46.5901 50.91 49.6801 55.33 52.5601 57.29C55.4401 59.25 61.6201 61.93 67.4801 58.61C73.3401 55.29 74.3801 49.5 73.1301 45.41C72.2701 42.59 70.3301 38.35 65.6701 36.51C63.5601 35.68 60.3901 35.36 57.2401 36.28V36.29Z" stroke="#161616" stroke-width="2" stroke-miterlimit="10"/>
<path d="M63.5501 21.78C62.5101 23.95 58.9401 23.76 57.9501 21.66" stroke="#161616" stroke-width="2" stroke-miterlimit="10"/>
<path d="M55.5701 13.6801C55.2901 13.4101 54.9801 13.3301 54.6901 13.3801C54.4801 13.2601 54.2101 13.2501 53.9601 13.4301C53.1801 14.0201 53.0301 14.9001 53.1501 15.8301C53.2501 16.6801 53.7401 17.4701 54.6801 17.4901C56.5501 17.5301 56.6101 14.6801 55.5701 13.6801Z" fill="#161616"/>
<path d="M67.6301 13.7801C67.3501 13.5101 67.0401 13.4301 66.7501 13.4801C66.5401 13.3601 66.2701 13.3501 66.0201 13.5301C65.2401 14.1201 65.0901 15.0001 65.2101 15.9301C65.3101 16.7801 65.8001 17.5701 66.7401 17.5901C68.6101 17.6301 68.6701 14.7801 67.6301 13.7801Z" fill="#161616"/>
<path d="M31.68 17.05C31.32 18.24 30.97 19.42 30.61 20.61C29.48 17.7 28.02 15.73 26.38 14.27C28.38 14.52 30.19 15.3 31.68 17.05Z" fill="#00247D"/>
<path d="M9.97009 3.09009C12.5501 4.52009 15.4401 4.61009 18.3901 4.34009C17.9301 5.94009 17.4601 7.53009 17.0001 9.12009C14.5201 7.84009 12.0801 6.16009 9.97009 3.10009V3.09009Z" fill="#00247D"/>
<path d="M27.9201 20.4701C25.7101 19.3201 23.0901 19.3801 20.3201 19.7901C20.7701 18.2601 21.2201 16.7201 21.6801 15.1801C24.0001 16.3401 26.1601 17.8101 27.9301 20.4701H27.9201Z" fill="#00247D"/>
<path d="M34.3301 8.26007C33.9701 9.46007 33.6101 10.6601 33.2501 11.8501C31.7701 10.0501 29.9701 9.22007 27.9701 8.93007C30.3301 8.00007 32.4901 7.63007 34.3301 8.25007V8.26007Z" fill="#00247D"/>
<path d="M25.11 3.5C27.86 3.24 30.46 3.34 32.64 4.67C30.01 4.87 26.95 6.33 23.73 8.17C24.19 6.62 24.65 5.06 25.11 3.5Z" fill="#00247D"/>
<path d="M2.80005 16.5401C3.18005 15.2201 3.55005 13.8901 3.93005 12.5601C5.82005 14.5201 7.99005 15.3601 10.28 15.6201C7.61005 16.6701 5.07005 17.1401 2.80005 16.5401Z" fill="#00247D"/>
<path d="M5.58008 6.74998C5.96008 5.40998 6.34008 4.06998 6.72008 2.72998C8.22008 6.11998 10.0001 8.35998 11.9101 9.97998C9.62008 9.67998 7.47008 8.76998 5.58008 6.74998Z" fill="#00247D"/>
<path d="M13.54 21C10.58 21.44 7.66005 21.52 5.05005 20.3C8.12005 19.93 11.49 18.27 14.91 16.29C14.45 17.86 14 19.43 13.54 21Z" fill="#00247D"/>
<path d="M23.5 8.96004C23.58 8.70004 23.66 8.43004 23.73 8.17004C26.95 6.33004 30 4.87004 32.64 4.67004C33.42 5.15004 34.15 5.78004 34.82 6.62004C32.15 5.69004 28.77 6.88004 25.11 8.83004C24.58 8.86004 24.04 8.90004 23.5 8.96004Z" fill="white"/>
<path d="M27.04 8.83998C29.82 7.58998 32.38 6.98998 34.49 7.71998L34.33 8.26998C32.5 7.64998 30.33 8.01998 27.97 8.94998C27.67 8.90998 27.36 8.86998 27.04 8.84998V8.83998Z" fill="white"/>
<path d="M15.14 15.48C15.06 15.75 14.98 16.02 14.91 16.29C11.49 18.27 8.12004 19.93 5.05004 20.3C4.08004 19.85 3.16004 19.21 2.29004 18.34C5.59004 19.19 9.45004 17.78 13.43 15.66C14 15.62 14.57 15.56 15.14 15.48Z" fill="white"/>
<path d="M21.84 14.62C24.44 15.92 26.84 17.63 28.7 20.94C28.45 20.77 28.19 20.61 27.92 20.47C26.16 17.82 23.99 16.34 21.67 15.18C21.73 14.99 21.78 14.8 21.84 14.62Z" fill="white"/>
<path d="M26.38 14.28C28.02 15.74 29.48 17.71 30.61 20.62C30.45 21.16 30.29 21.69 30.13 22.23C28.47 18.01 26.13 15.79 23.52 14.24C24.51 14.17 25.47 14.17 26.39 14.29L26.38 14.28Z" fill="white"/>
<path d="M11.32 15.7C8.21 17.09 5.24 17.83 2.63 17.14L2.8 16.54C5.07 17.15 7.62 16.67 10.28 15.62C10.62 15.66 10.97 15.68 11.32 15.7Z" fill="white"/>
<path d="M11.9101 9.98003C10.0001 8.36003 8.22009 6.12003 6.72009 2.73003C6.89009 2.12003 7.07009 2.27003 7.24009 1.66003C9.40009 6.60003 12.1501 8.37003 15.0501 10.08C13.9801 10.14 12.9301 10.12 11.9101 9.98003Z" fill="white"/>
<path d="M16.83 9.7C14.04 8.27 11.31 6.33 9.03003 2.5C9.34003 2.72 9.65003 2.92 9.97003 3.09C12.08 6.15 14.51 7.83 17 9.11C16.94 9.3 16.89 9.5 16.83 9.69V9.7Z" fill="white"/>
<path d="M25.11 8.83001C28.77 6.89001 32.15 5.69001 34.82 6.62001C34.71 6.98001 34.6 7.35001 34.49 7.71001C32.38 6.99001 29.83 7.59001 27.04 8.83001C26.41 8.79001 25.77 8.79001 25.11 8.83001Z" fill="#CF142B"/>
<path d="M11.32 15.7C12.02 15.73 12.72 15.7 13.43 15.66C9.44004 17.78 5.58004 19.2 2.29004 18.34C2.40004 17.94 2.52004 17.54 2.63004 17.14C5.25004 17.83 8.21004 17.09 11.32 15.7Z" fill="#CF142B"/>
<path d="M21.9001 14.39C22.4401 14.32 22.9801 14.26 23.5101 14.23C26.1201 15.78 28.4601 18 30.1201 22.22C29.6701 21.71 29.1901 21.29 28.6901 20.94C26.8301 17.63 24.4301 15.92 21.8301 14.62C21.8501 14.55 21.8701 14.47 21.9001 14.4V14.39Z" fill="#CF142B"/>
<path d="M16.7601 9.92999C16.1901 9.98999 15.6201 10.04 15.0501 10.07C12.1601 8.35999 9.85006 6.79999 7.69006 1.85999C8.26006 2.49999 8.41006 2.05999 9.03006 2.49999C11.3101 6.32999 14.0301 8.25998 16.8301 9.69999C16.8101 9.77999 16.7901 9.84999 16.7601 9.92999Z" fill="#CF142B"/>
<path d="M17.8 10.8601C13.29 11.5201 8.78 11.6801 5.25 7.91006C5.36 7.52006 5.47 7.13006 5.58 6.74006C7.46 8.76006 9.62 9.66006 11.91 9.97006C12.94 10.1101 13.99 10.1201 15.05 10.0701C15.62 10.0401 16.18 9.99006 16.76 9.93006C16.78 9.85006 16.8 9.78006 16.83 9.70006C16.89 9.51006 16.94 9.31006 17 9.12006C17.46 7.53006 17.93 5.94006 18.39 4.34006C18.84 4.30006 19.3 4.25006 19.75 4.19006C19.1 6.42006 18.45 8.64006 17.8 10.8601Z" fill="white"/>
<path d="M15.1401 15.48C14.5701 15.55 14.0001 15.62 13.4301 15.66C12.7201 15.71 12.0101 15.73 11.3201 15.7C10.9701 15.69 10.6201 15.66 10.2801 15.62C7.99005 15.36 5.82005 14.52 3.93005 12.56C4.04005 12.17 4.15005 11.79 4.26005 11.4C7.81005 15.09 12.3201 14.88 16.8401 14.17C16.2001 16.37 15.5601 18.57 14.9201 20.77C14.4601 20.85 14.0001 20.93 13.5501 21C14.0101 19.43 14.4601 17.86 14.9201 16.29C15.0001 16.02 15.0801 15.75 15.1501 15.48H15.1401Z" fill="white"/>
<path d="M20.9 13.5C25.17 12.83 29.17 12.67 31.99 16.02C31.89 16.37 31.78 16.71 31.68 17.06C30.19 15.31 28.38 14.53 26.38 14.28C25.46 14.17 24.5 14.16 23.51 14.23C22.98 14.27 22.44 14.32 21.9 14.39C21.88 14.46 21.86 14.54 21.83 14.61C21.77 14.8 21.72 14.99 21.66 15.17C21.21 16.71 20.75 18.24 20.3 19.78C19.86 19.84 19.42 19.92 18.98 20C19.62 17.84 20.25 15.67 20.89 13.49L20.9 13.5Z" fill="white"/>
<path d="M21.86 10.23C22.5 8.04001 23.15 5.85001 23.79 3.65001C24.23 3.60001 24.67 3.55001 25.1 3.51001C24.64 5.07001 24.18 6.63001 23.72 8.18001C23.64 8.44001 23.56 8.71001 23.49 8.97001C24.03 8.91001 24.57 8.86001 25.1 8.84001C25.76 8.81001 26.4 8.81001 27.03 8.84001C27.34 8.86001 27.65 8.89001 27.96 8.94001C29.96 9.23001 31.76 10.06 33.24 11.86C33.14 12.21 33.03 12.56 32.93 12.9C30.11 9.49001 26.12 9.61001 21.86 10.23Z" fill="white"/>
<path d="M16.84 14.18C12.32 14.89 7.81001 15.1 4.26001 11.41C4.42001 10.83 4.59001 10.25 4.75001 9.67003C4.92001 9.09003 5.08001 8.51003 5.25001 7.92003C8.78001 11.68 13.29 11.52 17.8 10.87C18.45 8.65003 19.1 6.43003 19.75 4.20003C20.43 4.12003 21.11 4.02003 21.79 3.93003C22.46 3.84003 23.14 3.74003 23.8 3.66003C23.15 5.86003 22.51 8.05003 21.87 10.24C26.13 9.62003 30.12 9.50003 32.94 12.91C32.78 13.43 32.63 13.95 32.47 14.47C32.31 14.99 32.16 15.51 32 16.03C29.17 12.68 25.17 12.85 20.91 13.51C20.27 15.68 19.63 17.85 19 20.02C18.33 20.14 17.65 20.27 16.98 20.4C16.3 20.53 15.61 20.66 14.93 20.79C15.57 18.6 16.21 16.4 16.85 14.19L16.84 14.18Z" fill="#CF142B"/>
<path d="M30.74 22.05C30.58 22.52 30.11 22.27 30.11 22.27C25.86 19.29 21.19 20.05 16.5 20.8C11.68 21.58 6.83005 22.37 2.19005 19.32C2.03005 19.22 1.97005 19.04 2.01005 18.87L6.79005 2.27999C6.85005 2.05999 7.09005 1.94999 7.30005 2.01999C7.35005 2.03999 14.18 4.44999 21.54 3.79999C27.14 3.23999 32.5 2.70999 35.28 6.24999C35.37 6.35999 35.38 6.50999 35.35 6.63999L30.75 22.05H30.74Z" stroke="#161616" stroke-width="2" stroke-miterlimit="10"/>
</svg>
