<svg width="750" height="410" viewBox="0 0 750 410" fill="none" xmlns="http://www.w3.org/2000/svg">
<g clip-path="url(#clip0_81_4549)">
<path d="M96.684 410C100.942 384.934 105.201 359.867 109.458 334.801C98.3655 340.037 85.3391 345.298 74.3268 339.893C66.703 336.15 62.0778 327.903 60.6327 319.534C59.1876 311.167 60.4706 302.587 61.9547 294.226C67.6509 262.103 76.2982 230.504 87.7552 199.956C90.5199 192.585 93.633 184.999 99.4718 179.72C105.932 173.879 114.794 171.675 123.269 169.669C133.622 167.219 143.978 164.768 155.748 162.222C160.506 161.87 163.181 156.192 162.691 151.445C162.198 146.698 159.658 142.43 158.375 137.835C157.514 134.756 157.224 131.52 157.523 128.337C157.777 125.626 158.452 122.963 158.627 120.243C159.016 114.214 156.932 108.278 156.902 102.237C156.845 90.5144 165.034 79.5898 175.785 74.9183C186.539 70.2468 199.271 71.3519 209.873 76.3573C218.558 80.4586 226.168 87.0577 235.51 89.2911C236.477 89.5226 237.546 89.759 238.137 90.5595C239.314 92.1495 237.72 94.2404 236.443 95.7513C235.165 97.2597 234.466 100.125 236.342 100.753C233.345 101.177 230.348 101.601 227.351 102.025C228.889 119.27 227.648 136.759 223.688 153.616C222.007 160.776 219.446 168.379 213.376 172.529C207.066 176.842 198.275 176.171 191.619 172.412C184.965 168.654 180.155 162.301 176.425 155.632C175.364 153.732 174.348 151.758 172.787 150.242C171.019 148.522 168.695 147.525 166.576 146.264C161.866 143.461 157.785 138.431 158.546 133.002C159.306 127.573 167.127 123.942 170.626 128.163C171.968 129.784 172.312 131.983 172.604 134.066C173.164 138.059 173.726 142.052 174.285 146.045C173.052 136.295 173.333 126.357 175.115 116.694C175.851 112.703 177.256 108.233 180.96 106.573C183.657 105.366 186.77 106.035 189.685 106.513C200.261 108.242 211.299 107.06 221.269 103.131C217.55 93.4898 209.994 85.3872 200.636 81.0057C197.57 79.5703 193.86 78.5517 190.901 80.1942C188.706 81.4114 187.252 83.947 184.799 84.488C182.832 84.9217 180.874 83.9214 178.907 83.484C173.141 82.201 167.214 86.0317 164.176 91.098C161.138 96.1631 160.343 102.216 159.613 108.078C158.558 116.543 157.507 125.167 159.061 133.552C160.615 141.938 165.214 150.203 172.832 154.038C172.662 157.712 169.661 161.056 166.031 161.622C164.852 161.806 163.379 161.894 162.914 162.991C162.679 163.542 162.805 164.173 162.945 164.755C166.981 181.627 179.006 196.402 194.704 203.78C200.648 194.223 205.893 184.231 211.012 173.058C212.776 172.301 214.737 172.014 216.643 172.228C217.225 186.099 213.617 200.116 206.41 211.982C201.815 209.052 197.318 205.968 192.929 202.738C189.309 207.314 184.224 210.714 178.612 212.312C171.521 204.395 165.803 195.248 161.788 185.406C158.981 178.521 156.987 170.995 156.918 164.529C139.952 167.733 123.188 172.011 106.759 177.321C104.785 177.96 102.618 178.781 101.716 180.648C99.7923 184.631 104.937 188.073 108.697 190.402C116.493 195.23 121.423 203.778 123.659 212.673C125.895 221.567 128.081 231.313 125.242 240.032C119.328 258.177 117.255 280.749 115.835 281.291C104.319 285.671 92.8008 286.382 81.2841 290.761C110.697 281.005 140.108 278.59 168.151 269.114C172.582 266.816 175.28 262.27 178.249 258.256C181.216 254.242 185.254 250.291 190.246 250.234C193.932 250.194 197.254 252.303 200.33 254.335C195.781 255.944 191.232 257.55 186.683 259.155C196.75 253.707 214.349 247.398 225.649 245.575C226.475 245.443 227.396 245.34 228.077 245.825C229.929 247.14 227.635 249.855 225.583 250.83C219.094 253.914 205.994 259.566 199.506 262.648C202.386 262.038 205.406 261.43 208.239 262.239C211.069 263.048 213.588 265.779 213.088 268.681C211.859 269.722 210.63 270.761 209.402 271.802C214.812 275.64 212.975 278.697 212.145 285.278C211.43 290.961 202.586 295.477 197.132 297.226C199.836 294.94 202.542 292.655 205.246 290.37C197.672 300.176 193.281 300.516 181.079 298.367C178.89 297.984 176.669 297.382 174.474 297.751C172.658 298.056 171.021 299.002 167.605 300.972C165.307 290.786 164.596 280.242 165.511 269.841C163.496 283.253 166.362 296.864 169.212 310.123C151.906 321.26 132.507 329.128 113.65 335.406C127.629 328.858 142.164 323.499 157.044 319.406C155.733 345.856 154.424 383.32 153.11 409.767C152.915 393.266 153.7 365.74 155.458 349.331C155.526 348.701 155.62 348.019 156.073 347.577C156.461 347.197 157.026 347.08 157.56 346.98C173.523 343.979 194.993 346.484 210.64 345.092C210.227 329.477 207.988 310.062 210.719 294.68C212.146 286.651 214.416 278.782 215.665 270.723C217.595 258.251 217.014 245.341 213.462 233.232C212.574 230.202 211.498 227.199 211.143 224.063C210.744 220.493 211.294 216.891 211.845 213.341C213.785 200.829 215.726 188.316 216.612 176.056C215.491 172.966 210.654 173.143 208.407 175.539C206.159 177.934 205.652 181.415 204.767 184.579C202.645 192.164 197.705 198.927 191.124 203.253C182.315 198.303 174.872 190.952 169.81 182.206C167.624 178.425 165.834 174.335 162.86 171.135C159.885 167.936 155.284 165.746 151.129 167.094C166.523 196.87 165.041 232.291 162.097 264.759C166.398 267.604 172.833 266.499 175.936 262.382C177.122 260.81 177.84 258.92 179.09 257.398C181.43 254.55 185.228 253.431 188.797 252.502C190.25 252.124 191.852 251.766 193.193 252.436C195.401 253.537 195.551 256.697 194.697 259.013C193.845 261.328 192.311 263.466 192.199 265.931C192.019 269.9 196.468 273.326 200.261 272.136C198.921 274.875 197.552 277.737 197.559 280.785C197.567 283.835 199.404 287.111 203.571 287.942C207.112 287.953 209.987 284.541 210.337 281.017C210.689 277.494 209.057 274.045 206.913 271.227C209.483 271.201 210.019 267.486 209.18 265.055C208.341 262.627 207.081 259.675 208.788 257.754C209.754 256.671 211.318 256.421 212.629 255.801C215.731 254.333 217.326 250.721 217.488 247.293C217.647 243.865 216.648 240.506 215.878 237.161C211.022 216.077 215.063 194.082 219.111 172.828C226.04 175.625 233.391 177.321 240.225 180.344C247.059 183.37 253.585 188.034 256.666 194.842C259.015 200.035 274.385 245.955 274.16 265.004C268.213 267.675 262.263 270.346 256.314 273.016C271.653 263.722 286.991 258.098 302.33 248.804C309.155 244.666 316.071 240.49 323.698 238.139C321.974 249.995 323.73 258.667 331.656 273.637C341.622 271.531 347.427 267.155 355.494 260.936C361.193 256.543 368.228 254.54 369.77 247.513C371.314 240.484 369.885 233.892 363.07 231.58C364.385 226.552 361.295 220.771 356.384 219.07C364.241 210.488 379.976 196.117 377.257 191.165C374.064 185.348 354.286 218.078 338.831 214.657C337.316 214.32 335.812 213.65 334.273 213.87C329.055 214.608 330.247 222.523 332.882 227.09C335.364 231.394 337.846 235.699 340.328 240.004C341.226 241.561 342.557 243.343 344.336 243.087C346.714 242.743 346.956 239.412 346.475 237.058C345.628 232.915 344.519 228.827 343.158 224.825C344.361 226.393 345.563 227.96 346.765 229.529C342.906 228.545 338.491 230.896 337.155 234.649C335.818 238.399 337.753 243.015 341.366 244.69C339.155 246.776 340.369 244.979 342.021 247.527C344.511 251.365 347.972 254.906 352.428 255.944C356.885 256.981 362.31 254.611 363.331 250.152C355.546 254.902 347.763 259.649 339.977 264.397C334.606 267.672 328.561 274.446 332.654 278.345C304.619 290.728 276.513 302.945 248.334 314.998C249.628 285.594 250.076 256.152 249.678 226.722C246.855 284.756 248.892 350.369 254.889 406.079C252.574 387.86 252.209 369.393 253.802 351.097C269.78 352.655 286.02 354.201 301.769 351.538C298.173 335.308 298.728 318.176 303.415 303.857C304.09 300.277 306.802 296.203 304.384 293.478C302.783 291.672 299.973 291.926 297.593 291.527C290.52 290.342 286.33 282.28 286.873 275.131C287.417 267.978 291.399 261.613 295.265 255.571C297.189 252.567 299.149 249.519 301.832 247.168C303.883 245.371 306.597 242.726 304.125 239.928C301.854 221.124 299.381 201.697 289.693 185.418C287.395 181.554 284.616 177.827 280.793 175.456C276.973 173.085 271.93 172.289 267.951 174.384C263.261 176.851 261.266 182.374 258.127 186.643C258.189 181.691 261.003 177.095 264.682 173.779C268.363 170.466 272.867 168.232 277.307 166.042C285.061 162.216 292.813 158.391 303.214 155.556C310.21 163.097 318.154 169.755 326.803 175.324C327.418 175.72 328.129 176.128 328.839 175.958C329.38 175.83 329.784 175.395 330.148 174.974C335.507 168.763 339.185 161.111 340.385 152.074C340.286 150.294 340.189 148.511 340.089 146.73C334.295 145.69 328.643 143.87 323.334 141.33C327.131 143.958 331.242 146.131 335.553 147.786C339.404 149.264 343.866 150.291 347.537 148.409C350.073 147.107 351.772 144.632 353.208 142.169C359.862 130.761 363.158 117.419 361.206 102.389C359.133 96.2033 357.024 89.9393 353.462 84.4734C349.903 79.005 344.671 74.3274 338.32 72.8275C337.703 72.68 337.034 72.5679 336.451 72.8177C335.988 73.0139 335.645 73.4111 335.317 73.7925C329.613 80.5061 323.827 87.344 320.283 95.4101C317.485 101.773 316.182 108.69 315.312 115.584C314.454 113.063 314.629 110.329 314.347 107.681C314.064 105.035 313.136 102.192 310.853 100.821C307.437 98.7657 302.642 101.426 301.435 105.225C300.225 109.025 301.757 113.208 304.091 116.44C305.762 118.749 308.295 120.919 311.053 122.346C309.579 129.663 308.097 137.069 308.456 144.523C308.814 151.978 311.213 159.605 316.507 164.864C307.589 164.954 299.134 157.894 297.631 149.103C297.61 152.833 297.591 156.564 297.57 160.293C291.957 160.359 286.336 159.874 280.815 158.851C290.848 137.796 284.081 112.247 291.416 90.1087C295.499 77.789 304.014 66.9923 315.041 60.1508C320.586 56.7111 327.484 54.2267 333.57 56.5771C337.1 57.9393 339.89 60.7661 343.354 62.2879C345.87 63.3931 348.637 63.7671 351.266 64.5664C359.357 67.024 365.804 73.4952 369.721 80.9898C373.637 88.4869 375.276 96.9624 376.157 105.373C377.4 117.24 377.229 129.254 375.645 141.079C374.153 152.219 371.935 165.161 379.642 173.344C370.526 172.84 362.557 164.458 362.513 155.327C361.314 159.737 361.027 164.39 361.674 168.913C355.427 169.199 349.103 167.423 343.845 161.18C342.632 157.317 341.418 153.451 340.205 149.586C345.895 160.32 345.94 173.855 340.322 184.631C336.745 181.572 332.748 179.008 328.476 177.032C327.675 181.486 325.467 185.675 322.246 188.854C316.403 181.726 310.56 174.596 305.547 165.813C315.68 179.634 323.492 195.153 329.348 212.483C328.827 217.658 328.783 222.88 329.213 228.064C330.569 225.09 329.08 221.458 330.223 218.396C332.06 213.465 338.844 213.215 344.069 213.849C349.791 197.603 350.876 179.751 347.164 162.93C360.02 166.21 374.788 166.376 384.253 175.674C391.529 182.824 393.66 193.64 394.496 203.805C395.333 213.973 397.149 217.187 400.884 227.41C398.362 232.73 395.84 238.05 393.318 243.372C396.369 233.4 402.345 224.613 406.599 215.092C412.791 201.232 413.405 193.386 415.797 178.397C423.49 177.947 431.219 178.072 437.88 179.73C439.174 173.882 444.83 170.279 449.627 166.688C454.421 163.1 459.204 157.604 457.631 151.824C454.586 154.618 451.542 157.412 448.496 160.206C451.206 157.03 453.917 153.854 456.627 150.679C450.145 153.831 443.664 156.984 437.183 160.137C440.528 157.557 443.872 154.976 447.218 152.394C438.794 153.721 430.752 157.384 424.222 162.864C426.266 162.156 428.77 163.365 429.485 165.407C426.424 162.964 423.365 160.519 420.306 158.073C418.39 156.543 414.609 155.665 414.321 158.101C414.241 158.785 414.567 159.442 414.854 160.068C417.282 165.38 417.266 171.755 414.807 177.056C422.627 176.344 430.635 177.788 437.713 181.187C434.233 209.393 427.672 237.214 418.183 264.002C416.769 267.989 415.141 272.167 411.8 274.764C407.51 278.095 401.296 277.945 396.308 275.801C391.317 273.656 387.271 269.833 383.463 265.458C378.186 265.807 372.91 266.155 367.632 266.505C372.298 267.197 377.836 267.59 380.937 264.037C382.07 262.739 382.687 261.086 383.281 259.47C386.914 249.598 390.605 239.116 388.627 228.785C386.898 219.757 380.92 211.525 381.429 202.347C380.991 216.232 389.376 229.418 388.184 243.258C387.619 249.826 384.928 255.989 383.529 261.382C379.637 273.564 384.148 286.598 387.02 299.057C390.994 316.287 405.028 354.555 395.376 360.515C392.428 362.336 389.41 364.282 387.524 367.19C385.31 370.608 384.965 374.88 384.882 378.949C384.724 386.96 385.342 394.988 386.726 402.879C386.604 394.518 386.486 386.155 386.364 377.793C386.32 374.724 386.298 371.542 387.539 368.735C389.129 365.139 392.528 362.727 395.814 360.568C422.216 343.241 458.993 341.567 491.883 333.451C488.726 330.378 486.324 326.534 484.947 322.349C486.055 322.07 487.159 321.792 488.266 321.515C486.838 319.009 485.37 316.346 485.421 313.463C485.475 310.581 487.696 307.526 490.574 307.682C489.745 305.678 488.925 303.536 489.277 301.395C489.63 299.254 491.641 297.234 493.763 297.696C494.118 295.236 492.813 292.598 493.803 290.318C495.35 286.748 500.579 287.359 504.184 288.825C509.502 290.987 515.67 292.226 520.435 295.426C511.52 290.353 515.961 282.341 515.961 276.822C515.961 271.302 519.277 262.044 523.226 271.136C525.743 276.924 525.067 281.518 528.05 287.081C530.485 291.626 529.669 293.313 533.481 296.785C537.296 300.257 540.896 304.64 541.033 309.794C541.112 312.802 539.993 315.697 538.888 318.497C536.151 325.441 533.413 332.388 530.675 339.333C529.991 341.071 529.23 342.906 527.707 343.986C526.335 344.957 524.573 345.15 522.896 345.221C516.069 345.508 505.876 341.326 501.286 337.638C548.768 357.786 598.072 369.966 648.4 381.264C653.094 382.318 658.075 383.32 662.632 381.78C666.526 380.465 669.603 377.437 672.085 374.162C678.253 366.013 681.459 356.019 683.773 346.065C694.093 301.679 688.621 255.113 675.736 209.014C671.169 201.844 666.456 194.563 659.86 189.202C653.262 183.84 644.35 180.621 636.14 182.835C626.897 185.328 620.494 194.205 618.177 203.493C615.858 212.78 616.891 222.535 617.94 232.049C619.633 247.424 621.325 262.8 623.017 278.174C625.323 299.129 632.036 325.364 628.224 318.947C603.192 314.171 589.828 322.539 554.385 312.791C546.341 300.116 537.952 285.575 541.46 270.977C542.879 265.073 546.15 259.818 548.99 254.45C556.845 239.599 561.644 223.142 563.007 206.397C563.299 202.792 563.47 199.04 565.158 195.84C566.404 193.48 568.384 191.604 572.385 187.807C582.636 180.172 592.888 172.54 603.14 164.905C585.993 179.28 574.81 200.565 572.702 222.841C571.896 231.37 572.362 239.985 571.45 248.501C570.537 257.02 568.056 265.718 562.276 272.041C570.349 267.285 577.029 260.191 581.288 251.845C578.686 262.088 572.758 271.217 569.874 281.385C566.989 291.553 568.138 304.233 576.849 310.218C580.224 301.627 584.448 293.368 589.432 285.599C594.302 278.011 599.933 270.832 603.591 262.589C609.147 250.073 609.783 236.027 610.825 222.373C611.865 208.718 613.574 194.565 620.858 182.969C628.142 171.373 642.564 163.151 655.58 165.801C663.472 172.029 670.743 179.044 677.25 186.706C679.229 181.792 678.559 176.227 677.36 171.067C674.592 159.168 669.2 147.965 666.941 135.96C662.216 110.848 671.58 84.7536 667.34 59.5538C663.856 38.8548 650.769 19.9726 633.541 11.24C628.164 4.44965 619.544 0.672471 610.901 0.088837C602.259 -0.497234 593.613 1.86898 585.814 5.63641C555.134 20.4539 538.314 56.9036 540.575 91.8523C542.72 116.975 544.742 143.068 535.945 166.696C532.622 175.625 527.82 183.971 524.883 193.034C519.49 209.67 520.828 228.382 528.535 244.078C526.073 235.743 527.552 226.333 532.449 219.152C529.529 232.447 536.451 247.283 549.292 253.37C554.749 238.983 560.243 224.46 562.564 209.248C563.388 203.849 563.862 198.217 566.544 193.461C569.218 188.714 573.78 185.395 577.711 181.621C581.642 177.845 585.212 172.947 584.875 167.508C584.554 162.286 580.885 156.319 584.379 152.426C585.923 150.708 588.359 150.199 590.586 149.586C596.522 147.952 602.074 144.929 606.668 140.828C599.021 144.864 590.971 148.136 582.678 150.581C580.327 151.275 577.855 151.908 575.445 151.445C570.856 150.568 567.943 146.112 565.853 141.933C560.86 131.939 557.443 121.161 556.069 109.177C556.135 101.311 554.073 93.6056 552.902 85.8258C551.731 78.0485 551.528 69.7399 555.047 62.7059C557.117 58.5607 560.363 55.115 563.858 52.0737C575.067 42.3189 589.37 36.1767 604.601 37.2343C609.155 45.8036 614.581 53.9099 620.769 61.3851C623.125 64.2301 625.61 67.0131 627.35 70.2712C633.557 81.8915 628.966 95.9706 627.224 109.027C627.372 101.991 628.505 94.9751 630.577 88.2493C631.828 84.1895 633.925 79.7507 638.002 78.5529C642.347 79.9261 647.507 82.2814 647.781 86.8298C647.916 89.1047 646.7 91.2138 645.525 93.1645C641.951 99.1008 637.988 105.387 630.522 109.488C628.726 117.156 629.076 125.253 626.764 132.783C623.796 142.451 616.76 150.246 607.041 161.372C589.828 170.71 573.876 182.363 559.745 195.92C558.904 196.727 557.928 197.597 556.766 197.54C555.607 197.485 554.719 196.534 553.977 195.644C551.375 192.525 548.904 189.3 546.571 185.976C542.19 189.82 534.41 188.584 533.445 180.667C548.067 145.408 543.789 105.533 539.26 67.6308C538.783 63.6307 538.247 59.466 536.017 56.1104C531.404 49.1629 521.269 48.316 509.607 50.6494C490.104 57.9247 469.177 61.3607 448.371 60.7064C447.378 60.6747 446.286 60.6674 445.526 61.3071C444.793 61.9224 444.595 62.9556 444.512 63.906C444.196 67.5772 444.96 71.3349 446.686 74.5918C443.402 73.5001 439.262 72.5996 436.909 75.1364C433.811 78.4774 437.206 83.9555 441.193 86.1585C445.18 88.3614 450.187 89.6493 452.304 93.6823C453.271 95.5234 453.449 97.6642 453.604 99.738C455.001 118.624 455.982 137.914 462.865 155.559C464.965 160.94 468.057 166.553 473.446 168.637C478.452 170.573 484.092 168.935 489.042 166.864C494.702 164.497 500.127 161.569 503.034 159.158C506.209 151.845 509.454 144.037 508.247 136.155C507.487 131.195 505.015 126.686 503.413 121.931C501.81 117.174 501.172 111.618 503.877 107.39C506.583 103.164 513.661 101.807 516.538 105.922C518.072 108.115 517.983 111.021 517.791 113.692C517.244 121.297 515.216 130.4 507.998 132.861C505.009 125.724 502.022 118.589 499.034 111.452C493.336 114.305 485.534 110.307 484.177 104.081C483.513 101.03 483.948 97.3158 481.534 95.3394C480.16 94.2148 478.259 94.054 476.486 93.9419C469.312 93.4923 462.14 93.0402 455.926 91.388C454.385 88.03 452.841 84.6732 451.296 81.3176C452.496 80.3635 454.208 80.5792 455.731 80.7352C467.932 81.9853 479.601 76.2635 490.971 71.67C502.343 67.0752 515.532 63.5612 526.548 68.9516C535.05 73.1089 540.5 81.9743 542.686 91.1797C544.87 100.386 544.217 110.008 543.283 119.423C542.09 131.478 540.461 143.489 538.401 155.427C531.807 145.566 521.123 138.534 509.456 136.381C511.538 147.717 504.975 160.059 494.414 164.675C497.006 170.12 497.241 168.472 499.839 174.981C508.87 169.084 517.9 163.188 526.932 157.292C529.163 155.835 531.573 154.324 534.237 154.371C536.9 154.417 539.678 156.801 539.063 159.393C528.095 174.366 514.615 187.498 499.355 198.065C494.056 191.93 492.807 182.596 496.141 178.425C491.177 182.437 491.128 187.965 489.277 194.072C491.675 195.308 490.403 196.545 492.8 197.78C484.546 228.01 476.215 259.198 480.145 290.287C490.589 259.425 502.443 229.04 515.657 199.26C502.053 227.374 490.295 256.381 480.486 286.033C479.827 288.03 479.067 290.178 477.323 291.353C476.045 292.214 474.447 292.403 472.917 292.568C450.098 295.042 427.281 297.515 401.372 299.88C401.563 294.119 396.125 289.156 390.374 288.758C384.624 288.358 379.081 291.754 375.688 296.414C379.073 297.016 382.458 297.618 385.843 298.22C374.167 296.434 362.492 294.648 350.817 292.861C348.512 292.509 345.048 293.324 345.633 295.58C345.875 296.508 346.795 297.069 347.641 297.519C353.141 300.461 358.874 302.965 364.77 305.002C362.537 307.168 360.801 309.843 359.733 312.765C361.429 313.181 362.975 314.189 364.041 315.576C359.407 318.5 361.353 327.204 366.789 327.881C366.036 331.257 370.115 333.563 373.485 334.348C383.168 336.605 393.419 336.388 402.999 333.724C401.579 325.369 400.866 316.895 400.868 308.421C399.828 314.562 400.346 320.962 402.359 326.857C402.854 328.303 403.481 329.781 404.655 330.763C406.249 332.093 408.492 332.234 410.566 332.289C431.699 332.84 454.732 339.91 474.688 336.931C482.78 336.134 490.687 333.543 497.681 329.394C494.959 326.15 492.743 322.03 493.412 317.848C494.079 313.667 498.786 310.094 502.612 311.909C497.832 307.876 500.029 299.24 505.505 296.216C510.98 293.193 517.924 294.573 523.45 297.501C528.976 300.43 533.651 304.742 539.031 307.93C560.753 320.798 588.632 313.148 614.973 319.892C628.192 320.232 641.147 326.513 649.782 335.369C655.87 340.364 663.397 343.588 671.215 344.551C685.38 293.659 678.527 239.581 671.571 187.215C682.909 193.194 686.866 207.319 688.627 220.015C691.277 239.121 691.518 258.56 689.34 277.726C687.512 293.815 683.988 309.705 682.883 325.86C681.064 352.461 685.832 379.024 689.069 407.731C641.929 411.108 594.501 410.441 547.474 405.739C545.902 405.583 544.096 405.275 543.313 403.903C542.642 402.732 543.013 401.263 543.403 399.969C547.099 387.667 550.793 375.368 554.491 363.068" stroke="#161616" stroke-width="2" stroke-linecap="round" stroke-linejoin="round"/>
</g>
<defs>
<clipPath id="clip0_81_4549">
<rect width="750" height="410" fill="white"/>
</clipPath>
</defs>
</svg>
