<svg width="570" height="730" viewBox="0 0 570 730" fill="none" xmlns="http://www.w3.org/2000/svg">
<g clip-path="url(#clip0_201_897)">
<path d="M192.211 184.298C197.718 115.617 231.247 11.6412 278.759 0.848935C326.433 -9.34039 388.251 74.2572 393.156 140.795C398.663 207.17 346.816 257.25 349.127 340.638C352.041 423.864 409.114 540.397 379.554 601.306C349.994 662.215 234.243 666.737 195.295 610.613C155.583 554.049 191.748 435.796 199.419 360.72C207.089 285.643 185.94 252.538 192.211 184.298Z" fill="#F0F0C7"/>
<path d="M305.045 705C303.436 702.676 301.114 700.924 299.458 698.635C294.432 691.691 296.693 682.164 297.614 673.642C299.006 660.787 296.719 647.558 291.095 635.915C296.127 627.218 301.159 618.524 306.191 609.831C307.161 608.154 308.335 606.324 310.222 605.891C313.463 605.146 315.758 608.785 317.997 611.242C321.746 615.357 327.725 617.085 330.995 621.588C334.942 627.03 333.656 634.521 332.198 641.082C327.817 660.785 323.253 680.947 312.378 697.95C322.028 676.716 331.912 653.76 327.591 630.839C326.759 626.425 325.352 622.008 322.585 618.465C316.869 611.144 305.427 607.158 304.306 597.919C289.904 570.782 285.869 548.696 271.711 521.429C270.018 518.164 268.302 514.823 267.776 511.184C267.336 508.11 267.769 504.984 268.221 501.912C274.022 462.547 278.654 430.784 291.316 392.527C335.588 416.513 362.43 461.187 375.271 474.562C365.275 450.709 344.136 447.243 329.845 439.983C328.599 439.35 327.117 438.707 325.855 439.314C324.693 439.873 324.227 441.252 323.876 442.495C322.183 448.45 320.492 454.403 318.799 460.36C318.305 462.096 317.811 463.94 318.297 465.676C318.754 467.297 319.994 468.564 321.211 469.73C342.202 489.855 369.761 503.025 398.607 506.709C401.844 507.124 405.193 507.41 408.314 506.466C411.655 505.451 414.458 503.085 416.58 500.315C426.875 486.88 421.279 467.671 415.269 451.848C397.065 403.9 391.541 386.425 363.363 340.315C357.237 342.65 350.931 344.514 344.52 345.882C338.098 313.069 309.64 287.515 304.722 254.444C303.317 244.999 303.834 234.964 299.527 226.44C296.711 220.861 291.92 216.157 290.666 210.037C289.657 205.111 291.115 200.061 292.363 195.191C296.78 177.985 298.731 160.145 299.519 145.088C313.602 146.464 328.604 140.569 341.555 146.272C348.609 149.378 353.812 155.474 358.903 161.26C366.292 169.659 374.064 177.883 383.383 184.069C387.249 186.638 391.502 188.972 395.914 194.647C399.455 201.043 403 207.437 406.543 213.833C396.818 183.562 393.075 151.384 395.597 119.693C404.983 117.178 413.917 112.979 419.333 106.042C414.885 101.21 411.989 94.973 411.167 88.4575C410.615 84.0623 410.881 79.2614 408.334 75.6363C406.337 72.795 401.738 71.4742 400.856 68.1136C400.647 71.1352 399.924 73.6434 399.718 76.665C395.276 76.2418 392.454 74.9387 388.511 72.8537C385.876 71.4625 383.366 69.7028 380.456 69.0581C378.045 68.5232 375.537 68.7955 373.09 69.1208C369.833 69.5558 366.588 70.083 363.363 70.7022C360.5 71.2508 356.975 72.6558 356.986 75.5716C363.047 76.1066 369.145 76.2124 375.222 75.8891C371.74 76.7826 368.073 75.7225 364.48 75.8381C360.888 75.9537 356.726 78.1229 356.724 81.7187C361.973 82.2007 367.221 82.6808 372.471 83.1609C366.233 82.4849 358.787 82.2948 355.011 87.3034C360.339 89.9056 366.273 91.2636 372.202 91.2381C368.414 91.2812 364.627 91.3224 360.839 91.3655C359.267 91.3831 357.423 91.5438 356.587 92.8763C355.476 94.6516 357.124 96.956 358.993 97.8986C360.864 98.8431 363.106 99.2075 363.78 100.703C363.653 104.195 363.808 107.696 364.248 111.163C364.368 112.115 364.546 113.136 365.232 113.808C366.016 114.578 367.225 114.664 368.32 114.704C375.866 114.978 383.526 115.24 390.853 113.426C382.672 109.566 374.491 105.701 366.314 101.837C376.217 105.893 385.776 110.796 394.047 116.957C391.709 113.9 387.859 112.517 384.563 110.53C381.267 108.543 378.138 105.072 378.933 101.31C379.49 98.6785 381.898 96.3799 381.337 93.7502C380.971 92.0219 379.378 90.7521 379.01 89.0238C378.159 85.0205 384.104 81.1387 381.951 77.6566C381.191 76.426 379.56 75.7735 379.188 74.3743C378.831 73.0242 379.778 71.3429 378.837 70.3083C378.381 69.8047 377.646 69.693 376.97 69.6107C373.156 69.1483 369.341 68.6839 365.526 68.2194C366.084 60.7948 365.775 63.1109 366.643 55.7156C366.802 54.3792 367.002 52.9547 367.889 51.9435C368.581 51.1558 369.592 50.7384 370.57 50.3602C379.235 47.0036 387.818 47.9951 397.464 48.3635C398.474 48.4027 399.553 48.095 400.417 48.6182C401.83 49.4745 401.854 51.4811 401.709 53.1271C400.733 64.1495 400.78 60.3206 399.498 72.3443C400.398 65.8053 400.956 59.2193 401.168 52.6235C401.203 51.5556 401.144 50.3054 400.272 49.6881C399.722 49.2982 398.997 49.2845 398.321 49.2903C390.573 49.3589 382.831 49.9605 375.167 51.0931C373.525 51.3361 371.716 51.7045 370.742 53.0487C370.082 53.9619 369.955 55.1415 369.847 56.2624C369.504 59.9012 369.159 63.5401 369.347 67.7158C367.362 71.0157 365.983 74.6742 365.293 78.4619C367.231 78.4149 368.457 80.7291 368.25 82.6573C368.042 84.5855 366.939 86.2864 366.322 88.1244C365.363 90.9736 365.636 94.2107 367.049 96.862C367.676 98.0357 368.526 99.1272 368.82 100.424C369.42 103.062 367.578 105.65 367.499 108.355C367.401 111.586 370.846 114.723 374.689 114.606C382.063 113.138 389.836 113.732 396.904 116.303C398.364 116.832 399.835 117.455 401.387 117.453C403.175 117.451 404.844 116.624 406.439 115.815C411.32 113.336 416.198 110.859 421.077 108.384C424.5 119.052 427.565 129.833 430.263 140.709C435.738 162.761 439.704 185.161 443.361 207.591C444.507 214.644 445.63 221.812 444.752 228.905C443.87 235.995 440.709 243.118 434.85 247.207C425.274 253.893 412.132 250.654 401.331 246.204C386.995 240.292 373.38 232.675 357.662 222.566C349.007 215.51 341.831 206.655 336.715 196.732C344.483 208.577 345.639 223.389 347.392 237.447C349.144 251.505 352.242 266.483 362.532 276.218C370.021 283.302 380.334 286.598 388.488 292.908C394.527 297.577 399.201 303.752 403.798 309.848C405.134 311.621 406.533 313.569 406.541 315.787C406.551 317.905 405.289 319.794 404.05 321.513C395.771 332.978 386.209 343.519 375.592 352.864C385.878 341.969 394.872 329.855 402.328 316.857C403.653 314.551 404.472 310.822 401.971 309.909C400.582 309.399 399.101 310.285 397.886 311.133C386.021 319.41 374.244 327.821 360.805 335.306C357.108 338.579 352.44 340.736 347.553 341.436C342.202 330.066 336.358 318.932 330.045 308.071C302.829 322.906 270.585 328.299 239.271 325.013C234.645 324.205 230.018 323.402 225.388 322.599C236.912 303.856 233.543 279.767 239.522 258.594C249.868 257.808 260.009 254.397 268.729 248.773C261.976 252.435 255.063 256.153 247.487 257.415C239.908 258.68 231.409 257.062 226.223 251.395C217.663 242.044 221.553 227.248 225.937 215.353C228.637 208.015 231.341 200.676 235.378 191.325C242.951 179.019 249.894 166.322 256.166 153.304C259.172 158.803 263.379 163.633 268.406 167.37C269.364 168.081 270.449 168.783 271.639 168.716C272.75 168.655 273.702 167.934 274.564 167.237C282.414 160.882 289.402 153.463 295.386 144.391C297.601 141.144 296.597 136.153 293.299 134.013C291.579 132.9 289.492 132.549 287.507 132.028C278.679 129.708 271 123.347 267.075 115.107C273.473 125.091 284.474 131.989 296.247 133.405C300.399 133.905 305.016 133.611 308.141 130.827C310.095 129.089 311.198 126.608 312.14 124.166C318.675 107.273 320.174 88.4654 316.208 69.8008C311.952 61.1651 305.349 53.6993 297.299 48.4203C294.583 57.0187 285.393 61.4179 278.54 67.2749C271.417 73.3613 266.358 81.8186 264.357 90.9716C264.185 88.1832 263.679 85.3223 262.145 82.9885C260.61 80.6527 257.859 78.9538 255.09 79.3378C250.413 79.9884 248.35 85.8161 248.918 90.5033C249.627 96.3505 252.97 101.827 260.869 108.072C261.036 118.043 262.449 128.205 259.944 137.859C254.93 157.165 232.558 170.017 213.356 164.619C220.04 158.601 224.677 150.357 226.346 141.52C224.069 147.939 221.426 154.831 215.663 158.462C206.004 164.546 193.347 158.354 184.604 151.02C199.075 140.818 208.855 125.279 216.744 109.432C224.633 93.5817 231.074 76.9237 240.8 62.1292C247.938 51.2655 256.795 41.5306 266.934 33.3985C273.416 28.1998 281.556 23.4323 289.608 25.4898C297.779 27.5787 303.048 36.0693 311.163 38.3718C315.585 39.6259 320.674 38.9832 324.438 41.6207C326.845 43.3059 328.254 46.0532 329.416 48.7534C333.533 58.3101 335.72 68.6897 335.81 79.0949C335.986 99.7699 328.079 120.994 334.318 140.707C334.734 142.106 335.147 143.505 335.563 144.906C325.808 145.66 316.052 146.419 306.293 147.177C303.003 147.43 299.039 147.377 297.244 144.606C299.155 150.724 297.985 157.478 295.29 163.292C292.596 169.11 288.487 174.136 284.311 178.996C283.659 179.754 282.861 180.575 281.864 180.54C281.064 180.509 280.406 179.931 279.824 179.386C276.669 176.433 273.512 173.478 270.355 170.527C269.891 170.094 269.37 169.633 268.735 169.62C268.043 169.606 267.473 170.123 266.981 170.605C261.727 175.763 256.472 180.916 250.703 185.21C247.487 175.059 249.165 163.478 255.128 154.658C244.683 158.162 231.678 166.782 221.234 170.282C213.017 173.037 193.04 231.933 188.466 250.635C186.814 255.045 185.162 259.46 183.509 263.871C175.582 255.537 168.92 245.998 163.819 235.691C158.656 241.55 150.459 244.58 141.892 244.874C136.154 231.946 130.413 219.019 124.676 206.092C124.276 205.193 123.868 204.229 124.041 203.261C124.207 202.324 124.885 201.572 125.538 200.874C131.81 194.194 138.306 187.718 145.008 181.469C145.87 180.665 146.897 179.807 148.07 179.935C148.991 180.034 149.73 180.726 150.342 181.422C152.571 183.973 154.106 187.124 154.735 190.453C149.411 190.935 144.408 194.141 141.747 198.775C144.2 195.062 146.906 191.143 151.047 189.513C155.185 187.882 161.023 189.94 161.523 194.359C157.625 195.564 153.902 197.339 150.512 199.61C155.027 197.061 159.665 194.737 164.413 192.654C164.603 195.278 164.791 197.903 164.981 200.529C165.034 201.278 165.122 202.101 165.671 202.614C166.216 203.13 167.366 202.957 167.435 202.211C163.876 198.977 160.314 195.742 156.755 192.509C156.346 192.139 155.903 191.688 155.926 191.133C155.952 190.551 156.477 190.138 156.953 189.805C159.463 188.057 161.971 186.307 164.483 184.555C165.171 184.073 165.959 183.569 166.788 183.707C167.656 183.848 168.25 184.639 168.734 185.374C173.358 192.427 176.625 200.361 178.308 208.62C174.15 209.604 169.459 207.578 167.327 203.872C172.533 205.583 174.983 212.21 173.296 217.424C171.608 222.637 166.766 226.334 161.574 228.092C162.751 227.114 163.369 225.504 163.145 223.991C161.311 224.157 159.479 224.322 157.643 224.485C161.209 221.361 164.462 217.879 167.339 214.109C162.971 217.048 158.924 220.469 155.299 224.289C161.617 224.988 166.355 232.135 162.303 238.215C154.235 241.315 146.166 244.417 138.098 247.517C146.256 267.724 158.752 286.165 174.493 301.234C176.807 303.448 179.309 305.66 182.394 306.524C188.594 308.263 194.801 304.122 199.683 299.927C211.418 289.839 221.675 278.033 229.372 263.758C225.648 261.655 221.929 259.552 218.206 257.452C217.581 272.787 208.928 286.692 198.728 298.161C188.533 309.632 176.548 319.485 167.037 331.526C175.518 349.607 191.843 363.837 210.911 369.77C197.827 363.612 186.908 352.96 180.428 340.033C179.666 338.51 178.945 336.885 178.99 335.181C179.109 330.352 184.743 327.895 189.428 326.729C199.716 324.168 210.152 322.207 221.955 321.521C217.577 364.362 213.196 407.207 208.816 450.051C206.905 468.729 205.05 488.007 210.591 505.946C214.45 518.444 221.698 529.576 228.858 540.526C246.594 567.646 264.332 594.768 284.636 624.118C285.487 629.769 293.203 632.382 298.159 629.534C303.113 626.687 305.125 620.303 304.461 614.63C303.795 608.953 300.973 603.788 298.206 598.791C291.869 587.336 285.53 575.88 279.189 564.425C272.826 552.928 266.409 541.304 262.833 528.659C257.993 511.555 258.576 493.4 260.364 475.713C263.195 447.686 268.962 419.958 277.535 393.124C278.223 390.963 279.014 388.686 280.774 387.255C284.603 384.148 290.256 386.722 294.369 389.44C320.541 406.708 344.051 427.998 363.825 452.332C361.144 456.601 354.592 454.534 350.226 452.008C334.769 443.065 325.928 435.015 308.968 432.858C285.671 429.895 290.307 470.434 291.044 493.907C291.344 503.497 295.896 521.609 304.179 516.773C318.252 508.551 316.206 486.475 323.929 473.385C342.58 489.032 365.567 499.456 389.626 503.176" stroke="#161616" stroke-width="2" stroke-linecap="round" stroke-linejoin="round"/>
</g>
<defs>
<clipPath id="clip0_201_897">
<rect width="570" height="730" fill="white"/>
</clipPath>
</defs>
</svg>
