<svg width="570" height="730" viewBox="0 0 570 730" fill="none" xmlns="http://www.w3.org/2000/svg">
<path d="M19.3354 536.048C4.46349 467.195 49.2868 384.105 94.2081 339.398C139.199 294.271 183.868 287.457 206.997 270.171C230.126 252.886 231.644 225.549 264.607 177.564C297.152 129.51 361.561 60.8787 399.317 64.5564C436.583 68.5841 447.966 145.48 470.948 214.817C494.28 284.643 529.142 347.329 524.364 409.905C519.167 472.411 473.769 535.575 410.186 586.239C347.021 636.972 265.112 675.974 186.734 667.711C108.705 659.938 34.2074 604.901 19.3354 536.048Z" fill="#F0F0C7"/>
<path d="M21 289.29C22.47 298.2 30.29 305.08 38.93 307.75C47.56 310.41 56.88 309.55 65.76 307.92C81.05 305.11 95.92 300.1 107.14 291.05C113.76 289.6 121 291.27 127.21 288.55C129.93 287.36 132.23 285.41 134.48 283.48C137.05 281.29 139.61 279.1 142.18 276.91C143.03 276.18 143.96 275.26 143.84 274.15C143.7 272.9 142.2 272.19 140.97 272.41C139.73 272.63 138.72 273.48 137.75 274.27C134.65 276.82 130.61 279.29 126.86 277.86C133.79 275.91 141.39 273.46 145.01 267.23C138.73 267.52 132.51 269.09 126.85 271.83C131.11 270.16 135.36 268.48 139.62 266.81C142.51 265.67 146.02 263.3 144.99 260.37C138.62 263.29 131.9 265.43 125.03 266.76C131.49 265.33 138.8 263.27 141.71 257.32C139.85 256.15 137.42 256.98 135.39 257.84C130.1 260.08 124.8 262.32 119.51 264.56C119.28 262.23 118 260.02 115.34 257.6C117.81 245.25 119.29 232.71 119.77 220.13C139.63 216.12 159.49 212.1 179.35 208.08C178.3 241.03 172.72 273.83 162.82 305.28C144.19 310.99 124.64 313.67 105.16 313.19C106.58 307.17 108 301.14 109.06 295.36C109.89 291.87 113.97 290.43 117.43 289.45C120.88 288.46 124.93 286.62 125.23 283.04C124.56 282.2 123.9 281.37 123.24 280.53C124.22 276.69 124.66 272.72 124.56 268.76C124.53 267.79 124.43 266.72 123.74 266.03C123.05 265.35 122 265.26 121.07 264.99C117.33 263.91 115.47 259.83 114.07 256.21C112.59 261.49 108.94 266.12 104.15 268.78C108.48 274.04 109.5 281.82 106.68 288.02C108.4 282.61 108.11 276.58 105.88 271.36C105.55 270.59 105.14 269.8 104.43 269.37C103.58 268.86 102.5 268.99 101.51 269.15C90.26 270.92 78.96 273.49 67.6 272.58C62.69 272.19 57.82 271.14 52.89 271.19C47.96 271.23 42.77 272.53 40.07 276.48C36.93 280.67 33.71 285.04 32.6 290.16C31.48 295.28 33.08 301.38 37.67 303.9C29.66 296.46 27.98 284.24 29.72 273.45C31.46 262.66 34.27 252.98 36.93 242.38C40.48 228.22 39.29 214.08 44.54 200.46C49.79 186.84 63.94 177.98 80.31 175.2C77.51 188.48 76.68 202.17 77.84 215.68C78.21 219.94 78.83 224.34 81.14 227.93C84 232.39 89.14 234.99 94.35 235.95C99.56 236.92 104.92 236.45 110.19 235.98C107.61 234.36 104.96 232.67 103.2 230.17C101.44 227.68 100.79 224.15 102.45 221.59C103.69 225.54 108.95 226.94 112.83 225.49C116.71 224.04 119.48 220.66 122.05 217.42C113.02 208.94 109.69 195.97 109.03 183.6C108.68 176.88 108.68 169.35 103.22 163.46C109.44 160.52 115.66 157.57 121.88 154.63C114.01 160.12 104.41 163.09 94.82 163.01C92.6 162.99 90.28 162.78 88.42 161.58C86.88 160.58 85.81 159 84.88 157.42C77.17 144.34 75.73 128.62 74.47 113.48C74.34 111.98 74.22 110.46 74.54 108.99C75 106.89 76.33 105.09 77.75 103.49C82.19 98.4697 87.92 94.6097 94.24 92.3697C95.13 92.0597 96.11 91.7797 96.99 92.1297C97.91 92.4997 98.43 93.4597 98.85 94.3597C101 98.9597 102.64 104.11 106.6 107.29C108.68 108.96 111.24 109.93 113.41 111.47C119.51 115.8 121.64 123.72 123.35 131C123.02 127.55 121.45 124.26 121.55 120.79C121.65 117.33 124.58 113.49 127.92 114.41C129.49 114.84 130.64 116.2 131.43 117.63C134.89 123.86 132.79 132.59 129.07 138.18C129.73 149.93 132.57 161.55 137.4 172.28C139.65 177.29 142.36 182.16 143.69 187.48C145.02 192.81 144.79 198.86 141.55 203.29C145.71 200.63 148.98 196.62 150.73 192.01C150.59 197.49 149.03 202.92 146.25 207.65C155.64 208.04 165.08 203.25 170.32 195.44C175.56 187.64 176.41 177.08 172.49 168.54C168.77 160.43 161.42 154.64 156.32 147.31C144.06 129.7 145.56 104.51 131.18 88.5797C122.96 79.4697 110.04 74.8597 97.91 76.6897C85.78 78.5197 74.8 86.7497 69.64 97.8797C64.43 109.1 65.11 122.02 63.47 134.28C62.43 142.09 60.4 149.91 61.34 157.73C62.27 165.55 67.17 173.63 76.72 175.95C82.96 174.83 89.2 173.71 95.44 172.6C96.5 172.41 97.6 172.22 98.63 172.52C99.9 172.88 100.86 173.91 101.76 174.88C108.41 182.05 115.81 188.52 123.8 194.16C125.26 195.19 127.07 196.24 128.73 195.56C129.73 195.15 130.38 194.21 130.97 193.31C133.46 189.51 135.76 185.59 137.87 181.57C139.22 179 140.52 176.12 141.64 172.92C152.38 172.05 164 171.39 173.06 177.21C177.07 179.79 180.27 183.48 182.94 187.43C195.25 205.59 197.02 228.59 201.47 250.08C204.61 265.29 209.21 281.41 203.68 295.92C202.09 300.08 199.13 304.32 194.72 304.91C192.55 305.2 190.38 304.55 188.32 303.82C180.77 301.17 173.59 297.46 170.08 293.11C172.22 295.04 174.35 296.97 176.49 298.91C176.52 321.5 179.88 344.08 186.42 365.7C187.34 368.73 188.33 371.97 187.44 375.01C186.09 379.67 180.9 382.08 176.11 382.81C171.32 383.54 166.28 383.23 161.8 385.08C162.05 364.19 162.3 343.29 162.55 322.4C162.58 319.72 162.6 316.96 161.56 314.49C158.14 306.35 146.48 306.57 138.12 309.44C129.77 312.31 120.14 316.33 112.71 311.56C108.15 341.27 103.31 370.93 98.21 400.55C81.18 400.64 64.13 397.35 48.96 390.39C48.13 364.59 52.86 338.63 62.72 314.77C47.1 352.9 60.73 393.96 60.73 441.58C68.06 522.89 70.11 550.43 81.09 622.63C81.77 627.12 82.97 631.78 85.99 635.18C90 639.69 96.8 640.83 102.7 639.56C108.6 638.29 113.84 635 118.94 631.77C120.13 640.63 121.32 649.48 122.5 658.33C123.84 668.3 125.05 679.03 120.3 687.89C115.56 696.76 102.26 701.56 95.21 694.39C91.13 690.24 90.58 683.88 90.27 678.06C89.59 665.49 88.91 652.92 88.24 640.35C96.42 634.48 110.44 644.16 117.03 636.55C119.77 633.39 119.55 628.71 119.18 624.55C117.68 607.82 116.18 591.1 114.31 573.93C110.62 557.49 112.24 540.37 113.87 523.6C117.84 482.82 121.81 442.05 125.79 401.27C122.52 399.21 118.5 398.38 114.68 398.97C118.79 398.14 120.7 406.12 124.82 405.29C127.51 427.25 130.68 511.06 130.19 519.23C127.58 562.55 131.59 599.26 130.08 642.57C128.88 649.26 128.86 656.16 130.04 662.85C139.94 662.02 149.84 661.19 159.74 660.36C158.67 671.61 167.24 681.12 174.31 689.95C175.55 691.5 176.83 693.46 176.16 695.32C175.62 696.82 174.02 697.61 172.55 698.21C159.55 703.46 144.79 704.23 131.32 700.37C129.61 699.88 127.81 699.23 126.8 697.77C125.87 696.41 125.83 694.66 125.85 693.02C125.91 686.59 126.24 680.17 126.86 673.77C127.05 671.86 127.27 669.89 128.25 668.23C132.14 661.65 142.29 665.63 149.72 663.81C159.27 661.47 162.71 649.93 164.48 640.27C170.97 604.93 170.85 569.6 176.91 534.03C180.95 487.34 186.54 429.21 180.68 382.92C174.7 383.76 168.71 384.6 162.72 385.44C162.79 368.92 162.42 352.39 161.61 335.89C145.41 343.49 127.07 346.48 108.76 345.49C127.76 348.68 147.81 345.22 164.64 335.85C166.87 334.61 169.11 333.21 170.65 331.17C172.78 328.33 173.29 324.64 173.74 321.12C174.98 311.31 175.73 299.97 168.74 292.97C167.81 292.04 166.75 291.19 166.23 289.99C165.62 288.58 165.89 286.96 166.19 285.45C168.18 275.35 171 265.42 174.64 255.79C180.81 257.43 186.98 259.06 193.88 260.46C198.87 261.43 203.86 262.41 208.85 263.38C210.11 263.62 211.38 263.87 212.55 264.4C214.3 265.19 215.72 266.54 217.25 267.7C220.44 270.12 224.16 271.74 227.94 273.06C231.19 274.19 234.56 275.12 238 275.11C242.56 275.09 246.92 273.42 251.39 272.51C255.86 271.6 260.92 271.58 264.49 274.42C266.03 267.63 267.57 260.84 269.11 254.05C269.5 252.32 269.83 250.29 268.67 248.95C267.13 247.17 264.27 247.89 262 247.27C258.2 246.24 256.72 241.8 254.5 238.54C249.81 231.69 239.36 229.66 232.45 234.26C236.86 235.69 241.28 237.12 245.69 238.54C237.41 235.86 228.78 234.25 220.08 233.77C218.88 233.7 217.51 233.73 216.71 234.62C215.09 236.42 217.64 239.15 220.03 239.5C222.43 239.85 225.2 239.35 226.99 240.98C223.45 238.86 219.58 237.28 215.56 236.31C214.74 236.11 213.82 235.96 213.09 236.38C211.29 237.43 212.64 240.22 214.22 241.58C217.48 244.38 221.26 246.58 225.32 248.01C221.25 244.62 215.9 242.81 210.6 243.04C211.44 248.79 215.75 253.9 221.29 255.67C217.73 253.11 214.15 250.58 210.54 248.1C208.28 252.31 210.17 257.78 213.64 261.07C217.11 264.36 221.79 265.97 226.32 267.49C227.38 264.89 223.68 262.77 223.2 260.01C222.57 256.48 227.05 254.47 230.57 253.77C225.99 250.43 226.66 242.18 231.56 238.16C243.38 215.91 237.96 188.9 239.86 163.78C240.1 160.64 240.47 157.43 241.85 154.59C243.66 150.85 247.02 148.12 250.41 145.7C256.54 141.32 263.09 137.54 272.28 130.98C275.5 134.86 279.79 137.84 284.55 139.49C295.4 131.6 306.25 123.71 318.91 114.12C315.67 104.37 322.52 94.5397 326.99 85.2897C331.77 75.3997 334.03 64.2897 333.48 53.3097C332.97 43.1997 329.15 32.0597 319.97 27.8297C309.76 23.1197 297.81 28.8697 286.62 27.7597C283.19 27.4197 279.8 26.4297 276.35 26.5497C271.95 26.7097 267.85 28.6697 263.6 29.8197C259.35 30.9697 254.35 31.1597 251.02 28.2797C248.46 34.3097 251.83 42.1497 257.97 44.4497C245.86 64.7897 248.93 90.3697 252.38 113.79C252.63 115.46 252.92 117.23 254.06 118.47C255.34 119.87 257.37 120.26 259.27 120.37C266.29 120.79 273.18 118.51 279.77 116.05C285.62 113.87 291.58 111.41 296 107.01C300.42 102.61 302.98 95.7597 300.67 89.9597C308.02 88.5097 314.01 81.8097 314.64 74.3497C314.97 70.4497 313.01 65.6397 309.11 65.4197C304.98 65.1897 302.59 70.1697 302.44 74.2997C302.3 78.4297 303.14 82.9597 300.85 86.4097C301.24 82.5097 301.64 78.6097 302.03 74.7097C302.17 73.2997 302.31 71.8197 301.79 70.4997C300.16 66.3097 294.13 66.8497 289.83 68.1497C284.84 57.7597 273.38 52.4297 262.78 47.8997C272.4 51.6897 283.15 48.9697 293.43 47.8397C303.7 46.7097 315.88 48.1897 321.3 56.9997C325.12 63.2097 324.3 71.1197 322.99 78.2997C321.2 88.1397 318.75 97.8597 315.67 107.37C315.29 100.35 310.51 93.7597 303.95 91.2197C299.66 103.7 288.67 113.64 275.82 116.67C275.43 120.83 275.05 124.98 274.39 127.7C269.58 135.16 267.9 144.55 269.8 153.22C275 149.14 280.19 145.06 285.38 140.98C286.11 147.2 289.93 152.99 295.37 156.11C305.07 143.79 315.93 132.38 327.75 122.07C325.87 120.04 323.99 118.01 322.11 115.98C326.2 122.3 334.03 124.79 341.14 127.27C355 132.09 369.17 139.21 376.38 152C381.76 161.55 382.5 172.97 382.51 183.94C382.53 208.01 388.42 240.9 382.66 264.27C380.43 273.32 377.39 282.85 370.1 288.65C364.49 293.12 357.14 294.7 350.04 295.7C327.33 298.92 295.17 288.81 272.95 283.1C269.76 282.28 266.26 281.11 264.69 278.21C263.46 275.93 263.76 273.16 264.1 270.59C264.95 264.17 265.79 257.75 266.64 251.33C285.57 252.62 309.07 255.92 327.72 252.44C339.58 250.23 357.25 251.72 367.31 258.38C362.18 256.71 357.04 255.05 351.91 253.38C350.76 253.01 349.52 252.58 348.81 251.59C348.05 250.53 348.09 249.12 348.16 247.82C349.35 225.63 335.1 201.24 338.53 178.02C343.4 171.25 344.4 162.44 348.3 155.08C352.21 147.71 361.87 141.78 368.67 146.6C360.65 132.17 342.46 127.55 326.26 124.33C324.48 123.98 322.59 123.63 320.91 124.33C319.67 124.84 318.72 125.86 317.8 126.85C307.37 138.2 296.92 149.58 287.81 162.02C284.99 165.87 279.12 169.99 276.34 166.12C271.75 190.25 267.17 214.38 262.58 238.5C262.09 241.09 261.63 243.92 262.89 246.24C265.68 251.37 273.48 249.57 278.87 251.82C283.32 223.75 284.91 195.23 283.6 166.84C280.77 166.67 277.94 166.5 275.11 166.32C273.09 161.46 272.44 156.03 272.38 151.97C270.65 146.76 268.92 141.54 267.2 136.33C251.4 143.67 245.32 163.11 244.57 180.52C243.81 197.93 246.55 215.9 241.07 232.45C249.47 232.65 256.56 239.55 259.48 247.43C262.4 255.31 261.96 263.99 261.14 272.35C253.27 272.53 245.39 272.7 237.52 272.88C236.03 288.06 234.88 290.05 234.09 305.29C233.81 310.54 233.69 316.21 236.64 320.56C241.47 327.68 251.73 327.8 265.13 328.48C261.47 323.17 257.81 317.85 254.16 312.54C253.18 311.12 252.19 309.66 251.78 307.98C251.2 305.56 251.93 303.03 252.59 300.63C256.29 287.22 258.13 286.53 258.05 272.62C263.62 278.8 271.6 282.75 279.9 283.43C280.6 289.55 281.1 282.47 281.4 288.62C282.16 303.82 280.59 321.37 268.29 330.33C293.62 331.83 319.03 332.05 344.39 330.99C348.34 330.82 359.01 331.66 361.29 328.43C363.07 325.92 362.86 314.62 362.58 311.56C361.63 301.27 360.69 300.23 361.48 291.27C362.05 327.29 355.71 373.9 354.81 409.91C354.22 433.57 353.31 457.23 352.41 480.89C351.81 496.44 351.22 511.98 350.62 527.53C349.07 567.97 345.32 612.81 343.86 653.27C336.24 663.64 321.15 667.72 309.34 662.6C305.11 672.11 294.61 676.97 284.76 680.35C274.91 683.72 264.22 686.83 257.61 694.87C264.64 701.85 275.47 702.99 285.37 703.07C303.47 703.21 321.59 701.14 339.19 696.9C340.17 696.66 341.18 696.4 341.96 695.77C343.47 694.53 343.64 692.33 343.7 690.38C343.95 681.07 344.21 671.76 343.56 661.78C329.42 662.3 315.28 662.83 301.14 663.36C307.16 629.95 291.99 458.12 286.82 407.63C290.26 494.27 278.02 574.49 272.17 661C259.73 663.05 247.1 664.01 233.86 664.77C224.1 672.39 214 680.18 202.06 683.42C199.09 684.23 195.9 684.81 193.59 686.85C191.29 688.89 190.52 693.03 192.97 694.88C194.23 695.83 195.91 695.91 197.49 695.95C217.92 696.49 238.36 697.03 258.8 697.56C258.73 694.67 258.81 691.41 260.91 689.41C263.08 687.34 266.67 687.41 268.9 685.41C273.88 680.93 267.77 671.72 270.84 667.62C261.59 658.93 247.82 655.35 235.51 658.44C229.21 607.73 228.98 415.52 233.96 366.2C234.22 352.68 234.48 339.17 234.74 325.65C239.2 326.63 243.65 327.62 247.84 327.91C269.7 330.07 291.6 331.84 313.52 333.22C324.36 333.9 337.23 333.55 343.37 324.6C346.32 320.31 346.97 314.9 347.55 309.73C348.18 304.06 348.81 298.4 349.44 292.73C349.68 290.54 350.04 288.14 351.71 286.71C353.35 285.32 355.71 285.32 357.83 284.96C365.19 283.73 370.92 277.48 373.63 270.52C376.35 263.57 376.59 255.93 376.8 248.47C377.43 225.95 382.6 196.28 390.62 193.18C403.1 188.36 416.25 178.67 429.58 179.16C429.25 173.71 428.92 168.27 428.59 162.82C433.83 160.87 438.47 157.36 441.77 152.86C435.58 156.54 428.77 159.18 421.71 160.61C419.68 161.02 417.51 161.32 415.59 160.56C412.38 159.29 410.96 155.6 410.11 152.26C405.55 134.48 407.14 115.18 414.54 98.3897C415.91 95.2697 417.79 91.9597 421.03 90.9197C425.47 89.4897 429.95 93.0397 432.64 96.8397C435.33 100.64 437.51 105.19 441.67 107.3C444.86 108.92 448.81 108.84 451.74 110.9C457.56 114.99 455.79 124.31 459.75 130.22C459.07 127.24 458.39 124.17 458.85 121.15C459.31 118.13 461.19 115.12 464.12 114.24C469.47 112.64 474.29 119.5 472.82 124.87C471.34 130.25 466.12 133.69 462.5 137.23C462.87 142.88 463.24 148.53 463.61 154.17C470.74 147.07 477.96 139.85 482.93 131.11C487.91 122.36 490.44 111.74 487.53 102.11C485.27 94.6497 480.01 88.4797 474.32 83.1597C467.78 77.0497 459.98 71.5397 451.06 70.7897C437.19 69.6197 425.1 80.1097 416.74 91.2297C421.45 81.2697 431.33 73.9397 442.22 72.3097C453.11 70.6897 464.7 74.8197 472.11 82.9797C472.49 75.6697 473.51 67.2297 479.68 63.3097C481.94 61.8697 484.66 61.2697 487.34 61.2497C497.63 61.1997 506.9 70.9297 506.36 81.1997C505.82 91.4697 495.57 100.17 485.34 99.0297C490.2 106.93 487.74 117.38 483.1 125.41C478.46 133.44 471.86 140.29 467.94 148.7C464.02 157.11 463.51 168.25 469.4 176.22C461.1 192.13 451.6 196.35 438.12 208.2C431.9 195.17 427.14 190.75 427.71 176.32C425.03 176.93 425 179.3 422.32 179.9C417.57 196.45 414.96 201.97 416.36 219.14C426.49 213.01 434.55 199.16 453.54 218.15C458.39 206.39 462.79 205.31 470.13 194.93C472.55 191.51 476.5 187.11 477.16 182.97C477.83 178.83 474.41 174.78 470.31 173.88C485.69 177.5 494 185.26 508 192.58C517.88 197.75 509.09 264.89 505.59 309.03C504.72 320.02 492.88 328.82 481.97 330.4C477.17 331.1 472.3 330.01 467.63 328.69C442.4 321.57 419.19 307.47 403.7 287.55C400.86 281.09 397.5 280.28 394.29 273.99C391.08 267.7 390.3 249.81 393.75 249.92C400.98 250.17 400.55 259.39 399.58 266.56C397.68 253.91 392.71 232.36 394.02 232.14C400.3 231.08 399.95 244.27 401.87 250.35C399.71 240.08 394.56 232.71 400.26 229.99C402.11 229.1 410.62 246.94 409.33 256.55C408.59 250.29 406.18 238.69 407.11 237.76C410.07 234.79 413.51 242.22 414.09 246.38C414.98 252.79 415.87 259.2 416.76 265.61C417.42 270.37 418.08 275.22 417.26 279.95C416.44 284.69 413.89 289.37 409.61 291.55C413.79 285.31 417.45 278.72 420.54 271.87C442.92 277.36 458.15 283.69 480.25 288.02C489.17 290.07 499.71 295.84 497.37 304.69C501.4 289.05 474.39 287.62 473.65 285.97C473.29 285.15 476.74 253.27 479.44 234.92C481.3 222.3 483.6 208.77 492.55 199.69C498.03 194.13 522.56 174.71 514.61 237.3C511.96 258.16 507.74 296.37 503.99 317.06C503.51 319.72 503.1 322.5 501.64 324.78C499.51 328.11 495.58 329.77 491.82 330.98C458.42 341.74 415.64 334.49 385.21 321.97C386.06 312.12 386.9 302.27 387.75 292.42C379.5 289.1 381.23 277.94 380.23 269.1C379.23 260.26 384.05 254.93 385.88 247.54C383.23 264.8 376.69 279.54 385.42 291.27C387.5 294.06 387.19 297.91 386.78 301.37C383.61 328.24 387.05 352.9 383.88 379.77C375.02 377.98 365.76 378.18 355.73 381.14C356.12 390.85 355.38 400.77 357.97 410.14C360.56 419.51 369.11 432.69 377.14 429.94C380.18 428.9 373.89 424.39 372.58 421.46C369.35 414.23 368.37 406.23 367.42 398.37C367.24 401.72 367.14 405.16 368.13 408.37C369.13 411.58 371.44 414.57 374.67 415.49C376.47 413.36 374.85 410.21 374.51 407.45C374.01 403.31 376.62 399.53 378.31 395.71C380.3 391.21 381.05 386.17 380.48 381.29C380.48 381.29 380.25 386.09 379.9 387.01C379.33 416.14 379.79 445.29 381.28 474.38C381.46 477.93 381.75 481.75 383.98 484.52C385.92 486.94 388.99 488.12 391.94 489.11C422.08 499.25 455.2 500.32 485.93 492.17C488.63 491.45 491.5 490.54 493.16 488.29C494.71 486.19 494.84 483.4 494.96 480.79C497.18 432.91 516.08 385.36 507.55 338.19C506.73 333.64 504.69 328.21 499.35 326.29C485.82 330.67 472.29 335.04 458.76 339.42C474.83 344.24 486.25 359.27 490.93 375.38C495.62 391.48 494.59 408.65 492.8 425.33C491 442.01 488.47 458.8 489.8 475.97C495.16 513.22 496.11 535.73 490.11 572.88C485.19 603.34 479.29 644.31 482.85 674.95C483.55 680.96 484.72 694.26 481.23 699.2C477.42 704.6 467.67 701 461.07 701.31C450.89 701.79 434.1 702.27 423.91 702.75C418.26 703.02 410.45 701.25 410.8 695.61C410.97 692.94 414.03 691.06 416.5 690.02C435.78 681.93 459.5 658.57 481.74 662.75C472.19 663.49 462.63 664.24 453.08 664.98C449.79 599.54 450.67 575.23 445.34 499.68C439.29 496.3 436.36 495.26 429.61 496.83C440.1 526.16 440.46 556.74 443.71 587.72C445.31 603.01 443.88 616.47 449.52 630.78C442.58 635.68 435.65 640.58 428.71 645.48C426.91 646.75 425.08 648.05 423.82 649.86C422.53 651.7 421.93 653.91 421.27 656.06C416.82 670.66 395.94 682.2 390.63 691.38C386.57 698.39 407.06 700.61 413.12 695.23C419.18 689.85 429.59 686.47 436.35 682.03C440.38 679.39 454.5 670.87 454.99 667.58C456.5 657.44 452.65 639.97 450.51 629.94C441.92 635.13 433.34 640.33 424.75 645.52C419.01 628.89 413.51 614.38 408.28 597.59C402.35 578.58 401.15 566.09 395.54 546.98C390.12 528.52 378.13 493.04 384.08 478.3C410.32 491.54 440.58 496.65 469.71 492.78C473.74 492.24 478.23 491.64 481.54 494C484.54 496.14 485.59 500.05 486.27 503.68C492.38 536.63 483.62 570.26 480.23 603.61" stroke="black" stroke-width="2" stroke-linecap="round" stroke-linejoin="round"/>
<path d="M136.34 256.8C137.19 254.62 138.55 252.82 140.1 251.36C142.22 249.4 144.9 248.66 147.63 249.26C150.42 249.88 152.99 251.89 154.68 254.76C157.1 258.84 157.6 263.69 156.02 267.39C154.66 270.53 151.92 272.5 148.37 272.91C146.67 273.07 145.22 273.08 143.91 272.98" stroke="black" stroke-width="2" stroke-miterlimit="10" stroke-linecap="round"/>
<path d="M125.82 261.05C126.45 256.19 128.97 250.75 131.39 246.78C133.15 243.91 134.97 240.97 136.05 237.73C136.26 237.12 136.44 236.51 136.64 235.9C137.72 232.36 138.86 228.72 142.07 226.71C145.59 224.54 151.23 225.58 154.41 229.01C157.04 231.84 157.9 236.52 158.57 240.27C158.7 240.94 158.81 241.59 158.92 242.18C159.57 245.37 160.93 248.57 162.25 251.63C164.13 256.02 166.05 260.53 166.07 265.32C166.1 271.68 163 278.69 155.99 279.96C152.83 280.53 149.21 279.93 145.78 278.3C144.75 277.81 143.83 277.25 142.96 276.62" stroke="black" stroke-width="2" stroke-miterlimit="10" stroke-linecap="round"/>
<path d="M166.92 281.86C164.6 283.75 162.01 285.07 159.89 285.6C156.58 286.41 152.92 286.45 149.25 285.77C145.31 285.02 141.34 283.45 137.69 281.13" stroke="black" stroke-width="2" stroke-miterlimit="10" stroke-linecap="round"/>
</svg>
