<svg width="570" height="730" viewBox="0 0 570 730" fill="none" xmlns="http://www.w3.org/2000/svg">
<g clip-path="url(#clip0_201_1098)">
<path d="M443.596 173.77C464.711 251.534 442.051 321.059 470.376 394.704C498.701 467.834 578.526 545.599 569.255 582.164C559.986 618.214 462.136 613.579 399.821 583.194C336.991 553.324 309.696 498.219 232.961 502.854C156.741 508.004 31.0817 572.379 5.33175 562.079C-20.4182 552.294 53.7416 467.834 86.1866 392.129C118.632 315.909 108.847 248.444 136.141 172.225C163.436 95.4898 228.326 10 293.216 10C357.591 10 422.481 96.0048 443.596 173.77Z" fill="#F0F0C7"/>
<path d="M368.918 168.295C370.691 168.286 387.764 168.283 389.409 168.947C394.273 170.905 395.212 177.225 395.745 182.44C396.871 193.428 399.458 204.264 402.441 216.795C405.194 217.33 406.226 221.563 404.032 223.308C402.317 224.671 399.866 224.266 397.68 224.152C388.895 223.694 380.614 229.297 375.799 236.661C370.986 244.023 369.11 252.911 368.068 261.645C367.346 267.694 366.988 273.92 368.61 279.792C370.388 286.231 374.586 291.969 378.79 297.359C387.537 304.516 388.413 317.663 386.124 328.73C383.834 339.798 379.11 350.52 379.231 361.821C379.285 366.88 380.883 372.658 385.5 374.728C387.656 375.695 390.107 375.665 392.469 375.618C401.539 375.44 410.609 375.26 419.677 375.083C423.651 375.006 428.413 375.349 430.366 378.812C431.282 380.436 431.322 382.391 431.338 384.256C431.565 409.961 431.794 435.664 432.02 461.37C440.233 461.944 448.509 461.648 456.558 461.802C457.375 450.788 457.001 439.685 455.448 428.753C434.548 439.426 411.028 444.916 387.565 444.601C384.453 444.559 377.075 439.169 373.99 446.012C359.477 478.227 361.406 539.037 362.745 580.212C393.663 583.439 436.317 580.677 471.476 573.322C466.969 561.28 458.649 538.846 460.188 526.079C460.639 522.343 461.614 518.659 461.672 514.897C461.845 503.911 454.385 494.43 447.009 486.285C440.287 478.865 432.481 469.643 422.483 470.18C403.032 471.222 458.406 517.283 444.095 527.243C427.567 538.747 412.385 495.729 392.371 492.278C366.85 487.879 403.958 546.355 429.616 549.845C449.329 552.528 397.203 542.586 390.091 542.586C365.161 542.586 433.207 567.383 458.135 567.207C460.114 567.193 462.336 567.245 463.712 568.665C464.866 569.855 465.062 571.649 465.193 573.301C469.597 628.247 467.859 696.604 466.864 700.389C460.366 700.711 458.072 701.036 451.574 701.358C450.583 701.407 449.541 701.473 448.707 702.008C447.499 702.781 447.06 704.295 446.438 705.589C442.345 714.12 429.56 714.061 423.369 721.213C422.761 721.916 422.203 722.746 422.189 723.676C422.156 725.942 425.03 726.905 427.284 727.143C439.182 728.393 451.254 727.982 463.036 725.923C464.945 725.589 467.008 725.12 468.228 723.615C469.237 722.367 469.448 720.669 469.543 719.068C469.889 713.405 469.338 707.688 467.915 702.195C461.324 702.442 454.735 702.69 448.144 702.94C441.375 633.469 433.112 624.749 432.871 579.946C432.871 579.946 433.88 577.682 405.257 580.45C404.067 580.565 402.78 580.724 401.927 581.56C400.899 582.565 400.862 584.179 400.89 585.616C401.673 624.525 402.455 660.162 403.24 699.071C395.135 701.115 386.68 701.765 377.476 704.566C366.133 710.068 333.117 720.295 345.14 724.08C359.014 728.447 379.773 728.472 397.093 725.201C398.986 724.844 401.058 724.379 402.217 722.839C403.116 721.641 403.254 720.052 403.317 718.554C403.577 712.367 403.133 706.15 402 700.061C395.07 700.91 388.138 701.758 381.208 702.608C380 702.755 378.638 702.861 377.705 702.08C376.909 701.412 376.68 700.3 376.502 699.274C369.245 657.111 366.722 619.193 368.002 576.497C380.895 579.053 393.997 581.621 407.088 580.45C420.179 579.277 433.488 573.829 441.193 563.182C443.088 560.563 444.646 557.642 447.053 555.483C449.459 553.322 453.079 552.067 455.964 553.525C457.822 554.462 459.022 556.322 459.966 558.18C464.364 566.827 465.022 576.834 465.448 586.525C466.263 605.062 466.536 623.621 466.807 642.174C467.104 662.333 467.399 682.489 467.695 702.648C467.74 705.641 467.758 708.751 466.492 711.461C465.406 713.783 463.466 715.603 462.219 717.842C460.969 720.08 460.6 723.223 462.48 724.963" stroke="#161616" stroke-width="2" stroke-linecap="round" stroke-linejoin="round"/>
<path d="M175.067 162.363C238.15 227.023 332.776 13.3265 234.926 4.15834C234.926 4.15834 147.004 8.05083 102.983 9.74475C9.02157 13.3592 0.652476 169.101 116.074 182.213C128.095 198.129 138.011 215.631 145.488 234.124C136.329 242.827 136.679 257.231 137.182 269.855C137.684 282.478 136.628 297.252 126.186 304.366C123.334 306.31 119.453 308.403 119.869 311.831C120.032 313.191 120.906 314.35 121.775 315.408C123.979 318.095 126.366 320.628 128.915 322.987C130.081 324.065 131.422 325.165 133.011 325.202C137.343 325.308 137.827 318.726 140.967 315.742C144.999 311.913 151.525 315.249 155.943 318.628C161.205 322.651 166.469 326.674 171.73 330.698C173.702 332.205 176.473 333.74 178.457 332.247C179.202 331.686 179.625 330.805 180.02 329.959C182.004 325.714 183.987 321.466 185.973 317.221C185.973 317.221 188.541 318.266 188.623 319.611C192.67 330.177 196.716 340.742 200.763 351.307C201.751 353.887 202.749 356.52 202.88 359.277C203.095 363.814 200.95 368.109 200.216 372.59C199.359 377.826 200.448 383.165 202.62 387.349C207.718 389.868 214.036 392.335 218.758 389.167C216.704 368.95 213.772 348.824 209.971 328.861C206.436 328.473 203.576 332.13 203.233 335.67C202.887 339.209 204.24 342.66 205.085 346.113C205.931 349.567 206.172 353.557 203.969 356.347C202.394 358.34 199.891 359.312 197.821 360.784C190.705 365.847 189.695 376.751 193.901 384.403C198.109 392.057 206.23 396.816 214.541 399.505C222.852 402.195 231.613 403.174 239.555 405.835C243.697 406.41 247.872 406.732 252.055 406.8C253.178 406.819 254.335 406.814 255.379 406.398C256.382 405.998 257.218 405.244 258.232 404.875C259.569 404.389 261.05 404.622 262.447 404.9C265.456 405.501 268.433 406.276 271.353 407.22C272.356 407.545 273.398 407.893 274.44 407.746C275.496 407.597 276.407 406.963 277.346 406.459C279.552 405.274 282.11 404.755 285.405 405.744C287.961 411.274 290.15 416.975 291.954 422.793C290.029 424.496 287.295 425.241 284.772 424.753C302.781 420.966 324.643 412.225 341.64 405.167C344.671 403.907 347.731 402.569 350.234 400.445C353.878 397.351 356.016 392.879 357.949 388.506C362.521 378.155 362.325 372.235 365.156 362.153C364.995 358.578 367.974 341.768 365.142 343.955C360.213 347.761 367.32 381.422 368.203 396.515C368.825 407.113 367.533 417.727 366.023 428.237C364.18 441.082 362.009 453.881 359.514 466.615C365.563 471.138 372.832 474.012 380.339 474.848C379.271 450.951 378.208 426.921 381.159 403.183C381.68 398.989 382.325 394.73 381.614 390.566C381.042 387.218 379.617 384.087 378.476 380.889C373.605 367.209 374.037 351.716 379.507 336.695C382.217 331.018 380.35 323.392 384.67 318.819C386.355 317.037 388.712 316.074 390.684 314.616C394.81 311.565 397.028 306.455 397.64 301.359C398.252 296.263 397.441 291.114 396.542 286.063C398.023 285.24 399.507 284.415 400.988 283.593C396.633 288.048 390.623 290.845 384.411 291.305C383.082 291.404 381.654 291.376 380.546 290.635C379.287 289.794 378.736 288.247 378.296 286.798C375.558 277.815 373.986 268.476 373.628 259.091C373.427 253.806 373.631 248.395 375.483 243.441C377.336 238.488 381.067 234.012 386.095 232.369C386.948 232.091 387.888 231.899 388.726 232.215C389.224 232.402 389.642 232.752 390.049 233.098C394.687 237.03 399.324 240.965 403.962 244.897C407.761 248.117 411.962 252.764 410.13 257.395C408.259 254.252 411.511 249.567 415.109 250.224C418.626 250.864 420.289 255.331 419.282 258.759C418.275 262.187 415.483 264.745 413.058 271.229C413.037 276.841 413.039 282.586 414.932 287.871C416.827 293.154 421.025 297.971 426.544 298.992C432.766 300.144 438.691 296.408 444.317 293.511C449.943 290.614 457.291 288.607 462.188 292.614C456.029 281.738 441.312 278.116 434.88 267.397C428.922 257.465 431.686 244.089 425.775 234.128C420.82 225.778 409.738 221.65 400.525 224.722C402.121 227.082 406.537 226.217 407.126 223.432C398.71 217.839 386.705 220.234 379.203 227.002C371.701 233.771 368.075 243.918 366.68 253.925C365.283 263.932 365.834 274.102 365.196 284.186C364.881 289.182 364.234 294.291 361.895 298.717C359.556 303.142 355.203 306.794 350.203 307.037C354.75 308.96 359.294 310.885 363.841 312.808C366.234 310.611 368.014 307.754 368.932 304.637C367.084 308.936 366.25 313.667 366.519 318.34C371.493 319.473 376.673 319.702 380.575 317.98C386.974 314.345 392.521 309.217 396.647 303.121C395.63 309.289 397.785 315.894 402.243 320.277C402.869 320.894 403.607 321.497 404.486 321.546C406.177 321.642 407.203 319.775 407.885 318.226C411.436 310.144 416.887 303.067 422.284 296.079C425.051 299.651 425.062 304.59 424.675 309.093C424.34 312.969 423.803 316.826 423.065 320.646C422.918 321.413 422.649 322.308 421.908 322.546C421.366 322.721 420.789 322.459 420.275 322.209C417.086 320.651 413.827 319.244 410.507 317.99C409.553 317.63 408.511 317.277 407.532 317.569C406.775 317.796 406.182 318.378 405.647 318.962C403.796 320.99 402.261 323.305 400.275 325.198C398.287 327.093 395.677 328.576 392.939 328.378C392.462 323.808 392.383 319.198 392.897 315.142C386.502 312.789 380.107 310.436 373.71 308.083C372.061 307.476 370.369 306.861 368.61 306.85C362.68 306.81 359.021 313.142 356.759 318.623C348.914 337.639 345.203 354.398 340.08 374.321C339.619 376.115 339.995 378.917 341.827 378.636C343.15 378.436 343.432 376.431 342.537 375.44C341.643 374.45 340.178 374.251 338.844 374.183C336.988 374.09 334.582 374.559 334.285 376.394C334.173 377.08 334.425 377.777 334.762 378.387C337.033 382.522 345.53 393.202 342.423 389.653C338.554 385.235 335.21 381.709 330.264 382.122C328.535 382.267 324.105 385.784 322.519 386.487C313.262 390.583 300.734 397.952 292.451 401.751C288.115 403.269 284.416 406.531 282.367 410.643C285.662 413.015 290.199 411.031 293.793 409.139C308.678 401.295 324.68 395.573 341.164 392.204C342.86 391.856 344.608 391.517 346.075 390.599C349.051 388.732 350.164 385.017 351.161 381.648C353.664 373.211 356.876 364.985 360.752 357.085C362.063 354.417 363.86 351.473 366.801 351.032C374.797 358.634 369.156 374.91 378.329 381.043C380.568 382.538 383.299 383.062 385.96 383.468C395.437 384.914 424.698 381.104 435.576 377.992C432.85 362.45 421.474 348.223 423.85 332.625C424.462 328.607 425.985 324.756 426.441 320.716C427.34 312.733 424.364 303.406 429.703 297.401C432.932 293.766 438.144 292.812 442.95 292.074C446.85 291.474 450.936 290.887 454.66 292.193C461.394 294.553 464.602 302.065 466.817 308.847C482.681 357.398 487.09 409.648 479.588 460.171C472.37 461.676 464.892 461.921 453.763 461.561C448.24 469.435 445.142 482.617 451.116 489.026C453.532 491.619 455.429 475.699 455.282 479.241C455.258 479.781 442.394 504.054 450.716 503.661C453.261 503.542 466.004 482.206 461.55 486.199C458.401 489.021 453.273 496.806 457.312 498.063C464.114 500.182 468.88 491.757 471.882 485.953C474.887 480.15 476.074 473.603 477.226 467.168C477.487 465.706 477.726 464.103 476.985 462.816C475.737 460.65 472.651 460.692 470.172 461.014C465.705 461.594 458.903 460.306 454.436 460.888C452.17 435.814 454.642 420.655 455.822 388.494C450.721 367.557 445.621 346.618 440.52 325.681C438.198 316.146 436.864 303.901 445.111 298.581C446.99 297.371 449.256 296.647 450.679 294.922C453.069 292.023 451.992 287.499 449.639 284.57C447.287 281.642 443.938 279.7 441.226 277.1C429.413 265.768 431.992 244.892 420.481 233.255C416.109 228.836 409.586 225.421 408.859 219.248C408.525 216.414 409.57 213.619 410.598 210.956C415.245 198.907 419.89 186.858 425.726 171.781C462.223 165.267 523.487 183.521 536.945 82.1811C540.181 57.8144 539.585 29.5016 521.113 13.2844C505.118 -0.750494 481.557 -0.575262 460.322 0.368656C420.77 2.12799 392.899 1.55089 353.114 5.22609C289.804 9.77746 284.031 124.118 358.406 145.407" stroke="#161616" stroke-width="2" stroke-linecap="round" stroke-linejoin="round"/>
<path d="M112.708 711.658C114.088 706.515 117.771 701.648 122.948 700.412C128.201 699.16 133.514 701.791 138.273 704.342C147.518 709.295 156.761 714.249 166.006 719.202C167.189 719.835 168.469 720.578 168.908 721.844C169.988 724.947 165.548 726.851 162.275 727.125C151.562 728.02 140.85 728.914 130.137 729.809C126.542 730.111 122.614 730.326 119.659 728.256C114.053 724.328 115.845 715.725 118.243 709.314C119.147 706.896 120.196 704.298 122.413 702.973C126.836 700.331 133.74 703.994 137.161 700.141C138.345 698.807 138.665 696.94 138.941 695.179C144.45 659.744 156.969 614.962 162.541 578.554C177.952 578.675 193.364 578.799 208.775 578.92C210.001 578.93 211.333 578.976 212.286 579.747C213.592 580.806 213.648 582.745 213.562 584.423C211.595 622.906 193.518 658.952 189.039 698.891C182.698 702.553 175.364 704.473 168.044 704.387C166.735 710.3 165.742 716.284 165.062 722.302C164.941 723.377 164.864 724.58 165.544 725.422C166.189 726.223 167.305 726.431 168.322 726.578C180.691 728.365 193.207 729.122 205.7 728.84C210.546 728.73 217.172 726.218 215.88 721.545C215.356 719.66 213.564 718.403 211.751 717.662C206.824 715.646 200.849 716.162 196.635 712.91C191.429 708.891 189.247 699.623 182.691 700.141C178.399 700.482 173.85 705.317 170.66 702.426C169.24 701.139 169.186 698.964 169.245 697.048C170.338 660.866 173.882 624.759 179.845 589.053C180.429 585.558 181.037 581.981 180.424 578.49C180.424 578.49 182.413 580.822 185.308 582.156C195.139 580.532 204.969 578.911 214.8 577.287C216.555 576.997 218.468 576.619 219.59 575.238C220.585 574.014 220.688 572.313 220.737 570.736C222.09 527.339 224.197 479.017 207.793 440.379C190.992 443.155 170.628 443.232 153.614 442.459C152.081 453.3 153.817 465.075 152.284 475.917C152.027 477.73 151.675 479.718 150.256 480.872C149.123 481.793 147.574 481.956 146.121 482.082L127.236 483.718C128.5 515.108 129.764 546.5 127.834 578.794C144.455 574.065 164.446 581.855 178.408 571.673C183.018 568.311 186.219 563.392 189.121 558.481C200.452 539.297 208.842 518.379 213.905 496.683C211.978 494.248 208.27 493.886 205.373 494.996C202.473 496.106 200.193 498.37 198.004 500.571C190.079 508.542 182.153 516.512 174.228 524.484C181.801 505.699 189.144 486.823 196.254 467.858C190.894 465.209 185.067 470.311 181.413 475.043C161.408 500.947 146.647 530.881 138.273 562.519C137.467 565.561 136.705 568.656 135.177 571.409C134.023 573.486 132.46 575.311 131.233 577.346C129.656 579.962 128.661 582.883 127.82 585.82C118.437 618.595 127.28 654.714 116.703 687.123C115.654 690.34 114.399 693.62 114.661 696.996C114.923 700.37 117.259 703.88 120.633 704.162C120.551 672.382 130.757 641.431 132.894 609.724C134.137 591.266 132.635 572.745 131.133 554.306C129.514 534.435 129.764 507.087 128.901 486.608C123.472 482.412 114.572 487.821 107.733 488.409C112.149 469.58 116.565 450.751 120.981 431.922C126.799 407.118 123.345 374.382 121.691 358.067C120.282 344.158 123.476 326.495 138.294 318.238C147.747 317.722 155.291 325.619 161.394 332.857C172.509 346.034 193.707 381.051 192.216 386.064C191.597 388.146 184.777 385.775 186.747 384.861C192.298 382.284 200.892 386.677 207.695 389.104C223.7 394.814 240.856 401.884 257.791 403.303C256.328 408.793 254.863 414.284 253.379 420.529C257.477 421.567 261.19 424.069 263.685 427.482C264.748 428.936 265.949 430.742 267.746 430.665C268.547 430.63 269.269 430.202 269.987 429.842C272.788 428.436 276.045 427.954 279.134 428.492C280.197 428.676 281.468 428.915 282.206 428.127C282.753 427.543 282.737 426.644 282.645 425.847C282.244 422.419 281.015 419.092 279.089 416.228C278.568 415.452 277.961 414.679 277.11 414.289C274.073 412.894 270.709 417.127 267.557 416.02C269.148 412.508 272.192 409.683 275.814 408.363C272.982 406.312 270.001 404.277 266.578 403.571C263.155 402.866 259.155 403.807 257.206 406.712C254.527 410.702 255.921 417.534 251.501 419.419C250.132 420.003 248.573 419.852 247.094 419.686C232.784 418.081 218.525 416.02 204.427 414.363C197.053 411.354 189.938 407.705 183.191 403.471C180.929 402.053 178.403 399.856 179.032 397.263C180.644 397.05 182.375 396.856 183.815 397.613C185.254 398.37 186.074 400.483 184.959 401.667C183.943 402.749 182.167 402.384 180.768 401.889C161.717 395.132 143.025 368.067 141.413 358.932C140.619 354.427 151.06 349.492 154.637 439.3C154.672 440.193 154.728 441.136 155.221 441.882C156.076 443.174 157.859 443.375 159.408 443.45C170.717 443.996 182.027 444.543 193.335 445.087C195.219 445.178 197.156 445.26 198.931 444.629C204.064 442.8 205.436 436.076 204.599 430.69C203.763 425.305 201.564 419.898 202.445 414.686C207.952 413.275 213.646 412.59 219.331 412.655C221.478 428.527 223.627 444.396 225.774 460.267C226.443 465.206 226.926 470.818 223.676 474.596C223.034 475.344 222.19 476.012 221.207 476.068C219.989 476.138 218.936 475.267 218.092 474.384C209.7 465.587 209.405 452.15 208.074 440.064C207.889 438.377 207.641 436.613 206.634 435.246C204.345 432.141 199.677 432.66 195.847 433.118C188.653 433.975 181.167 433.417 174.523 430.531C172.819 429.791 171.088 428.816 170.198 427.186C168.868 424.751 169.822 421.751 170.794 419.151C171.922 416.137 173.051 413.125 174.179 410.111C174.534 409.165 174.894 408.162 174.719 407.167C174.499 405.929 173.506 404.99 172.52 404.209C169.504 401.824 166.018 400.039 162.319 398.983C160.658 398.508 158.89 398.149 157.553 397.055C155.817 395.635 155.172 393.275 153.735 391.55C151.607 388.997 148.098 388.174 145.226 386.497C142.478 384.892 140.296 382.471 138.411 379.908C125.787 362.766 125.955 337.306 137.976 319.637C141.941 322.226 147.593 321.864 151.196 318.794C150.315 316.266 149.434 313.736 148.551 311.208C145.955 315.925 150.513 321.453 155.179 324.142C160.247 327.067 165.946 328.892 171.77 329.457C166.191 323.883 163.684 315.881 162.85 308.039C162.018 300.196 162.663 292.276 162.385 284.395C162.34 283.135 162.163 281.675 161.093 281.007C160.184 280.437 159.016 280.689 157.943 280.68C154.579 280.649 151.775 277.776 150.717 274.582C149.658 271.388 149.964 267.923 150.284 264.573C150.46 262.727 150.738 260.678 152.168 259.498C154.114 257.893 157.142 258.806 159.069 260.437C160.997 262.068 163.787 269.909 165.875 271.327C164.044 264.981 186.004 242.739 196.191 240.404C199.595 257.255 202.207 266.603 201.181 283.764C200.894 288.563 200.249 293.769 196.866 297.184C191.452 302.649 167.238 300.628 174.747 298.257C181.401 296.154 189.621 298.829 189.455 305.733C189.382 308.752 186.413 315.944 186.822 318.934C187.312 322.523 190.172 327.537 193.7 328.366C194.646 328.588 195.723 328.633 196.511 328.058C199.312 326.014 196.529 314.909 197.036 318.338C198.385 327.46 211.226 331.581 218.765 326.593C211.891 317.011 209.34 304.967 208.578 293.201C207.817 281.432 208.669 269.6 207.805 257.841C207.254 250.332 205.912 242.64 201.132 237.858C193.824 233.22 185.135 228.398 176.978 231.295C178.2 234.017 182.763 234.201 184.2 231.587C175.193 226.47 163.955 228.155 153.932 230.771C150.784 231.594 146.64 232.113 145.013 229.292C144.502 228.402 144.383 227.346 144.292 226.325C143.002 212.017 144.546 197.459 150.245 178.393C175.702 176.987 201.735 215.148 233.267 229.764" stroke="#161616" stroke-width="2" stroke-linecap="round" stroke-linejoin="round"/>
<path d="M262.615 239.883C250.917 215.988 258.503 198.414 269.697 187.152C275.253 181.636 282.108 179.087 288.977 179.963C295.996 180.874 302.302 185.391 306.335 192.297C312.077 202.136 312.895 214.393 308.556 224.227C304.828 232.577 297.708 238.273 288.662 240.18C277.096 242.364 269.996 241.404 262.615 239.885" stroke="#161616" stroke-width="2" stroke-miterlimit="10" stroke-linecap="round"/>
<path d="M368.918 168.295C365.32 179.694 351.53 182.916 349.96 189.82C348.458 196.706 354.22 201.01 352.799 209.624C352.187 213.346 352.414 220.991 351.105 231.748C348.575 249.67 329.208 265.49 316.636 269.817C308.183 272.696 298.907 273.68 289.664 272.834C279.762 271.873 269.83 268.82 260.807 263.789C246.478 255.74 236.536 243.381 233.281 229.771C232.625 226.855 232.461 225.075 232.461 225.075C231.952 220.792 232.038 216.36 232.749 211.911C234.798 199.36 241.559 188.292 248.057 177.571C252.774 169.814 257.655 161.877 260.706 153.344C261.283 151.73 261.795 150.132 262.372 148.517C265.442 139.211 268.66 129.657 276.984 123.732C286.099 117.328 300.283 118.622 308.021 126.634C314.426 133.227 316.166 144.975 317.528 154.367C317.806 156.047 318.005 157.678 318.234 159.162C319.596 167.152 322.739 174.979 325.799 182.477C330.159 193.22 334.601 204.295 334.215 216.502C333.71 232.729 325.199 251.374 307.323 256.322C299.264 258.542 290.138 257.878 281.608 254.544C273.685 251.409 268.234 246.397 262.606 239.822C254.419 238.435 242.328 234.869 233.27 229.706" stroke="#161616" stroke-width="2" stroke-miterlimit="10" stroke-linecap="round"/>
</g>
<defs>
<clipPath id="clip0_201_1098">
<rect width="570" height="730" fill="white"/>
</clipPath>
</defs>
</svg>
