<svg width="438" height="323" viewBox="0 0 438 323" fill="none" xmlns="http://www.w3.org/2000/svg">
<g clip-path="url(#clip0_33_339)">
<path d="M293.985 195.967L294.808 195.4L294.808 195.4L293.985 195.967ZM255.399 138.527L254.425 138.754L254.425 138.754L255.399 138.527ZM269.225 121.571L268.572 122.328L269.225 121.571ZM292.179 145.195L291.714 146.08L291.714 146.081L292.179 145.195ZM256.759 151.592C256.576 151.07 256.005 150.796 255.484 150.98C254.963 151.163 254.689 151.733 254.872 152.254L256.759 151.592ZM244.519 194.85L245.24 195.543L245.242 195.54L244.519 194.85ZM225.02 207.851L225.39 208.78L225.395 208.778L225.02 207.851ZM199.269 212.323L199.232 213.323L199.236 213.323L199.269 212.323ZM164.595 197.063L163.83 197.707L163.838 197.716L164.595 197.063ZM162.095 193.777L162.938 193.238L162.931 193.227L162.923 193.216L162.095 193.777ZM157.074 183.54L156.124 183.851L156.125 183.854L157.074 183.54ZM155.148 151.069L154.15 151.001L154.15 151.003L155.148 151.069ZM155.21 127.427L156.201 127.293L156.201 127.292L155.21 127.427ZM154.566 123.056L155.557 122.92L155.556 122.908L155.554 122.896L154.566 123.056ZM155.911 98.2078L155.024 97.7458L155.021 97.7514L155.911 98.2078ZM180.887 88.1474L180.565 89.0944L180.568 89.0953L180.887 88.1474ZM199.226 105.71L198.413 106.292L198.419 106.3L198.425 106.308L199.226 105.71ZM201.677 109.117L200.87 109.706L200.874 109.713L200.879 109.719L201.677 109.117ZM216.118 124.811C216.538 125.17 217.169 125.12 217.528 124.7C217.887 124.28 217.837 123.649 217.417 123.29L216.118 124.811ZM355.211 50.452L355.971 51.1024L355.971 51.1017L355.211 50.452ZM355.613 50.6749L356.563 50.9844L356.564 50.9825L355.613 50.6749ZM319.779 100.774L320.361 101.587L320.361 101.587L319.779 100.774ZM251.824 98.6128L251.26 97.7866L251.26 97.7867L251.824 98.6128ZM230.577 127.389L231.518 127.726L231.518 127.726L230.577 127.389ZM240.785 158.89L241.727 158.554L241.727 158.554L240.785 158.89ZM190.677 212.403L190.846 211.418L190.846 211.418L190.677 212.403ZM171.016 134.483L171.584 135.307L171.584 135.307L171.016 134.483ZM228.662 135.552L227.745 135.949L228.662 135.552ZM211.936 197.566L211.539 196.648L211.936 197.566ZM235.586 132.628L236.504 133.024L236.504 133.023L235.586 132.628ZM247.781 132.758L248.203 131.851L248.203 131.851L247.781 132.758ZM94.5367 85.1935L95.5143 85.4037L94.5367 85.1935ZM206.931 36.2284L207.076 35.239L206.931 36.2284ZM248.46 127.821L249.324 127.317L249.324 127.317L248.46 127.821ZM253.467 120.387L252.549 120.784L253.467 120.387ZM218.394 36.5279L217.476 36.9253L218.394 36.5279ZM84.04 85.2762L83.0726 85.5293L83.0726 85.5293L84.04 85.2762ZM140.878 217.369L141.827 217.055L141.827 217.055L140.878 217.369ZM106.958 202.368L106.074 201.903L106.074 201.903L106.958 202.368ZM130.11 191.83L130.478 190.901L130.477 190.9L130.11 191.83ZM153.498 243.305L152.545 243.61L153.498 243.305ZM147.251 246.782L147.089 245.795L147.088 245.795L147.251 246.782ZM137.361 255.014L136.521 254.471L136.521 254.471L137.361 255.014ZM127.379 247.161L126.553 247.725L126.553 247.725L127.379 247.161ZM127.537 229.542L126.87 228.798L126.87 228.798L127.537 229.542ZM146.189 227.278L146.621 226.376L146.621 226.376L146.189 227.278ZM162.497 266.284L163.478 266.093L163.478 266.093L162.497 266.284ZM154.064 275.347L154.684 274.563L154.684 274.562L154.064 275.347ZM166.203 279.231L167.118 278.827L167.118 278.827L166.203 279.231ZM173.964 302.049L173.113 302.575L173.964 302.049ZM139.725 271.869L138.879 272.402L139.725 271.869ZM153.928 249.704L153.539 250.625L153.928 249.704ZM294.808 195.4C291.116 190.038 282.047 178.333 273.689 166.749C269.492 160.931 265.457 155.12 262.314 150.088C259.145 145.012 256.968 140.856 256.373 138.3L254.425 138.754C255.106 141.68 257.468 146.102 260.618 151.147C263.795 156.236 267.861 162.088 272.067 167.919C280.517 179.631 289.464 191.166 293.161 196.534L294.808 195.4ZM256.373 138.301C255.146 133.031 256.01 126.846 258.33 123.128C259.481 121.283 260.91 120.163 262.506 119.908C264.093 119.655 266.121 120.214 268.572 122.328L269.878 120.814C267.165 118.474 264.563 117.555 262.191 117.933C259.827 118.31 257.966 119.932 256.633 122.069C253.984 126.316 253.1 133.064 254.425 138.754L256.373 138.301ZM268.572 122.328C273.634 126.694 276.492 131.015 279.57 135.114C282.649 139.215 285.912 143.032 291.714 146.08L292.644 144.31C287.23 141.465 284.181 137.924 281.169 133.913C278.156 129.9 275.145 125.356 269.878 120.814L268.572 122.328ZM291.714 146.081C297.174 148.948 304.849 155.387 312.009 163.258C319.164 171.121 325.699 180.298 328.96 188.572L330.82 187.839C327.435 179.247 320.723 169.863 313.488 161.912C306.259 153.966 298.401 147.334 292.644 144.31L291.714 146.081ZM299.223 209.304C298.204 203.388 296.825 198.329 294.808 195.4L293.161 196.534C294.903 199.063 296.232 203.719 297.252 209.644L299.223 209.304ZM254.872 152.254C257.371 159.366 256.581 167.782 254.135 175.515C251.689 183.243 247.635 190.137 243.796 194.159L245.242 195.54C249.33 191.257 253.522 184.08 256.041 176.118C258.56 168.16 259.455 159.265 256.759 151.592L254.872 152.254ZM243.798 194.157C238.561 199.608 231.954 203.962 224.644 206.924L225.395 208.778C232.944 205.719 239.793 201.213 245.24 195.543L243.798 194.157ZM224.649 206.922C216.797 210.053 208.094 211.614 199.302 211.324L199.236 213.323C208.304 213.622 217.282 212.013 225.39 208.78L224.649 206.922ZM199.305 211.324C185.333 210.818 173.059 205.342 165.352 196.41L163.838 197.716C171.967 207.139 184.802 212.8 199.232 213.323L199.305 211.324ZM165.361 196.42C164.544 195.449 163.934 194.646 163.53 194.089C163.328 193.811 163.177 193.595 163.079 193.449C163.029 193.377 162.993 193.322 162.97 193.287C162.958 193.269 162.949 193.256 162.944 193.248C162.941 193.244 162.94 193.241 162.939 193.239C162.938 193.238 162.938 193.238 162.938 193.238C162.938 193.238 162.938 193.238 162.938 193.238C162.938 193.238 162.938 193.238 162.938 193.238C162.938 193.238 162.938 193.238 162.938 193.238C162.938 193.238 162.938 193.238 162.095 193.777C161.253 194.315 161.253 194.315 161.253 194.315C161.253 194.315 161.253 194.315 161.253 194.315C161.253 194.316 161.253 194.316 161.253 194.316C161.254 194.316 161.254 194.317 161.254 194.317C161.255 194.319 161.256 194.32 161.257 194.322C161.259 194.325 161.262 194.33 161.266 194.336C161.274 194.348 161.285 194.365 161.299 194.387C161.328 194.43 161.37 194.493 161.425 194.574C161.534 194.735 161.697 194.969 161.911 195.264C162.341 195.856 162.98 196.696 163.83 197.707L165.361 196.42ZM162.923 193.216C160.879 190.2 159.22 186.843 158.024 183.226L156.125 183.854C157.379 187.643 159.118 191.167 161.268 194.338L162.923 193.216ZM158.025 183.229C154.671 172.98 155.426 161.993 156.146 151.135L154.15 151.003C153.435 161.78 152.628 173.169 156.124 183.851L158.025 183.229ZM156.146 151.137C156.676 143.328 157.271 135.184 156.201 127.293L154.219 127.562C155.257 135.214 154.684 143.145 154.15 151.001L156.146 151.137ZM156.201 127.292C156.1 126.548 155.988 125.815 155.877 125.091C155.766 124.364 155.656 123.647 155.557 122.92L153.576 123.191C153.677 123.936 153.789 124.669 153.9 125.393C154.011 126.12 154.12 126.837 154.219 127.562L156.201 127.292ZM155.554 122.896C154.194 114.467 152.946 106.18 156.801 98.6642L155.021 97.7514C150.82 105.943 152.239 114.901 153.579 123.215L155.554 122.896ZM156.798 98.6698C161.017 90.5704 171.907 86.1569 180.565 89.0944L181.208 87.2004C171.608 83.9438 159.696 88.7773 155.024 97.7458L156.798 98.6698ZM180.568 89.0953C184.112 90.2858 187.365 92.8696 190.361 96.0569C193.352 99.2391 196.015 102.942 198.413 106.292L200.04 105.127C197.652 101.793 194.915 97.9818 191.819 94.6871C188.726 91.3976 185.202 88.5421 181.205 87.1994L180.568 89.0953ZM198.425 106.308C199.318 107.503 200.064 108.604 200.87 109.706L202.485 108.527C201.757 107.531 200.902 106.281 200.028 105.111L198.425 106.308ZM200.879 109.719C205.184 115.425 210.797 120.267 216.118 124.811L217.417 123.29C212.072 118.727 206.628 114.019 202.476 108.514L200.879 109.719ZM328.036 69.9689C328.316 70.9289 328.316 70.9288 328.317 70.9286C328.317 70.9286 328.317 70.9284 328.318 70.9283C328.319 70.928 328.32 70.9277 328.321 70.9273C328.324 70.9265 328.327 70.9255 328.332 70.9242C328.34 70.9216 328.352 70.918 328.368 70.9133C328.398 70.9039 328.442 70.8903 328.499 70.8723C328.612 70.8361 328.777 70.7822 328.989 70.7085C329.413 70.5613 330.027 70.3355 330.802 70.0166C332.352 69.3789 334.549 68.3687 337.16 66.8709C342.384 63.875 349.271 58.9262 355.971 51.1024L354.452 49.8016C347.923 57.4257 341.223 62.2353 336.165 65.136C333.636 66.5863 331.519 67.5589 330.041 68.1669C329.302 68.4709 328.723 68.6836 328.333 68.8193C328.137 68.8871 327.989 68.9356 327.892 68.9666C327.843 68.9821 327.807 68.9933 327.784 69.0003C327.773 69.0037 327.765 69.0062 327.76 69.0076C327.757 69.0083 327.756 69.0088 327.755 69.009C327.755 69.0091 327.755 69.0092 327.755 69.0092C327.755 69.0092 327.755 69.0091 327.755 69.0091C327.755 69.009 327.755 69.0089 328.036 69.9689ZM355.971 51.1017C355.439 51.7243 354.398 51.1816 354.661 50.3674L356.564 50.9825C356.984 49.6818 355.316 48.7904 354.451 49.8023L355.971 51.1017ZM354.662 50.3655C352.801 56.0842 343.054 82.8773 319.197 99.9614L320.361 101.587C344.754 84.1193 354.668 56.8102 356.563 50.9844L354.662 50.3655ZM319.197 99.9614C306.022 109.396 291.63 107.462 279.217 103.767C276.118 102.845 273.157 101.817 270.376 100.836C267.604 99.8579 264.994 98.9194 262.637 98.1925C260.286 97.4672 258.122 96.9316 256.239 96.781C254.363 96.6309 252.631 96.8516 251.26 97.7866L252.387 99.4389C253.218 98.8722 254.413 98.6413 256.08 98.7746C257.74 98.9074 259.735 99.3903 262.048 100.104C264.356 100.816 266.916 101.736 269.71 102.722C272.495 103.705 275.496 104.747 278.646 105.684C291.227 109.428 306.41 111.578 320.361 101.587L319.197 99.9614ZM251.26 97.7867C249.46 99.015 247.572 100.833 245.71 102.934L247.207 104.261C249.021 102.214 250.783 100.534 252.387 99.4388L251.26 97.7867ZM245.71 102.934C243.809 105.078 241.902 107.554 240.104 110.076L241.733 111.237C243.505 108.751 245.367 106.335 247.207 104.261L245.71 102.934ZM240.104 110.076C237.316 113.988 234.772 118.038 232.897 121.186C231.959 122.761 231.187 124.115 230.634 125.116C230.358 125.617 230.134 126.033 229.971 126.346C229.825 126.629 229.691 126.896 229.635 127.053L231.518 127.726C231.512 127.743 231.521 127.718 231.569 127.618C231.611 127.532 231.67 127.415 231.746 127.268C231.899 126.974 232.114 126.574 232.385 126.083C232.927 125.102 233.688 123.768 234.616 122.209C236.472 119.092 238.985 115.091 241.733 111.237L240.104 110.076ZM229.635 127.053C229.538 127.325 229.539 127.609 229.549 127.802C229.561 128.025 229.595 128.279 229.645 128.557C229.745 129.114 229.922 129.847 230.174 130.762C230.681 132.596 231.513 135.239 232.71 138.813L234.606 138.178C233.412 134.612 232.594 132.01 232.102 130.23C231.856 129.337 231.697 128.672 231.613 128.204C231.571 127.969 231.552 127.805 231.547 127.699C231.539 127.563 231.56 127.608 231.518 127.726L229.635 127.053ZM232.71 138.813C234.353 143.722 236.694 150.414 239.843 159.227L241.727 158.554C238.579 149.745 236.243 143.068 234.606 138.178L232.71 138.813ZM239.843 159.227C243.566 169.647 240.36 184.239 231.6 195.504C222.882 206.715 208.771 214.481 190.846 211.418L190.509 213.389C209.271 216.596 224.082 208.431 233.179 196.732C242.235 185.086 245.74 169.787 241.727 158.554L239.843 159.227ZM190.846 211.418C172.984 208.366 161.253 194.132 157.46 178.168C153.664 162.189 157.878 144.751 171.584 135.307L170.449 133.66C155.882 143.698 151.584 162.087 155.514 178.63C159.448 195.187 171.683 210.172 190.509 213.389L190.846 211.418ZM171.584 135.307C185.43 125.764 199.388 125.691 209.993 128.177C215.3 129.422 219.758 131.307 222.92 132.96C224.5 133.787 225.749 134.551 226.611 135.143C227.043 135.439 227.368 135.685 227.585 135.868C227.695 135.96 227.765 136.027 227.805 136.068C227.871 136.137 227.804 136.086 227.745 135.949L229.58 135.155C229.484 134.934 229.325 134.763 229.246 134.682C229.141 134.572 229.013 134.456 228.872 134.338C228.59 134.1 228.208 133.813 227.742 133.494C226.807 132.852 225.489 132.047 223.847 131.188C220.562 129.47 215.946 127.519 210.449 126.23C199.445 123.65 184.873 123.719 170.449 133.66L171.584 135.307ZM227.745 135.949C227.66 135.753 227.673 135.594 227.674 135.583C227.676 135.547 227.681 135.538 227.674 135.567C227.66 135.625 227.627 135.735 227.562 135.909C227.435 136.25 227.223 136.739 226.929 137.367C226.344 138.616 225.468 140.343 224.384 142.398C222.22 146.504 219.251 151.877 216.191 157.267C213.13 162.655 209.982 168.052 207.459 172.206C206.196 174.284 205.094 176.043 204.24 177.333C203.813 177.979 203.454 178.497 203.171 178.875C203.03 179.064 202.914 179.209 202.823 179.314C202.722 179.431 202.686 179.458 202.703 179.446L203.906 181.043C204.182 180.835 204.489 180.453 204.773 180.072C205.088 179.651 205.471 179.097 205.908 178.437C206.783 177.116 207.9 175.331 209.168 173.244C211.705 169.069 214.863 163.654 217.93 158.254C220.996 152.855 223.976 147.462 226.154 143.331C227.241 141.267 228.135 139.507 228.74 138.215C229.042 137.572 229.28 137.025 229.436 136.608C229.513 136.402 229.58 136.201 229.621 136.022C229.642 135.933 229.663 135.823 229.67 135.706C229.676 135.614 229.683 135.393 229.58 135.155L227.745 135.949ZM202.703 179.446C202.731 179.424 202.681 179.468 202.457 179.516C202.25 179.56 201.966 179.593 201.599 179.61C200.866 179.643 199.901 179.606 198.763 179.513C196.49 179.328 193.644 178.932 190.803 178.514C187.978 178.1 185.153 177.662 182.974 177.405C181.886 177.276 180.927 177.188 180.193 177.173C179.829 177.166 179.485 177.175 179.192 177.216C179.046 177.237 178.884 177.27 178.726 177.326C178.58 177.379 178.357 177.48 178.169 177.684L179.638 179.04C179.518 179.17 179.403 179.208 179.401 179.209C179.387 179.214 179.405 179.206 179.473 179.197C179.61 179.177 179.832 179.166 180.152 179.173C180.786 179.186 181.666 179.264 182.739 179.391C184.881 179.644 187.659 180.074 190.512 180.493C193.348 180.91 196.254 181.315 198.6 181.506C199.771 181.602 200.832 181.647 201.69 181.608C202.118 181.589 202.522 181.547 202.875 181.472C203.21 181.4 203.592 181.279 203.906 181.043L202.703 179.446ZM178.169 177.684C177.768 178.117 177.87 178.631 177.939 178.841C178.014 179.065 178.141 179.257 178.243 179.393C178.457 179.68 178.776 180.005 179.144 180.344C179.895 181.035 181.01 181.93 182.363 182.941C185.079 184.971 188.839 187.535 192.77 189.996C196.698 192.456 200.824 194.829 204.269 196.467C205.988 197.285 207.568 197.935 208.885 198.316C209.543 198.507 210.164 198.639 210.72 198.685C211.262 198.729 211.833 198.7 212.334 198.483L211.539 196.648C211.47 196.678 211.276 196.724 210.884 196.692C210.507 196.661 210.026 196.565 209.442 196.395C208.274 196.057 206.805 195.459 205.128 194.661C201.781 193.07 197.728 190.741 193.831 188.301C189.937 185.863 186.224 183.33 183.561 181.339C182.225 180.341 181.174 179.495 180.499 178.873C180.155 178.556 179.946 178.332 179.845 178.197C179.789 178.122 179.812 178.134 179.838 178.213C179.86 178.277 179.97 178.68 179.638 179.04L178.169 177.684ZM212.334 198.483C212.821 198.272 213.224 197.831 213.544 197.411C213.89 196.956 214.253 196.369 214.627 195.684C215.378 194.311 216.229 192.45 217.145 190.247C218.981 185.835 221.117 179.957 223.285 173.656C227.623 161.05 232.112 146.677 234.611 138.798L232.705 138.193C230.202 146.086 225.721 160.429 221.394 173.006C219.229 179.296 217.109 185.126 215.299 189.479C214.392 191.658 213.573 193.444 212.873 194.724C212.522 195.366 212.214 195.857 211.953 196.2C211.665 196.578 211.524 196.654 211.539 196.648L212.334 198.483ZM234.611 138.798C235.65 135.523 236.319 133.452 236.504 133.024L234.668 132.232C234.431 132.781 233.717 135.002 232.705 138.193L234.611 138.798ZM236.504 133.023C236.63 132.731 236.986 132.415 237.832 132.216C238.657 132.021 239.749 131.992 240.962 132.098C243.391 132.312 246.014 133.039 247.36 133.664L248.203 131.851C246.617 131.113 243.763 130.337 241.137 130.106C239.823 129.991 238.493 130.005 237.373 130.269C236.274 130.528 235.162 131.085 234.668 132.232L236.504 133.023ZM95.5143 85.4037C95.472 85.6008 95.3752 85.6935 95.4054 85.6586C95.4169 85.6453 95.4581 85.6026 95.5487 85.5287C95.728 85.3822 96.0137 85.1833 96.4198 84.9309C97.2262 84.4297 98.4099 83.7771 99.9329 82.9911C102.973 81.4221 107.292 79.3587 112.478 76.9717C122.845 72.1997 136.632 66.155 150.478 60.2249C164.324 54.2952 178.222 48.4831 188.811 44.1769C194.106 42.0234 198.569 40.2485 201.781 39.0242C203.389 38.4115 204.675 37.94 205.593 37.6285C206.053 37.4722 206.408 37.3606 206.659 37.2919C206.785 37.2572 206.87 37.2377 206.92 37.2283C207.011 37.2116 206.928 37.2387 206.786 37.2178L207.076 35.239C206.857 35.2068 206.645 35.2452 206.556 35.2618C206.427 35.2856 206.282 35.3213 206.13 35.3631C205.823 35.4472 205.425 35.5735 204.95 35.7346C203.997 36.058 202.684 36.5398 201.069 37.1553C197.836 38.3874 193.358 40.1687 188.058 42.3243C177.455 46.636 163.545 52.4529 149.691 58.3864C135.837 64.3195 122.032 70.3721 111.641 75.155C106.448 77.5455 102.097 79.6238 99.0157 81.2139C97.4781 82.0074 96.2385 82.6887 95.364 83.2323C94.9296 83.5023 94.5605 83.7535 94.2837 83.9795C94.1462 84.0917 94.0091 84.2159 93.8935 84.3493C93.7967 84.4611 93.6242 84.6803 93.559 84.9833L95.5143 85.4037ZM206.786 37.2178C206.583 37.188 206.461 37.0986 206.441 37.0845C206.409 37.0606 206.402 37.0497 206.423 37.0725C206.465 37.1177 206.542 37.2135 206.657 37.3815C206.883 37.7119 207.185 38.2175 207.56 38.8993C208.308 40.2563 209.299 42.225 210.484 44.682C212.85 49.5913 215.961 56.395 219.378 64.0261C226.211 79.2858 234.256 97.8212 240.001 111.055L241.836 110.258C236.091 97.0273 228.042 78.4808 221.203 63.2087C217.784 55.5739 214.665 48.7491 212.285 43.8135C211.097 41.3479 210.086 39.3401 209.312 37.9346C208.927 37.2351 208.589 36.663 208.308 36.2527C208.17 36.0503 208.027 35.86 207.885 35.7076C207.814 35.6317 207.724 35.544 207.617 35.4661C207.523 35.3979 207.335 35.2771 207.076 35.239L206.786 37.2178ZM240.001 111.055C242.111 115.914 243.912 120.06 245.227 123.065C245.885 124.566 246.423 125.785 246.818 126.667C247.197 127.513 247.476 128.118 247.596 128.324L249.324 127.317C249.325 127.319 249.32 127.311 249.308 127.287C249.296 127.265 249.282 127.235 249.263 127.197C249.225 127.121 249.177 127.019 249.117 126.891C248.998 126.634 248.839 126.286 248.643 125.849C248.252 124.975 247.717 123.763 247.059 122.262C245.745 119.261 243.946 115.119 241.836 110.258L240.001 111.055ZM247.596 128.324C247.74 128.571 247.945 128.811 248.233 128.978C248.531 129.149 248.853 129.204 249.16 129.175C249.716 129.12 250.183 128.794 250.514 128.503C251.208 127.893 251.908 126.894 252.501 125.88C253.105 124.844 253.653 123.695 254.02 122.713C254.203 122.224 254.35 121.751 254.434 121.339C254.475 121.134 254.506 120.921 254.51 120.715C254.514 120.526 254.5 120.256 254.385 119.99L252.549 120.784C252.499 120.668 252.512 120.605 252.511 120.67C252.51 120.719 252.501 120.807 252.473 120.943C252.419 121.213 252.309 121.578 252.147 122.013C251.823 122.879 251.326 123.925 250.774 124.871C250.209 125.839 249.639 126.61 249.194 127C248.955 127.211 248.884 127.192 248.966 127.184C249.035 127.177 249.136 127.19 249.232 127.245C249.318 127.294 249.34 127.344 249.324 127.317L247.596 128.324ZM254.385 119.99C254.234 119.642 251.397 112.84 247.381 103.212L245.535 103.982C249.545 113.594 252.392 120.421 252.549 120.784L254.385 119.99ZM247.381 103.212C237.843 80.3451 221.68 41.6009 219.311 36.1305L217.476 36.9253C219.838 42.3792 235.991 81.1019 245.535 103.982L247.381 103.212ZM219.311 36.1305C217.623 32.2311 215.801 28.78 213.695 26.4117C211.571 24.0233 209.027 22.6053 205.977 23.1481L206.327 25.1172C208.437 24.7418 210.334 25.6418 212.201 27.7408C214.085 29.86 215.805 33.0655 217.476 36.9253L219.311 36.1305ZM205.977 23.1481C205.565 23.2214 204.86 23.4402 203.97 23.7453C203.052 24.0599 201.864 24.4924 200.446 25.0258C197.608 26.0931 193.825 27.5734 189.386 29.3429C180.508 32.8824 168.99 37.5867 157.137 42.4773C133.433 52.2578 108.371 62.7908 100.373 66.2546L101.168 68.0899C109.149 64.6333 134.198 54.1057 157.9 44.3261C169.75 39.4366 181.259 34.7358 190.127 31.2007C194.561 29.4328 198.331 27.9583 201.15 26.8978C202.56 26.3673 203.727 25.9426 204.618 25.6373C205.536 25.3225 206.094 25.1587 206.327 25.1172L205.977 23.1481ZM100.373 66.2546C92.3279 69.7385 87.6272 73.0661 85.1211 76.2837C82.5585 79.5738 82.3316 82.6972 83.0726 85.5293L85.0075 85.0231C84.4081 82.7322 84.5563 80.2637 86.699 77.5126C88.8981 74.6891 93.2328 71.5261 101.168 68.0899L100.373 66.2546ZM83.0726 85.5293C83.2158 86.0765 83.8056 87.5848 84.7 89.7658C85.6115 91.9885 86.877 94.9982 88.4171 98.6176C91.4977 105.857 95.6824 115.549 100.344 126.292C109.664 147.773 120.901 173.479 129.025 192.178L130.859 191.381C122.729 172.668 111.502 146.983 102.178 125.496C97.5174 114.754 93.3351 105.067 90.2574 97.8345C88.7184 94.2177 87.457 91.2175 86.5505 89.007C85.6269 86.7547 85.1077 85.4062 85.0075 85.0231L83.0726 85.5293ZM129.025 192.178C132.086 199.226 134.707 205.28 136.618 209.742C138.543 214.237 139.72 217.053 139.928 217.683L141.827 217.055C141.584 216.32 140.355 213.389 138.456 208.955C136.543 204.488 133.921 198.43 130.859 191.381L129.025 192.178ZM139.928 217.683C140.292 218.784 140.286 219.632 140.091 220.265C139.898 220.888 139.494 221.39 138.89 221.768C137.64 222.55 135.531 222.78 133.086 222.15L132.587 224.086C135.328 224.793 138.064 224.644 139.95 223.464C140.914 222.861 141.651 221.988 142.001 220.856C142.348 219.734 142.288 218.449 141.827 217.055L139.928 217.683ZM133.086 222.15C130.374 221.45 127.388 221.291 124.304 221.185C121.189 221.078 117.955 221.025 114.601 220.575L114.335 222.557C117.813 223.024 121.17 223.078 124.235 223.184C127.331 223.29 130.113 223.449 132.587 224.086L133.086 222.15ZM114.601 220.575C111.72 220.189 109.183 217.468 107.777 213.756C106.383 210.073 106.272 205.819 107.843 202.834L106.074 201.903C104.154 205.549 104.382 210.435 105.907 214.464C107.421 218.464 110.383 222.027 114.335 222.557L114.601 220.575ZM107.843 202.834C108.578 201.438 110.092 200.039 112.129 198.726C114.146 197.426 116.577 196.273 119.017 195.33C121.454 194.389 123.87 193.668 125.842 193.224C126.828 193.002 127.69 192.852 128.38 192.777C129.102 192.698 129.535 192.713 129.721 192.755L130.163 190.805C129.632 190.684 128.916 190.706 128.163 190.788C127.377 190.874 126.438 191.039 125.402 191.273C123.33 191.739 120.82 192.489 118.296 193.465C115.774 194.439 113.211 195.649 111.046 197.045C108.901 198.427 107.046 200.054 106.074 201.903L107.843 202.834ZM129.721 192.755C129.732 192.758 129.74 192.76 129.744 192.761C129.748 192.762 129.747 192.762 129.743 192.76L130.477 190.9C130.371 190.858 130.264 190.828 130.163 190.805L129.721 192.755ZM129.742 192.76C129.619 192.712 129.566 192.653 129.591 192.676C129.604 192.688 129.639 192.724 129.696 192.796C129.811 192.939 129.964 193.16 130.158 193.471C130.542 194.089 131.033 194.977 131.612 196.098C132.768 198.334 134.244 201.427 135.879 204.983C139.148 212.091 143.032 221 146.234 228.488L148.073 227.701C144.868 220.207 140.976 211.279 137.696 204.147C136.057 200.583 134.566 197.457 133.389 195.179C132.801 194.043 132.282 193.1 131.856 192.415C131.644 192.075 131.443 191.777 131.257 191.545C131.164 191.429 131.062 191.313 130.953 191.211C130.855 191.121 130.694 190.986 130.478 190.901L129.742 192.76ZM146.234 228.488C147.964 232.533 149.494 236.162 150.618 238.863C151.757 241.598 152.452 243.319 152.545 243.61L154.45 243C154.323 242.605 153.578 240.769 152.465 238.095C151.338 235.386 149.806 231.752 148.073 227.701L146.234 228.488ZM152.545 243.61C152.639 243.904 152.594 244.024 152.559 244.089C152.504 244.191 152.344 244.374 151.903 244.594C150.999 245.045 149.43 245.409 147.089 245.795L147.414 247.768C149.714 247.389 151.581 246.991 152.797 246.383C153.415 246.074 153.986 245.654 154.318 245.041C154.67 244.39 154.669 243.683 154.45 243L152.545 243.61ZM147.088 245.795C144.444 246.232 142.013 248.128 140.202 249.946C138.362 251.794 137.007 253.72 136.521 254.471L138.201 255.557C138.635 254.885 139.905 253.078 141.619 251.358C143.363 249.607 145.418 248.098 147.414 247.768L147.088 245.795ZM136.521 254.471C136.611 254.332 136.696 254.477 136.284 254.394C135.875 254.313 135.239 254.033 134.403 253.44C132.749 252.268 130.562 250.049 128.204 246.597L126.553 247.725C128.995 251.3 131.338 253.719 133.246 255.072C134.19 255.741 135.092 256.196 135.892 256.356C136.688 256.515 137.65 256.407 138.201 255.557L136.521 254.471ZM128.205 246.598C123.6 239.853 124.417 233.679 128.204 230.287L126.87 228.798C122.12 233.052 121.563 240.416 126.553 247.725L128.205 246.598ZM128.204 230.287C130.089 228.599 133.545 227.61 137.148 227.304C138.921 227.154 140.671 227.173 142.194 227.336C143.734 227.501 144.972 227.805 145.758 228.181L146.621 226.376C145.541 225.86 144.047 225.523 142.406 225.348C140.748 225.17 138.87 225.151 136.979 225.311C133.256 225.628 129.252 226.663 126.87 228.798L128.204 230.287ZM145.758 228.181C145.861 228.23 146.078 228.388 146.405 228.757L147.903 227.432C147.518 226.997 147.087 226.599 146.621 226.376L145.758 228.181ZM146.405 228.757C147.711 230.233 149.589 233.68 151.622 238.145C153.633 242.564 155.74 247.851 157.52 252.896L159.406 252.23C157.609 247.138 155.481 241.796 153.442 237.317C151.424 232.884 149.436 229.165 147.903 227.432L146.405 228.757ZM157.52 252.896C159.368 258.131 160.85 263.063 161.515 266.476L163.478 266.093C162.784 262.536 161.265 257.495 159.406 252.23L157.52 252.896ZM161.515 266.476C162.296 270.477 161.609 272.689 160.622 273.859L162.15 275.149C163.687 273.329 164.318 270.398 163.478 266.093L161.515 266.476ZM160.622 273.859C159.798 274.834 158.63 275.252 157.452 275.289C156.243 275.328 155.185 274.958 154.684 274.563L153.445 276.132C154.4 276.886 155.954 277.338 157.516 277.288C159.111 277.238 160.874 276.659 162.15 275.149L160.622 273.859ZM154.684 274.562C154.592 274.49 154.716 274.549 154.74 274.768C154.766 275.013 154.636 275.146 154.642 275.14C154.702 275.081 155.02 274.891 155.723 274.761C157.043 274.518 159.074 274.607 160.994 275.424L161.777 273.584C159.478 272.605 157.046 272.484 155.36 272.794C154.56 272.942 153.738 273.22 153.235 273.718C152.959 273.991 152.692 274.425 152.751 274.98C152.808 275.509 153.136 275.888 153.445 276.132L154.684 274.562ZM160.994 275.424C162.718 276.157 164.328 277.464 165.289 279.636L167.118 278.827C165.922 276.123 163.894 274.484 161.777 273.584L160.994 275.424ZM165.289 279.636C167 283.505 169.787 290.57 171.718 295.976C172.688 298.692 173.423 300.936 173.706 302.144C173.778 302.448 173.809 302.642 173.817 302.743C173.821 302.801 173.813 302.772 173.827 302.698C173.829 302.686 173.897 302.261 174.356 302.061C174.827 301.857 175.189 302.111 175.203 302.121C175.267 302.164 175.281 302.19 175.237 302.139C175.159 302.048 175.021 301.858 174.815 301.523L173.113 302.575C173.334 302.933 173.538 303.231 173.721 303.443C173.807 303.544 173.931 303.675 174.087 303.78C174.193 303.851 174.628 304.124 175.153 303.895C175.667 303.672 175.771 303.182 175.793 303.066C175.826 302.887 175.82 302.714 175.811 302.592C175.791 302.333 175.731 302.019 175.654 301.688C175.341 300.354 174.568 298.009 173.601 295.303C171.658 289.864 168.853 282.751 167.118 278.827L165.289 279.636ZM174.815 301.523C174.317 300.718 173.465 299.785 172.417 298.783C171.355 297.766 170.034 296.625 168.546 295.401C165.573 292.953 161.875 290.123 158.149 287.227C154.412 284.323 150.638 281.347 147.472 278.579C144.284 275.791 141.801 273.29 140.571 271.336L138.879 272.402C140.28 274.627 142.966 277.296 146.156 280.085C149.369 282.895 153.185 285.903 156.921 288.806C160.669 291.719 164.33 294.521 167.275 296.945C168.746 298.156 170.024 299.261 171.035 300.228C172.06 301.208 172.756 301.996 173.113 302.575L174.815 301.523ZM140.571 271.336C139.423 269.513 139.112 267.122 139.504 264.517C139.894 261.92 140.972 259.2 142.475 256.826C143.982 254.447 145.876 252.477 147.849 251.324C149.813 250.175 151.766 249.876 153.539 250.625L154.317 248.782C151.794 247.717 149.167 248.236 146.839 249.597C144.521 250.953 142.414 253.184 140.786 255.756C139.154 258.331 137.963 261.311 137.526 264.22C137.09 267.122 137.394 270.045 138.879 272.402L140.571 271.336ZM153.539 250.625C155.193 251.324 156.602 252.245 157.799 253.31L159.128 251.816C157.774 250.612 156.181 249.57 154.317 248.782L153.539 250.625ZM157.799 253.31C162.471 257.466 163.973 263.855 164.04 267.615L166.04 267.579C165.967 263.491 164.363 256.472 159.128 251.816L157.799 253.31ZM247.359 133.664C247.245 133.611 247.173 133.549 247.146 133.525C247.113 133.496 247.094 133.474 247.089 133.468C247.08 133.457 247.088 133.464 247.114 133.505C247.165 133.583 247.243 133.716 247.349 133.915C247.559 134.308 247.843 134.889 248.198 135.652C248.907 137.175 249.876 139.371 251.056 142.12C253.417 147.616 256.612 155.293 260.248 164.149C267.52 181.858 276.55 204.266 284.18 223.333L286.037 222.59C278.406 203.521 269.374 181.107 262.098 163.389C258.461 154.531 255.261 146.842 252.894 141.331C251.711 138.577 250.733 136.359 250.011 134.808C249.651 134.035 249.349 133.415 249.114 132.973C248.997 132.755 248.887 132.562 248.788 132.41C248.739 132.336 248.681 132.252 248.615 132.174C248.575 132.128 248.433 131.958 248.203 131.851L247.359 133.664ZM177.279 275.935C162.965 244.449 142.374 197.304 125.428 157.71C116.956 137.913 109.396 120.008 103.99 106.895C101.286 100.338 99.1229 94.984 97.6537 91.1927C96.9186 89.2955 96.3607 87.7988 95.9964 86.7416C95.8135 86.2111 95.6844 85.8055 95.6061 85.5215C95.5666 85.3779 95.545 85.2827 95.535 85.2268C95.5158 85.1188 95.5519 85.2288 95.5143 85.4037L93.559 84.9833C93.5043 85.2376 93.5499 85.4872 93.566 85.5775C93.5914 85.7199 93.6309 85.8817 93.6779 86.0524C93.7727 86.3967 93.9178 86.8486 94.1055 87.3933C94.4823 88.4866 95.0509 90.0111 95.7889 91.9153C97.2659 95.7268 99.4354 101.096 102.141 107.658C107.552 120.782 115.115 138.696 123.59 158.497C140.538 198.097 161.136 245.257 175.458 276.763L177.279 275.935ZM353.866 64.9361L345.788 87.5034L347.671 88.1775L355.749 65.6102L353.866 64.9361Z" fill="#161616"/>
</g>
<defs>
<clipPath id="clip0_33_339">
<rect width="410" height="280" fill="white" transform="translate(0.962021 43.6006) rotate(-6)"/>
</clipPath>
</defs>
</svg>
