<svg width="411" height="281" viewBox="0 0 411 281" fill="none" xmlns="http://www.w3.org/2000/svg">
<path d="M249.599 160.926C256.259 149.491 254.678 117.159 229.755 107.222C204.832 97.2839 181.215 110.151 177.779 126.886C174.344 143.632 180.414 161.705 192.196 170.779C203.978 179.853 226.762 179.979 229.46 184.447C232.158 188.905 234.835 199.149 242.496 197.979C250.147 196.809 252.486 184.953 253.519 192.183C254.552 199.412 234.55 262.885 237.627 264.055" stroke="white" stroke-width="2" stroke-miterlimit="10"/>
<path d="M249.241 277.418C252.666 274.33 257.166 245.697 256.712 241.977C256.259 238.257 260.717 221.269 266.513 220.879C272.309 220.489 280.16 230.933 279.644 240.059C279.128 249.185 276.63 251.673 269.538 253.938C262.445 256.204 256.702 250.25 258.441 245.023C260.18 239.785 264.838 228.699 264.764 224.03C264.69 219.362 265.491 202.184 269.243 193.7C272.994 185.228 284.608 188.231 286.589 196.946C288.57 205.662 281.741 217.475 274.185 217.865C266.629 218.255 266.524 212.29 267.451 208.159C268.378 204.028 274.132 184.111 272.499 176.354C270.866 168.598 273.995 151.062 282.7 150.609C291.405 150.156 296.39 157.617 297.718 166.027C299.045 174.436 289.666 184.711 283.638 183.278C277.61 181.845 277.231 178.546 275.155 175.269C273.079 171.991 282.974 117.887 288.886 116.243C294.798 114.599 312.324 112.744 313.936 122.429C315.538 132.114 309.679 139.227 300.057 142.368C290.435 145.508 283.543 151.515 282.489 146.541C281.436 141.567 311.944 43.5697 305.98 32.5886C299.983 21.5865 188.866 -0.934223 185.799 4.15585C182.732 9.24592 134.203 241.556 136.037 244.138C137.87 246.719 235.92 269.451 239.419 267.828C242.918 266.205 269.327 147.121 268.083 130.449C266.84 113.777 248.872 86.2293 206.339 89.1169C174.165 91.2983 160.18 130.818 164.554 154.297C168.927 177.777 188.634 188.79 211.471 194.396C234.318 200.002 258.262 175.648 261.982 150.461C265.712 125.264 249.483 100.899 218.121 96.2725C194.757 92.8264 170.982 112.049 170.961 139.354C170.94 166.669 200.163 184.637 214.411 187.03" stroke="white" stroke-width="2" stroke-miterlimit="10"/>
<path d="M95.1052 132.272C114.18 118.878 136.374 45.7623 149.505 44.5399C162.636 43.3069 163.679 64.4365 161.023 80.5498C158.368 96.6631 141.98 136.045 135.457 144.708C128.934 153.37 120.64 151.663 122.105 149.429C123.57 147.195 148.535 125.475 149.705 131.682C150.875 137.889 124.17 246.541 130.451 251.81" stroke="white" stroke-width="2" stroke-miterlimit="10"/>
<path d="M96.9916 186.957C96.9916 186.957 111.556 182.226 124.992 165.533C125.161 165.322 125.498 165.49 125.424 165.754C123.633 171.898 114.138 200.699 89.2775 219.658" stroke="white" stroke-width="2" stroke-miterlimit="10"/>
<path d="M125.045 181.16L117.246 205.188" stroke="white" stroke-width="2" stroke-miterlimit="10"/>
<path d="M200.722 153.656C199.573 143.191 204.758 137.669 210.438 134.981C213.241 133.675 216.139 133.643 218.574 134.897C221.061 136.183 222.8 138.702 223.379 141.821C224.191 146.258 222.852 150.926 219.923 154.003C217.414 156.606 214 157.776 210.375 157.27C205.78 156.533 203.261 155.215 200.722 153.666" stroke="white" stroke-width="2" stroke-miterlimit="10" stroke-linecap="round"/>
<path d="M234.74 162.506C231.388 168.84 222.062 172.117 216.803 172.043C213.273 171.98 209.69 171.095 206.36 169.546C202.808 167.86 199.52 165.394 196.833 162.306C192.586 157.384 190.541 151.451 191.163 145.95C191.311 144.78 191.49 144.095 191.49 144.095C191.88 142.43 192.502 140.797 193.366 139.237C195.811 134.843 199.815 131.628 203.672 128.52C206.465 126.264 209.353 123.967 211.629 121.206C212.061 120.679 212.461 120.152 212.893 119.636C215.286 116.59 217.762 113.46 221.661 112.375C225.908 111.215 231.02 113.597 232.822 117.623C234.318 120.932 233.391 125.537 232.632 129.215C232.506 129.879 232.369 130.511 232.253 131.091C231.684 134.252 231.799 137.583 231.936 140.786C232.116 145.371 232.284 150.092 230.503 154.581C228.132 160.556 222.462 166.342 215.149 165.784C211.85 165.531 208.541 164.055 205.822 161.673C203.293 159.439 201.944 156.847 200.732 153.643C197.876 152.031 193.85 149.08 191.174 145.94C187.085 141.556 180.751 132.893 177.6 127.845" stroke="white" stroke-width="2" stroke-miterlimit="10" stroke-linecap="round"/>
</svg>
