<svg viewBox="0 0 531 1845" preserveAspectRatio="none" fill="none" xmlns="http://www.w3.org/2000/svg">
<path d="M-1288.18 2.64062C-1293.62 73.7791 -1299.6 150.385 -1277.58 221.969C-1255.55 293.554 -1193.3 352.82 -1126.17 380.928C-1051.04 412.532 -967.96 411.549 -891.587 400.851C-727.163 377.622 -578.922 308.174 -426.906 253.014C-419.189 250.222 -412.221 248.181 -404.506 245.389C-221.409 183.777 -25.9281 136.055 171.779 173.151C362.382 209.143 514.563 332.837 528.215 532.694C535.182 635.764 488.506 731.727 421.165 804.016C243.16 996.851 -8.4022 1158.16 -278.706 1198.61C-342.576 1208.29 -420.685 1197.74 -455.892 1129.48C-475.619 1091.73 -477.59 1047.72 -466.776 1008.98C-443.249 921.393 -362.094 859.922 -272.468 847.462C-182.846 835.006 -84.8921 868.417 -6.24504 926.066C159.257 1049.57 226.765 1261.25 239.925 1450.1C272.437 1913.58 52.7284 2295.95 -133.017 2683.77" stroke="#8F8F2D" stroke-miterlimit="10"/>
</svg>
