<svg width="2519" height="12196" viewBox="0 0 2519 12196" fill="none" xmlns="http://www.w3.org/2000/svg">
<g opacity="0.2">
<path d="M2094.76 2186.03C2089.07 2151.43 2072.36 2116.85 2041.25 2098.42C2024.26 2088.36 2000.88 2090.25 1982.45 2095.59C1967.74 2099.86 1953.72 2109.3 1941.53 2118.3C1908.8 2142.43 1878.47 2169.82 1851.06 2199.86C1825.2 2228.2 1801.37 2259.63 1788.94 2296.34C1777.63 2329.72 1776.89 2367.97 1792.29 2400.2C1807.76 2432.56 1838.83 2452.58 1870.97 2465.87C1905.48 2480.15 1945.98 2492.48 1983.36 2483.25C2016.45 2475.08 2040.59 2449.58 2056.31 2420.42C2074.43 2386.82 2084.35 2348.64 2090.91 2311.25C2098.06 2270.55 2101.51 2227.03 2094.77 2186.03L2094.76 2186.03ZM2084.34 2279.49C2080.27 2317.5 2071.86 2355.84 2057.7 2391.43C2046.76 2418.91 2030.49 2447.02 2004.5 2462.71C1972.49 2482.01 1934.09 2475.81 1900.33 2464.91C1869.22 2454.86 1836.85 2441.1 1815.25 2415.58C1793.53 2389.93 1788.07 2354.73 1793.58 2322.31C1799.55 2287.21 1818.78 2255.81 1840.8 2228.48C1864.18 2199.48 1891.25 2173.14 1919.82 2149.29C1933.58 2137.8 1947.71 2126.15 1963.14 2116.94C1973.96 2110.49 1985.64 2104.81 1998.17 2102.77C2011.15 2100.66 2026.95 2101.95 2038.15 2109.42C2055.54 2121.03 2068.36 2138.59 2075.93 2157.93C2076.85 2160.28 2077.69 2162.65 2078.46 2165.05C2090.09 2201.45 2088.35 2241.98 2084.33 2279.5L2084.34 2279.49Z" fill="#8F8F2D"/>
<path d="M1978 2277.37C1950.67 2257.22 1912.21 2255.38 1883.98 2274.65C1868.56 2285.19 1856.52 2300.57 1850.79 2318.44C1844.18 2339.05 1846.67 2361.8 1856.46 2380.95C1856.91 2381.82 1857.48 2382.46 1858.11 2382.93C1872.65 2407.7 1899.63 2424.83 1928.96 2424.57C1962.9 2424.27 1995.32 2402.04 2006.26 2369.64C2017.45 2336.5 2006.25 2298.22 1977.99 2277.37L1978 2277.37ZM1998.72 2354.53C1994.23 2384.05 1970 2406.98 1941.02 2412.44C1908.38 2418.59 1874.13 2398.4 1862.62 2367.4C1862.53 2367.15 1862.42 2366.94 1862.32 2366.72C1852.93 2339.85 1860.26 2309.82 1881.83 2290.26C1903.62 2270.51 1935.38 2266.57 1961.51 2280.07C1988.89 2294.22 2003.32 2324.18 1998.72 2354.52L1998.72 2354.53Z" fill="#8F8F2D"/>
</g>
<g opacity="0.2">
<path d="M1404.23 2854.24C1420.52 2819.97 1426.99 2778.91 1410.7 2743.34C1401.8 2723.92 1379.85 2711.18 1360.17 2704.56C1344.46 2699.28 1326.17 2699.03 1309.78 2699.5C1265.8 2700.77 1221.94 2706.42 1179.05 2716.22C1138.58 2725.46 1098 2738.7 1064.31 2763.67C1033.67 2786.37 1009.41 2819.93 1003.23 2858.08C997.02 2896.39 1012.29 2933.35 1032.67 2965C1054.55 2998.98 1082.95 3034.91 1121.87 3049.76C1156.33 3062.92 1193.52 3055.12 1225.48 3038.91C1262.31 3020.21 1294.68 2992.39 1323.58 2963.19C1355.04 2931.41 1384.95 2894.86 1404.24 2854.24L1404.23 2854.24ZM1337.32 2930.9C1310.26 2962.18 1279.14 2991.08 1244.6 3013.99C1217.93 3031.67 1186.11 3046.63 1153.33 3044.54C1112.97 3041.96 1082.66 3012.76 1059.37 2982.24C1037.9 2954.12 1017.62 2921.93 1014.15 2885.91C1010.66 2849.71 1027.52 2815.05 1052.42 2789.63C1079.37 2762.11 1115.84 2746.05 1152.27 2735.33C1190.94 2723.97 1231.26 2717.25 1271.36 2713.67C1290.69 2711.95 1310.44 2710.3 1329.83 2711.63C1343.43 2712.57 1357.32 2714.72 1369.72 2720.64C1382.56 2726.77 1395.82 2737.66 1401.16 2751.21C1409.46 2772.26 1410.03 2795.78 1404.83 2817.64C1404.2 2820.29 1403.48 2822.92 1402.69 2825.54C1390.57 2865.07 1364.03 2900.02 1337.31 2930.9L1337.32 2930.9Z" fill="#8F8F2D"/>
<path d="M1244.09 2863.42C1232.23 2828.66 1199.17 2803.29 1162.18 2803.02C1141.97 2802.87 1121.78 2809.13 1105.67 2821.48C1087.08 2835.72 1075.26 2857.48 1072.15 2880.55C1072.01 2881.6 1072.12 2882.52 1072.4 2883.32C1070.04 2914.31 1083.47 2946.19 1109.7 2964.05C1140.06 2984.71 1182.6 2984.94 1212.3 2962.89C1242.69 2940.32 1256.35 2899.39 1244.08 2863.41L1244.09 2863.42ZM1214.92 2944.8C1192.72 2968.28 1157.04 2973.72 1127.91 2960.7C1095.09 2946.03 1077.09 2906.96 1085.98 2872.29C1086.06 2872.02 1086.1 2871.77 1086.13 2871.51C1094.36 2841.82 1119.4 2819.65 1150.64 2815.57C1182.19 2811.45 1212.87 2827.53 1227.77 2855.65C1243.38 2885.12 1237.74 2920.66 1214.93 2944.79L1214.92 2944.8Z" fill="#8F8F2D"/>
</g>
<g opacity="0.2">
<path d="M225.847 657.44C188.465 650.953 147.179 655.737 117.287 680.979C100.963 694.766 94.5862 719.328 93.4904 740.058C92.6182 756.615 97.2904 774.295 102.144 789.957C115.171 831.98 132.382 872.722 153.33 911.406C173.099 947.911 196.744 983.443 229.843 1009.2C259.933 1032.62 298.769 1046.98 337.179 1042.7C375.748 1038.4 407.254 1013.77 432.269 985.643C459.131 955.448 486.125 918.448 489.986 876.965C493.409 840.243 475.921 806.508 451.719 780.075C423.82 749.608 388.331 725.893 352.455 705.893C313.392 684.117 270.154 665.116 225.854 657.432L225.847 657.44ZM317.653 701.323C355.053 718.998 391.249 741.218 422.585 768.344C446.776 789.291 469.722 815.921 476.507 848.059C484.854 887.63 464.862 924.668 441.72 955.295C420.394 983.523 394.824 1011.71 361.059 1024.71C327.118 1037.79 289.211 1030.84 258.038 1013.69C224.291 995.11 199.032 964.296 178.936 932.076C157.608 897.869 140.318 860.835 126.103 823.162C119.255 805.011 112.363 786.427 108.444 767.385C105.694 754.037 104.043 740.079 106.418 726.547C108.874 712.527 115.807 696.838 127.43 688.053C145.474 674.406 167.978 667.552 190.438 666.691C193.161 666.587 195.887 666.569 198.615 666.634C239.947 667.693 280.744 683.882 317.662 701.329L317.653 701.323Z" fill="#8F8F2D"/>
<path d="M277.679 809.244C247.372 830.003 231.812 868.652 241.476 904.359C246.761 923.868 258.202 941.637 274.424 953.847C293.137 967.931 317.267 973.474 340.326 970.275C341.372 970.134 342.231 969.777 342.928 969.292C373.412 963.246 400.518 941.76 410.682 911.697C422.443 876.902 411.245 835.862 382.028 813.167C352.132 789.953 309.033 787.78 277.672 809.252L277.679 809.244ZM363.899 815.504C392.479 830.585 407.295 863.5 402.566 895.054C397.245 930.602 364.442 958.427 328.659 959.168C328.382 959.171 328.123 959.202 327.865 959.233C297.061 959.276 268.981 941.107 256.662 912.107C244.224 882.822 251.488 848.952 274.575 827.047C298.77 804.1 334.52 800.003 363.89 815.498L363.899 815.504Z" fill="#8F8F2D"/>
</g>
<g opacity="0.2">
<path d="M547.285 1825.61C555.048 1783.69 550.196 1737.24 522.216 1703.34C506.931 1684.82 479.417 1677.35 456.14 1675.85C437.548 1674.66 417.625 1679.69 399.967 1684.94C352.588 1699.05 306.594 1717.87 262.867 1740.91C221.602 1762.66 181.381 1788.78 152.021 1825.64C125.324 1859.15 108.7 1902.6 113.019 1945.81C117.366 1989.2 144.644 2024.91 175.924 2053.37C209.509 2083.93 250.737 2114.73 297.295 2119.59C338.51 2123.9 376.634 2104.68 406.639 2077.83C441.223 2046.87 468.317 2007.29 491.243 1967.24C516.203 1923.63 538.1 1875.29 547.295 1825.61L547.285 1825.61ZM496.819 1928.2C476.487 1969.99 451.063 2010.38 420.189 2045.24C396.347 2072.15 366.137 2097.6 329.944 2104.81C285.378 2113.69 244.018 2090.76 209.901 2064.37C178.456 2040.05 147.116 2010.97 132.932 1972.87C118.673 1934.57 126.952 1892.06 146.625 1857.26C167.923 1819.58 202.864 1791.59 239.319 1769.42C278.022 1745.89 319.85 1726.93 362.356 1711.44C382.836 1703.98 403.804 1696.47 425.247 1692.31C440.279 1689.39 455.983 1687.71 471.156 1690.55C486.876 1693.49 504.416 1701.47 514.138 1714.64C529.243 1735.09 536.658 1760.46 537.341 1785.71C537.423 1788.77 537.409 1791.83 537.301 1794.89C535.588 1841.32 516.882 1886.95 496.811 1928.21L496.819 1928.2Z" fill="#8F8F2D"/>
<path d="M376.073 1881.92C353.133 1847.6 309.908 1829.63 269.668 1840.03C247.681 1845.73 227.572 1858.35 213.649 1876.43C197.588 1897.27 191.055 1924.31 194.356 1950.26C194.501 1951.44 194.892 1952.41 195.427 1953.2C201.835 1987.52 225.63 2018.25 259.279 2030.05C298.222 2043.7 344.474 2031.64 370.343 1999.11C396.804 1965.81 399.791 1917.42 376.064 1881.91L376.073 1881.92ZM367.947 1978.71C350.641 2010.63 313.472 2026.86 278.08 2021.14C238.209 2014.71 207.362 1977.51 206.983 1937.29C206.984 1936.98 206.952 1936.69 206.921 1936.4C207.262 1901.79 228.031 1870.47 260.769 1857C293.831 1843.4 331.792 1851.99 356.11 1878.2C381.585 1905.68 385.735 1945.9 367.954 1978.7L367.947 1978.71Z" fill="#8F8F2D"/>
</g>
<g opacity="0.2">
<path d="M1685.57 3389.19C1653.93 3372.57 1615.53 3364.93 1581.44 3378.92C1562.82 3386.56 1550 3406.73 1543.03 3425C1537.46 3439.59 1536.54 3456.79 1536.36 3472.24C1535.9 3513.68 1539.55 3555.18 1547.15 3595.91C1554.32 3634.35 1565.25 3673.04 1587.48 3705.7C1607.68 3735.4 1638.35 3759.49 1674.02 3766.76C1709.84 3774.05 1745.21 3761.07 1775.76 3743.09C1808.57 3723.78 1843.47 3698.42 1858.92 3662.34C1872.6 3630.41 1866.67 3595.11 1852.62 3564.42C1836.41 3529.04 1811.45 3497.52 1785.07 3469.22C1756.34 3438.41 1723.07 3408.88 1685.57 3389.19L1685.57 3389.19ZM1755.19 3455.07C1783.61 3481.72 1809.63 3512.1 1829.89 3545.48C1845.52 3571.25 1858.39 3601.76 1855.19 3632.53C1851.23 3670.42 1822.61 3697.85 1793.01 3718.61C1765.73 3737.76 1734.66 3755.63 1700.63 3757.53C1666.42 3759.44 1634.44 3742.26 1611.46 3717.87C1586.57 3691.46 1572.83 3656.54 1564.13 3621.84C1554.9 3585.01 1550.1 3546.81 1548.25 3508.93C1547.35 3490.68 1546.54 3472.03 1548.54 3453.82C1549.93 3441.06 1552.48 3428.07 1558.52 3416.63C1564.78 3404.77 1575.53 3392.71 1588.49 3388.19C1608.61 3381.17 1630.76 3381.53 1651.15 3387.25C1653.62 3387.94 1656.07 3388.71 1658.5 3389.56C1695.24 3402.46 1727.14 3428.76 1755.19 3455.08L1755.19 3455.07Z" fill="#8F8F2D"/>
<path d="M1688.16 3540.26C1654.99 3550.12 1629.86 3580.27 1628.21 3615.07C1627.31 3634.09 1632.43 3653.33 1643.44 3668.96C1656.15 3687 1676.18 3698.94 1697.78 3702.74C1698.75 3702.91 1699.63 3702.84 1700.39 3702.61C1729.47 3706 1759.98 3694.57 1777.78 3670.56C1798.38 3642.76 1800.21 3602.73 1780.57 3573.94C1760.48 3544.49 1722.47 3530.08 1688.15 3540.27L1688.16 3540.26ZM1763.64 3570.8C1784.91 3592.58 1788.68 3626.37 1775.32 3653.29C1760.27 3683.62 1722.82 3699.09 1690.53 3689.41C1690.28 3689.33 1690.04 3689.28 1689.8 3689.24C1662.17 3680.37 1642.24 3655.97 1639.58 3626.41C1636.9 3596.56 1653.2 3568.29 1680.23 3555.33C1708.55 3541.75 1741.78 3548.41 1763.64 3570.79L1763.64 3570.8Z" fill="#8F8F2D"/>
</g>
<g opacity="0.2">
<path d="M989.242 4505.9C957.603 4489.28 919.207 4481.63 885.114 4495.62C866.494 4503.27 853.678 4523.44 846.704 4541.71C841.136 4556.3 840.215 4573.5 840.039 4588.95C839.571 4630.39 843.225 4671.89 850.824 4712.62C857.996 4751.06 868.924 4789.75 891.152 4822.41C911.358 4852.11 942.025 4876.2 977.696 4883.47C1013.52 4890.76 1048.88 4877.78 1079.44 4859.8C1112.25 4840.49 1147.14 4815.12 1162.59 4779.05C1176.28 4747.12 1170.35 4711.82 1156.29 4681.13C1140.09 4645.75 1115.12 4614.23 1088.74 4585.93C1060.02 4555.12 1026.74 4525.59 989.25 4505.89L989.242 4505.9ZM1058.86 4571.78C1087.28 4598.43 1113.31 4628.81 1133.56 4662.19C1149.2 4687.96 1162.07 4718.47 1158.86 4749.24C1154.91 4787.13 1126.28 4814.56 1096.68 4835.32C1069.4 4854.47 1038.33 4872.34 1004.31 4874.24C970.098 4876.15 938.121 4858.97 915.133 4834.58C890.248 4808.17 876.509 4773.25 867.806 4738.55C858.573 4701.72 853.776 4663.52 851.921 4625.64C851.028 4607.39 850.221 4588.74 852.211 4570.53C853.604 4557.77 856.158 4544.78 862.199 4533.33C868.453 4521.48 879.203 4509.41 892.162 4504.9C912.283 4497.88 934.439 4498.24 954.824 4503.96C957.295 4504.65 959.744 4505.42 962.171 4506.27C998.919 4519.17 1030.81 4545.47 1058.87 4571.78L1058.86 4571.78Z" fill="#8F8F2D"/>
<path d="M991.831 4656.97C958.661 4666.82 933.54 4696.98 931.883 4731.78C930.982 4750.8 936.104 4770.04 947.118 4785.67C959.823 4803.7 979.854 4815.65 1001.45 4819.45C1002.43 4819.62 1003.3 4819.55 1004.07 4819.32C1033.14 4822.71 1063.66 4811.28 1081.46 4787.27C1102.06 4759.47 1103.88 4719.44 1084.25 4690.65C1064.16 4661.2 1026.14 4646.79 991.823 4656.98L991.831 4656.97ZM1067.32 4687.51C1088.58 4709.29 1092.35 4743.08 1078.99 4770C1063.95 4800.33 1026.5 4815.79 994.202 4806.12C993.953 4806.04 993.712 4805.99 993.472 4805.94C965.843 4797.08 945.92 4772.68 943.258 4743.12C940.572 4713.27 956.874 4685 983.903 4672.04C1012.23 4658.46 1045.46 4665.12 1067.31 4687.5L1067.32 4687.51Z" fill="#8F8F2D"/>
</g>
<g opacity="0.2">
<path d="M2291.43 5367.89C2292.48 5332.17 2282.5 5294.31 2254.97 5269.81C2239.93 5256.44 2216.18 5253.77 2196.7 5255.52C2181.15 5256.92 2165.29 5263.64 2151.33 5270.26C2113.89 5288.02 2078.2 5309.52 2044.93 5334.22C2013.54 5357.53 1983.57 5384.33 1963.97 5418.63C1946.15 5449.82 1937.96 5487.95 1947.08 5523.19C1956.25 5558.58 1983.43 5584.66 2012.99 5604.23C2044.74 5625.24 2082.85 5645.46 2122.04 5643.52C2156.74 5641.8 2185.86 5620.99 2207.27 5594.89C2231.95 5564.8 2249.32 5528.54 2263.17 5492.42C2278.25 5453.09 2290.19 5410.23 2291.43 5367.9L2291.43 5367.89ZM2262.78 5459.36C2251.3 5496.59 2235.42 5533.31 2214.31 5566.16C2198.01 5591.51 2176.25 5616.47 2147.19 5627.09C2111.41 5640.16 2074.2 5626.47 2042.55 5608.99C2013.38 5592.87 1983.69 5572.8 1967.05 5543.05C1950.32 5513.15 1951.73 5476.88 1963.56 5445.52C1976.37 5411.57 2001.72 5383.9 2029.08 5360.86C2058.13 5336.4 2090.35 5315.33 2123.57 5297.04C2139.58 5288.23 2155.99 5279.32 2173.22 5273.12C2185.3 5268.77 2198.09 5265.36 2211.03 5265.77C2224.43 5266.19 2239.98 5270.55 2249.73 5280.22C2264.86 5295.22 2274.26 5315.28 2278.07 5336.11C2278.53 5338.64 2278.91 5341.18 2279.21 5343.73C2283.75 5382.41 2274.11 5422.61 2262.77 5459.37L2262.78 5459.36Z" fill="#8F8F2D"/>
<path d="M2156.81 5436.51C2133.4 5411.02 2095.28 5401.68 2063.28 5415.46C2045.8 5423 2030.76 5436.04 2021.54 5452.8C2010.91 5472.13 2008.97 5495.37 2015.03 5516.44C2015.3 5517.4 2015.75 5518.15 2016.3 5518.74C2026.01 5546.35 2049.67 5568.76 2079.06 5574.22C2113.07 5580.53 2149.84 5564.61 2167.1 5534.33C2184.75 5503.35 2181.01 5462.87 2156.8 5436.5L2156.81 5436.51ZM2162.49 5517.74C2152.25 5546.4 2123.54 5564.62 2093.49 5564.42C2059.63 5564.21 2029.3 5537.35 2023.83 5504.08C2023.79 5503.82 2023.73 5503.59 2023.66 5503.35C2019.51 5474.63 2032.69 5446.02 2058.09 5430.66C2083.73 5415.15 2116.28 5417.39 2139.79 5435.99C2164.42 5455.49 2173.02 5488.27 2162.5 5517.73L2162.49 5517.74Z" fill="#8F8F2D"/>
</g>
<g opacity="0.2">
<path d="M1029.14 5876.52C998.731 5857.75 960.957 5847.47 925.975 5859.06C906.871 5865.39 892.688 5884.63 884.464 5902.37C877.899 5916.54 875.788 5933.64 874.543 5949.03C871.205 5990.34 871.975 6032 876.733 6073.16C881.225 6112 889.445 6151.36 909.357 6185.48C927.457 6216.5 956.38 6242.67 991.463 6252.39C1026.69 6262.14 1062.87 6251.65 1094.6 6235.82C1128.67 6218.84 1165.24 6195.95 1183.15 6161.03C1199.01 6130.12 1195.55 6094.5 1183.65 6062.91C1169.93 6026.49 1147.22 5993.32 1122.86 5963.26C1096.34 5930.53 1065.19 5898.76 1029.15 5876.52L1029.14 5876.52ZM1094.03 5947.07C1120.54 5975.63 1144.4 6007.74 1162.29 6042.44C1176.1 6069.23 1186.83 6100.56 1181.5 6131.03C1174.93 6168.56 1144.47 6193.93 1113.5 6212.6C1084.96 6229.81 1052.73 6245.49 1018.65 6245.03C984.39 6244.56 953.679 6225.21 932.437 6199.28C909.441 6171.21 898.156 6135.42 891.878 6100.21C885.218 6062.82 883.08 6024.38 883.854 5986.46C884.228 5968.19 884.715 5949.53 887.962 5931.51C890.236 5918.87 893.683 5906.09 900.503 5895.09C907.563 5883.69 919.124 5872.41 932.364 5868.8C952.923 5863.19 975.001 5865.08 994.94 5872.2C997.358 5873.07 999.747 5874.01 1002.11 5875.02C1037.88 5890.43 1067.87 5918.88 1094.04 5947.08L1094.03 5947.07Z" fill="#8F8F2D"/>
<path d="M1021.26 6027.41C987.482 6034.94 960.333 6063.28 956.268 6097.89C954.052 6116.8 957.828 6136.34 967.732 6152.7C979.158 6171.58 998.313 6184.88 1019.59 6190.16C1020.56 6190.41 1021.43 6190.4 1022.21 6190.22C1050.99 6195.61 1082.22 6186.33 1101.64 6163.6C1124.11 6137.3 1128.71 6097.5 1111.12 6067.41C1093.11 6036.64 1056.19 6019.64 1021.25 6027.42L1021.26 6027.41ZM1094.45 6063.1C1114.15 6086.31 1115.57 6120.28 1100.37 6146.21C1083.26 6175.42 1044.83 6188.26 1013.29 6176.36C1013.04 6176.27 1012.81 6176.2 1012.57 6176.14C985.622 6165.38 967.438 6139.66 966.83 6109.98C966.219 6080.02 984.44 6052.95 1012.3 6041.89C1041.5 6030.31 1074.19 6039.26 1094.44 6063.1L1094.45 6063.1Z" fill="#8F8F2D"/>
</g>
<g opacity="0.2">
<path d="M1090.31 7064.47C1091.12 7028.74 1080.89 6990.95 1053.2 6966.64C1038.08 6953.36 1014.3 6950.85 994.841 6952.73C979.296 6954.23 963.48 6961.06 949.569 6967.77C912.246 6985.78 876.7 7007.51 843.595 7032.43C812.354 7055.95 782.562 7082.94 763.196 7117.38C745.585 7148.68 737.64 7186.87 746.996 7222.05C756.398 7257.37 783.75 7283.28 813.445 7302.65C845.328 7323.45 883.568 7343.42 922.75 7341.22C957.436 7339.27 986.415 7318.26 1007.65 7292.02C1032.13 7261.77 1049.26 7225.4 1062.88 7189.18C1077.7 7149.75 1089.35 7106.82 1090.32 7064.48L1090.31 7064.47ZM1062.27 7156.13C1051.03 7193.44 1035.39 7230.26 1014.51 7263.24C998.378 7288.71 976.78 7313.8 947.792 7324.62C912.098 7337.93 874.801 7324.48 843.036 7307.21C813.759 7291.29 783.931 7271.41 767.095 7241.78C750.171 7211.99 751.336 7175.71 762.961 7144.27C775.546 7110.24 800.718 7082.4 827.921 7059.17C856.803 7034.52 888.883 7013.24 921.988 6994.73C937.938 6985.81 954.287 6976.8 971.476 6970.48C983.526 6966.05 996.297 6962.56 1009.23 6962.88C1022.64 6963.21 1038.22 6967.48 1048.03 6977.07C1063.27 6991.97 1072.8 7011.98 1076.74 7032.78C1077.22 7035.3 1077.61 7037.84 1077.94 7040.39C1082.73 7079.04 1073.35 7119.31 1062.26 7156.13L1062.27 7156.13Z" fill="#8F8F2D"/>
<path d="M956.147 7133.98C932.572 7108.65 894.394 7099.56 862.485 7113.55C845.05 7121.2 830.098 7134.35 820.993 7151.17C810.49 7170.57 808.701 7193.82 814.904 7214.85C815.182 7215.81 815.635 7216.56 816.183 7217.14C826.079 7244.69 849.883 7266.93 879.308 7272.2C913.364 7278.29 950.028 7262.12 967.083 7231.73C984.528 7200.63 980.525 7160.18 956.138 7133.97L956.147 7133.98ZM962.371 7215.17C952.32 7243.9 923.73 7262.3 893.676 7262.31C859.819 7262.32 829.313 7235.66 823.619 7202.43C823.578 7202.17 823.513 7201.94 823.448 7201.7C819.1 7173.01 832.099 7144.31 857.39 7128.78C882.931 7113.1 915.496 7115.13 939.129 7133.58C963.887 7152.91 972.703 7185.63 962.376 7215.16L962.371 7215.17Z" fill="#8F8F2D"/>
</g>
<g opacity="0.2">
<path d="M1486.82 8742.69C1497.05 8708.45 1497.16 8669.3 1476.88 8638.53C1465.8 8621.73 1443.53 8613.03 1424.27 8609.7C1408.88 8607.05 1391.82 8609.45 1376.63 8612.25C1335.87 8619.76 1295.85 8631.32 1257.34 8646.61C1220.99 8661.05 1185.13 8679.21 1157.35 8707.3C1132.1 8732.84 1114.35 8767.57 1114.08 8803.97C1113.81 8840.53 1133.35 8872.74 1156.87 8899.26C1182.13 8927.75 1213.73 8957.11 1252.1 8965.34C1286.07 8972.63 1319.57 8960.02 1346.99 8940.32C1378.59 8917.62 1404.72 8887.06 1427.42 8855.73C1452.13 8821.61 1474.71 8783.28 1486.83 8742.7L1486.82 8742.69ZM1435.56 8823.68C1414.87 8856.7 1390.06 8888.08 1361.2 8914.38C1338.92 8934.67 1311.46 8953.18 1280.64 8955.95C1242.7 8959.35 1210.28 8936.53 1184.21 8911.48C1160.18 8888.39 1136.66 8861.34 1128.25 8828.31C1119.8 8795.11 1130.51 8760.43 1150.02 8733.18C1171.15 8703.68 1202.78 8683.48 1235.16 8668.27C1269.52 8652.12 1306.09 8640.07 1342.91 8630.96C1360.64 8626.58 1378.79 8622.2 1397.04 8620.65C1409.83 8619.56 1423.07 8619.57 1435.47 8623.3C1448.31 8627.15 1462.21 8635.39 1469.13 8647.23C1479.89 8665.63 1483.8 8687.44 1482.11 8708.54C1481.9 8711.1 1481.61 8713.66 1481.25 8716.2C1475.66 8754.74 1455.98 8791.1 1435.56 8823.69L1435.56 8823.68Z" fill="#8F8F2D"/>
<path d="M1339.06 8774.29C1323.02 8743.63 1288.6 8724.78 1254.12 8729.84C1235.29 8732.62 1217.4 8741.34 1204.17 8755.16C1188.92 8771.1 1181.05 8793.05 1181.47 8814.97C1181.49 8815.97 1181.73 8816.81 1182.1 8817.52C1184.37 8846.7 1201.45 8874.45 1228.44 8887.3C1259.68 8902.17 1299.31 8896.26 1323.79 8871.46C1348.83 8846.07 1355.65 8806 1339.06 8774.28L1339.06 8774.29ZM1323.62 8854.24C1306.33 8879.29 1273.9 8889.49 1244.91 8881.56C1212.25 8872.63 1189.87 8838.85 1193.16 8805.3C1193.19 8805.04 1193.19 8804.79 1193.19 8804.55C1196.57 8775.73 1216.69 8751.48 1245.19 8743.19C1273.96 8734.81 1304.84 8745.37 1322.76 8769.4C1341.53 8794.59 1341.38 8828.48 1323.62 8854.23L1323.62 8854.24Z" fill="#8F8F2D"/>
</g>
<g opacity="0.2">
<path d="M2313.79 7562.98C2317.01 7527.39 2309.35 7489 2283.35 7462.88C2269.15 7448.61 2245.6 7444.51 2226.06 7445.08C2210.45 7445.53 2194.21 7451.27 2179.88 7457.04C2141.43 7472.49 2104.5 7491.78 2069.8 7514.42C2037.04 7535.79 2005.5 7560.72 1983.86 7593.77C1964.19 7623.82 1953.69 7661.38 1960.66 7697.11C1967.67 7732.99 1993.21 7760.68 2021.54 7782C2051.95 7804.9 2088.76 7827.39 2128 7827.83C2162.74 7828.22 2193.07 7809.21 2216.02 7784.46C2242.48 7755.93 2262.02 7720.79 2278.04 7685.57C2295.48 7647.22 2309.99 7605.17 2313.8 7562.99L2313.79 7562.98ZM2279.65 7652.54C2265.93 7689.01 2247.86 7724.7 2224.8 7756.21C2206.99 7780.53 2183.75 7804.12 2154.11 7812.95C2117.6 7823.83 2081.29 7807.91 2050.76 7788.54C2022.62 7770.69 1994.19 7748.85 1979.39 7718.15C1964.51 7687.29 1968.11 7651.17 1981.82 7620.58C1996.67 7587.47 2023.65 7561.39 2052.36 7540.05C2082.83 7517.4 2116.27 7498.32 2150.55 7482.08C2167.06 7474.26 2183.98 7466.36 2201.55 7461.21C2213.87 7457.61 2226.85 7454.98 2239.74 7456.17C2253.09 7457.4 2268.35 7462.71 2277.49 7472.94C2291.69 7488.83 2299.85 7509.43 2302.39 7530.45C2302.69 7533 2302.92 7535.56 2303.07 7538.12C2305.25 7577.01 2293.19 7616.55 2279.65 7652.55L2279.65 7652.54Z" fill="#8F8F2D"/>
<path d="M2175.26 7623.31C2153.45 7596.45 2115.97 7584.81 2083.19 7596.63C2065.28 7603.09 2049.47 7615.2 2039.26 7631.37C2027.48 7650.02 2024.13 7673.1 2028.9 7694.5C2029.11 7695.47 2029.52 7696.25 2030.02 7696.87C2038.04 7725.02 2060.3 7748.82 2089.3 7756.05C2122.87 7764.41 2160.54 7750.75 2179.6 7721.57C2199.1 7691.72 2197.82 7651.09 2175.26 7623.3L2175.26 7623.31ZM2176.01 7704.73C2164.05 7732.72 2134.29 7749.16 2104.3 7747.15C2070.52 7744.89 2041.88 7716.23 2038.43 7682.69C2038.41 7682.43 2038.36 7682.19 2038.31 7681.95C2035.9 7653.04 2050.8 7625.28 2077.08 7611.48C2103.62 7597.56 2135.97 7601.77 2158.31 7621.76C2181.71 7642.71 2188.31 7675.96 2176.02 7704.73L2176.01 7704.73Z" fill="#8F8F2D"/>
</g>
<g opacity="0.2">
<path d="M1992.66 9048.23C1957.68 9055.52 1923.18 9074.04 1905.76 9106.51C1896.25 9124.25 1899.19 9147.97 1905.43 9166.51C1910.41 9181.31 1920.63 9195.17 1930.32 9207.2C1956.31 9239.48 1985.52 9269.19 2017.28 9295.79C2047.26 9320.9 2080.3 9343.81 2118.22 9354.88C2152.7 9364.96 2191.69 9364.05 2223.84 9346.98C2256.12 9329.83 2275.17 9297.32 2287.31 9264.02C2300.36 9228.25 2311.16 9186.48 2300.15 9148.82C2290.4 9115.47 2263.38 9092 2233.02 9077.25C2198.01 9060.25 2158.71 9051.8 2120.35 9046.73C2078.59 9041.22 2034.13 9039.58 1992.67 9048.22L1992.66 9048.23ZM2088.29 9054.8C2127.17 9057.3 2166.58 9064.2 2203.43 9077.08C2231.88 9087.03 2261.22 9102.39 2278.31 9128.18C2299.35 9159.94 2294.7 9199.31 2285.06 9234.16C2276.18 9266.28 2263.56 9299.83 2238.51 9322.94C2213.32 9346.16 2177.72 9353.24 2144.47 9349.03C2108.47 9344.47 2075.66 9326.25 2046.88 9305.01C2016.33 9282.45 1988.34 9256.02 1962.82 9227.97C1950.53 9214.45 1938.04 9200.56 1928 9185.25C1920.96 9174.51 1914.67 9162.86 1912.06 9150.19C1909.34 9137.06 1909.97 9120.91 1917.1 9109.19C1928.17 9090.98 1945.5 9077.17 1964.87 9068.62C1967.22 9067.58 1969.6 9066.62 1972.01 9065.73C2008.57 9052.32 2049.91 9052.34 2088.3 9054.81L2088.29 9054.8Z" fill="#8F8F2D"/>
<path d="M2090.72 9163.18C2071.39 9191.88 2071.17 9231.12 2092.03 9259.04C2103.42 9274.29 2119.61 9285.88 2138.05 9290.94C2159.32 9296.78 2182.38 9293.26 2201.46 9282.46C2202.33 9281.97 2202.96 9281.36 2203.4 9280.7C2228 9264.82 2244.28 9236.6 2242.75 9206.75C2240.97 9172.2 2216.93 9140.15 2183.47 9130.41C2149.23 9120.45 2110.73 9133.51 2090.72 9163.19L2090.72 9163.18ZM2168.4 9138.75C2198.66 9142.04 2223.06 9165.72 2229.86 9194.99C2237.54 9227.97 2218.47 9263.72 2187.39 9276.78C2187.15 9276.88 2186.93 9277 2186.72 9277.11C2159.76 9287.84 2128.86 9281.67 2108.01 9260.55C2086.96 9239.22 2081.57 9207.04 2094.18 9179.85C2107.41 9151.36 2137.3 9135.37 2168.39 9138.74L2168.4 9138.75Z" fill="#8F8F2D"/>
</g>
<g opacity="0.2">
<path d="M862.68 9438.61C826.944 9439.12 789.563 9450.75 766.296 9479.33C753.59 9494.94 751.971 9518.79 754.573 9538.17C756.653 9553.65 764.062 9569.2 771.287 9582.85C790.674 9619.48 813.712 9654.19 839.85 9686.34C864.518 9716.69 892.602 9745.45 927.733 9763.52C959.672 9779.96 998.125 9786.47 1032.93 9775.81C1067.88 9765.1 1092.75 9736.8 1111 9706.41C1130.6 9673.77 1149.13 9634.81 1145.47 9595.74C1142.24 9561.15 1120.16 9532.98 1093.15 9512.73C1062.01 9489.39 1025.02 9473.63 988.327 9461.38C948.37 9448.03 905.031 9437.99 862.684 9438.6L862.68 9438.61ZM955.315 9463.22C993.017 9473.05 1030.4 9487.31 1064.14 9506.95C1090.18 9522.12 1116.07 9542.77 1127.95 9571.34C1142.58 9606.51 1130.54 9644.28 1114.46 9676.67C1099.64 9706.52 1080.89 9737.06 1051.9 9754.99C1022.76 9773.01 986.463 9773.2 954.615 9762.76C920.136 9751.45 891.38 9727.33 867.159 9701.01C841.45 9673.07 818.985 9641.8 799.256 9609.41C789.752 9593.8 780.13 9577.8 773.181 9560.86C768.308 9548.98 764.344 9536.35 764.183 9523.41C764.011 9510 767.692 9494.27 776.918 9484.11C791.24 9468.33 810.876 9458.06 831.516 9453.35C834.019 9452.78 836.539 9452.28 839.076 9451.87C877.519 9445.64 918.107 9453.51 955.324 9463.22L955.315 9463.22Z" fill="#8F8F2D"/>
<path d="M937.134 9570.09C912.702 9594.59 905.04 9633.08 920.213 9664.44C928.508 9681.58 942.198 9696.03 959.344 9704.51C979.122 9714.28 1002.43 9715.2 1023.21 9708.22C1024.16 9707.91 1024.89 9707.43 1025.45 9706.86C1052.61 9695.94 1073.96 9671.33 1078.12 9641.72C1082.94 9607.46 1065.41 9571.43 1034.41 9555.52C1002.69 9539.24 962.414 9544.75 937.129 9570.1L937.134 9570.09ZM1018.04 9560.84C1047.12 9569.82 1066.58 9597.7 1067.7 9627.73C1068.98 9661.57 1043.47 9693.05 1010.47 9699.97C1010.22 9700.02 1009.98 9700.1 1009.75 9700.17C981.245 9705.58 952.083 9693.66 935.621 9668.97C919 9644.03 919.816 9611.41 937.366 9587.11C955.76 9561.65 988.138 9551.62 1018.03 9560.84L1018.04 9560.84Z" fill="#8F8F2D"/>
</g>
<g opacity="0.2">
<path d="M1660.1 10373.5C1667.72 10338.6 1664.89 10299.6 1642.35 10270.4C1630.03 10254.5 1607.18 10247.5 1587.71 10245.6C1572.16 10244.1 1555.34 10247.8 1540.4 10251.8C1500.33 10262.3 1461.29 10276.9 1424.04 10295C1388.88 10312.1 1354.48 10332.9 1328.9 10363.1C1305.64 10390.4 1290.56 10426.4 1293.03 10462.7C1295.51 10499.2 1317.42 10529.8 1342.87 10554.5C1370.2 10581 1403.93 10607.9 1442.81 10613.2C1477.23 10617.9 1509.68 10602.8 1535.54 10581.1C1565.34 10556.1 1589.1 10523.7 1609.37 10490.7C1631.45 10454.8 1651.08 10414.9 1660.11 10373.5L1660.1 10373.5ZM1615.08 10458.2C1596.93 10492.6 1574.56 10525.8 1547.76 10554.2C1527.07 10576.1 1501.08 10596.6 1470.56 10601.7C1432.98 10608 1398.94 10587.6 1371.05 10564.6C1345.35 10543.4 1319.86 10518.2 1308.99 10485.9C1298.06 10453.4 1306.13 10418 1323.54 10389.4C1342.39 10358.4 1372.41 10335.9 1403.55 10318.3C1436.6 10299.6 1472.15 10284.8 1508.18 10273C1525.54 10267.3 1543.31 10261.5 1561.39 10258.6C1574.06 10256.6 1587.26 10255.6 1599.9 10258.4C1613 10261.2 1627.48 10268.4 1635.28 10279.7C1647.39 10297.2 1652.93 10318.7 1652.83 10339.8C1652.81 10342.4 1652.72 10345 1652.55 10347.5C1649.88 10386.4 1632.99 10424.1 1615.08 10458.2L1615.08 10458.2Z" fill="#8F8F2D"/>
<path d="M1515.14 10416.2C1496.83 10386.8 1461.09 10370.6 1427.1 10378.2C1408.52 10382.4 1391.34 10392.5 1379.19 10407.2C1365.18 10424.3 1358.98 10446.8 1361.06 10468.6C1361.15 10469.6 1361.45 10470.4 1361.88 10471.1C1366.34 10500 1385.46 10526.4 1413.34 10537.2C1445.6 10549.7 1484.68 10540.8 1507.22 10514.2C1530.28 10487 1534.07 10446.5 1515.13 10416.2L1515.14 10416.2ZM1505.76 10497.1C1490.41 10523.3 1458.83 10536 1429.33 10530.2C1396.09 10523.8 1371.23 10491.8 1371.99 10458.1C1371.99 10457.8 1371.98 10457.6 1371.96 10457.3C1373.16 10428.3 1391.4 10402.6 1419.19 10392.2C1447.25 10381.7 1478.83 10389.9 1498.51 10412.5C1519.13 10436.2 1521.53 10470 1505.76 10497L1505.76 10497.1Z" fill="#8F8F2D"/>
</g>
<g opacity="0.2">
<path d="M2223.78 10585.4C2188.7 10578.6 2149.73 10582.3 2121.08 10605.4C2105.44 10618.1 2098.95 10641.1 2097.51 10660.6C2096.36 10676.2 2100.41 10692.9 2104.67 10707.8C2116.11 10747.6 2131.51 10786.3 2150.48 10823.1C2168.38 10857.9 2189.94 10891.8 2220.61 10916.8C2248.48 10939.4 2284.77 10953.7 2321.03 10950.4C2357.44 10947.1 2387.59 10924.6 2411.7 10898.6C2437.6 10870.7 2463.75 10836.3 2468.2 10797.4C2472.15 10762.8 2456.35 10730.7 2434.08 10705.4C2408.4 10676.1 2375.45 10653.1 2342.06 10633.5C2305.7 10612.3 2265.35 10593.5 2223.79 10585.4L2223.78 10585.4ZM2309.37 10628.5C2344.24 10645.9 2377.89 10667.6 2406.87 10693.7C2429.24 10713.9 2450.32 10739.5 2456.08 10769.9C2463.16 10807.3 2443.6 10841.8 2421.2 10870.2C2400.56 10896.3 2375.93 10922.4 2343.87 10934C2311.65 10945.6 2276.09 10938.3 2247.07 10921.5C2215.66 10903.4 2192.48 10873.9 2174.19 10843.1C2154.78 10810.5 2139.22 10775.3 2126.58 10739.5C2120.49 10722.3 2114.36 10704.6 2111.05 10686.6C2108.72 10674 2107.44 10660.8 2109.95 10648.1C2112.54 10635 2119.37 10620.3 2130.49 10612.3C2147.75 10599.8 2169.08 10593.8 2190.25 10593.4C2192.82 10593.4 2195.39 10593.4 2197.95 10593.5C2236.86 10595.3 2274.96 10611.4 2309.38 10628.6L2309.37 10628.5Z" fill="#8F8F2D"/>
<path d="M2269.6 10729.4C2240.65 10748.3 2225.23 10784.4 2233.63 10818.2C2238.22 10836.7 2248.64 10853.7 2263.68 10865.5C2281.03 10879.1 2303.64 10884.8 2325.42 10882.3C2326.41 10882.2 2327.22 10881.8 2327.89 10881.4C2356.72 10876.3 2382.67 10856.6 2392.83 10828.5C2404.59 10796 2394.86 10757.1 2367.79 10735.1C2340.09 10712.7 2299.55 10709.8 2269.59 10729.4L2269.6 10729.4ZM2350.67 10737C2377.29 10751.8 2390.59 10783 2385.52 10812.7C2379.8 10846 2348.36 10871.6 2314.65 10871.6C2314.39 10871.6 2314.15 10871.6 2313.9 10871.6C2284.89 10871.1 2258.81 10853.4 2247.78 10825.8C2236.64 10798 2244.15 10766.3 2266.32 10746.1C2289.56 10725 2323.31 10721.8 2350.66 10737L2350.67 10737Z" fill="#8F8F2D"/>
</g>
<g opacity="0.2">
<path d="M1817.7 11881.8C1820.54 11846.2 1812.46 11807.9 1786.18 11782C1771.83 11767.9 1748.24 11764.1 1728.7 11764.8C1713.1 11765.5 1696.92 11771.4 1682.65 11777.3C1644.37 11793.2 1607.66 11812.9 1573.2 11835.9C1540.68 11857.6 1509.41 11882.8 1488.13 11916.1C1468.78 11946.4 1458.69 11984.1 1466.04 12019.7C1473.43 12055.5 1499.28 12082.9 1527.83 12103.9C1558.49 12126.5 1595.54 12148.6 1634.78 12148.6C1669.52 12148.6 1699.64 12129.3 1722.33 12104.3C1748.48 12075.5 1767.63 12040.1 1783.27 12004.8C1800.3 11966.2 1814.36 11924 1817.71 11881.8L1817.7 11881.8ZM1784.53 11971.7C1771.21 12008.3 1753.51 12044.2 1730.8 12076C1713.25 12100.5 1690.27 12124.3 1660.72 12133.5C1624.33 12144.7 1587.85 12129.2 1557.12 12110.2C1528.79 12092.6 1500.13 12071.1 1484.99 12040.6C1469.78 12009.9 1472.99 11973.7 1486.37 11943C1500.86 11909.7 1527.56 11883.3 1556.04 11861.7C1586.27 11838.7 1619.5 11819.3 1653.59 11802.7C1670.02 11794.7 1686.85 11786.6 1704.37 11781.2C1716.65 11777.5 1729.6 11774.7 1742.5 11775.8C1755.86 11776.9 1771.18 11782 1780.43 11792.1C1794.8 11807.9 1803.19 11828.4 1805.95 11849.4C1806.28 11851.9 1806.54 11854.5 1806.71 11857C1809.31 11895.9 1797.68 11935.6 1784.53 11971.7L1784.53 11971.7Z" fill="#8F8F2D"/>
<path d="M1679.83 11943.6C1657.73 11917 1620.12 11905.8 1587.47 11917.9C1569.63 11924.6 1553.96 11936.9 1543.92 11953.1C1532.34 11971.9 1529.24 11995 1534.25 12016.4C1534.47 12017.3 1534.88 12018.1 1535.39 12018.7C1543.72 12046.8 1566.23 12070.3 1595.31 12077.3C1628.97 12085.3 1666.48 12071.2 1685.23 12041.8C1704.4 12011.8 1702.69 11971.1 1679.82 11943.6L1679.83 11943.6ZM1681.46 12025C1669.8 12053.1 1640.22 12069.9 1610.21 12068.2C1576.41 12066.3 1547.46 12038 1543.65 12004.5C1543.62 12004.2 1543.57 12004 1543.52 12003.7C1540.8 11974.8 1555.4 11946.9 1581.53 11932.8C1607.91 11918.6 1640.31 11922.5 1662.86 11942.2C1686.49 11962.9 1693.44 11996.1 1681.47 12025L1681.46 12025Z" fill="#8F8F2D"/>
</g>
<g opacity="0.2">
<path d="M456.995 11113.7C459.829 11078.1 451.75 11039.8 425.476 11013.9C411.124 10999.8 387.533 10996 367.994 10996.7C352.389 10997.4 336.213 11003.3 321.945 11009.2C283.664 11025.1 246.947 11044.8 212.487 11067.8C179.968 11089.5 148.698 11114.7 127.418 11148C108.067 11178.3 97.9774 11216 105.33 11251.6C112.723 11287.4 138.567 11314.8 167.121 11335.8C197.778 11358.4 234.829 11380.5 274.073 11380.5C308.813 11380.5 338.933 11361.2 361.62 11336.2C387.769 11307.4 406.925 11272 422.563 11236.7C439.589 11198.1 453.65 11155.9 457.004 11113.7L456.995 11113.7ZM423.822 11203.6C410.498 11240.2 392.805 11276.1 370.089 11307.9C352.546 11332.4 329.565 11356.2 300.012 11365.4C263.624 11376.6 227.146 11361.1 196.407 11342.1C168.076 11324.5 139.419 11303 124.283 11272.5C109.069 11241.8 112.282 11205.6 125.664 11174.9C140.151 11141.6 166.856 11115.2 195.328 11093.6C225.556 11070.6 258.787 11051.2 292.885 11034.6C309.313 11026.5 326.145 11018.5 343.664 11013.1C355.944 11009.4 368.892 11006.6 381.791 11007.7C395.154 11008.8 410.472 11013.9 419.723 11024C434.092 11039.8 442.478 11060.3 445.239 11081.3C445.573 11083.8 445.828 11086.4 446.004 11088.9C448.605 11127.8 436.97 11167.5 423.817 11203.6L423.822 11203.6Z" fill="#8F8F2D"/>
<path d="M319.123 11175.5C297.016 11148.9 259.413 11137.7 226.764 11149.8C208.925 11156.5 193.254 11168.8 183.213 11185C171.631 11203.8 168.531 11226.9 173.537 11248.3C173.76 11249.2 174.17 11250 174.685 11250.6C183.008 11278.7 205.517 11302.2 234.599 11309.2C268.256 11317.2 305.775 11303.1 324.52 11273.7C343.693 11243.7 341.981 11203 319.115 11175.5L319.123 11175.5ZM320.751 11256.9C309.092 11285 279.509 11301.8 249.502 11300.1C215.699 11298.2 186.748 11269.9 182.94 11236.4C182.913 11236.1 182.862 11235.9 182.81 11235.6C180.09 11206.7 194.689 11178.8 220.817 11164.7C247.203 11150.5 279.602 11154.4 302.155 11174.1C325.782 11194.8 332.734 11228 320.756 11256.9L320.751 11256.9Z" fill="#8F8F2D"/>
</g>
</svg>
