<svg width="1920" height="2899" viewBox="0 0 1920 2899" fill="none" xmlns="http://www.w3.org/2000/svg">
<path d="M1108.28 2080.87C1101.09 2046.55 1082.9 2012.72 1051.01 1995.67C1033.6 1986.36 1010.33 1989.26 992.146 1995.39C977.626 2000.29 964.046 2010.33 952.236 2019.86C920.596 2045.39 891.476 2074.08 865.406 2105.27C840.806 2134.71 818.356 2167.14 807.526 2204.36C797.676 2238.19 798.596 2276.45 815.386 2307.98C832.246 2339.64 864.156 2358.29 896.846 2370.17C931.946 2382.93 972.936 2393.49 1009.89 2382.65C1042.59 2373.06 1065.6 2346.53 1080.05 2316.72C1096.7 2282.36 1104.95 2243.78 1109.88 2206.15C1115.25 2165.17 1116.81 2121.55 1108.29 2080.88L1108.28 2080.87ZM1101.93 2174.7C1099.51 2212.86 1092.78 2251.52 1080.18 2287.69C1070.45 2315.61 1055.4 2344.41 1030.12 2361.21C998.976 2381.89 960.346 2377.36 926.146 2367.93C894.626 2359.24 861.696 2346.9 838.996 2322.34C816.186 2297.66 809.206 2262.73 813.306 2230.1C817.746 2194.78 835.586 2162.56 856.396 2134.31C878.486 2104.32 904.406 2076.83 931.906 2051.77C945.166 2039.69 958.766 2027.43 973.786 2017.56C984.316 2010.64 995.736 2004.46 1008.18 2001.88C1021.06 1999.21 1036.9 1999.8 1048.41 2006.78C1066.29 2017.62 1079.86 2034.6 1088.26 2053.61C1089.28 2055.91 1090.22 2058.25 1091.09 2060.61C1104.29 2096.47 1104.31 2137.03 1101.92 2174.69L1101.93 2174.7Z" fill="#8F8F2D"/>
<path d="M995.596 2177.19C967.426 2158.24 928.926 2158.07 901.556 2178.56C886.596 2189.76 875.246 2205.65 870.306 2223.75C864.596 2244.63 868.066 2267.24 878.686 2285.96C879.166 2286.81 879.766 2287.43 880.416 2287.86C896.006 2311.98 923.716 2327.93 953.006 2326.39C986.896 2324.61 1018.34 2301 1027.86 2268.15C1037.6 2234.55 1024.75 2196.79 995.606 2177.19H995.596ZM1019.65 2253.37C1016.45 2283.06 993.236 2307.02 964.526 2313.73C932.176 2321.29 897.096 2302.62 884.236 2272.13C884.136 2271.9 884.026 2271.68 883.906 2271.47C873.356 2245.03 879.386 2214.71 900.076 2194.24C920.976 2173.56 952.556 2168.24 979.246 2180.6C1007.22 2193.55 1022.94 2222.85 1019.65 2253.37Z" fill="#8F8F2D"/>
<path d="M873.592 861.492C880.782 895.812 898.972 929.642 930.862 946.692C948.272 956.002 971.542 953.102 989.722 946.972C1004.24 942.072 1017.82 932.032 1029.63 922.502C1061.27 896.972 1090.39 868.282 1116.46 837.092C1141.06 807.652 1163.51 775.222 1174.34 738.002C1184.19 704.172 1183.27 665.912 1166.48 634.382C1149.62 602.722 1117.71 584.072 1085.02 572.192C1049.92 559.432 1008.93 548.872 971.982 559.712C939.282 569.302 916.272 595.832 901.822 625.642C885.172 660.002 876.922 698.582 871.992 736.212C866.622 777.192 865.062 820.812 873.582 861.482L873.592 861.492ZM879.942 767.662C882.362 729.502 889.092 690.842 901.692 654.672C911.422 626.752 926.472 597.952 951.752 581.152C982.892 560.472 1021.52 565.002 1055.72 574.432C1087.24 583.122 1120.17 595.462 1142.87 620.022C1165.68 644.702 1172.66 679.632 1168.56 712.262C1164.12 747.582 1146.28 779.802 1125.47 808.052C1103.38 838.042 1077.46 865.532 1049.96 890.592C1036.7 902.672 1023.1 914.932 1008.08 924.802C997.552 931.722 986.132 937.902 973.692 940.482C960.812 943.152 944.972 942.562 933.462 935.582C915.582 924.742 902.012 907.762 893.612 888.752C892.592 886.452 891.652 884.112 890.782 881.752C877.582 845.892 877.562 805.332 879.952 767.672L879.942 767.662Z" fill="#8F8F2D"/>
<path d="M986.272 765.172C1014.44 784.122 1052.94 784.292 1080.31 763.802C1095.27 752.602 1106.62 736.712 1111.56 718.612C1117.27 697.732 1113.8 675.122 1103.18 656.402C1102.7 655.552 1102.1 654.932 1101.45 654.502C1085.86 630.382 1058.15 614.432 1028.86 615.972C994.972 617.752 963.532 641.362 954.012 674.212C944.272 707.812 957.122 745.572 986.262 765.172L986.272 765.172ZM962.222 688.992C965.422 659.302 988.632 635.342 1017.34 628.632C1049.69 621.072 1084.77 639.742 1097.63 670.232C1097.73 670.462 1097.84 670.682 1097.96 670.892C1108.51 697.332 1102.48 727.652 1081.79 748.122C1060.89 768.802 1029.31 774.122 1002.62 761.762C974.652 748.812 958.932 719.512 962.222 688.992Z" fill="#8F8F2D"/>
<path d="M470.266 1913.14C505.316 1912.23 541.866 1900.42 564.376 1872.12C576.666 1856.67 577.996 1833.26 575.226 1814.26C573.016 1799.09 565.576 1783.94 558.326 1770.62C538.906 1734.91 515.916 1701.09 489.916 1669.84C465.386 1640.35 437.516 1612.44 402.846 1595.09C371.336 1579.32 333.536 1573.35 299.496 1584.2C265.326 1595.09 241.246 1623.13 223.676 1653.15C204.816 1685.38 187.056 1723.81 191.076 1762.1C194.636 1796 216.596 1823.4 243.326 1842.96C274.136 1865.51 310.596 1880.56 346.736 1892.18C386.086 1904.83 428.716 1914.21 470.256 1913.13L470.266 1913.14ZM379.106 1890.03C342.006 1880.79 305.176 1867.23 271.866 1848.33C246.146 1833.74 220.516 1813.76 208.546 1785.87C193.796 1751.52 205.206 1714.34 220.626 1682.38C234.836 1652.94 252.896 1622.76 281.136 1604.84C309.516 1586.84 345.136 1586.25 376.496 1596.15C410.446 1606.86 438.926 1630.2 462.976 1655.76C488.506 1682.88 510.886 1713.32 530.606 1744.88C540.106 1760.09 549.716 1775.68 556.726 1792.22C561.636 1803.82 565.666 1816.18 565.966 1828.87C566.286 1842.02 562.846 1857.48 553.916 1867.55C540.036 1883.19 520.896 1893.49 500.686 1898.34C498.236 1898.93 495.766 1899.44 493.286 1899.87C455.646 1906.41 415.736 1899.14 379.116 1890.02L379.106 1890.03Z" fill="#8F8F2D"/>
<path d="M395.766 1784.98C419.466 1760.67 426.556 1722.83 411.316 1692.22C402.986 1675.5 389.396 1661.47 372.486 1653.35C352.976 1643.98 330.106 1643.34 309.786 1650.41C308.866 1650.73 308.156 1651.21 307.606 1651.78C281.076 1662.78 260.406 1687.17 256.656 1716.26C252.316 1749.92 269.896 1785.09 300.496 1800.35C331.796 1815.97 371.256 1810.11 395.766 1784.97V1784.98ZM316.506 1794.94C287.876 1786.46 268.476 1759.31 267.036 1729.87C265.416 1696.69 290.086 1665.53 322.386 1658.36C322.636 1658.31 322.866 1658.23 323.096 1658.16C350.996 1652.53 379.746 1663.91 396.166 1687.95C412.746 1712.23 412.306 1744.24 395.356 1768.28C377.596 1793.46 345.936 1803.66 316.516 1794.95L316.506 1794.94Z" fill="#8F8F2D"/>
<path d="M1387.71 1138.83C1352.66 1139.74 1316.11 1151.55 1293.6 1179.85C1281.31 1195.3 1279.98 1218.71 1282.75 1237.71C1284.96 1252.88 1292.4 1268.04 1299.65 1281.36C1319.07 1317.07 1342.06 1350.88 1368.06 1382.13C1392.59 1411.62 1420.46 1439.53 1455.13 1456.88C1486.64 1472.65 1524.44 1478.62 1558.48 1467.77C1592.65 1456.88 1616.73 1428.84 1634.3 1398.82C1653.16 1366.59 1670.92 1328.16 1666.9 1289.87C1663.34 1255.97 1641.38 1228.57 1614.65 1209.01C1583.84 1186.46 1547.38 1171.41 1511.24 1159.79C1471.89 1147.14 1429.26 1137.76 1387.72 1138.84L1387.71 1138.83ZM1478.87 1161.94C1515.97 1171.18 1552.8 1184.74 1586.11 1203.64C1611.83 1218.23 1637.46 1238.21 1649.43 1266.1C1664.18 1300.45 1652.77 1337.63 1637.35 1369.59C1623.14 1399.03 1605.08 1429.21 1576.84 1447.13C1548.46 1465.13 1512.84 1465.72 1481.48 1455.82C1447.53 1445.11 1419.05 1421.77 1395 1396.21C1369.47 1369.09 1347.09 1338.65 1327.37 1307.09C1317.87 1291.88 1308.26 1276.29 1301.25 1259.75C1296.34 1248.15 1292.31 1235.8 1292.01 1223.11C1291.69 1209.96 1295.13 1194.49 1304.06 1184.42C1317.94 1168.78 1337.08 1158.48 1357.29 1153.63C1359.74 1153.04 1362.21 1152.53 1364.69 1152.1C1402.33 1145.56 1442.24 1152.83 1478.86 1161.95L1478.87 1161.94Z" fill="#8F8F2D"/>
<path d="M1462.21 1266.99C1438.51 1291.3 1431.42 1329.14 1446.66 1359.75C1454.99 1376.47 1468.58 1390.5 1485.49 1398.62C1505 1407.99 1527.87 1408.63 1548.19 1401.56C1549.11 1401.24 1549.82 1400.76 1550.37 1400.19C1576.9 1389.19 1597.57 1364.8 1601.32 1335.71C1605.66 1302.05 1588.08 1266.88 1557.48 1251.62C1526.18 1236 1486.72 1241.86 1462.21 1267L1462.21 1266.99ZM1541.47 1257.03C1570.1 1265.51 1589.5 1292.66 1590.94 1322.1C1592.56 1355.28 1567.89 1386.44 1535.59 1393.61C1535.34 1393.66 1535.11 1393.74 1534.88 1393.81C1506.98 1399.44 1478.23 1388.06 1461.81 1364.02C1445.23 1339.74 1445.67 1307.73 1462.62 1283.69C1480.38 1258.51 1512.04 1248.31 1541.46 1257.02L1541.47 1257.03Z" fill="#8F8F2D"/>
<path d="M1643.49 2243.2C1660.12 2274.07 1687.17 2301.34 1722.58 2308.65C1741.92 2312.64 1763.41 2303.25 1779.1 2292.21C1791.63 2283.39 1801.81 2269.9 1810.42 2257.43C1833.52 2223.97 1853.3 2188.2 1869.45 2150.89C1884.69 2115.68 1897.01 2078.21 1896.83 2039.45C1896.67 2004.21 1884.93 1967.79 1859.89 1942.32C1834.74 1916.75 1798.85 1907.92 1764.13 1905.8C1726.85 1903.52 1684.55 1905.03 1652.2 1925.91C1623.56 1944.39 1609.03 1976.36 1603.64 2009.04C1597.43 2046.71 1600.46 2086.04 1606.41 2123.53C1612.89 2164.35 1623.77 2206.62 1643.48 2243.2H1643.49ZM1622.96 2151.43C1614.45 2114.16 1609.93 2075.17 1611.75 2036.91C1613.16 2007.37 1619.41 1975.49 1638.89 1952.21C1662.88 1923.55 1701.21 1916.93 1736.68 1916.26C1769.37 1915.64 1804.45 1918.13 1833.18 1935.24C1862.06 1952.44 1878.66 1983.95 1883.99 2016.4C1889.76 2051.53 1881.79 2087.48 1869.85 2120.48C1857.17 2155.51 1840.13 2189.22 1820.87 2221.06C1811.59 2236.4 1802.02 2252.02 1790.42 2265.74C1782.29 2275.36 1773.09 2284.53 1761.9 2290.53C1750.31 2296.75 1734.95 2300.67 1721.93 2297.24C1701.71 2291.92 1683.88 2279.48 1670.43 2263.65C1668.8 2261.73 1667.23 2259.76 1665.72 2257.74C1642.89 2227.1 1631.36 2188.21 1622.96 2151.42V2151.43Z" fill="#8F8F2D"/>
<path d="M1724.21 2118.86C1756.6 2129.03 1793.57 2118.27 1814 2090.86C1825.16 2075.88 1831.54 2057.42 1831.15 2038.66C1830.7 2017.02 1820.95 1996.32 1805.46 1981.39C1804.76 1980.71 1804.01 1980.29 1803.26 1980.06C1781.46 1961.36 1750.37 1953.93 1722.72 1963.71C1690.72 1975.03 1667.29 2006.6 1667.48 2040.79C1667.68 2075.77 1690.71 2108.33 1724.22 2118.86H1724.21ZM1679.53 2052.63C1674.17 2023.25 1689.63 1993.69 1715.26 1979.11C1744.13 1962.68 1783.08 1970.63 1804.05 1996.21C1804.21 1996.41 1804.38 1996.58 1804.55 1996.75C1822.17 2019.11 1825 2049.89 1810.96 2075.4C1796.78 2101.16 1768.02 2115.22 1738.92 2110.95C1708.43 2106.47 1685.04 2082.83 1679.53 2052.64V2052.63Z" fill="#8F8F2D"/>
<path d="M380.514 551.75C363.884 520.88 336.834 493.61 301.424 486.3C282.084 482.31 260.594 491.7 244.904 502.74C232.374 511.56 222.194 525.05 213.584 537.52C190.484 570.98 170.704 606.75 154.554 644.06C139.314 679.27 126.994 716.74 127.174 755.5C127.334 790.74 139.074 827.16 164.114 852.63C189.264 878.2 225.154 887.03 259.874 889.15C297.154 891.43 339.454 889.92 371.804 869.04C400.444 850.56 414.974 818.59 420.364 785.91C426.574 748.24 423.544 708.91 417.594 671.42C411.114 630.6 400.234 588.33 380.524 551.75L380.514 551.75ZM401.044 643.52C409.554 680.79 414.074 719.78 412.254 758.04C410.844 787.58 404.594 819.46 385.114 842.74C361.124 871.4 322.794 878.02 287.324 878.69C254.634 879.31 219.554 876.82 190.824 859.71C161.944 842.51 145.344 811 140.014 778.55C134.244 743.42 142.214 707.47 154.154 674.47C166.834 639.44 183.874 605.73 203.134 573.89C212.414 558.55 221.984 542.93 233.584 529.21C241.714 519.59 250.914 510.42 262.104 504.42C273.694 498.2 289.054 494.28 302.074 497.71C322.294 503.03 340.124 515.47 353.574 531.3C355.204 533.22 356.774 535.19 358.284 537.21C381.114 567.85 392.644 606.74 401.044 643.53L401.044 643.52Z" fill="#8F8F2D"/>
<path d="M299.794 676.09C267.404 665.92 230.434 676.68 210.004 704.09C198.844 719.07 192.464 737.53 192.854 756.29C193.304 777.93 203.054 798.63 218.544 813.56C219.244 814.24 219.994 814.66 220.744 814.89C242.544 833.59 273.634 841.02 301.284 831.24C333.284 819.92 356.714 788.35 356.524 754.16C356.324 719.18 333.294 686.62 299.784 676.09L299.794 676.09ZM344.474 742.32C349.834 771.7 334.374 801.26 308.744 815.84C279.874 832.27 240.924 824.32 219.954 798.74C219.794 798.54 219.624 798.37 219.454 798.2C201.834 775.84 199.004 745.06 213.044 719.55C227.224 693.79 255.984 679.73 285.084 684C315.574 688.48 338.964 712.12 344.474 742.31L344.474 742.32Z" fill="#8F8F2D"/>
<path d="M129.116 2566.43C123.746 2601.08 128.846 2639.15 152.666 2666.35C165.676 2681.2 188.476 2686.69 207.656 2687.36C222.976 2687.9 239.226 2683.28 253.626 2678.53C292.236 2665.8 329.606 2649.22 364.996 2629.22C398.396 2610.35 430.836 2587.91 454.096 2556.9C475.236 2528.71 487.866 2492.59 483.276 2457.16C478.666 2421.59 455.376 2392.89 428.976 2370.24C400.626 2345.92 365.996 2321.59 327.596 2318.71C293.606 2316.16 262.726 2332.87 238.696 2355.68C211.006 2381.96 189.676 2415.15 171.796 2448.63C152.326 2485.09 135.476 2525.35 129.116 2566.42V2566.43ZM168.136 2480.87C183.856 2446.02 203.776 2412.21 228.326 2382.8C247.276 2360.1 271.516 2338.45 301.096 2331.65C337.526 2323.28 372.076 2341.14 400.756 2362.02C427.186 2381.26 453.656 2404.42 466.236 2435.41C478.886 2466.55 473.096 2501.7 457.756 2530.79C441.156 2562.28 413.096 2586.14 383.656 2605.23C352.406 2625.5 318.466 2642.09 283.896 2655.85C267.236 2662.48 250.176 2669.16 232.646 2673.09C220.356 2675.85 207.486 2677.61 194.936 2675.64C181.936 2673.6 167.326 2667.46 159.016 2656.87C146.106 2640.42 139.396 2619.74 138.236 2599C138.096 2596.48 138.036 2593.96 138.056 2591.45C138.346 2553.24 152.626 2515.27 168.146 2480.87H168.136Z" fill="#8F8F2D"/>
<path d="M268.516 2516.02C288.196 2543.68 324.166 2557.41 357.006 2547.89C374.946 2542.69 391.176 2531.81 402.186 2516.62C414.886 2499.09 419.606 2476.71 416.276 2455.45C416.126 2454.49 415.786 2453.7 415.326 2453.06C409.236 2424.99 388.936 2400.3 360.986 2391.41C328.646 2381.13 290.906 2392.14 270.416 2419.52C249.456 2447.53 248.166 2487.39 268.526 2516.01L268.516 2516.02ZM272.876 2436.25C286.336 2409.59 316.506 2395.35 345.736 2399.2C378.666 2403.53 404.926 2433.37 406.206 2466.43C406.206 2466.68 406.246 2466.92 406.276 2467.16C406.826 2495.62 390.496 2521.87 363.916 2533.73C337.066 2545.71 305.646 2539.56 285.026 2518.58C263.426 2496.6 259.046 2463.64 272.876 2436.24V2436.25Z" fill="#8F8F2D"/>
<path d="M1894.88 202.292C1900.25 167.642 1895.15 129.572 1871.33 102.372C1858.32 87.5225 1835.52 82.0325 1816.34 81.3625C1801.02 80.8224 1784.77 85.4424 1770.37 90.1924C1731.76 102.922 1694.39 119.502 1659 139.502C1625.6 158.372 1593.16 180.812 1569.9 211.822C1548.76 240.012 1536.13 276.132 1540.72 311.562C1545.33 347.132 1568.62 375.832 1595.02 398.482C1623.37 422.802 1658 447.132 1696.4 450.012C1730.39 452.562 1761.27 435.852 1785.3 413.042C1812.99 386.762 1834.32 353.572 1852.2 320.092C1871.67 283.632 1888.52 243.372 1894.88 202.302L1894.88 202.292ZM1855.86 287.852C1840.14 322.702 1820.22 356.512 1795.67 385.922C1776.72 408.622 1752.48 430.272 1722.9 437.072C1686.47 445.442 1651.92 427.582 1623.24 406.702C1596.81 387.462 1570.34 364.302 1557.76 333.312C1545.11 302.172 1550.9 267.022 1566.24 237.932C1582.84 206.442 1610.9 182.582 1640.34 163.492C1671.59 143.222 1705.53 126.632 1740.1 112.872C1756.76 106.242 1773.82 99.5625 1791.35 95.6325C1803.64 92.8725 1816.51 91.1124 1829.06 93.0824C1842.06 95.1224 1856.67 101.262 1864.98 111.852C1877.89 128.302 1884.6 148.982 1885.76 169.722C1885.9 172.242 1885.96 174.762 1885.94 177.272C1885.65 215.482 1871.37 253.452 1855.85 287.852L1855.86 287.852Z" fill="#8F8F2D"/>
<path d="M1755.48 252.702C1735.8 225.042 1699.83 211.312 1666.99 220.832C1649.05 226.032 1632.82 236.912 1621.81 252.102C1609.11 269.632 1604.39 292.012 1607.72 313.272C1607.87 314.232 1608.21 315.022 1608.67 315.662C1614.76 343.732 1635.06 368.422 1663.01 377.312C1695.35 387.592 1733.09 376.582 1753.58 349.202C1774.54 321.192 1775.83 281.332 1755.47 252.712L1755.48 252.702ZM1751.12 332.472C1737.66 359.132 1707.49 373.372 1678.26 369.522C1645.33 365.192 1619.07 335.352 1617.79 302.292C1617.79 302.042 1617.75 301.802 1617.72 301.562C1617.17 273.102 1633.5 246.852 1660.08 234.992C1686.93 223.012 1718.35 229.162 1738.97 250.142C1760.57 272.122 1764.95 305.082 1751.12 332.482L1751.12 332.472Z" fill="#8F8F2D"/>
</svg>
