<svg width="50" height="50" viewBox="0 0 50 50" fill="none" xmlns="http://www.w3.org/2000/svg">
<path d="M0.5 24C0.5 18.3289 0.501061 14.1261 0.934787 10.8995C1.36656 7.68733 2.21885 5.51738 3.86739 3.86762C3.86743 3.86758 3.86747 3.86755 3.86751 3.86751C3.86755 3.86747 3.86758 3.86743 3.86762 3.86739C5.51738 2.21885 7.68733 1.36656 10.8995 0.934787C14.1261 0.501061 18.3289 0.5 24 0.5H26C31.6711 0.5 35.8739 0.501061 39.1005 0.934787C42.3128 1.36658 44.4828 2.21893 46.1326 3.86762C47.7811 5.51617 48.6334 7.68603 49.0652 10.8986C49.4989 14.1256 49.5 18.3289 49.5 24V26C49.5 31.6711 49.4989 35.8739 49.0652 39.1005C48.6334 42.3128 47.7811 44.4828 46.1324 46.1326C44.4838 47.7811 42.314 48.6334 39.1014 49.0652C35.8744 49.4989 31.6711 49.5 26 49.5H24C18.3289 49.5 14.1261 49.4989 10.8995 49.0652C7.68733 48.6334 5.51738 47.7812 3.86762 46.1326C2.21893 44.4828 1.36658 42.3128 0.934787 39.1005C0.501061 35.8739 0.5 31.6711 0.5 26V24Z" stroke="#767620"/>
</svg>
