<svg width="1920" height="1080" viewBox="0 0 1920 1080" fill="none" xmlns="http://www.w3.org/2000/svg">
<path d="M736.48 138.09C723.87 229 727.42 324.42 689.96 408.21C653.77 489.15 582.78 550.59 546.6 631.53C450.65 846.17 620.33 1061.39 817.46 1132.13C996.52 1196.38 1235.27 1163.34 1354.4 1000.19C1435.66 888.9 1394.9 746.84 1352.78 628.6C1290.37 453.37 1223.28 283.8 1171.04 105.04C1138.97 -4.73003 1046.61 -113.63 920.69 -101C802.47 -89.14 750.77 35.05 736.48 138.09Z" stroke="#858523" stroke-width="4" stroke-miterlimit="10"/>
<path d="M-300.629 626.319C-253.202 704.896 -190.38 776.805 -166.744 865.492C-143.915 951.165 -160.402 1043.59 -137.565 1129.26C-77.011 1356.44 190.309 1416.86 388.013 1347.74C567.59 1284.95 732.307 1108.99 722.176 907.23C715.263 769.604 594.169 684.877 487.012 619.515C328.216 522.642 169.346 433.113 16.2305 327.096C-77.7856 261.989 -218.101 235.509 -307.994 324.585C-392.388 408.217 -354.386 537.259 -300.629 626.319Z" stroke="#858523" stroke-width="4" stroke-miterlimit="10"/>
<path d="M1394.46 -334.753C1337.46 -262.819 1292.09 -178.798 1217.29 -125.611C1145.03 -74.2342 1052.68 -57.3208 980.429 -5.93931C788.825 130.313 825.809 401.87 959.767 562.865C1081.45 709.098 1303.94 801.792 1489.38 721.671C1615.88 667.015 1652.85 523.923 1676.57 400.665C1711.72 218.005 1739.96 37.8459 1785.67 -142.695C1813.75 -253.555 1789.43 -394.261 1674.52 -447.281C1566.63 -497.058 1459.06 -416.286 1394.46 -334.753Z" stroke="#858523" stroke-width="4" stroke-miterlimit="10"/>
</svg>
