<svg width="50" height="50" viewBox="0 0 50 50" fill="none" xmlns="http://www.w3.org/2000/svg">
<g clip-path="url(#clip0_1501_1813)">
<path d="M0 24C0 12.686 0 7.03023 3.51395 3.51395C7.03023 0 12.686 0 24 0H26C37.314 0 42.9698 0 46.486 3.51395C50 7.02791 50 12.686 50 24V26C50 37.314 50 42.9698 46.486 46.486C42.9721 50 37.314 50 26 50H24C12.686 50 7.03023 50 3.51395 46.486C0 42.9698 0 37.314 0 26V24Z" fill="#8F8F2D"/>
<path fill-rule="evenodd" clip-rule="evenodd" d="M17.4019 32.5308C17.0386 32.1675 17.0386 31.5785 17.4019 31.2152L31.2152 17.402C31.5784 17.0387 32.1674 17.0387 32.5307 17.402V17.402C32.894 17.7653 32.894 18.3542 32.5307 18.7175L18.7175 32.5308C18.3542 32.8941 17.7652 32.8941 17.4019 32.5308V32.5308Z" fill="white"/>
<path fill-rule="evenodd" clip-rule="evenodd" d="M17.402 17.402C17.7653 17.0387 18.3543 17.0387 18.7176 17.402L32.5308 31.2152C32.8941 31.5785 32.8941 32.1675 32.5308 32.5308V32.5308C32.1675 32.894 31.5786 32.894 31.2153 32.5308L17.402 18.7175C17.0387 18.3542 17.0387 17.7652 17.402 17.402V17.402Z" fill="white"/>
</g>
<defs>
<clipPath id="clip0_1501_1813">
<rect width="50" height="50" fill="white"/>
</clipPath>
</defs>
</svg>
