<svg width="50" height="50" viewBox="0 0 50 50" fill="none" xmlns="http://www.w3.org/2000/svg">
<path d="M0 24C0 12.686 0 7.03023 3.51395 3.51395C7.03023 0 12.686 0 24 0H26C37.314 0 42.9698 0 46.486 3.51395C50 7.02791 50 12.686 50 24V26C50 37.314 50 42.9698 46.486 46.486C42.9721 50 37.314 50 26 50H24C12.686 50 7.03023 50 3.51395 46.486C0 42.9698 0 37.314 0 26V24Z" fill="#8F8F2D"/>
<path d="M34.5489 28.0884C33.8373 28.0884 33.2582 27.5116 33.2582 26.7977C33.2582 26.0837 33.835 25.507 34.5489 25.507C35.2629 25.507 35.8396 26.0837 35.8396 26.7977C35.8396 27.5116 35.2629 28.0884 34.5489 28.0884ZM28.0978 28.0884C27.3861 28.0884 26.8071 27.5116 26.8071 26.7977C26.8071 26.0837 27.3838 25.507 28.0978 25.507C28.8117 25.507 29.3885 26.0837 29.3885 26.7977C29.3885 27.5116 28.8117 28.0884 28.0978 28.0884ZM37.6582 35.4744C39.6978 33.9954 41.0024 31.8093 41.0024 29.3791C41.0024 24.9256 36.6699 21.314 31.3257 21.314C25.9815 21.314 21.6489 24.9233 21.6489 29.3791C21.6489 33.8349 25.9815 37.4442 31.3257 37.4442C32.4303 37.4442 33.4954 37.2861 34.4838 37.0023C34.5745 36.9744 34.6699 36.9605 34.7675 36.9605C34.9536 36.9605 35.1233 37.0163 35.2815 37.1093L37.4001 38.3326C37.4582 38.3675 37.5164 38.393 37.5861 38.393C37.7652 38.393 37.9094 38.2488 37.9094 38.0698C37.9094 37.9907 37.8768 37.9093 37.8582 37.8349C37.8466 37.7884 37.5861 36.8163 37.4233 36.2093C37.4047 36.1419 37.3885 36.0744 37.3885 36.0047C37.3885 35.7884 37.4954 35.5954 37.6582 35.4791" fill="white"/>
<path d="M24.3535 20.5395C23.4977 20.5395 22.8046 19.8465 22.8046 18.9907C22.8046 18.1349 23.4977 17.4419 24.3535 17.4419C25.2093 17.4419 25.9023 18.1349 25.9023 18.9907C25.9023 19.8465 25.2093 20.5395 24.3535 20.5395ZM16.6116 20.5395C15.7558 20.5395 15.0628 19.8465 15.0628 18.9907C15.0628 18.1349 15.7558 17.4419 16.6116 17.4419C17.4674 17.4419 18.1604 18.1349 18.1604 18.9907C18.1604 19.8465 17.4674 20.5395 16.6116 20.5395ZM20.4837 12.4116C14.0697 12.4116 8.87207 16.7442 8.87207 22.0884C8.87207 25.0047 10.4372 27.6279 12.8837 29.4023C13.0814 29.5419 13.2093 29.7721 13.2093 30.0326C13.2093 30.1186 13.1907 30.1977 13.1674 30.2791C12.9721 31.0093 12.6581 32.1767 12.6442 32.2302C12.6209 32.3209 12.5814 32.4163 12.5814 32.514C12.5814 32.7279 12.7535 32.9 12.9674 32.9C13.0511 32.9 13.1209 32.8698 13.1907 32.8279L15.7325 31.3605C15.9232 31.2488 16.1256 31.1814 16.3488 31.1814C16.4674 31.1814 16.5814 31.2 16.6907 31.2326C17.8767 31.5744 19.1558 31.7628 20.4814 31.7628C20.6953 31.7628 20.907 31.7581 21.1186 31.7465C20.8674 30.9907 20.7279 30.1977 20.7279 29.3744C20.7279 24.5 25.4697 20.5488 31.3186 20.5488C31.5302 20.5488 31.7395 20.5558 31.9488 20.5651C31.0744 15.9419 26.2721 12.407 20.479 12.407" fill="white"/>
</svg>
