<svg preserveAspectRatio="none" viewBox="0 0 1092 573" fill="none" xmlns="http://www.w3.org/2000/svg">
<path d="M548.328 269.09L547.338 268.948L547.055 270.928L548.045 271.07L548.328 269.09ZM580.32 294.332L579.32 294.334L579.32 294.334L580.32 294.332ZM567.972 329.414L566.972 329.432L566.972 329.433L567.972 329.414ZM615.992 363.102L616.992 363.135L616.992 363.135L615.992 363.102ZM568.141 433.092L569.098 433.382L569.098 433.382L568.141 433.092ZM567.777 463.637L568.366 464.445L568.366 464.445L567.777 463.637ZM539.217 445.833L538.466 446.494L538.466 446.494L539.217 445.833ZM7.44127 412.203L6.59573 411.669L6.59571 411.669L7.44127 412.203ZM1092 326.58V325.58H1090V326.58H1092ZM1077.38 405.982L1078.31 406.357L1078.32 406.348L1078.32 406.339L1077.38 405.982ZM938.543 499.18L938.627 500.176L938.63 500.176L938.543 499.18ZM850.993 487.447L850.658 488.389L850.663 488.391L850.993 487.447ZM766.98 436.089L766.294 436.816L766.296 436.818L766.98 436.089ZM706.845 306.808L705.845 306.785L705.845 306.798L706.845 306.808ZM707.95 291.312L708.939 291.464L708.941 291.451L708.942 291.438L707.95 291.312ZM719.226 249.915L718.307 249.521L718.306 249.524L719.226 249.915ZM793.784 154.224L794.489 154.933L794.489 154.933L793.784 154.224ZM794.616 153.397L793.912 152.687L793.911 152.688L794.616 153.397ZM853.646 86.7647L852.814 86.2105L852.814 86.2105L853.646 86.7647ZM862.71 72.8183L863.543 73.3725L863.55 73.3621L863.556 73.3515L862.71 72.8183ZM928.373 5.96415L928.013 5.03126L928.007 5.03356L928.373 5.96415ZM1024.1 39.6126L1023.24 40.1122L1023.24 40.1146L1024.1 39.6126ZM1032.28 134.802L1031.29 134.702L1031.29 134.712L1031.29 134.723L1032.28 134.802ZM1030.74 150.52L1029.74 150.429L1029.74 150.437L1029.74 150.444L1030.74 150.52ZM1036.26 230.213L1037.25 230.073L1037.25 230.071L1036.26 230.213ZM1036.04 344.441L1035.08 344.169L1035.08 344.169L1036.04 344.441ZM919.751 449.15L919.775 450.149L919.776 450.149L919.751 449.15ZM839.939 423.249L839.356 424.062L839.36 424.065L839.939 423.249ZM791.521 361.708L792.415 361.261L792.254 360.937L791.922 360.792L791.521 361.708ZM706.845 306.586L707.539 305.866L707.522 305.85L707.504 305.834L706.845 306.586ZM592.765 180.848L593.555 180.234L593.488 180.148L593.404 180.078L592.765 180.848ZM584.363 105.36L584.032 104.416L584.363 105.36ZM624.159 151.848L623.582 151.031L623.573 151.038L623.563 151.045L624.159 151.848ZM548.211 268.52L548.22 269.52L550.22 269.501L550.211 268.501L548.211 268.52ZM548.045 271.07C558.383 272.549 566.223 275.324 571.46 279.247C576.654 283.139 579.308 288.17 579.32 294.334L581.32 294.33C581.307 287.488 578.315 281.885 572.659 277.647C567.045 273.441 558.831 270.592 548.328 269.09L548.045 271.07ZM579.32 294.334C579.332 300.695 576.337 306.148 573.199 311.741C570.112 317.243 566.854 322.924 566.972 329.432L568.972 329.396C568.865 323.528 571.793 318.332 574.943 312.719C578.042 307.196 581.333 301.296 581.32 294.33L579.32 294.334ZM566.972 329.433C567.092 335.836 570.467 339.869 575.267 342.599C579.996 345.288 586.201 346.772 592.188 348.146C598.259 349.539 604.092 350.818 608.387 353.044C610.516 354.148 612.199 355.453 613.331 357.059C614.451 358.649 615.074 360.594 614.993 363.07L616.992 363.135C617.086 360.256 616.354 357.877 614.966 355.907C613.59 353.954 611.613 352.463 609.308 351.268C604.734 348.898 598.602 347.566 592.636 346.197C586.586 344.808 580.683 343.378 576.256 340.861C571.902 338.385 569.075 334.92 568.972 329.395L566.972 329.433ZM614.993 363.07C614.848 367.483 612.464 372.263 608.641 377.481C604.831 382.682 599.71 388.165 594.285 393.995C583.505 405.578 571.507 418.523 567.184 432.802L569.098 433.382C573.261 419.634 584.88 407.036 595.749 395.357C601.148 389.556 606.36 383.979 610.255 378.663C614.136 373.365 616.827 368.174 616.992 363.135L614.993 363.07ZM567.184 432.802C564.667 441.112 565.587 448.225 566.608 453.545C567.128 456.253 567.641 458.358 567.8 460.03C567.962 461.731 567.693 462.461 567.188 462.829L568.366 464.445C569.817 463.388 569.959 461.608 569.791 459.84C569.621 458.043 569.062 455.72 568.573 453.168C567.574 447.969 566.72 441.234 569.098 433.382L567.184 432.802ZM567.189 462.829C566.522 463.314 565.3 463.467 563.381 462.952C561.51 462.449 559.21 461.369 556.643 459.772C551.517 456.584 545.493 451.441 539.967 445.172L538.466 446.494C544.097 452.881 550.265 458.161 555.587 461.471C558.243 463.123 560.73 464.31 562.862 464.883C564.947 465.443 566.944 465.48 568.366 464.445L567.189 462.829ZM539.967 445.172C526.712 430.134 521.537 412.231 519.49 394.092C518.467 385.021 518.228 375.909 518.147 367.079C518.067 358.267 518.144 349.704 517.745 341.814L515.748 341.915C516.144 349.75 516.066 358.232 516.147 367.097C516.228 375.943 516.468 385.139 517.503 394.316C519.574 412.675 524.839 431.032 538.466 446.494L539.967 445.172ZM517.745 341.814C517.222 331.465 515.877 322.112 512.196 314.657L510.403 315.543C513.895 322.614 515.228 331.624 515.748 341.915L517.745 341.814ZM510.403 315.543C515.417 325.696 517.034 334.347 515.761 341.694L517.732 342.035C519.1 334.134 517.325 325.043 512.196 314.657L510.403 315.543ZM515.761 341.694C513.139 356.831 504.584 367.398 491.371 374.576C478.11 381.78 460.156 385.566 438.83 387.019C396.177 389.927 340.474 383.487 282.906 376.951C225.396 370.421 166.05 363.801 116.286 366.418C66.5868 369.031 26.0418 380.873 6.59573 411.669L8.2868 412.737C27.1631 382.844 66.7616 371.025 116.391 368.415C165.957 365.809 225.126 372.404 282.68 378.938C340.177 385.466 396.089 391.937 438.966 389.015C460.405 387.553 478.694 383.739 492.326 376.333C506.005 368.902 514.992 357.85 517.732 342.035L515.761 341.694ZM6.59571 411.669C1.74874 419.346 0.126989 425.894 1.22804 431.688C2.32793 437.475 6.10373 442.289 11.5711 446.589C17.0357 450.886 24.2912 454.748 32.5343 458.61C40.7603 462.464 50.1178 466.382 59.6871 470.714C98.1403 488.121 141.269 512.752 143 572.109L144.999 572.05C143.231 511.407 99.0021 486.315 60.5119 468.892C50.8454 464.516 41.6179 460.657 33.3828 456.799C25.1648 452.949 18.0831 449.165 12.8074 445.017C7.53434 440.87 4.16664 436.438 3.19288 431.314C2.22029 426.197 3.59474 420.168 8.28682 412.737L6.59571 411.669ZM1090 326.58C1090 344.392 1088.99 372.808 1076.45 405.625L1078.32 406.339C1090.98 373.188 1092 344.49 1092 326.58H1090ZM1076.46 405.607C1065.52 432.67 1041.78 454.884 1015.32 470.817C988.871 486.748 959.833 496.317 938.456 498.183L938.63 500.176C960.365 498.278 989.693 488.588 1016.36 472.531C1043.01 456.476 1067.15 433.973 1078.31 406.357L1076.46 405.607ZM938.459 498.183C909.648 500.605 879.721 496.422 851.323 486.503L850.663 488.391C879.305 498.395 909.513 502.624 938.627 500.176L938.459 498.183ZM851.328 486.505C820.948 475.703 792.104 458.288 767.664 435.359L766.296 436.818C790.937 459.935 820.019 477.496 850.658 488.389L851.328 486.505ZM767.667 435.362C728.923 398.772 707.406 352.096 707.845 306.817L705.845 306.798C705.4 352.725 727.216 399.911 766.294 436.816L767.667 435.362ZM707.845 306.831C707.846 306.759 707.848 306.687 707.85 306.615L705.85 306.568C705.849 306.639 705.847 306.712 705.845 306.785L707.845 306.831ZM707.85 306.615C707.964 301.836 708.237 298.04 708.482 295.442C708.604 294.143 708.719 293.144 708.803 292.472C708.845 292.136 708.879 291.882 708.903 291.713C708.915 291.628 708.924 291.565 708.93 291.523C708.933 291.502 708.935 291.487 708.937 291.477C708.938 291.472 708.938 291.468 708.938 291.466C708.939 291.465 708.939 291.464 708.939 291.464C708.939 291.464 708.939 291.464 708.939 291.464C708.939 291.464 708.939 291.464 708.939 291.464C708.939 291.464 708.939 291.464 707.95 291.312C706.962 291.16 706.962 291.16 706.962 291.16C706.962 291.16 706.962 291.16 706.962 291.161C706.962 291.161 706.962 291.161 706.962 291.162C706.962 291.163 706.961 291.164 706.961 291.166C706.961 291.169 706.96 291.174 706.959 291.18C706.957 291.192 706.955 291.21 706.951 291.233C706.944 291.279 706.935 291.347 706.922 291.436C706.897 291.614 706.862 291.878 706.818 292.224C706.732 292.915 706.615 293.935 706.491 295.254C706.242 297.894 705.965 301.738 705.85 306.567L707.85 306.615ZM708.942 291.438C710.699 277.584 714.433 263.727 720.146 250.307L718.306 249.524C712.522 263.111 708.739 277.147 706.958 291.186L708.942 291.438ZM720.145 250.31C736.259 212.807 765.758 183.48 794.489 154.933L793.079 153.514C764.401 182.009 734.6 211.601 718.307 249.521L720.145 250.31ZM794.489 154.933L795.321 154.107L793.911 152.688L793.079 153.514L794.489 154.933ZM795.32 154.108C816.306 133.316 838.051 111.992 854.478 87.3189L852.814 86.2105C836.52 110.682 814.932 131.861 793.912 152.687L795.32 154.108ZM854.478 87.3189C856.031 84.9864 857.528 82.6551 859.02 80.3318C860.513 78.0063 862.001 75.6888 863.543 73.3725L861.878 72.2641C860.325 74.5966 858.828 76.928 857.337 79.2512C855.844 81.5768 854.356 83.8942 852.814 86.2105L854.478 87.3189ZM863.556 73.3515C880.611 46.295 898.14 18.9313 928.739 6.89474L928.007 5.03356C896.702 17.3479 878.857 45.327 861.864 72.2851L863.556 73.3515ZM928.733 6.89703C962.103 -5.98783 1005.36 9.10786 1023.24 40.1122L1024.97 39.113C1006.59 7.24787 962.295 -8.20569 928.013 5.03128L928.733 6.89703ZM1023.24 40.1146C1030.63 52.8579 1033.44 68.7709 1033.99 85.4142C1034.54 102.05 1032.84 119.307 1031.29 134.702L1033.28 134.902C1034.82 119.527 1036.55 102.139 1035.99 85.3481C1035.44 68.5642 1032.6 52.2677 1024.97 39.1106L1023.24 40.1146ZM1031.29 134.723C1030.84 140.275 1030.19 145.489 1029.74 150.429L1031.73 150.61C1032.17 145.81 1032.84 140.399 1033.28 134.882L1031.29 134.723ZM1029.74 150.444C1027.74 176.914 1031.52 204.249 1035.27 230.356L1037.25 230.071C1033.49 203.934 1029.75 176.812 1031.73 150.595L1029.74 150.444ZM1035.27 230.354C1040.58 267.795 1045.85 306.106 1035.08 344.169L1037 344.713C1047.9 306.181 1042.55 267.455 1037.25 230.073L1035.27 230.354ZM1035.08 344.169C1020.77 394.873 979.459 446.616 919.725 448.15L919.776 450.149C980.755 448.584 1022.57 395.84 1037 344.713L1035.08 344.169ZM919.726 448.15C892.773 448.808 864.682 439.591 840.518 422.434L839.36 424.065C863.834 441.441 892.341 450.819 919.775 450.149L919.726 448.15ZM840.521 422.436C818.161 406.413 804.985 386.433 792.415 361.261L790.626 362.155C803.26 387.455 816.615 407.765 839.356 424.062L840.521 422.436ZM791.922 360.792C767.238 349.979 731.975 329.23 707.541 305.868L706.159 307.314C730.806 330.879 766.284 351.744 791.12 362.624L791.922 360.792ZM707.544 305.871C707.539 305.867 707.535 305.863 707.535 305.862C707.533 305.861 707.536 305.863 707.539 305.866L706.151 307.307C706.156 307.311 706.16 307.315 706.16 307.315C706.162 307.317 706.159 307.314 706.156 307.311L707.544 305.871ZM707.504 305.834C670.498 273.412 623.773 219.148 593.714 180.44L592.134 181.666C622.222 220.411 669.038 274.792 706.186 307.339L707.504 305.834ZM593.714 180.439C593.661 180.371 593.608 180.303 593.555 180.234L591.975 181.461C592.028 181.529 592.081 181.598 592.134 181.666L593.714 180.439ZM592.765 180.848C593.404 180.078 593.404 180.078 593.404 180.078C593.403 180.078 593.403 180.077 593.402 180.077C593.4 180.075 593.397 180.073 593.394 180.07C593.386 180.064 593.375 180.054 593.36 180.042C593.329 180.016 593.284 179.977 593.223 179.926C593.102 179.823 592.922 179.67 592.689 179.468C592.223 179.064 591.545 178.467 590.701 177.7C589.013 176.164 586.664 173.946 584.025 171.221C578.739 165.763 572.322 158.304 567.71 150.244C563.083 142.157 560.374 133.639 562.212 125.98C564.031 118.4 570.396 111.331 584.695 106.303L584.032 104.416C569.369 109.572 562.303 117.031 560.267 125.513C558.25 133.918 561.261 142.999 565.974 151.238C570.704 159.504 577.248 167.099 582.588 172.612C585.262 175.373 587.642 177.621 589.355 179.179C590.212 179.958 590.902 180.566 591.379 180.979C591.618 181.186 591.803 181.344 591.929 181.451C591.993 181.505 592.041 181.546 592.074 181.573C592.09 181.587 592.103 181.598 592.112 181.605C592.116 181.609 592.119 181.611 592.122 181.613C592.123 181.614 592.124 181.615 592.124 181.616C592.125 181.616 592.126 181.617 592.765 180.848ZM584.695 106.303C599.093 101.241 612.89 98.6779 624.432 98.4006C636.019 98.1222 645.165 100.151 650.422 104.085C653.022 106.032 654.648 108.425 655.2 111.24C655.756 114.069 655.251 117.448 653.353 121.394C649.541 129.32 640.234 139.271 623.582 151.031L624.736 152.665C641.468 140.849 651.118 130.655 655.155 122.261C657.182 118.048 657.824 114.223 657.163 110.855C656.499 107.473 654.546 104.674 651.62 102.484C645.822 98.1446 636.121 96.1192 624.384 96.4012C612.601 96.6843 598.596 99.2957 584.032 104.416L584.695 106.303ZM623.563 151.045C611.897 159.695 601.383 169.772 592.169 180.398L593.68 181.708C602.813 171.176 613.222 161.203 624.755 152.651L623.563 151.045ZM592.169 180.398C578.161 196.552 567.142 213.994 559.642 229.667C552.159 245.305 548.126 259.294 548.211 268.52L550.211 268.501C550.13 259.736 554.005 246.08 561.446 230.53C568.871 215.014 579.792 197.723 593.68 181.708L592.169 180.398Z" fill="#161616"/>
</svg>
