<svg width="1921" height="627" viewBox="0 0 1921 627" fill="none" xmlns="http://www.w3.org/2000/svg">
<path d="M-215.695 2.08907C-26.2801 -8.2502 113.2 97.1772 271.489 181.262C494.979 299.991 751.934 346.774 1003.34 321.832C1148.33 307.451 1276.69 257.222 1411.99 206.508C1639.73 121.15 1876.07 -1.17742 2125.92 21.0514" stroke="#2D2D0B" stroke-miterlimit="10" stroke-dasharray="8 8"/>
<path d="M-257.865 626.211C-84.9889 506.417 91.0984 390.429 277.607 292.753C465.514 194.343 659.801 124.251 873.658 180.059C1005.5 214.468 1123.06 285.583 1243.88 346.082C1368.9 408.685 1501.69 459.593 1638.61 488.894C1913.39 547.677 2206.68 532.189 2479.9 472.216" stroke="#2D2D0B" stroke-miterlimit="10" stroke-dasharray="8 8"/>
<path d="M2264.36 286.649C2173.1 253.112 2069.1 256.517 1973.24 254.496C1551.61 245.596 1097.88 283.271 700.118 430.402C563.461 480.963 420.313 525.49 272.916 520.05C58.27 512.133 -136.861 400.159 -322 291.23" stroke="#2D2D0B" stroke-miterlimit="10" stroke-dasharray="8 8"/>
</svg>
