<svg width="118" height="100" viewBox="0 0 118 100" fill="none" xmlns="http://www.w3.org/2000/svg">
<g clip-path="url(#clip0_82_5285)">
<path d="M13.7318 87.0668C12.1276 85.2897 10.1776 84.3867 7.94418 84.3867C5.71079 84.3867 3.80879 85.1504 2.29104 86.6585C0.773293 88.1667 0 89.9774 0 92.0427C0 94.108 0.773307 95.9379 2.30546 97.4893C3.83282 99.0407 5.65792 99.8284 7.72321 99.8284H8.01143C10.2064 99.8284 12.0988 98.9686 13.6405 97.278L13.6886 97.2251V94.9389L13.3572 95.4288C12.7136 96.3798 11.8922 97.1531 10.9076 97.7198C9.92779 98.2866 8.8039 98.5748 7.56473 98.5748C6.32555 98.5748 5.12961 98.0705 3.8424 97.0762L13.8518 87.1965L13.7366 87.0668H13.7318ZM2.90584 96.1589C1.89721 94.9533 1.38327 93.5364 1.38327 91.9514C1.38327 90.3665 2.02686 88.8247 3.29485 87.5567C4.56285 86.2887 6.03736 85.6451 7.67038 85.6451C9.3034 85.6451 10.6771 86.1686 11.9258 87.2013L2.90584 96.1589Z" fill="#161616"/>
<path d="M29.7786 87.7107C29.1926 86.7886 28.3809 86.0249 27.3483 85.4341C26.0995 84.7185 24.7883 84.3582 23.4387 84.3582C21.2917 84.3582 19.4377 85.1219 17.9296 86.6301C16.4214 88.1382 15.6578 89.973 15.6578 92.0767C15.6578 94.1804 16.4214 96.0151 17.9296 97.5233C19.4377 99.0314 21.2917 99.7951 23.4387 99.7951C24.7403 99.7951 26.0275 99.4397 27.2667 98.7336C28.3041 98.1429 29.1494 97.3696 29.7786 96.4282V99.4445H31.1619V75.1221H29.7786V87.7107ZM27.9295 96.6299C26.6615 97.8979 25.1341 98.5415 23.3906 98.5415C21.6471 98.5415 20.139 97.8979 18.9046 96.6299C17.6654 95.3619 17.041 93.8346 17.041 92.0911C17.041 90.3476 17.6751 88.8154 18.9238 87.5378C20.1726 86.2602 21.6807 85.6118 23.4098 85.6118C25.1389 85.6118 26.6615 86.265 27.9295 87.557C29.1975 88.8491 29.8411 90.3812 29.8411 92.1103C29.8411 93.8394 29.1975 95.3619 27.9295 96.6299Z" fill="#161616"/>
<path d="M46.2001 93.2583C46.2001 94.6703 45.6526 95.9191 44.5767 96.9614C43.496 98.0084 42.2328 98.5416 40.8207 98.5416C39.4086 98.5416 38.1886 98.0132 37.1992 96.9662C36.205 95.9191 35.7007 94.6703 35.7007 93.2583V84.7089H34.3174V93.2583C34.3174 95.069 34.9466 96.6252 36.1906 97.8883C37.4346 99.1515 38.9908 99.7951 40.8255 99.7951C43.251 99.7951 45.0569 98.873 46.2049 97.043V99.4397H47.5881V84.7041H46.2049V93.2534L46.2001 93.2583Z" fill="#161616"/>
<path d="M57.8473 84.416C55.6331 84.416 53.7456 85.1797 52.223 86.6878C50.7053 88.196 49.932 90.0115 49.932 92.0864C49.932 94.1613 50.6909 95.9912 52.1894 97.533C53.688 99.0748 55.5035 99.8577 57.5928 99.8577H57.881C60.1192 99.8577 62.0212 99.0123 63.5437 97.3361L63.5918 97.2833V94.9538L63.2603 95.4533C62.6215 96.4235 61.7954 97.2016 60.8156 97.7588C59.8358 98.3159 58.7983 98.5993 57.7273 98.5993C56.0174 98.5993 54.5045 97.9557 53.2365 96.6877C51.9685 95.4197 51.3249 93.8875 51.3249 92.1344C51.3249 90.3813 51.9685 88.8492 53.2365 87.5812C54.5045 86.3132 56.0174 85.6696 57.7273 85.6696C58.7983 85.6696 59.8358 85.953 60.8156 86.5101C61.8002 87.0673 62.6215 87.8357 63.2651 88.7867L63.5966 89.2767V86.9856L63.5485 86.9328C61.9876 85.2613 60.0711 84.416 57.8569 84.416H57.8473Z" fill="#161616"/>
<path d="M79.2688 87.7252C78.7404 86.8175 77.9576 86.0586 76.9345 85.463C75.6665 84.7281 74.3168 84.3535 72.9288 84.3535C70.801 84.3535 68.9519 85.1172 67.4342 86.6253C65.9164 88.1335 65.1431 89.9682 65.1431 92.0719C65.1431 94.1757 65.9116 96.0104 67.4342 97.5185C68.9519 99.0267 70.801 99.7904 72.9288 99.7904C74.3168 99.7904 75.6377 99.4253 76.8528 98.7097C77.8615 98.1141 78.6684 97.3312 79.264 96.3754V99.4397H80.6472V84.7041H79.264V87.7252H79.2688ZM77.4676 96.63C76.2285 97.898 74.7203 98.5416 72.9816 98.5416C71.2429 98.5416 69.7108 97.898 68.4428 96.63C67.1748 95.362 66.5312 93.8394 66.5312 92.1104C66.5312 90.3813 67.1748 88.8443 68.4428 87.5571C69.7108 86.2699 71.2333 85.6119 72.9624 85.6119C74.6915 85.6119 76.2044 86.2603 77.4484 87.5379C78.6972 88.8203 79.3312 90.3525 79.3312 92.0912C79.3312 93.8298 78.702 95.362 77.4676 96.63Z" fill="#161616"/>
<path d="M97.4481 87.7107C96.8621 86.7886 96.0504 86.0249 95.0178 85.4341C93.769 84.7185 92.4578 84.3582 91.1081 84.3582C88.9612 84.3582 87.1072 85.1219 85.5991 86.6301C84.0909 88.1382 83.3273 89.973 83.3273 92.0767C83.3273 94.1804 84.0909 96.0151 85.5991 97.5233C87.1072 99.0314 88.9612 99.7951 91.1081 99.7951C92.4097 99.7951 93.697 99.4397 94.9361 98.7336C95.9736 98.1429 96.8189 97.3696 97.4481 96.4282V99.4445H98.8314V75.1221H97.4481V87.7107ZM95.599 96.6299C94.331 97.8979 92.8036 98.5415 91.0601 98.5415C89.3166 98.5415 87.8085 97.8979 86.5741 96.6299C85.3349 95.3619 84.7105 93.8346 84.7105 92.0911C84.7105 90.3476 85.3446 88.8154 86.5933 87.5378C87.8421 86.2602 89.3502 85.6118 91.0793 85.6118C92.8084 85.6118 94.331 86.265 95.599 87.557C96.867 88.8491 97.5105 90.3812 97.5105 92.1103C97.5105 93.8394 96.867 95.3619 95.599 96.6299Z" fill="#161616"/>
<path d="M114.797 86.6253C113.288 85.1172 111.439 84.3535 109.302 84.3535C107.165 84.3535 105.311 85.1172 103.793 86.6253C102.275 88.1335 101.502 89.9442 101.502 92.0095C101.502 94.0748 102.261 95.9047 103.754 97.4561C105.253 99.0075 107.069 99.7952 109.158 99.7952H109.446C111.555 99.7952 113.37 99.0123 114.849 97.4705C116.324 95.9287 117.073 94.0988 117.073 92.0287C117.073 89.9586 116.31 88.1383 114.801 86.6301L114.797 86.6253ZM113.822 96.6252C112.582 97.8932 111.074 98.5368 109.336 98.5368C107.597 98.5368 106.065 97.8932 104.797 96.6252C103.529 95.3572 102.885 93.8346 102.885 92.1056C102.885 90.3765 103.529 88.8395 104.797 87.5523C106.065 86.2651 107.587 85.6071 109.316 85.6071C111.045 85.6071 112.558 86.2555 113.802 87.5331C115.051 88.8155 115.685 90.3477 115.685 92.0864C115.685 93.825 115.056 95.3572 113.822 96.6252Z" fill="#161616"/>
<path d="M89.6336 0H26.5654V63.0682H89.6336V0ZM88.4329 61.8675H27.7709V37.9149C32.1224 40.7343 36.6229 43.5824 41.4739 45.5277C42.9196 49.7879 46.493 53.4478 51.3201 55.6091C54.3556 56.9684 57.6312 57.6456 60.8396 57.6456C63.8319 57.6456 66.7665 57.0549 69.3986 55.8685C76.5935 52.6313 82.9911 44.8312 88.1351 38.5681C88.2359 38.4432 88.332 38.328 88.4329 38.2031V61.8627V61.8675ZM59.5428 47.1799C62.4102 46.3009 64.5091 44.2741 65.4553 41.4739C66.5696 38.1887 65.9308 34.2838 63.7887 31.2916C62.2902 29.1974 60.1239 27.9487 57.8473 27.867C55.6091 27.795 53.4862 28.8132 51.8772 30.7584C48.6064 34.7017 47.3096 41.9398 50.004 46.5699C47.5593 46.2769 45.0666 45.6333 42.4345 44.6199C42.0022 43.131 41.8389 41.546 41.9494 39.9033C42.2136 36.0369 43.9139 32.5644 45.715 28.8804C47.0262 26.2052 48.3758 23.4338 49.1203 20.5088C49.2548 19.9757 49.3844 19.4281 49.5093 18.8806C50.1769 16.0036 50.8638 13.0257 53.0587 11.1478C55.321 9.21216 59.2835 9.21216 61.5409 11.1478C63.5053 12.8288 64.3554 16.3206 65.0375 19.1256C65.1671 19.6683 65.2968 20.187 65.4217 20.6673C66.1277 23.3282 67.4053 25.7921 68.6397 28.1744C70.3736 31.5173 72.0114 34.6729 72.2372 38.3616C72.5349 43.1502 70.5945 48.8321 65.585 50.7341C63.318 51.5938 60.6427 51.6515 58.0443 50.8926C56.0798 50.321 54.5477 49.3172 53.0203 47.9772C55.1961 47.958 57.4006 47.8427 59.5284 47.1895L59.5428 47.1799ZM51.5842 46.7668C48.4815 42.7323 49.6678 35.3117 52.8042 31.5269C54.173 29.8795 55.9454 29.0053 57.8041 29.0726C59.7061 29.1398 61.5313 30.2061 62.8089 31.9928C64.7301 34.6777 65.3064 38.1598 64.3122 41.0897C63.4909 43.5152 61.6705 45.2683 59.1826 46.032C56.7523 46.7764 54.125 46.7716 51.5794 46.7668H51.5842ZM88.4281 36.3155C88.0294 36.7958 87.6212 37.2953 87.1985 37.8092C82.1362 43.9763 75.8346 51.6515 68.8942 54.7734C63.7502 57.0933 57.3574 56.9972 51.8004 54.5141C47.6458 52.6553 44.4902 49.6342 42.9676 46.104C45.8062 47.1174 48.5007 47.7034 51.176 47.8907C53.1885 49.8263 55.0808 51.272 57.7177 52.0405C60.5611 52.8714 63.5101 52.7994 66.0172 51.8484C71.5983 49.7255 73.7693 43.5056 73.4427 38.2799C73.1978 34.3415 71.4303 30.9217 69.7156 27.6125C68.51 25.2878 67.2661 22.8815 66.5936 20.3503C66.4688 19.8796 66.3439 19.3705 66.2142 18.8374C65.4889 15.8643 64.5908 12.1612 62.3286 10.2304C59.6053 7.90094 55.0088 7.90094 52.2855 10.2304C49.7927 12.3677 49.0579 15.5377 48.347 18.6068C48.2222 19.1496 48.0973 19.6875 47.9628 20.211C47.2471 23.0208 45.9215 25.7297 44.6391 28.3521C42.8668 31.9736 41.0368 35.7199 40.7535 39.8169C40.6526 41.277 40.7535 42.6939 41.0512 44.0531C36.3875 42.0599 32.0072 39.2309 27.7614 36.4788V1.20075H88.4233V36.3107L88.4281 36.3155Z" fill="#161616"/>
</g>
<defs>
<clipPath id="clip0_82_5285">
<rect width="118" height="100" fill="white"/>
</clipPath>
</defs>
</svg>
