<svg width="570" height="730" viewBox="0 0 570 730" fill="none" xmlns="http://www.w3.org/2000/svg">
<g clip-path="url(#clip0_201_1563)">
<path d="M197.29 337.414C210.412 280.435 182.699 201.886 197.028 141.686C211.357 81.4863 268.388 38.9684 314.197 58.6517C360.398 78.2239 395.77 159.886 399.503 225.538C403.503 290.634 375.99 340.164 404.701 386.277C433.929 432.723 518.988 475.863 542.363 521.085C565.346 566.417 526.393 612.943 479.103 634.471C432.204 655.887 377.627 651.641 316.038 657.055C254.715 661.913 186.506 676.877 145.371 646.755C104.236 616.632 90.175 541.422 110.06 485.89C129.945 430.358 184.294 394.838 197.29 337.414Z" fill="#F0F0C7"/>
<path d="M384.665 700.073C468.603 662.385 518.311 552.3 504.882 461.274C491.453 370.248 421.583 305.659 326.174 293.706C324.666 296.592 320.436 296.253 317.378 295.134C314.32 294.016 310.698 292.594 308.05 294.491C307.007 295.24 306.336 296.392 305.745 297.532C303.396 302.069 296.644 309.495 301.067 312.049C306.799 315.359 317.622 308.328 320.594 300.78C321.054 299.606 321.387 298.26 320.863 297.114C319.429 293.982 314.719 296.041 311.297 295.654C305.997 295.052 304.241 288.333 303.768 283.022C302.796 272.125 301.806 261.186 299.25 250.548C296.968 241.045 293.46 231.888 289.964 222.762C287.668 216.772 285.373 210.78 283.076 204.79C281.421 200.468 279.877 199.589 284.241 198.047C287.464 196.909 288.772 244.688 288.963 259.554C289.087 269.244 290.065 277.253 290.494 287.535C279.095 286.595 254.64 301.52 265.108 306.132C271.248 308.839 285.083 302.294 289.786 293.704C290.116 293.101 290.429 292.438 290.345 291.755C290.183 290.425 288.601 289.727 287.266 289.815C285.93 289.906 284.67 290.505 283.337 290.629C280.443 290.901 277.738 288.833 276.352 286.278C274.966 283.724 274.619 280.753 274.28 277.867C272.375 261.64 269.899 245.481 266.854 227.806C265.079 211.667 263.304 195.529 261.529 179.391C260.881 173.5 260.323 167.146 263.299 162.02C263.684 161.356 264.16 160.695 264.86 160.38C265.83 159.945 266.953 160.281 267.967 160.599C276.173 163.171 284.86 164.206 294.423 164.485C292.829 166.677 292.991 170.051 294.966 171.906C296.943 173.761 300.535 173.588 302.148 171.409C303.465 169.628 303.884 166.61 306.092 166.433C306.845 166.372 307.568 166.721 308.21 167.123C314.362 170.968 315.336 180.922 310.046 185.886C306.349 185.756 302.92 182.899 302.123 179.288C301.74 181.309 299.353 182.683 297.414 181.999C297.849 179.437 298.817 176.968 300.224 174.785C301.822 172.305 304.161 170.107 307.057 169.552C309.956 168.999 313.359 170.6 314.055 173.464C319.748 163.287 324.706 152.695 328.876 141.804C329.72 139.6 330.544 137.307 330.422 134.95C330.304 132.668 329.31 130.533 328.334 128.465C323.932 119.146 319.527 109.826 315.125 100.505C313.281 96.6013 311.186 92.4306 307.345 90.4598C304.59 89.0465 301.36 89.0044 298.352 89.5828C296.625 87.1388 294.808 84.249 295.597 81.3612C295.82 80.5452 296.24 79.7985 296.648 79.0561C299.559 73.7433 301.917 68.1276 303.671 62.329C304.447 59.7651 305.095 56.951 304.104 54.4629C303.114 51.9747 299.791 50.2943 297.645 51.8948C298.861 49.1143 296.192 45.9679 293.254 45.2086C290.316 44.4473 287.224 45.1876 284.191 45.2276C281.345 45.2654 278.357 44.7081 275.751 45.848C273.145 46.9901 271.59 50.9231 274.335 53.405C272.974 60.2678 272.156 67.238 271.891 74.2291C271.757 77.8046 272.211 82.1478 275.433 83.7021C276.712 84.3205 278.197 84.3394 279.612 84.2195C282.542 83.9692 285.423 83.1616 288.057 81.8513C288.902 81.4306 289.758 80.9258 290.259 80.1224C290.646 79.4998 290.78 78.7595 290.909 78.0402C291.34 75.6068 291.773 73.1733 292.204 70.7399C292.423 69.5074 292.656 68.2391 293.327 67.1812C294 66.1253 295.231 65.3219 296.465 65.5343C298.064 65.8099 298.977 67.7259 298.632 69.3118C298.289 70.8976 297.031 72.1322 295.668 73.0135C294.896 73.514 293.815 73.9094 293.121 73.3058C292.797 73.0219 292.654 72.5844 292.585 72.1595C292.242 70.0794 293.273 68.0435 293.578 65.9592C293.883 63.8749 292.865 61.1785 290.757 61.1554C290.347 61.1512 289.935 61.2542 289.529 61.1975C288.503 61.0523 287.893 59.9565 287.691 58.9407C287.489 57.9248 287.52 56.8353 287.043 55.9162C285.918 53.7478 282.893 53.7709 280.451 53.6973C278.009 53.6237 274.882 52.2313 275.319 49.8273C275.658 47.9639 277.906 47.2488 279.772 46.9123C283.047 46.3212 286.42 45.7639 289.68 46.4348C292.94 47.1057 296.104 49.2826 296.972 52.4964C297.292 53.6784 297.391 55.1023 298.419 55.769C298.874 56.0634 299.431 56.1413 299.942 56.3264C303.011 57.4348 303.328 61.637 302.741 64.8466C301.85 69.7345 300.127 74.471 297.671 78.7932C295.649 79.0981 295.323 74.5867 293.363 75.163C292.713 75.3544 292.398 76.0632 292.097 76.6689C290.713 79.4536 287.928 81.4937 284.856 81.9733C284.029 82.1016 283.169 82.1289 282.399 82.4612C279.951 83.5149 279.694 86.8296 280.718 90.2937C281.476 92.0246 282.641 93.5726 284.094 94.7778C287.373 91.829 290.652 88.8782 293.931 85.9295C294.48 85.4352 295.126 84.9094 295.86 84.9872C296.297 85.0335 296.688 85.2985 296.97 85.6329C298.371 87.2881 297.149 89.7952 295.832 91.5178C293.369 94.7399 290.595 97.7244 287.562 100.417C286.873 98.572 285.646 96.9294 284.071 95.7474C283.842 95.5749 283.575 95.4045 283.293 95.4487C282.977 95.4971 282.769 95.7915 282.584 96.0523C281.6 97.4321 280.235 98.5342 278.678 99.2072C277.78 95.821 277.761 92.2055 277.461 88.7457C273.986 87.4206 269.977 88.3187 266.782 90.2201C263.588 92.1235 261.047 94.9292 258.559 97.6929C254.779 101.889 251 106.087 247.22 110.283C244.663 113.124 242 116.166 241.295 119.924C243.001 120.595 244.911 118.218 243.884 116.698C233.602 120.349 222.438 121.487 211.631 119.991C213.886 123.266 214.74 127.473 214.256 132.594C211.044 132.777 208.15 134.592 204.985 135.162C201.82 135.732 197.723 134.188 197.588 130.975C197.556 130.19 197.773 129.393 197.611 128.625C197.384 127.553 196.484 126.781 195.857 125.88C194.183 123.474 194.73 119.773 197.085 118.027C199.441 116.281 203.216 116.887 204.834 119.333C206.529 121.897 206.239 126.099 209.122 127.163C210.58 126.007 211.171 123.874 210.517 122.133C211.076 123.003 212.21 123.464 213.217 123.23C213.686 121.371 212.878 119.262 211.291 118.189C208.809 116.515 203.363 119.262 201.252 117.139C200.158 116.039 199.819 114.418 199.531 112.895C197.79 103.691 183.85 22.3464 181.124 12.7788C177.998 15.2753 173.609 16.0956 169.791 14.8967C163.383 12.8839 159.12 5.84018 152.448 5.0683C146.807 4.41629 141.799 8.54285 137.982 12.7451C134.165 16.9474 130.366 21.7575 124.881 23.2235C118.758 24.8598 112.285 21.8206 105.992 22.5672C100.174 23.2571 95.2674 27.0514 90.6865 30.7047C89.8368 31.3819 88.9598 32.0928 88.4739 33.0645C87.7799 34.4463 87.9965 36.0911 88.23 37.6201C90.7854 54.4292 93.3787 71.3813 99.3498 87.3008C106.755 76.3681 121.762 71.2741 134.293 75.4406C137.692 76.57 141.019 78.3199 144.599 78.2253C150.61 78.0654 155.102 72.9314 159.17 68.5041C163.238 64.0768 168.893 59.6263 174.665 61.3131C177.26 62.0724 179.353 63.98 181.803 65.1284C184.253 66.2768 187.648 66.4009 190.83 64.7288C187.581 47.0931 184.333 29.4575 181.084 11.8218C180.852 10.5704 180.878 8.86675 182.098 8.50709C183.469 8.10117 184.375 9.89313 184.676 11.2918C192.023 45.4778 197.058 81.5547 205.616 116.189C204.325 117.24 204.56 119.344 205.458 120.746C206.356 122.149 207.747 123.178 208.68 124.555C211.095 128.12 209.37 133.73 205.372 135.324C204.737 135.576 203.965 135.844 203.803 136.508C203.742 136.756 203.786 137.015 203.828 137.265C206.51 152.937 227.281 269.561 230.26 286.435C230.853 288.783 231.446 291.128 232.039 293.475C232.182 294.043 232.348 294.651 232.796 295.029C233.658 295.761 235.097 295.162 235.614 294.154C236.132 293.149 235.999 291.946 235.842 290.825C235.249 286.604 209.242 138.965 208.304 134.805L211.495 133.963L213.12 133.267C213.12 133.267 229.643 134.868 234.719 135.783C239.794 136.697 245.243 136.79 249.879 134.529C254.049 132.495 257.116 128.789 260.048 125.193C267.979 115.467 269.628 110.125 268.791 108.457C268.436 107.748 267.352 107.387 266.829 107.984C266.528 108.327 264.065 132.072 262.08 154.194C260.952 160.622 259.827 167.051 258.7 173.479C258.418 175.09 258.134 176.731 258.338 178.354C258.946 183.217 263.773 186.561 268.568 187.575C265.459 165.323 271.679 142.889 272.247 120.427C272.486 110.922 271.851 100.818 276.586 92.5736C276.851 92.1109 277.183 91.6187 277.7 91.4925C278.409 91.3179 279.078 91.9153 279.446 92.5462C280.489 94.3361 280.294 96.5634 280.779 98.5783C281.265 100.593 283.156 102.678 285.768 102.654C285.188 121.07 284.605 139.516 285.615 157.913C285.73 160.027 285.867 162.147 285.674 164.254C285.259 168.793 283.341 173.05 282.414 177.511C281.175 174.352 278.192 171.96 277.587 168.623C277.376 167.457 277.475 166.261 277.578 165.081C279.269 145.407 280.96 125.733 282.651 106.057C282.773 104.646 282.931 103.142 283.829 102.049C284.727 100.955 286.65 100.6 287.506 101.727C288.395 99.2093 289.781 96.8663 291.559 94.8703C291.99 94.3866 292.501 93.8944 293.144 93.8292C294.76 93.6694 295.262 95.9556 295.136 97.573C294.04 111.749 292.945 125.925 291.849 140.1C291.42 145.64 291.014 151.359 292.795 156.621C294.577 161.884 299.141 166.618 304.695 166.805C306.437 161.4 308.18 155.995 309.922 150.587C311.596 145.394 313.577 139.787 318.175 136.849C319.229 138.21 317.771 140.403 316.049 140.441C314.328 140.479 312.885 139.017 312.278 137.408C311.67 135.799 311.678 134.035 311.493 132.323C310.435 122.557 302.969 114.157 302.857 104.335C302.817 100.703 304.811 96.2711 308.441 96.3615C310.141 96.4036 311.64 97.4825 312.833 98.6961C316.392 102.309 318.162 107.269 319.832 112.058C321.313 116.311 322.796 120.564 324.277 124.816C325.149 127.321 326.026 129.841 326.441 132.459C327.886 141.585 323.633 150.545 321.08 158.239C317.698 164.523 314.253 171.005 313.447 178.096C313.005 181.999 313.384 185.945 313.762 189.855C315.17 204.365 316.579 218.875 318.186 233.507C319.366 251.848 320.545 270.186 323.368 288.183C287.459 318.525 225.513 292.672 189.56 322.96C193.341 332.257 205.544 333.689 214.576 338.064C230.922 345.98 238.092 368.578 229.301 384.47C225.641 391.086 219.514 397.354 220.501 404.852C221.617 413.334 231.297 418.136 234.151 426.202C237.934 436.891 228.264 447.722 218.134 452.823C208.007 457.923 196.093 460.718 188.769 469.375C178.936 481.002 181.235 498.314 184.619 513.161C188.359 529.564 194.408 547.868 209.759 554.752C216.706 557.867 225.883 557.621 230.867 551.866C233.059 549.336 234.199 546.059 236.184 543.363C244.133 532.569 260.908 535.354 273.233 540.625C298.758 551.543 321.704 568.436 339.712 589.565C341.294 591.42 342.88 593.393 343.469 595.757C344.285 599.036 343.05 602.441 341.834 605.594C339.376 611.971 336.17 619.086 329.68 621.221C327.257 622.018 324.596 622.007 322.26 623.034C314.305 626.529 315.502 638.057 318.118 646.342C320.735 654.627 322.224 666.03 314.417 669.843C310.709 671.654 306.321 670.769 302.205 671.057C291.27 671.827 282.029 682.499 284.797 693.583C281.513 700.279 282.018 708.251 279.341 715.21C276.663 722.17 267.767 728.002 261.976 723.304C256.106 718.542 259.64 708.608 255.999 701.985C254.453 699.173 251.751 697.232 249.393 695.055C234.588 681.384 233.513 658.297 237.274 638.501C239.569 626.426 243.277 614.375 242.385 602.115C241.493 589.857 234.496 576.924 222.604 573.826C217.321 572.451 211.478 573.09 206.632 570.579C200.972 567.647 198.139 561.217 193.463 556.885C185.299 549.315 173.026 549.141 162.054 547.256C151.081 545.372 138.624 539.009 139.269 528.518C130.143 521.365 117.785 518.515 106.448 520.953C101.127 522.097 95.9636 524.343 90.5204 524.316C79.6635 524.261 70.7478 515.018 66.7895 504.907C59.3882 485.999 65.0081 464.62 72.422 445.716C89.8747 401.211 118.502 359.342 160.062 335.721C166.031 332.328 172.587 329.255 179.437 329.678C186.289 330.101 193.293 335.193 193.564 342.051C193.722 346.01 191.709 349.709 189.558 353.037C180.32 367.32 167.505 378.963 157.797 392.931C136.897 423.001 131.977 461.223 116.1 494.223C112.076 502.583 104.774 511.857 95.707 509.894C86.703 507.944 82.5786 495.815 73.4926 494.292C63.1383 504.072 62.2213 520.097 63.3949 534.292C68.5163 596.251 101.543 655.371 153.029 694.578C214.09 723.112 286.002 730.638 349.799 708.896C413.597 687.155 467.568 634.564 484.859 569.42C487.143 560.818 488.199 550.15 481.382 544.427C477.731 541.363 472.647 540.585 468.735 537.863C456.341 529.24 462.653 508.548 453.906 496.242C446.593 485.953 431.594 485.223 419.179 487.509C406.764 489.798 393.862 494.048 381.857 490.147C365.325 484.775 357.293 466.372 352.538 449.653C348.796 436.5 345.835 422.606 348.68 409.229C351.528 395.852 361.599 383.157 375.139 381.245C367.166 374.372 364.087 362.371 367.765 352.509C375.27 355.134 382.986 357.792 390.932 357.533C398.878 357.275 407.222 353.44 410.545 346.22C411.9 343.276 412.707 339.544 415.696 338.289C418.704 337.025 421.995 339.113 424.538 341.158C466.426 374.843 492.862 426.648 496.938 480.247C499.754 517.277 492.107 555.335 473.403 587.418C454.701 619.5 424.729 645.257 389.509 657.033C338.806 673.987 283.709 661.506 230.344 658.314C220.65 657.733 210.672 657.506 201.515 660.734C192.357 663.963 184.081 671.37 182.485 680.949C180.974 690.02 185.77 699.283 192.79 705.224C199.811 711.166 208.758 714.3 217.659 716.622" stroke="#161616" stroke-width="2" stroke-linecap="round" stroke-linejoin="round"/>
<path d="M262.458 482.346C256.925 456.503 268.463 441.387 281.959 433.225C288.639 429.243 295.86 428.433 302.27 430.93C308.816 433.494 313.809 439.364 316.036 446.988C319.208 457.851 317.048 469.863 310.502 478.297C304.902 485.45 296.669 489.228 287.493 488.891C275.82 488.216 269.207 485.585 262.46 482.346" stroke="#161616" stroke-width="2" stroke-miterlimit="10" stroke-linecap="round"/>
<path d="M357.832 464.739C358.124 467.787 358.303 471.043 356.654 474.856C355.169 478.297 353.549 485.719 349.705 495.773C342.958 512.439 320.489 523.033 307.331 524.179C298.491 524.921 289.314 523.639 280.611 520.604C271.3 517.297 262.46 511.968 254.971 504.949C243.096 493.747 236.483 479.443 236.618 465.543C236.685 462.573 236.954 460.819 236.954 460.819C237.495 456.568 238.641 452.318 240.395 448.202C245.388 436.596 254.565 427.554 263.405 418.781C269.815 412.438 276.428 405.96 281.421 398.471C282.365 397.053 283.242 395.637 284.187 394.22C289.382 385.988 294.781 377.554 304.226 373.842C314.549 369.86 327.911 374.517 333.442 384.097C338.032 391.993 336.883 403.733 335.939 413.111C335.804 414.798 335.602 416.417 335.466 417.902C334.858 425.933 336.006 434.232 337.153 442.193C338.772 453.596 340.392 465.337 337.085 477.01C332.7 492.529 320.013 508.453 301.593 508.926C293.294 509.128 284.656 506.295 277.235 501.031C270.354 496.105 266.305 489.966 262.458 482.272C254.901 478.966 244.105 472.622 236.616 465.471C231.978 461.412 226.842 456.236 221.765 450.728" stroke="#161616" stroke-width="2" stroke-miterlimit="10" stroke-linecap="round"/>
</g>
<defs>
<clipPath id="clip0_201_1563">
<rect width="570" height="730" fill="white"/>
</clipPath>
</defs>
</svg>
