<svg viewBox="0 0 819 2085" fill="none" preserveAspectRatio="none" xmlns="http://www.w3.org/2000/svg">
<path d="M653.454 -130.181C709.085 -98.3203 769.05 -64.1015 811.153 -11.576C853.257 40.9495 865.906 117.193 852.93 181.339C838.52 253.201 795.867 314.53 749.381 365.964C649.151 476.6 522.729 551.859 405.021 637.142C399.052 641.474 394.018 645.63 388.049 649.962C249.865 755.117 115.758 876.499 43.5789 1042.35C-25.8337 1202.36 -10.6626 1378.05 131.021 1489.1C204.129 1546.31 299.018 1560.01 386.736 1546.39C619.906 1511.27 866.747 1405.48 1033.2 1224.75C1072.63 1182.11 1104.19 1118.65 1071.21 1058C1053.1 1024.26 1021.38 1000.58 987.123 989.072C910.141 962.368 823.495 991.731 769.013 1052.14C714.53 1112.55 689.947 1202.3 693.122 1289.93C701.43 1475.44 824.731 1632.53 958.484 1737.66C1286.63 1995.81 1681.74 2025.32 2063.76 2082.86" stroke="#8F8F2D" stroke-miterlimit="10"/>
</svg>
