<svg width="645" height="122" viewBox="0 0 645 122" fill="none" xmlns="http://www.w3.org/2000/svg">
<path opacity="0.2" d="M1.8158 5.30058H1.3158V5.80058V118.301V118.801H1.8158H42.1658H42.6658V118.301V113.951V113.451H42.1658H7.2658V76.2006H36.3158H36.8158V75.7006V71.3506V70.8506H36.3158H7.2658V10.6506H42.1658H42.6658V10.1506V5.80058V5.30058H42.1658H1.8158ZM57.1869 5.30058H56.6869V5.80058V118.301V118.801H57.1869H61.9869C79.0061 118.801 92.6956 113.256 103.003 102.142C113.391 91.0468 118.587 77.7241 118.587 62.2006C118.587 46.5782 113.392 33.2053 103.003 22.11C92.5975 10.8966 78.9089 5.30058 61.9869 5.30058H57.1869ZM98.6709 98.1599L98.6691 98.1619C89.4703 108.152 77.6571 113.151 63.1869 113.151H62.4869V10.8006H63.1869C77.6554 10.8006 89.4681 15.8479 98.6674 25.9375L98.6692 25.9394C107.982 36.0447 112.637 48.1228 112.637 62.2006C112.637 76.1773 107.983 88.1547 98.6709 98.1599ZM145.236 111.151L145.238 111.154C151.734 117.65 159.662 120.901 168.992 120.901H170.492C179.724 120.901 187.553 117.648 193.948 111.151C200.448 104.55 203.692 96.2711 203.692 86.3506V5.80058V5.30058H203.192H198.242H197.742V5.80058V86.5006C197.742 94.9833 195.034 101.953 189.635 107.45L189.992 107.801L189.635 107.45C184.334 112.849 177.715 115.551 169.742 115.551C161.771 115.551 155.101 112.801 149.699 107.3C144.299 101.802 141.592 94.8815 141.592 86.5006V5.80058V5.30058H141.092H136.142H135.642V5.80058V86.6506C135.642 96.4703 138.836 104.65 145.236 111.151ZM228.359 90.6471L228.362 90.6528C233.605 99.6254 240.714 106.835 249.685 112.278C258.662 117.725 268.351 120.451 278.744 120.451H280.394C291.186 120.451 301.177 117.625 310.356 111.976L310.594 111.83V111.551V106.001V105.055L309.813 105.587C300.492 111.933 290.439 115.101 279.644 115.101C265.08 115.101 252.607 109.856 242.199 99.3487C231.79 88.8408 226.594 76.3166 226.594 61.7506C226.594 47.0837 231.791 34.5607 242.197 24.1541L242.199 24.1525C252.607 13.6457 265.08 8.40058 279.644 8.40058C290.439 8.40058 300.492 11.5678 309.813 17.9139L310.594 18.4459V17.5006V11.9506V11.6634L310.346 11.5187C300.672 5.87589 290.436 3.05058 279.644 3.05058C263.509 3.05058 249.634 8.8545 238.042 20.4457C226.449 31.9376 220.644 45.7146 220.644 61.7506C220.644 71.9391 223.217 81.5738 228.359 90.6471ZM380.18 2.8812L379.73 1.95981L379.281 2.88167L323.181 118.082L322.831 118.801H323.63H328.28H328.592L328.729 118.52L349.592 75.9006H409.12L430.282 118.523L430.42 118.801H430.73H435.98H436.781L436.43 118.081L380.18 2.8812ZM451.669 5.30058H451.169V5.80058V118.301V118.801H451.669H456.469C473.488 118.801 487.177 113.257 497.484 102.142C507.873 91.0475 513.069 77.7244 513.069 62.2006C513.069 46.5777 507.874 33.2044 497.484 22.1088C487.079 10.8962 473.391 5.30058 456.469 5.30058H451.669ZM493.153 98.1599L493.151 98.1619C483.953 108.152 472.139 113.151 457.669 113.151H456.969V10.8006H457.669C472.138 10.8006 483.951 15.8479 493.15 25.9375L493.152 25.9394C502.464 36.0447 507.119 48.1228 507.119 62.2006C507.119 76.1773 502.465 88.1547 493.153 98.1599ZM542.715 103.048L542.716 103.05C554.205 114.84 567.782 120.751 583.424 120.751H585.674C601.514 120.751 615.142 114.893 626.533 103.199L626.534 103.198C637.92 91.4084 643.624 77.5853 643.624 61.7506C643.624 45.815 637.87 32.0887 626.378 20.597C614.884 9.10341 601.007 3.35059 584.774 3.35059C568.54 3.35059 554.614 9.15433 543.021 20.747C531.43 32.2373 525.624 45.9133 525.624 61.7506C525.624 77.4862 531.329 91.2591 542.715 103.048ZM622.067 24.4508L622.071 24.4541C632.477 34.8607 637.674 47.3837 637.674 62.0506C637.674 76.6166 632.478 89.1408 622.069 99.6487C611.661 110.156 599.189 115.401 584.624 115.401C570.06 115.401 557.587 110.156 547.18 99.6487C536.771 89.1408 531.574 76.6166 531.574 62.0506C531.574 47.3837 536.771 34.8607 547.178 24.4541L547.18 24.4525C557.587 13.9457 570.06 8.70058 584.624 8.70058C599.29 8.70058 611.761 13.9462 622.067 24.4508ZM406.827 70.5506H352.03L379.283 14.5877L406.827 70.5506Z" stroke="#8F8F2D"/>
</svg>
