<svg xmlns="http://www.w3.org/2000/svg" xmlns:xlink="http://www.w3.org/1999/xlink" width="2000" zoomAndPan="magnify" viewBox="0 0 1500 1499.999933" height="2000" preserveAspectRatio="xMidYMid meet" version="1.0"><defs><clipPath id="bc33ed7d45"><path d="M 137 423 L 1426 423 L 1426 1190 L 137 1190 Z M 137 423 " clip-rule="nonzero"/></clipPath><clipPath id="58d41384f8"><path d="M 675.28125 101.816406 L 1529.109375 840.09375 L 853.625 1621.304688 L -0.207031 883.027344 Z M 675.28125 101.816406 " clip-rule="nonzero"/></clipPath><clipPath id="122b347fd5"><path d="M 675.28125 101.816406 L 1529.109375 840.09375 L 853.625 1621.304688 L -0.207031 883.027344 Z M 675.28125 101.816406 " clip-rule="nonzero"/></clipPath></defs><g clip-path="url(#bc33ed7d45)"><g clip-path="url(#58d41384f8)"><g clip-path="url(#122b347fd5)"><path fill="#efefc6" d="M 1350.140625 687.328125 L 1345.601562 683.472656 C 1295.984375 644.984375 1245.101562 618.296875 1192.949219 603.410156 L 1149.96875 589.527344 L 851.191406 517.730469 C 829.921875 512.566406 751.777344 485.097656 616.757812 435.332031 C 586.636719 427.789062 561.386719 423.949219 541.007812 423.8125 C 503.300781 423.914062 470.410156 428.671875 442.34375 438.09375 C 390.847656 453.378906 344.894531 488.640625 304.492188 543.882812 C 285.617188 565.636719 269.925781 608.535156 257.417969 672.574219 C 215.6875 712.71875 182.277344 767.566406 157.1875 837.117188 C 118.542969 923.917969 135.816406 998.886719 209.007812 1062.03125 C 247.09375 1095.972656 304.746094 1127.546875 381.96875 1156.761719 C 429.542969 1174.847656 487.105469 1185.859375 554.648438 1189.804688 C 606.144531 1187.035156 652.195312 1179.785156 692.792969 1168.058594 L 884.027344 1090.378906 C 909.96875 1080 932.75 1072.21875 952.378906 1067.03125 C 979.179688 1059.761719 1065.558594 1051.230469 1211.519531 1041.433594 C 1232.480469 1038.546875 1255.097656 1033.328125 1279.375 1025.769531 C 1356.503906 1004.039062 1403.722656 954.367188 1421.027344 876.753906 C 1436.878906 803.695312 1413.25 740.550781 1350.140625 687.328125 " fill-opacity="1" fill-rule="nonzero"/></g></g></g></svg>