<svg xmlns="http://www.w3.org/2000/svg" xmlns:xlink="http://www.w3.org/1999/xlink" width="2000" zoomAndPan="magnify" viewBox="0 0 1500 1499.999933" height="2000" preserveAspectRatio="xMidYMid meet" version="1.0"><defs><clipPath id="d94243381e"><path d="M 150 93 L 1387.5 93 L 1387.5 1413.761719 L 150 1413.761719 Z M 150 93 " clip-rule="nonzero"/></clipPath><clipPath id="c97213fa5a"><path d="M 0.363281 2 L 1237.5 2 L 1237.5 1320 L 0.363281 1320 Z M 0.363281 2 " clip-rule="nonzero"/></clipPath><clipPath id="7c814b7ae9"><rect x="0" width="1238" y="0" height="1321"/></clipPath></defs><g clip-path="url(#d94243381e)"><g transform="matrix(1, 0, 0, 1, 150, 93)"><g clip-path="url(#7c814b7ae9)"><g clip-path="url(#c97213fa5a)"><path fill="#d3d360" d="M 674.5 545.261719 C 667.574219 545.261719 651.964844 546.582031 615.042969 551.4375 C 584.316406 555.472656 552.144531 560.277344 546.273438 561.425781 C 472.539062 575.824219 417.140625 616.988281 358.480469 660.5625 C 339.082031 674.972656 319.027344 689.875 298.390625 703.589844 C 231.097656 748.316406 139.296875 755.261719 58.300781 761.386719 C 40.824219 762.707031 24.242188 763.957031 8 765.542969 C 15.558594 744.210938 45.496094 657.179688 55.144531 589.582031 C 67.433594 503.566406 68.222656 428 57.550781 358.574219 C 55.871094 347.648438 40.621094 278.007812 30.707031 247.539062 C 52.828125 246.277344 75.097656 245.542969 98.59375 244.761719 C 201.34375 241.351562 307.585938 237.820312 396.929688 189.074219 C 462.359375 153.382812 509.699219 122.027344 564.875 83.007812 C 626.101562 39.703125 686.6875 1.558594 754.121094 9.84375 C 753.9375 26.765625 753.25 109.480469 752.320312 220.683594 C 751.183594 356.160156 749.71875 530.769531 748.5 666.121094 L 737.40625 663.101562 C 731.96875 661.625 726.640625 659.90625 721.488281 658.234375 C 707.613281 653.738281 694.214844 649.40625 680.550781 650.453125 C 681.289062 589.488281 681.78125 549.144531 681.78125 549.050781 C 681.78125 548.101562 681.246094 546.984375 680.511719 546.378906 C 679.875 545.855469 679.148438 545.261719 674.5 545.261719 Z M 568.867188 794.089844 C 563.449219 794.089844 558.082031 794.203125 552.757812 794.4375 C 530.972656 795.378906 515.1875 800.171875 504.925781 809.011719 C 500.890625 800.296875 499.703125 790.824219 501.957031 782.535156 C 505.992188 767.664062 519.253906 757.484375 533.644531 747.507812 C 574.992188 718.851562 617.519531 690.734375 660.046875 663.941406 C 664.796875 660.941406 669.46875 659.015625 674.121094 657.886719 C 673.605469 700.402344 672.980469 752.066406 672.328125 806.738281 C 635.730469 798.269531 601.441406 794.089844 568.867188 794.089844 Z M 708.472656 801.320312 C 715.804688 801.320312 718.324219 807.40625 721.839844 817.535156 C 722.207031 818.578125 722.574219 819.644531 722.953125 820.710938 C 710.519531 816.757812 698.351562 813.242188 686.429688 810.179688 C 691.707031 806.871094 696.929688 803.964844 702.664062 802.292969 C 704.886719 801.636719 706.800781 801.320312 708.472656 801.320312 Z M 748.4375 672.6875 C 747.863281 736.867188 747.339844 791.773438 746.941406 828.769531 C 741.503906 826.84375 736.117188 825 730.78125 823.238281 C 730.757812 823.199219 730.738281 823.148438 730.71875 823.105469 C 729.652344 820.699219 728.730469 818.027344 727.839844 815.457031 C 724.03125 804.476562 719.296875 790.824219 700.882812 796.199219 C 692.730469 798.574219 685.570312 803.132812 678.65625 807.621094 C 679.332031 752.15625 679.957031 699.789062 680.480469 656.851562 C 693.097656 655.714844 705.695312 659.792969 719.535156 664.277344 C 724.757812 665.957031 730.15625 667.710938 735.738281 669.226562 Z M 670.492188 812.832031 C 668.238281 814.183594 665.988281 815.445312 663.660156 816.550781 C 643.269531 826.261719 627.269531 832.609375 611.785156 837.136719 C 581.898438 845.886719 540.660156 850.402344 513.929688 822.226562 C 511.707031 819.890625 509.75 817.371094 508.070312 814.738281 C 517.144531 806.277344 531.976562 801.691406 553.035156 800.777344 C 589.679688 799.199219 628.539062 803.152344 670.492188 812.832031 Z M 746.871094 835.480469 C 746.789062 843.324219 746.707031 850.226562 746.636719 856.085938 C 742.324219 847.921875 738.207031 839.585938 734.3125 831.117188 C 738.472656 832.527344 742.660156 833.984375 746.871094 835.480469 Z M 753.191406 838.101562 C 764.078125 843.589844 772.628906 853.609375 775.179688 864.269531 C 776.707031 870.621094 776.714844 880.09375 768.144531 889.167969 C 767.652344 889.703125 767.179688 890.195312 766.730469 890.664062 C 761.90625 883.105469 757.265625 875.363281 752.832031 867.464844 C 752.933594 860.492188 753.058594 850.554688 753.191406 838.101562 Z M 762.058594 895.152344 C 759.242188 897.558594 756.5 899.257812 752.328125 901.234375 C 752.433594 893.5 752.535156 886.300781 752.636719 879.839844 C 755.6875 885.019531 758.832031 890.121094 762.058594 895.152344 Z M 745.9375 904.070312 C 737.417969 907.6875 728.578125 910.832031 719.492188 913.464844 C 705.441406 912.234375 691.304688 912.203125 677.398438 912.277344 C 677.796875 879.816406 678.183594 847.09375 678.5625 815.25 C 678.757812 815.136719 678.945312 815.015625 679.136719 814.890625 C 694.378906 818.652344 710.007812 823.148438 726.109375 828.390625 C 732.335938 842.339844 739.128906 855.921875 746.460938 869.085938 C 746.441406 870.601562 746.410156 871.960938 746.390625 873.140625 C 746.246094 881.90625 746.09375 892.4375 745.9375 904.070312 Z M 745.855469 910.984375 C 745.824219 913.125 745.804688 915.289062 745.773438 917.488281 C 742.046875 916.628906 738.296875 915.902344 734.527344 915.308594 C 738.359375 913.957031 742.136719 912.511719 745.855469 910.984375 Z M 697.859375 918.730469 C 691.109375 920.058594 684.25 921.136719 677.285156 921.964844 C 677.292969 920.847656 677.316406 919.742188 677.324219 918.625 C 684.125 918.59375 691 918.585938 697.859375 918.730469 Z M 670.921875 922.640625 C 653.203125 924.3125 634.921875 924.339844 616.351562 922.660156 C 595.898438 920.816406 575.628906 916.015625 556.023438 911.375 C 549.089844 909.734375 541.921875 908.035156 534.824219 906.488281 C 515.148438 902.1875 508.542969 897.320312 506.460938 893.992188 C 505.664062 892.722656 505.449219 891.503906 505.777344 890.152344 C 506.125 888.71875 506.757812 888.378906 506.996094 888.246094 C 509.414062 886.9375 515.34375 888.996094 518.886719 890.234375 C 519.890625 890.582031 520.832031 890.910156 521.671875 891.175781 C 562.703125 903.9375 609.214844 918.402344 658.613281 918.667969 C 662.71875 918.699219 666.847656 918.675781 670.976562 918.65625 C 670.953125 919.96875 670.945312 921.332031 670.921875 922.640625 Z M 760.644531 1011.226562 C 760.339844 1011.226562 760.042969 1011.226562 759.734375 1011.238281 C 756.867188 1011.269531 754.019531 1011.460938 751.191406 1011.769531 C 751.429688 984.257812 751.714844 953.285156 752.03125 925.664062 C 765.574219 929.65625 775.015625 935.382812 780.855469 943.125 C 793.484375 959.871094 787.417969 985.203125 774.25 1000.023438 C 770.46875 1004.28125 766.199219 1007.980469 761.589844 1011.238281 C 761.269531 1011.226562 760.964844 1011.226562 760.644531 1011.226562 Z M 901.234375 995.09375 C 902.882812 995.09375 904.355469 995.28125 905.617188 995.679688 C 907.519531 996.292969 908.699219 997.378906 909.3125 999.070312 C 910.03125 1001.015625 909.714844 1002.808594 908.320312 1004.691406 C 904.59375 1009.730469 894.820312 1013 890.140625 1012.785156 C 883.402344 1012.445312 876.199219 1009.414062 869.101562 1005.039062 C 880.460938 999.714844 893.007812 995.09375 901.234375 995.09375 Z M 744.832031 1012.660156 C 736.515625 1014.054688 728.363281 1016.285156 720.375 1018.480469 L 716.910156 1019.429688 C 702.953125 1023.222656 689.308594 1026.5 675.992188 1029.265625 C 676.371094 997.164062 676.792969 963.046875 677.203125 928.367188 C 691.960938 926.667969 706.3125 923.839844 720.097656 919.90625 C 728.730469 920.695312 737.292969 921.976562 745.703125 923.992188 C 745.375 952.324219 745.078125 984.382812 744.832031 1012.660156 Z M 856.730469 1004.191406 C 850.019531 1007.753906 844.839844 1010.917969 842.789062 1012.3125 C 829.179688 1021.570312 817.984375 1029.683594 807.503906 1037.613281 C 805.898438 1033.953125 803.746094 1030.472656 800.960938 1027.296875 C 793.921875 1019.238281 783.332031 1013.902344 770.992188 1012.003906 C 773.828125 1009.628906 776.5 1007.046875 779 1004.242188 C 793.65625 987.742188 801.0625 959.371094 785.925781 939.296875 C 778.980469 930.109375 767.917969 923.480469 752.105469 919.085938 C 752.15625 915.398438 752.195312 911.773438 752.238281 908.25 C 752.707031 908.046875 753.179688 907.832031 753.640625 907.617188 C 758.875 905.238281 762.246094 903.253906 765.550781 900.519531 C 769.90625 907.125 774.414062 913.597656 779.050781 919.925781 C 796.667969 943.925781 812.359375 962.546875 828.429688 978.523438 L 829.660156 979.730469 C 836.789062 986.839844 846.304688 996.304688 856.730469 1004.191406 Z M 744.761719 1020.773438 C 735.992188 1024.796875 726.835938 1027.859375 718.160156 1030.460938 C 704.609375 1034.519531 690.546875 1038.042969 675.851562 1041.0625 C 675.871094 1039.300781 675.890625 1037.539062 675.910156 1035.757812 C 689.789062 1032.910156 704.007812 1029.507812 718.570312 1025.554688 L 722.054688 1024.605469 C 729.511719 1022.554688 737.121094 1020.476562 744.78125 1019.113281 C 744.769531 1019.667969 744.769531 1020.21875 744.761719 1020.773438 Z M 669.480469 1042.324219 C 642.398438 1047.558594 613.199219 1051.109375 581.292969 1053.085938 C 557.082031 1054.582031 529.117188 1055.414062 503.574219 1046.410156 C 499.386719 1044.925781 499.539062 1043.808594 499.652344 1042.988281 C 499.804688 1041.945312 500.441406 1041.289062 500.941406 1040.929688 C 501.792969 1040.316406 502.886719 1040.078125 503.921875 1040.285156 C 554.058594 1049.921875 608.597656 1048.886719 669.550781 1037.039062 C 669.53125 1038.808594 669.5 1040.5625 669.480469 1042.324219 Z M 802.300781 1041.585938 C 792.910156 1048.804688 783.898438 1056.007812 773.972656 1063.945312 C 766.667969 1069.78125 759.160156 1075.773438 750.621094 1082.503906 C 750.699219 1072.199219 750.863281 1050.742188 751.082031 1024.796875 C 755.351562 1022.679688 759.507812 1020.3125 763.484375 1017.640625 C 777.167969 1018.234375 788.945312 1023.179688 796.175781 1031.464844 C 798.871094 1034.550781 800.878906 1037.96875 802.300781 1041.585938 Z M 789.160156 1101.257812 C 775.804688 1101.972656 762.203125 1109.101562 749.800781 1115.617188 C 744.269531 1118.515625 739.046875 1121.25 734.253906 1123.207031 C 715.066406 1131.03125 695.066406 1136.726562 674.652344 1140.199219 C 674.980469 1113.40625 675.359375 1081.878906 675.769531 1047.558594 C 691.140625 1044.441406 705.839844 1040.777344 719.972656 1036.546875 C 728.023438 1034.128906 736.472656 1031.332031 744.710938 1027.757812 C 744.414062 1062.46875 744.226562 1088.421875 744.226562 1089.046875 C 744.21875 1090.265625 744.902344 1091.382812 746 1091.917969 C 747.105469 1092.460938 748.40625 1092.316406 749.359375 1091.566406 C 760.132812 1083.128906 769.589844 1075.578125 777.933594 1068.902344 C 787.144531 1061.539062 795.574219 1054.808594 804.238281 1048.109375 C 806.65625 1059.765625 804.277344 1072.433594 800.398438 1081.847656 C 797.589844 1088.640625 793.8125 1095.140625 789.160156 1101.257812 Z M 783.058594 1108.507812 C 773.121094 1119.242188 760.308594 1128.480469 745.304688 1135.589844 C 724.921875 1145.226562 700.820312 1152.203125 674.457031 1156.332031 C 674.5 1153.1875 674.539062 1149.960938 674.582031 1146.652344 C 695.84375 1143.128906 716.675781 1137.238281 736.648438 1129.085938 C 741.730469 1127.015625 747.074219 1124.210938 752.75 1121.238281 C 762.4375 1116.148438 772.917969 1110.660156 783.058594 1108.507812 Z M 668.097656 1157.273438 C 636.449219 1161.625 601.777344 1161.972656 566.472656 1158.011719 C 564.261719 1157.765625 563.226562 1157.394531 563.042969 1156.792969 C 562.9375 1156.472656 563.082031 1155.980469 563.390625 1155.59375 C 564.535156 1154.148438 566.617188 1153.738281 569.207031 1153.351562 C 585.339844 1150.921875 601.992188 1150.726562 618.105469 1150.542969 C 632.902344 1150.371094 648.207031 1150.183594 663.253906 1148.300781 C 664.910156 1148.09375 666.558594 1147.871094 668.21875 1147.632812 C 668.179688 1150.933594 668.136719 1154.136719 668.097656 1157.273438 Z M 667.289062 1224.839844 C 624.945312 1230.484375 575.976562 1232.289062 530.941406 1206.035156 C 514.207031 1196.273438 506.617188 1171.316406 514.371094 1151.527344 C 514.941406 1150.050781 514.339844 1148.371094 512.945312 1147.59375 C 475.929688 1127.066406 457.195312 1079.453125 470.296875 1039.199219 C 470.859375 1037.449219 471.484375 1035.6875 472.121094 1033.914062 C 475.039062 1025.679688 478.070312 1017.15625 476.269531 1008.207031 C 475.070312 1002.222656 471.882812 997.175781 468.800781 992.300781 C 468.136719 991.246094 467.46875 990.1875 466.835938 989.132812 C 448.285156 958.511719 449.515625 916.515625 469.835938 887.027344 C 472.109375 883.730469 474.671875 880.464844 477.160156 877.296875 C 482.445312 870.570312 487.925781 863.59375 491.355469 855.402344 C 493.414062 850.503906 494.664062 845.34375 495.871094 840.355469 C 497.519531 833.554688 499.078125 827.132812 502.476562 821.558594 C 502.867188 820.925781 503.277344 820.300781 503.707031 819.695312 C 505.375 822.09375 507.25 824.40625 509.320312 826.597656 C 532.222656 850.738281 568.265625 856.484375 613.566406 843.234375 C 629.390625 838.613281 645.675781 832.140625 666.398438 822.277344 C 668.351562 821.34375 670.277344 820.308594 672.171875 819.203125 C 671.804688 849.808594 671.425781 881.191406 671.046875 912.308594 C 666.910156 912.328125 662.769531 912.347656 658.644531 912.316406 C 610.195312 912.0625 564.167969 897.742188 523.558594 885.101562 C 522.777344 884.867188 521.90625 884.558594 520.976562 884.234375 C 515.566406 882.359375 508.847656 880.011719 503.953125 882.675781 C 502.4375 883.503906 500.449219 885.214844 499.609375 888.65625 C 498.882812 891.648438 499.386719 894.660156 501.074219 897.351562 C 505.101562 903.785156 515.691406 908.804688 533.472656 912.6875 C 540.519531 914.230469 547.65625 915.921875 554.5625 917.550781 C 574.378906 922.253906 594.882812 927.105469 615.789062 928.992188 C 634.5 930.671875 652.949219 930.671875 670.851562 929.023438 C 670.433594 963.957031 670.011719 998.292969 669.621094 1030.542969 C 608.957031 1042.488281 554.804688 1043.601562 505.121094 1034.058594 C 502.375 1033.523438 499.507812 1034.148438 497.253906 1035.769531 C 495.105469 1037.292969 493.722656 1039.558594 493.363281 1042.109375 C 492.378906 1049.183594 499.210938 1051.601562 501.464844 1052.390625 C 528.136719 1061.804688 556.855469 1060.953125 581.683594 1059.417969 C 613.363281 1057.460938 642.410156 1053.957031 669.40625 1048.804688 C 668.988281 1083.097656 668.609375 1114.570312 668.292969 1141.203125 C 666.355469 1141.488281 664.410156 1141.753906 662.464844 1142 C 647.777344 1143.84375 632.660156 1144.019531 618.03125 1144.191406 C 601.707031 1144.378906 584.828125 1144.582031 568.253906 1147.070312 C 565.457031 1147.492188 561.21875 1148.136719 558.421875 1151.640625 C 556.78125 1153.699219 556.242188 1156.332031 556.976562 1158.675781 C 558.484375 1163.5 563.585938 1164.074219 565.765625 1164.320312 C 585.832031 1166.574219 625.109375 1169.367188 668.023438 1163.683594 C 667.636719 1195.40625 667.371094 1217.394531 667.289062 1224.839844 Z M 1214.382812 1319.746094 C 1215.714844 1319.746094 1216.953125 1318.90625 1217.394531 1317.566406 C 1217.945312 1315.90625 1217.042969 1314.113281 1215.375 1313.558594 C 1044.070312 1256.796875 997.785156 1261.734375 927.71875 1269.199219 C 879.128906 1274.382812 818.667969 1280.824219 696.335938 1268.953125 C 661.542969 1265.574219 618.554688 1259.859375 578.925781 1245.570312 C 620.675781 1251.183594 662.390625 1250.222656 703.300781 1242.683594 C 746.738281 1234.683594 802.332031 1214.054688 820.523438 1161.277344 C 828.121094 1139.195312 824.117188 1111.589844 804.246094 1103.625 C 801.78125 1102.628906 799.28125 1101.972656 796.761719 1101.59375 C 800.589844 1096.074219 803.789062 1090.289062 806.265625 1084.277344 C 810.863281 1073.109375 813.507812 1057.769531 809.726562 1043.898438 C 820.59375 1035.625 832.160156 1027.214844 846.355469 1017.566406 C 849.867188 1015.171875 855.714844 1011.75 862.476562 1008.289062 C 871.425781 1014.289062 880.828125 1018.671875 889.8125 1019.125 C 896.152344 1019.460938 908.199219 1015.550781 913.429688 1008.460938 C 916.085938 1004.855469 916.730469 1000.863281 915.285156 996.886719 C 913.996094 993.363281 911.320312 990.855469 907.5625 989.636719 C 896.992188 986.234375 877.910156 993.609375 863.019531 1000.964844 C 852.027344 993.046875 841.683594 982.753906 834.136719 975.234375 L 832.90625 974.015625 C 817.082031 958.273438 801.59375 939.898438 784.171875 916.167969 C 779.390625 909.644531 774.75 902.964844 770.265625 896.132812 C 771.050781 895.335938 771.882812 894.464844 772.761719 893.53125 C 780.96875 884.835938 784.019531 873.917969 781.355469 862.785156 C 778.171875 849.480469 767.070312 837.078125 753.273438 831.125 C 753.671875 794.429688 754.195312 739.203125 754.777344 674.40625 L 825.410156 693.613281 C 841.53125 698.007812 858.214844 702.542969 871.980469 712.183594 C 884.210938 720.753906 893.4375 732.820312 903.382812 746.554688 C 918.121094 766.90625 932.042969 788.394531 945.5 809.175781 C 958.363281 829.046875 971.667969 849.59375 985.699219 869.144531 C 1011.164062 904.636719 1049.480469 929.863281 1088.214844 936.640625 C 1156.0625 948.503906 1192.410156 954.863281 1211.820312 958.214844 C 1236.136719 962.421875 1236.136719 962.421875 1237.203125 959.882812 C 1237.785156 958.519531 1237.253906 956.851562 1236.066406 955.980469 C 1235.328125 955.449219 1234.4375 955.273438 1233.605469 955.425781 C 1229.191406 954.84375 1202.921875 950.253906 1089.3125 930.382812 C 1052.171875 923.890625 1015.375 899.617188 990.863281 865.449219 C 976.921875 846.007812 963.660156 825.535156 950.824219 805.726562 C 937.328125 784.871094 923.367188 763.320312 908.523438 742.835938 C 898.230469 728.632812 888.65625 716.125 875.625 706.988281 C 860.949219 696.707031 842.953125 691.808594 827.066406 687.488281 L 754.839844 667.84375 C 756.058594 532.246094 757.523438 356.773438 758.660156 220.746094 C 759.671875 100.304688 760.402344 13.296875 760.511719 7.121094 C 760.535156 5.523438 759.367188 4.148438 757.777344 3.925781 C 686.910156 -6.101562 624.363281 33.15625 561.207031 77.824219 C 506.214844 116.714844 459.050781 147.953125 393.890625 183.503906 C 305.867188 231.53125 200.390625 235.03125 98.386719 238.414062 C 74.480469 239.210938 49.757812 240.03125 26.179688 241.445312 C 25.1875 241.507812 24.273438 242.027344 23.722656 242.859375 C 23.179688 243.6875 23.046875 244.730469 23.371094 245.675781 C 32.847656 272.570312 49.582031 348.546875 51.273438 359.539062 C 61.851562 428.335938 61.054688 503.289062 48.867188 588.679688 C 38.101562 663.992188 1.882812 763.84375 0.347656 768.0625 C -0.0117188 769.035156 0.121094 770.164062 0.71875 771.015625 C 1.371094 771.964844 2.507812 772.46875 3.636719 772.355469 C 21.394531 770.542969 39.554688 769.171875 58.769531 767.714844 C 140.546875 761.53125 233.238281 754.523438 301.902344 708.875 C 322.683594 695.066406 342.8125 680.113281 362.269531 665.660156 C 420.324219 622.53125 475.160156 581.785156 547.492188 567.664062 C 560.46875 565.121094 659.09375 551 675.398438 551.519531 C 675.277344 561.21875 674.824219 598.667969 674.191406 651.351562 C 668.433594 652.539062 662.617188 654.816406 656.667969 658.5625 C 614.058594 685.410156 571.449219 713.574219 530.03125 742.285156 C 515.242188 752.535156 500.417969 763.957031 495.832031 780.878906 C 492.941406 791.46875 494.632812 803.246094 500.183594 813.859375 C 499.035156 815.25 498.003906 816.714844 497.058594 818.25 C 493.136719 824.664062 491.394531 831.882812 489.707031 838.859375 C 488.496094 843.828125 487.359375 848.515625 485.507812 852.941406 C 482.394531 860.359375 477.425781 866.675781 472.160156 873.375 C 469.621094 876.613281 466.988281 879.960938 464.601562 883.421875 C 442.910156 914.910156 441.597656 959.730469 461.40625 992.433594 C 462.0625 993.519531 462.75 994.59375 463.433594 995.679688 C 466.332031 1000.277344 469.066406 1004.632812 470.050781 1009.464844 C 471.496094 1016.6875 468.894531 1024.019531 466.136719 1031.792969 C 465.484375 1033.617188 464.847656 1035.429688 464.253906 1037.234375 C 450.527344 1079.421875 469.496094 1129.167969 507.527344 1151.804688 C 500.316406 1173.886719 509.199219 1200.699219 527.746094 1211.515625 C 575.402344 1239.304688 626.839844 1236.84375 670.863281 1230.769531 C 672.417969 1230.554688 673.578125 1229.234375 673.597656 1227.65625 C 673.660156 1222.8125 673.945312 1198.929688 674.386719 1162.78125 C 698.957031 1159.066406 724.460938 1152.46875 748.019531 1141.324219 C 766.136719 1132.753906 781.234375 1121.167969 792.253906 1107.585938 C 795.550781 1107.679688 798.777344 1108.273438 801.882812 1109.511719 C 819.910156 1116.742188 820.125 1142.921875 814.519531 1159.207031 C 797.335938 1209.097656 743.921875 1228.742188 702.140625 1236.445312 C 653.183594 1245.46875 603.015625 1244.90625 553.023438 1234.777344 C 551.476562 1234.457031 549.898438 1235.359375 549.386719 1236.867188 C 548.875 1238.382812 549.574219 1240.039062 551.007812 1240.746094 C 597.691406 1263.425781 652.867188 1271.105469 695.71875 1275.265625 C 818.710938 1287.207031 879.519531 1280.722656 928.386719 1275.519531 C 997.644531 1268.136719 1043.386719 1263.25 1213.378906 1319.582031 C 1213.714844 1319.695312 1214.054688 1319.746094 1214.382812 1319.746094 " fill-opacity="1" fill-rule="nonzero"/></g></g></g></g></svg>