<svg xmlns="http://www.w3.org/2000/svg" xmlns:xlink="http://www.w3.org/1999/xlink" width="2000" zoomAndPan="magnify" viewBox="0 0 1500 1499.999933" height="2000" preserveAspectRatio="xMidYMid meet" version="1.0"><defs><clipPath id="0886f8028b"><path d="M 39.371094 771 L 107 771 L 107 839 L 39.371094 839 Z M 39.371094 771 " clip-rule="nonzero"/></clipPath><clipPath id="3ffcc58c38"><path d="M 1393 769 L 1460.621094 769 L 1460.621094 837 L 1393 837 Z M 1393 769 " clip-rule="nonzero"/></clipPath><clipPath id="2ee7c7049b"><path d="M 424 621.199219 L 492 621.199219 L 492 689 L 424 689 Z M 424 621.199219 " clip-rule="nonzero"/></clipPath><clipPath id="10c676db54"><path d="M 723 811 L 791 811 L 791 878.449219 L 723 878.449219 Z M 723 811 " clip-rule="nonzero"/></clipPath><clipPath id="a515312c9b"><path d="M 1018 621.199219 L 1087 621.199219 L 1087 689 L 1018 689 Z M 1018 621.199219 " clip-rule="nonzero"/></clipPath></defs><path fill="#d3d360" d="M 73.03125 823.777344 C 83.273438 823.777344 91.582031 815.472656 91.582031 805.226562 C 91.582031 794.980469 83.273438 786.675781 73.03125 786.675781 C 62.785156 786.675781 54.480469 794.980469 54.480469 805.226562 C 54.480469 815.472656 62.785156 823.777344 73.03125 823.777344 Z M 73.03125 823.777344 " fill-opacity="1" fill-rule="nonzero"/><g clip-path="url(#0886f8028b)"><path fill="#d3d360" d="M 73 838.902344 L 73 834.015625 C 76.835938 834.015625 80.53125 833.285156 84.015625 831.84375 L 85.882812 836.363281 C 81.820312 838.039062 77.515625 838.894531 73.085938 838.902344 Z M 60.117188 836.335938 C 56.023438 834.632812 52.351562 832.175781 49.207031 829.027344 L 52.664062 825.570312 C 55.355469 828.265625 58.492188 830.367188 61.992188 831.824219 Z M 96.804688 829.074219 L 93.355469 825.613281 C 96.050781 822.925781 98.15625 819.789062 99.613281 816.292969 L 104.125 818.171875 C 102.421875 822.261719 99.957031 825.929688 96.804688 829.074219 Z M 41.90625 818.109375 C 40.214844 814.023438 39.355469 809.6875 39.355469 805.226562 L 39.355469 805.097656 L 44.242188 805.097656 L 44.242188 805.226562 C 44.242188 809.042969 44.976562 812.746094 46.421875 816.238281 Z M 101.816406 805.289062 L 101.816406 805.226562 C 101.816406 801.433594 101.09375 797.746094 99.660156 794.269531 L 104.179688 792.40625 C 105.855469 796.476562 106.707031 800.789062 106.707031 805.226562 Z M 46.46875 794.105469 L 41.960938 792.21875 C 43.675781 788.128906 46.144531 784.464844 49.304688 781.332031 L 52.746094 784.796875 C 50.046875 787.480469 47.933594 790.613281 46.46875 794.105469 Z M 93.4375 784.921875 C 90.753906 782.222656 87.617188 780.113281 84.125 778.652344 L 86.007812 774.144531 C 90.097656 775.851562 93.761719 778.320312 96.902344 781.476562 Z M 62.101562 778.585938 L 60.242188 774.066406 C 64.304688 772.398438 68.605469 771.550781 73.03125 771.550781 L 73.125 776.4375 L 72.996094 776.4375 C 69.246094 776.4375 65.566406 777.160156 62.101562 778.585938 Z M 62.101562 778.585938 " fill-opacity="1" fill-rule="nonzero"/></g><path fill="#8f8f2d" d="M 1426.890625 821.640625 C 1437.132812 821.640625 1445.441406 813.335938 1445.441406 803.09375 C 1445.441406 792.847656 1437.132812 784.542969 1426.890625 784.542969 C 1416.648438 784.542969 1408.339844 792.847656 1408.339844 803.09375 C 1408.339844 813.335938 1416.648438 821.640625 1426.890625 821.640625 Z M 1426.890625 821.640625 " fill-opacity="1" fill-rule="nonzero"/><g clip-path="url(#3ffcc58c38)"><path fill="#d3d360" d="M 1426.890625 836.765625 L 1426.863281 831.878906 L 1426.890625 831.878906 C 1430.695312 831.878906 1434.386719 831.152344 1437.878906 829.710938 L 1439.746094 834.226562 C 1435.667969 835.914062 1431.339844 836.765625 1426.890625 836.765625 Z M 1413.980469 834.203125 C 1409.882812 832.5 1406.210938 830.039062 1403.070312 826.890625 L 1406.523438 823.4375 C 1409.21875 826.128906 1412.355469 828.234375 1415.855469 829.6875 Z M 1450.671875 826.941406 L 1447.222656 823.480469 C 1449.917969 820.792969 1452.019531 817.65625 1453.476562 814.160156 L 1457.992188 816.039062 C 1456.28125 820.128906 1453.820312 823.796875 1450.671875 826.941406 Z M 1395.769531 815.972656 C 1394.078125 811.886719 1393.21875 807.550781 1393.21875 803.09375 L 1393.21875 802.964844 L 1398.105469 802.964844 L 1398.105469 803.09375 C 1398.105469 806.90625 1398.839844 810.613281 1400.285156 814.105469 Z M 1455.675781 803.15625 L 1455.675781 803.09375 C 1455.675781 799.296875 1454.953125 795.609375 1453.527344 792.136719 L 1458.042969 790.273438 C 1459.710938 794.339844 1460.5625 798.65625 1460.5625 803.09375 Z M 1400.335938 791.972656 L 1395.820312 790.082031 C 1397.539062 785.996094 1400.003906 782.332031 1403.167969 779.195312 L 1406.609375 782.664062 C 1403.914062 785.34375 1401.792969 788.476562 1400.335938 791.972656 Z M 1447.300781 782.789062 C 1444.613281 780.085938 1441.484375 777.980469 1437.984375 776.519531 L 1439.871094 772.007812 C 1443.957031 773.71875 1447.621094 776.183594 1450.757812 779.339844 Z M 1415.964844 776.449219 L 1414.105469 771.929688 C 1418.164062 770.261719 1422.464844 769.417969 1426.890625 769.417969 L 1426.988281 774.304688 L 1426.890625 774.304688 C 1423.109375 774.304688 1419.433594 775.027344 1415.964844 776.449219 Z M 1415.964844 776.449219 " fill-opacity="1" fill-rule="nonzero"/></g><path fill="#919132" d="M 458.121094 673.613281 C 468.367188 673.613281 476.671875 665.308594 476.671875 655.066406 C 476.671875 644.820312 468.367188 636.515625 458.121094 636.515625 C 447.875 636.515625 439.570312 644.820312 439.570312 655.066406 C 439.570312 665.308594 447.875 673.613281 458.121094 673.613281 Z M 458.121094 673.613281 " fill-opacity="1" fill-rule="nonzero"/><g clip-path="url(#2ee7c7049b)"><path fill="#d3d360" d="M 458.121094 688.738281 L 458.089844 683.851562 L 458.121094 683.851562 C 461.925781 683.851562 465.621094 683.121094 469.105469 681.683594 L 470.972656 686.199219 C 466.894531 687.886719 462.570312 688.738281 458.121094 688.738281 Z M 445.207031 686.175781 C 441.113281 684.472656 437.445312 682.011719 434.296875 678.863281 L 437.753906 675.410156 C 440.445312 678.105469 443.585938 680.207031 447.082031 681.660156 Z M 481.894531 678.914062 L 478.445312 675.453125 C 481.144531 672.765625 483.25 669.628906 484.707031 666.132812 L 489.214844 668.011719 C 487.511719 672.101562 485.046875 675.769531 481.894531 678.914062 Z M 427 667.949219 C 425.304688 663.859375 424.445312 659.527344 424.445312 655.066406 L 424.445312 654.9375 L 429.332031 654.9375 L 429.332031 655.066406 C 429.332031 658.878906 430.066406 662.585938 431.515625 666.078125 Z M 486.910156 655.128906 L 486.910156 655.066406 C 486.910156 651.269531 486.183594 647.585938 484.75 644.109375 L 489.269531 642.246094 C 490.945312 646.316406 491.796875 650.628906 491.796875 655.066406 Z M 431.558594 643.945312 L 427.050781 642.054688 C 428.765625 637.96875 431.234375 634.304688 434.394531 631.167969 L 437.835938 634.636719 C 435.136719 637.320312 433.023438 640.449219 431.558594 643.945312 Z M 478.527344 634.761719 C 475.84375 632.0625 472.710938 629.953125 469.214844 628.492188 L 471.097656 623.980469 C 475.1875 625.691406 478.855469 628.15625 481.992188 631.3125 Z M 447.191406 628.421875 L 445.335938 623.902344 C 449.394531 622.234375 453.695312 621.390625 458.121094 621.390625 L 458.21875 626.277344 L 458.085938 626.277344 C 454.335938 626.277344 450.660156 627 447.191406 628.421875 Z M 447.191406 628.421875 " fill-opacity="1" fill-rule="nonzero"/></g><path fill="#919132" d="M 757.3125 863.402344 C 767.558594 863.402344 775.859375 855.097656 775.859375 844.851562 C 775.859375 834.605469 767.558594 826.300781 757.3125 826.300781 C 747.066406 826.300781 738.761719 834.605469 738.761719 844.851562 C 738.761719 855.097656 747.066406 863.402344 757.3125 863.402344 Z M 757.3125 863.402344 " fill-opacity="1" fill-rule="nonzero"/><g clip-path="url(#10c676db54)"><path fill="#d3d360" d="M 757.3125 878.527344 L 757.28125 873.640625 L 757.3125 873.640625 C 761.117188 873.640625 764.8125 872.910156 768.292969 871.46875 L 770.164062 875.988281 C 766.082031 877.671875 761.757812 878.527344 757.3125 878.527344 Z M 744.398438 875.960938 C 740.304688 874.261719 736.632812 871.800781 733.488281 868.652344 L 736.945312 865.199219 C 739.636719 867.890625 742.773438 869.992188 746.273438 871.449219 Z M 781.085938 868.699219 L 777.636719 865.238281 C 780.335938 862.550781 782.441406 859.414062 783.898438 855.917969 L 788.40625 857.796875 C 786.703125 861.890625 784.238281 865.558594 781.085938 868.699219 Z M 726.1875 857.734375 C 724.496094 853.648438 723.636719 849.3125 723.636719 844.851562 L 723.636719 844.722656 L 728.523438 844.722656 L 728.523438 844.878906 C 728.523438 848.667969 729.257812 852.371094 730.703125 855.863281 Z M 786.097656 844.917969 L 786.097656 844.851562 C 786.097656 841.058594 785.371094 837.371094 783.941406 833.894531 L 788.460938 832.03125 C 790.136719 836.101562 790.984375 840.414062 790.984375 844.851562 Z M 730.75 833.730469 L 726.242188 831.84375 C 727.957031 827.753906 730.425781 824.089844 733.585938 820.957031 L 737.027344 824.421875 C 734.328125 827.105469 732.214844 830.238281 730.75 833.730469 Z M 777.71875 824.546875 C 775.03125 821.847656 771.898438 819.738281 768.40625 818.277344 L 770.289062 813.769531 C 774.378906 815.476562 778.042969 817.945312 781.183594 821.101562 Z M 746.382812 818.210938 L 744.527344 813.6875 C 748.585938 812.023438 752.886719 811.175781 757.3125 811.175781 L 757.410156 816.0625 L 757.3125 816.0625 C 753.527344 816.0625 749.851562 816.785156 746.382812 818.210938 Z M 746.382812 818.210938 " fill-opacity="1" fill-rule="nonzero"/></g><path fill="#919132" d="M 1052.367188 673.613281 C 1062.609375 673.613281 1070.917969 665.308594 1070.917969 655.066406 C 1070.917969 644.820312 1062.609375 636.515625 1052.367188 636.515625 C 1042.125 636.515625 1033.816406 644.820312 1033.816406 655.066406 C 1033.816406 665.308594 1042.125 673.613281 1052.367188 673.613281 Z M 1052.367188 673.613281 " fill-opacity="1" fill-rule="nonzero"/><g clip-path="url(#a515312c9b)"><path fill="#d3d360" d="M 1052.367188 688.738281 L 1052.339844 683.851562 L 1052.367188 683.851562 C 1056.167969 683.851562 1059.875 683.121094 1063.355469 681.683594 L 1065.21875 686.199219 C 1061.144531 687.886719 1056.816406 688.738281 1052.367188 688.738281 Z M 1039.457031 686.175781 C 1035.359375 684.472656 1031.695312 682.011719 1028.546875 678.863281 L 1032 675.410156 C 1034.695312 678.105469 1037.832031 680.207031 1041.332031 681.660156 Z M 1076.148438 678.914062 L 1072.699219 675.453125 C 1075.386719 672.761719 1077.496094 669.628906 1078.953125 666.132812 L 1083.460938 668.011719 C 1081.757812 672.101562 1079.296875 675.769531 1076.148438 678.914062 Z M 1021.246094 667.945312 C 1019.554688 663.859375 1018.695312 659.523438 1018.695312 655.066406 L 1018.695312 654.9375 L 1023.582031 654.9375 L 1023.582031 655.066406 C 1023.582031 658.878906 1024.316406 662.585938 1025.761719 666.078125 Z M 1081.152344 655.128906 L 1081.152344 655.066406 C 1081.152344 651.269531 1080.429688 647.582031 1079.003906 644.109375 L 1083.519531 642.246094 C 1085.1875 646.3125 1086.039062 650.628906 1086.039062 655.066406 Z M 1025.8125 643.945312 L 1021.296875 642.054688 C 1023.015625 637.96875 1025.480469 634.304688 1028.644531 631.167969 L 1032.085938 634.636719 C 1029.378906 637.320312 1027.269531 640.449219 1025.8125 643.945312 Z M 1072.777344 634.761719 C 1070.089844 632.0625 1066.960938 629.953125 1063.460938 628.492188 L 1065.347656 623.980469 C 1069.433594 625.691406 1073.097656 628.15625 1076.246094 631.3125 Z M 1041.441406 628.421875 L 1039.582031 623.902344 C 1043.640625 622.234375 1047.941406 621.390625 1052.367188 621.390625 L 1052.464844 626.277344 L 1052.367188 626.277344 C 1048.585938 626.277344 1044.910156 627 1041.441406 628.421875 Z M 1041.441406 628.421875 " fill-opacity="1" fill-rule="nonzero"/></g><path fill="#d3d360" d="M 164.722656 845.617188 C 140.675781 845.617188 116.863281 839.066406 96.3125 826.613281 L 98.847656 822.433594 C 122.980469 837.058594 151.789062 843.230469 179.980469 839.808594 C 209.027344 836.285156 235.191406 823.3125 255.644531 802.292969 L 362.417969 692.546875 C 379.976562 674.496094 402.144531 661.921875 426.523438 656.179688 L 427.644531 660.9375 C 404.171875 666.464844 382.828125 678.574219 365.921875 695.957031 L 259.148438 805.699219 C 238.210938 827.21875 210.304688 841.054688 180.566406 844.660156 C 175.296875 845.300781 170 845.617188 164.722656 845.617188 Z M 164.722656 845.617188 " fill-opacity="1" fill-rule="nonzero"/><path fill="#d3d360" d="M 788.878906 843.164062 L 787.671875 838.425781 C 809.835938 832.78125 830.125 821.148438 846.347656 804.785156 L 955.855469 694.273438 C 973.796875 676.167969 996.363281 663.730469 1021.121094 658.300781 L 1022.164062 663.074219 C 998.332031 668.300781 976.601562 680.28125 959.328125 697.710938 L 849.816406 808.226562 C 832.972656 825.21875 811.902344 837.296875 788.878906 843.164062 Z M 788.878906 843.164062 " fill-opacity="1" fill-rule="nonzero"/><path fill="#d3d360" d="M 1334.820312 843.863281 C 1329.316406 843.863281 1323.8125 843.523438 1318.320312 842.828125 C 1288.15625 839.027344 1260.019531 824.742188 1239.074219 802.605469 L 1141.867188 699.839844 C 1125.585938 682.636719 1104.953125 670.359375 1082.199219 664.339844 L 1083.449219 659.617188 C 1107.082031 665.867188 1128.507812 678.617188 1145.417969 696.484375 L 1242.621094 799.246094 C 1262.792969 820.5625 1289.886719 834.320312 1318.9375 837.980469 C 1347.527344 841.589844 1376.710938 835.339844 1401.136719 820.394531 L 1403.6875 824.5625 C 1383.015625 837.214844 1359.050781 843.863281 1334.820312 843.863281 Z M 1334.820312 843.863281 " fill-opacity="1" fill-rule="nonzero"/><path fill="#d3d360" d="M 725.707031 843.761719 C 702.335938 838.261719 680.878906 826.410156 663.652344 809.484375 L 546.003906 693.925781 C 529.992188 678.191406 510.101562 666.96875 488.488281 661.472656 L 489.691406 656.738281 C 512.144531 662.445312 532.800781 674.097656 549.429688 690.4375 L 667.078125 805.996094 C 683.664062 822.296875 704.328125 833.707031 726.828125 839.003906 Z M 725.707031 843.761719 " fill-opacity="1" fill-rule="nonzero"/></svg>