<svg xmlns="http://www.w3.org/2000/svg" xmlns:xlink="http://www.w3.org/1999/xlink" width="2000" zoomAndPan="magnify" viewBox="0 0 1500 1499.999933" height="2000" preserveAspectRatio="xMidYMid meet" version="1.0"><defs><clipPath id="508e9b8256"><path d="M 26 1067.320312 L 1474 1067.320312 L 1474 1422.820312 L 26 1422.820312 Z M 26 1067.320312 " clip-rule="nonzero"/></clipPath></defs><g clip-path="url(#508e9b8256)"><path fill="#161616" d="M 732.835938 1175.984375 C 732.726562 1176.066406 732.707031 1176.21875 732.785156 1176.324219 C 732.84375 1176.398438 732.929688 1176.433594 733.023438 1176.421875 C 753.542969 1171.484375 774.089844 1170.621094 794.125 1175.320312 C 799.070312 1176.476562 805.496094 1178.882812 810.25 1181.753906 C 826.566406 1191.605469 829.972656 1209.171875 831.007812 1227.128906 C 831.429688 1234.378906 831.804688 1242.828125 832.132812 1252.472656 C 832.144531 1252.972656 832.566406 1253.363281 833.058594 1253.351562 C 833.136719 1253.351562 833.210938 1253.335938 833.28125 1253.3125 C 836.421875 1252.378906 839.449219 1251.070312 842.34375 1249.371094 C 849.695312 1245.054688 849.726562 1236.820312 845.789062 1229.898438 C 843.183594 1225.320312 839.492188 1221.070312 837.429688 1216.140625 C 832.660156 1204.71875 832.652344 1193.542969 837.398438 1182.621094 C 842.148438 1171.695312 850.5 1165.304688 862.464844 1163.4375 C 881.375 1160.496094 897.683594 1171.773438 900.714844 1190.640625 C 903.648438 1208.902344 896.054688 1235.863281 873.34375 1236.550781 C 870.902344 1236.625 868.371094 1236.582031 865.742188 1236.4375 C 864.214844 1236.347656 862.898438 1237.5 862.761719 1239.027344 C 861.964844 1247.964844 869.746094 1253.652344 878.011719 1255.03125 C 884.554688 1256.109375 893.101562 1256.730469 899.109375 1258.800781 C 911.035156 1262.898438 919.359375 1271.261719 924.066406 1283.90625 C 924.1875 1284.234375 924.519531 1284.421875 924.855469 1284.355469 C 931.902344 1283.191406 939.222656 1282.648438 946.796875 1282.726562 C 947.140625 1282.734375 947.472656 1282.664062 947.78125 1282.519531 C 952.4375 1280.363281 954.371094 1276.757812 953.582031 1271.710938 C 953.304688 1270.003906 952.71875 1268.933594 951.808594 1268.492188 C 943.894531 1264.671875 938.027344 1259.503906 934.199219 1252.996094 C 926.164062 1239.300781 927.207031 1221.671875 937.933594 1209.828125 C 945.972656 1200.933594 958.34375 1198.207031 970.21875 1200.558594 C 984.269531 1203.335938 994.097656 1213.859375 997.238281 1227.945312 C 999.316406 1237.269531 997.859375 1248.21875 992.792969 1256.316406 C 987.082031 1265.464844 978.136719 1270.410156 965.957031 1271.140625 C 965.660156 1271.164062 965.386719 1271.300781 965.191406 1271.53125 L 956.636719 1281.882812 C 956.453125 1282.089844 956.484375 1282.410156 956.691406 1282.589844 C 956.78125 1282.664062 956.878906 1282.707031 956.988281 1282.707031 C 971.34375 1283.691406 985.960938 1285.429688 999.222656 1289.667969 C 1013.609375 1294.265625 1018.25 1302.792969 1020.441406 1317.128906 C 1021.925781 1326.769531 1023.53125 1335.289062 1025.25 1342.699219 C 1026.203125 1346.78125 1027.6875 1350.894531 1029.714844 1355.039062 C 1035.265625 1366.390625 1046.816406 1371.46875 1058.746094 1377.492188 C 1066.273438 1381.304688 1075.074219 1388.277344 1072.910156 1397.546875 C 1072.820312 1397.917969 1073.039062 1398.285156 1073.402344 1398.402344 C 1084.011719 1401.535156 1094.515625 1402.890625 1104.894531 1402.460938 C 1124.136719 1401.664062 1142.304688 1393.8125 1164.183594 1385.613281 C 1171.355469 1382.925781 1180.449219 1380.207031 1191.457031 1377.457031 C 1215.636719 1371.417969 1241.164062 1370.773438 1265.035156 1378.042969 C 1281.464844 1383.050781 1299.363281 1391.292969 1313.839844 1396.730469 C 1334.359375 1404.421875 1357.214844 1409.9375 1380.457031 1413.035156 C 1410.949219 1417.109375 1441.5625 1418.109375 1472.300781 1416.027344 C 1473.078125 1415.976562 1473.75 1416.554688 1473.800781 1417.328125 C 1473.808594 1417.414062 1473.808594 1417.496094 1473.792969 1417.582031 L 1473.75 1417.980469 C 1473.675781 1418.59375 1473.179688 1419.078125 1472.554688 1419.136719 C 1450.667969 1420.882812 1425.664062 1420.519531 1397.550781 1418.046875 C 1369.734375 1415.589844 1344.222656 1410.417969 1321.003906 1402.503906 C 1306.609375 1397.613281 1289.0625 1390.203125 1275.53125 1384.84375 C 1253.410156 1376.085938 1230.480469 1373.632812 1206.75 1377.476562 C 1184.289062 1381.109375 1166.03125 1388.136719 1142.101562 1397.089844 C 1128.359375 1402.238281 1112.542969 1406.082031 1098.160156 1405.546875 C 1089.390625 1405.226562 1080.558594 1403.65625 1071.671875 1400.839844 C 1071.339844 1400.738281 1070.96875 1400.820312 1070.710938 1401.058594 C 1067.097656 1404.417969 1063.382812 1406.421875 1059.570312 1407.066406 C 1043.496094 1409.792969 1018.503906 1406.78125 1008.339844 1391.835938 C 1008.203125 1391.648438 1007.941406 1391.597656 1007.761719 1391.726562 C 1007.660156 1391.800781 1007.597656 1391.910156 1007.589844 1392.03125 C 1007.242188 1396.019531 1005.488281 1406.964844 1001.269531 1407.925781 C 1000.019531 1408.214844 998.699219 1407.59375 998.050781 1406.414062 C 995.089844 1401.085938 995.269531 1392.742188 995.726562 1385.894531 C 996.679688 1371.542969 998.554688 1357.210938 1001.335938 1342.910156 C 1001.507812 1342.027344 1001.847656 1341.367188 1002.355469 1340.925781 C 1002.976562 1340.390625 1003.910156 1340.464844 1004.441406 1341.085938 C 1004.636719 1341.308594 1004.757812 1341.59375 1004.789062 1341.890625 C 1004.890625 1342.78125 1004.925781 1343.582031 1004.910156 1344.308594 C 1004.910156 1344.496094 1005.0625 1344.652344 1005.25 1344.652344 C 1005.316406 1344.652344 1005.386719 1344.632812 1005.445312 1344.597656 C 1009.21875 1342.144531 1012.070312 1346.195312 1013.34375 1348.886719 C 1015.976562 1354.460938 1018.480469 1359.382812 1020.871094 1363.660156 C 1024.828125 1370.753906 1030.351562 1376.695312 1037.414062 1381.5 C 1047.050781 1388.050781 1057.527344 1393.148438 1068.863281 1396.789062 C 1069.382812 1396.953125 1069.941406 1396.671875 1070.109375 1396.15625 C 1070.136719 1396.078125 1070.152344 1396 1070.152344 1395.917969 C 1070.695312 1387.929688 1062.4375 1382.753906 1056.378906 1379.664062 C 1042.800781 1372.75 1032.523438 1368.066406 1026.683594 1355.742188 C 1021.203125 1344.140625 1019.75 1331.445312 1017.453125 1317.402344 C 1015.898438 1307.953125 1013.445312 1299.332031 1004.179688 1294.972656 C 1000.011719 1293.011719 995.574219 1291.507812 990.875 1290.457031 C 978.871094 1287.789062 966.898438 1286.253906 954.964844 1285.871094 C 954.59375 1285.855469 954.238281 1286.035156 954.03125 1286.339844 C 951.054688 1290.617188 946.734375 1293.9375 941.074219 1296.3125 C 934.089844 1299.230469 930.035156 1300.800781 928.914062 1301.019531 C 928.523438 1301.089844 928.261719 1301.460938 928.328125 1301.851562 C 928.675781 1304.136719 929.144531 1308.203125 929.125 1311.058594 C 929 1339.015625 922.082031 1368.328125 912.976562 1394.5 C 912.679688 1395.347656 912.230469 1396.289062 911.625 1397.324219 C 911.101562 1398.191406 909.980469 1398.46875 909.117188 1397.953125 C 908.65625 1397.679688 908.335938 1397.207031 908.257812 1396.679688 C 908.003906 1395.027344 907.9375 1392.828125 908.070312 1390.070312 C 908.816406 1374.207031 910.523438 1354.945312 913.214844 1332.285156 C 913.644531 1328.714844 913.714844 1325.214844 913.433594 1321.78125 C 913.324219 1320.4375 912.304688 1319.386719 911.082031 1319.378906 C 905.628906 1319.335938 902.722656 1326.625 901.417969 1331.097656 C 900.910156 1332.8125 900.855469 1335.222656 901.238281 1338.320312 C 903.566406 1356.953125 902.519531 1375.152344 898.089844 1392.929688 C 897.445312 1395.527344 896.570312 1397.773438 895.453125 1399.660156 C 894.898438 1400.609375 893.703125 1400.957031 892.777344 1400.421875 C 892.667969 1400.355469 892.558594 1400.285156 892.464844 1400.195312 C 891.914062 1399.691406 891.617188 1398.851562 891.582031 1397.664062 C 891.421875 1391.878906 891.769531 1385.324219 892.632812 1378 C 894.050781 1365.898438 895.289062 1354.035156 896.328125 1342.425781 C 896.648438 1338.949219 897.589844 1335.789062 897.9375 1332.640625 C 898.03125 1331.785156 897.988281 1330.917969 897.800781 1330.078125 C 896.367188 1323.535156 895.960938 1316.714844 896.582031 1309.628906 C 896.613281 1309.3125 896.378906 1309.03125 896.0625 1309 C 896.011719 1308.992188 895.953125 1309 895.902344 1309.007812 L 883.15625 1311.410156 C 882.898438 1311.460938 882.722656 1311.714844 882.773438 1311.976562 C 882.773438 1311.992188 882.78125 1312.011719 882.789062 1312.027344 C 885.675781 1320.804688 878.113281 1324.207031 870.65625 1323.933594 C 860.988281 1323.578125 849.3125 1317.976562 841.257812 1313.316406 C 840.757812 1313.023438 840.203125 1312.851562 839.621094 1312.800781 C 829.929688 1311.941406 826.652344 1315.175781 825.71875 1324.496094 C 824.566406 1336.003906 823.648438 1345.3125 822.945312 1352.421875 C 822.890625 1353.007812 822.917969 1353.59375 823.035156 1354.171875 C 824.269531 1360.789062 825.355469 1368.082031 826.277344 1376.066406 C 827.507812 1386.710938 827.875 1400.109375 822.554688 1409.511719 C 821 1412.253906 818.980469 1412.6875 816.484375 1410.800781 C 813.074219 1408.214844 810.199219 1392.371094 809.117188 1386.625 C 804.316406 1361.375 800.683594 1335.519531 800.285156 1310.425781 C 800.257812 1308.394531 799.785156 1304.984375 798.867188 1300.199219 C 796.457031 1287.636719 796.042969 1274.621094 797.613281 1261.160156 C 798.199219 1256.128906 799.367188 1248.820312 802.441406 1244.417969 C 804.027344 1242.175781 806.515625 1242.921875 807.863281 1244.847656 C 810.839844 1249.117188 813.039062 1256.347656 814.382812 1261.523438 C 814.449219 1261.761719 814.6875 1261.90625 814.925781 1261.847656 C 814.976562 1261.832031 815.019531 1261.8125 815.066406 1261.78125 C 819.40625 1258.851562 824.011719 1256.628906 828.875 1255.125 C 829.15625 1255.035156 829.351562 1254.761719 829.335938 1254.464844 C 828.96875 1246.15625 828.597656 1238.332031 828.246094 1230.984375 C 827.261719 1211.039062 824.609375 1190.496094 803.296875 1181.632812 C 785.085938 1174.0625 763.605469 1173.691406 744.402344 1177.050781 C 737.789062 1178.214844 733.207031 1179.140625 730.664062 1179.828125 C 720.070312 1182.71875 709.554688 1189.265625 705.535156 1199.601562 C 703.972656 1203.621094 702.964844 1208.390625 702.503906 1213.910156 C 702.113281 1218.617188 701.621094 1225.832031 701.035156 1235.550781 C 700.695312 1241.207031 699.542969 1248.203125 697.582031 1256.542969 C 697.503906 1256.875 697.648438 1257.214844 697.9375 1257.382812 C 709.957031 1264.417969 712.960938 1277.625 713.589844 1290.601562 C 714.222656 1303.839844 713.636719 1318.511719 711.839844 1334.621094 C 709.074219 1359.246094 707.019531 1377.414062 701.84375 1398.316406 C 700.757812 1402.6875 699.472656 1406.644531 697.980469 1410.214844 C 696.328125 1414.152344 692.507812 1418.152344 688.679688 1413.246094 C 687.171875 1411.335938 686.066406 1409.042969 685.363281 1406.371094 C 682.519531 1395.710938 682.402344 1384.035156 682.992188 1372.945312 C 683.96875 1354.28125 685.058594 1339.898438 684.207031 1323.101562 C 684.023438 1319.625 683.230469 1309.753906 680.847656 1307.242188 C 679.898438 1306.238281 678.371094 1306.035156 677.191406 1306.773438 C 657.441406 1319.054688 636.800781 1332.464844 612.125 1326.589844 C 611.8125 1326.507812 611.503906 1326.703125 611.421875 1327.023438 C 611.417969 1327.042969 611.417969 1327.074219 611.410156 1327.09375 L 609.96875 1339.585938 C 609.925781 1339.964844 609.953125 1340.347656 610.054688 1340.722656 C 610.527344 1342.585938 611.800781 1345.414062 612.34375 1347.753906 C 616.417969 1365.015625 618.414062 1382.625 618.328125 1400.566406 C 618.328125 1401.738281 618.183594 1403.085938 617.886719 1404.597656 C 617.664062 1405.710938 617.15625 1406.386719 616.367188 1406.617188 C 615.40625 1406.898438 614.375 1406.421875 613.949219 1405.496094 C 613.457031 1404.417969 613.109375 1403.402344 612.90625 1402.449219 C 608.339844 1381.71875 605.105469 1360.628906 607.277344 1340.066406 C 607.386719 1339.066406 607.238281 1338.0625 606.847656 1337.132812 C 604.496094 1331.621094 602.746094 1324.28125 594.988281 1321.90625 C 594.523438 1321.761719 594.015625 1321.914062 593.710938 1322.296875 C 589.023438 1328.210938 591.621094 1342.605469 593.125 1349.851562 C 596.542969 1366.28125 599.421875 1381.175781 598.394531 1396.605469 C 598.332031 1397.605469 598.078125 1398.285156 597.644531 1398.632812 C 596.96875 1399.160156 595.992188 1399.03125 595.464844 1398.335938 C 595.339844 1398.175781 595.246094 1397.988281 595.1875 1397.792969 C 591.945312 1386.515625 588.617188 1374.316406 585.203125 1361.191406 C 581.265625 1346.058594 578.441406 1328.628906 580.5625 1312.976562 C 580.597656 1312.714844 580.480469 1312.453125 580.265625 1312.316406 L 563.9375 1301.257812 C 563.15625 1300.726562 562.324219 1300.28125 561.445312 1299.933594 C 550.851562 1295.734375 536.355469 1291.6875 525.171875 1294.691406 C 508.140625 1299.273438 498.132812 1314.074219 495.800781 1330.875 C 494.410156 1340.96875 493.117188 1348.511719 491.929688 1353.5 C 488.128906 1369.5 476.460938 1379.285156 461.832031 1385.640625 C 452.691406 1389.601562 443.355469 1392.121094 433.832031 1393.183594 C 433.585938 1393.210938 433.402344 1393.429688 433.425781 1393.675781 C 433.433594 1393.742188 433.453125 1393.796875 433.484375 1393.847656 C 437.007812 1400.050781 447.34375 1401.007812 453.953125 1400.601562 C 464.273438 1399.957031 474.6875 1397.679688 485.199219 1393.769531 C 488.597656 1392.511719 496.410156 1388.972656 497.871094 1385.382812 C 497.941406 1385.199219 497.972656 1385.003906 497.957031 1384.800781 C 497.046875 1373.292969 496.921875 1361.835938 497.589844 1350.4375 C 497.9375 1344.464844 498.789062 1338.8125 500.152344 1333.472656 C 500.449219 1332.300781 501.648438 1331.554688 502.929688 1331.726562 C 503.921875 1331.871094 504.667969 1332.472656 505.160156 1333.523438 C 509.769531 1343.351562 511.875 1353.757812 511.46875 1364.738281 C 511.261719 1370.535156 508.074219 1384.5625 501.171875 1385.988281 C 500.839844 1386.054688 500.546875 1386.265625 500.375 1386.554688 C 499.015625 1388.820312 498.117188 1390.128906 497.667969 1390.484375 C 494.402344 1393.007812 491.152344 1394.921875 487.90625 1396.207031 C 478.589844 1399.898438 468.441406 1402.339844 457.460938 1403.527344 C 447.582031 1404.597656 435.664062 1403.613281 430.015625 1394.433594 C 429.800781 1394.089844 429.402344 1393.878906 428.988281 1393.898438 C 414.316406 1394.523438 399.804688 1392.429688 385.453125 1387.632812 C 363.886719 1380.414062 342.402344 1370.949219 322.882812 1364.152344 C 301.726562 1356.792969 279.71875 1357.394531 257.425781 1362.871094 C 237.890625 1367.675781 219.21875 1375.539062 201.421875 1386.4375 C 188.769531 1394.183594 182.101562 1398.257812 181.40625 1398.667969 C 164.957031 1408.433594 146.679688 1414.851562 126.574219 1417.929688 C 109.632812 1420.519531 89.953125 1422.019531 67.523438 1422.425781 C 49.703125 1422.742188 36.421875 1422.71875 27.691406 1422.359375 C 26.894531 1422.328125 26.265625 1421.65625 26.296875 1420.859375 C 26.296875 1420.824219 26.304688 1420.78125 26.304688 1420.746094 L 26.347656 1420.417969 C 26.410156 1419.824219 26.917969 1419.375 27.519531 1419.375 C 54.246094 1419.816406 78.515625 1419.324219 100.332031 1417.90625 C 126.949219 1416.183594 152.042969 1411.148438 175.640625 1398.460938 C 179.140625 1396.578125 186.105469 1392.351562 196.542969 1385.773438 C 224.609375 1368.113281 258.222656 1355.417969 291.183594 1355.648438 C 305.222656 1355.757812 318.460938 1359.007812 333.304688 1364.71875 C 342.316406 1368.183594 351.683594 1371.859375 361.417969 1375.753906 C 384.007812 1384.792969 404.902344 1392.011719 428.148438 1390.773438 C 428.476562 1390.757812 428.722656 1390.484375 428.707031 1390.15625 C 428.707031 1390.152344 428.707031 1390.144531 428.707031 1390.136719 C 428.570312 1388.535156 428.503906 1386.320312 429.0625 1384.773438 C 431.863281 1376.875 440.46875 1371.703125 447.699219 1368.351562 C 455.921875 1364.542969 461.644531 1361.777344 464.867188 1360.054688 C 480.328125 1351.804688 481.703125 1334.6875 484.945312 1318.988281 C 487.050781 1308.835938 492.101562 1301.175781 500.105469 1296.023438 C 506.265625 1292.066406 512.902344 1289.34375 520.019531 1287.867188 C 530.765625 1285.628906 536.6875 1284.398438 537.792969 1284.160156 C 539.082031 1283.878906 540.046875 1282.800781 540.167969 1281.484375 C 540.5 1277.988281 537.519531 1272.839844 535.898438 1269.699219 C 535.722656 1269.367188 535.398438 1269.136719 535.03125 1269.078125 C 520.714844 1266.898438 511.464844 1259.046875 507.265625 1245.511719 C 505.457031 1239.683594 505.230469 1233.496094 506.570312 1226.941406 C 510.289062 1208.792969 526.207031 1198.140625 544.472656 1200.925781 C 552.949219 1202.230469 558.21875 1205.964844 564.199219 1211.574219 C 578.382812 1224.871094 575.734375 1249.890625 561.707031 1262.332031 C 561.128906 1262.851562 558.980469 1264.277344 555.257812 1266.625 C 554.917969 1266.847656 554.621094 1267.125 554.375 1267.457031 C 552.082031 1270.589844 550.765625 1273.167969 550.4375 1275.1875 C 549.105469 1283.199219 558.640625 1284.25 564.480469 1284.71875 C 572.457031 1285.355469 579.730469 1286.332031 586.308594 1287.65625 C 586.734375 1287.742188 587.164062 1287.527344 587.335938 1287.128906 C 590.875 1279.144531 595.492188 1272.492188 602.867188 1268.347656 C 611.71875 1263.359375 618.242188 1261.933594 632.566406 1257.113281 C 640.085938 1254.59375 649.015625 1245.699219 643.464844 1237.332031 C 642.726562 1236.21875 641.4375 1235.601562 640.105469 1235.71875 C 638.773438 1235.828125 636.921875 1236.015625 634.554688 1236.261719 C 615.339844 1238.289062 604.96875 1217.210938 605.15625 1201.363281 C 605.328125 1187.253906 611.148438 1176.796875 622.621094 1169.984375 C 635.34375 1162.421875 651 1163.226562 662.472656 1173.039062 C 675.816406 1184.460938 675.1875 1202.894531 667.199219 1217.183594 C 666.5625 1218.328125 663.628906 1223.167969 658.410156 1231.722656 C 654.957031 1237.382812 653.410156 1247.199219 661.828125 1249.679688 C 665.691406 1250.816406 670.085938 1251.503906 675.015625 1251.75 C 675.644531 1251.78125 676.214844 1251.367188 676.382812 1250.75 C 680.007812 1237.027344 681.933594 1222.65625 684.859375 1208.78125 C 687.960938 1193.984375 696.589844 1183.644531 710.71875 1177.746094 C 720.027344 1173.859375 727.988281 1170.914062 734.589844 1168.894531 C 738.886719 1167.589844 741.882812 1166.359375 743.585938 1165.207031 C 747.40625 1162.617188 751.070312 1158.167969 750.683594 1153.492188 C 750.605469 1152.46875 749.75 1151.675781 748.722656 1151.667969 C 741.796875 1151.582031 735.726562 1149.183594 730.492188 1144.472656 C 713.539062 1129.214844 709.472656 1105.945312 720.632812 1085.753906 C 724.941406 1077.964844 732.722656 1071.335938 741.507812 1068.796875 C 757.9375 1064.046875 774.445312 1071.355469 784.652344 1084.585938 C 793.242188 1095.71875 795.488281 1108.269531 791.390625 1122.253906 C 787.132812 1136.742188 777.878906 1147.648438 765.277344 1156.945312 C 762.433594 1159.027344 757.472656 1161.835938 750.386719 1165.367188 C 745.675781 1167.734375 739.851562 1171.253906 732.835938 1175.984375 Z M 751.921875 1160.648438 C 751.828125 1160.808594 751.878906 1161.019531 752.046875 1161.113281 C 752.148438 1161.171875 752.269531 1161.175781 752.371094 1161.125 C 761.867188 1156.300781 769.957031 1150.15625 776.625 1142.707031 C 781.878906 1136.828125 785.699219 1130.164062 788.082031 1122.714844 C 792.597656 1108.539062 790.304688 1096.03125 781.191406 1085.1875 C 770.777344 1072.8125 754.433594 1066.433594 739.097656 1072.933594 C 730.671875 1076.503906 723.890625 1084.09375 720.574219 1092.449219 C 715.066406 1106.285156 716.195312 1119.515625 723.957031 1132.125 C 729.644531 1141.375 737.519531 1148.230469 748.578125 1148.757812 C 755.339844 1149.070312 754.363281 1156.71875 751.921875 1160.648438 Z M 920.726562 1285.441406 C 920.960938 1285.40625 921.117188 1285.195312 921.082031 1284.964844 C 921.074219 1284.9375 921.074219 1284.90625 921.0625 1284.886719 C 915.820312 1270.378906 905.472656 1262.019531 890.027344 1259.8125 C 878.421875 1258.140625 866.808594 1258.328125 861.125 1246.488281 C 859.046875 1242.152344 858.585938 1233.765625 865.25 1233.46875 C 865.691406 1233.445312 867.964844 1233.484375 872.070312 1233.578125 C 876.925781 1233.683594 881.566406 1232.128906 885.980469 1228.894531 C 896.324219 1221.316406 899.449219 1205.445312 898.066406 1193.246094 C 896.765625 1181.789062 891.335938 1173.683594 881.765625 1168.929688 C 876.058594 1166.09375 868.449219 1165.230469 862.363281 1166.460938 C 849.703125 1169 841.691406 1176.550781 838.320312 1189.109375 C 835.351562 1200.144531 836.851562 1210.320312 842.820312 1219.621094 C 847.597656 1227.078125 852.597656 1233.113281 851.246094 1241.632812 C 850.535156 1246.097656 848.046875 1249.578125 843.785156 1252.070312 C 840.136719 1254.191406 836.507812 1255.710938 832.90625 1256.636719 C 832.601562 1256.714844 832.40625 1256.996094 832.433594 1257.308594 C 833.605469 1271.410156 835.742188 1284.023438 849.609375 1291.007812 C 850.476562 1291.449219 857.160156 1294.664062 869.644531 1300.65625 C 873.855469 1302.683594 877.527344 1305.273438 880.636719 1308.445312 C 880.847656 1308.660156 881.160156 1308.761719 881.457031 1308.703125 L 896.914062 1305.789062 C 897.21875 1305.730469 897.464844 1305.492188 897.523438 1305.179688 C 899.738281 1294.148438 909.878906 1287.003906 920.726562 1285.441406 Z M 674.527344 1254.644531 C 663.441406 1254.046875 649.667969 1252.410156 653.097656 1236.964844 C 653.65625 1234.46875 655.355469 1230.882812 656.355469 1229.25 C 659.953125 1223.363281 662.652344 1218.898438 664.441406 1215.851562 C 670.839844 1204.996094 672.546875 1190.492188 664.738281 1179.972656 C 654.980469 1166.835938 637.921875 1164.617188 623.964844 1172.75 C 605.164062 1183.738281 603.585938 1208.996094 615.792969 1225.027344 C 618.835938 1229.023438 623.226562 1231.746094 628.976562 1233.179688 C 631.683594 1233.859375 635.273438 1233.25 638.542969 1232.882812 C 645.859375 1232.042969 648.792969 1238.816406 647.808594 1244.898438 C 646.390625 1253.589844 639.375 1258.148438 631.457031 1260.785156 C 628.0625 1261.917969 622.039062 1263.933594 613.382812 1266.835938 C 608.433594 1268.492188 603.933594 1270.980469 599.878906 1274.289062 C 595.433594 1277.921875 592.777344 1283.019531 589.984375 1288.273438 C 589.882812 1288.46875 589.957031 1288.707031 590.152344 1288.816406 C 590.171875 1288.828125 590.195312 1288.835938 590.214844 1288.84375 C 600.480469 1292.121094 606.988281 1298.867188 609.738281 1309.089844 C 609.851562 1309.523438 610.234375 1309.828125 610.683594 1309.839844 L 624.546875 1310.515625 C 624.957031 1310.535156 625.335938 1310.296875 625.5 1309.914062 C 626.796875 1306.851562 628.976562 1304.398438 632.027344 1302.550781 C 641.851562 1296.617188 647.503906 1293.171875 648.988281 1292.21875 C 663.316406 1283.03125 669.535156 1271.015625 674.914062 1255.203125 C 674.984375 1254.984375 674.871094 1254.746094 674.652344 1254.667969 C 674.609375 1254.652344 674.566406 1254.644531 674.527344 1254.644531 Z M 733.371094 1172.351562 C 731.5625 1172.671875 729.195312 1173.410156 726.273438 1174.566406 C 712.859375 1179.921875 699.78125 1184.027344 692.921875 1196.230469 C 690.121094 1201.210938 688.042969 1207.117188 686.695312 1213.957031 C 685.4375 1220.324219 684.054688 1227.570312 682.546875 1235.691406 C 681.839844 1239.539062 681.296875 1242.210938 680.921875 1243.710938 C 679.632812 1248.839844 678.980469 1251.488281 678.957031 1251.648438 C 678.90625 1251.976562 679.140625 1252.277344 679.464844 1252.328125 C 679.480469 1252.328125 679.496094 1252.328125 679.5 1252.335938 C 684.742188 1252.71875 689.546875 1253.855469 693.90625 1255.753906 C 694.222656 1255.882812 694.585938 1255.738281 694.707031 1255.425781 C 694.714844 1255.40625 694.722656 1255.382812 694.730469 1255.363281 C 698.601562 1241.4375 698.542969 1224.941406 699.570312 1212.964844 C 700.671875 1200.195312 704.832031 1190.019531 715.386719 1183.289062 C 723.746094 1177.953125 727.105469 1175.234375 733.464844 1172.714844 C 733.558594 1172.671875 733.597656 1172.554688 733.554688 1172.460938 C 733.523438 1172.390625 733.453125 1172.34375 733.371094 1172.351562 Z M 949.246094 1263.148438 C 948.941406 1262.457031 948.6875 1261.964844 948.46875 1261.660156 C 941.101562 1251.484375 936.238281 1242.285156 936.46875 1229.746094 C 936.671875 1219.433594 941.457031 1209.476562 951.964844 1206.667969 C 958.84375 1204.828125 965.847656 1205.835938 972.023438 1209.410156 C 987.003906 1218.058594 987.425781 1236.660156 979.992188 1250.527344 C 976.820312 1256.425781 973.015625 1262.019531 968.578125 1267.296875 C 968.460938 1267.441406 968.476562 1267.652344 968.621094 1267.769531 C 968.691406 1267.832031 968.792969 1267.855469 968.894531 1267.839844 C 984.449219 1265.132812 994.3125 1254.183594 995.074219 1238.746094 C 995.734375 1225.449219 990.117188 1213.121094 978.332031 1206.6875 C 966.527344 1200.253906 949.152344 1201.28125 939.988281 1212.085938 C 931.664062 1221.902344 929.746094 1233.089844 934.226562 1245.65625 C 937.011719 1253.457031 941.882812 1259.414062 948.839844 1263.519531 C 948.96875 1263.605469 949.152344 1263.5625 949.230469 1263.425781 C 949.273438 1263.339844 949.28125 1263.238281 949.246094 1263.148438 Z M 550.960938 1206.167969 C 550.324219 1205.667969 549.339844 1205.242188 548.007812 1204.878906 C 532.320312 1200.585938 517.007812 1207.253906 510.921875 1222.4375 C 507.960938 1229.804688 507.960938 1239.257812 510.753906 1246.664062 C 514.53125 1256.695312 521.828125 1263.019531 532.625 1265.648438 C 532.800781 1265.691406 532.972656 1265.582031 533.015625 1265.410156 C 533.039062 1265.3125 533.015625 1265.210938 532.957031 1265.132812 C 523.484375 1252.996094 517.839844 1236.964844 524.136719 1222.367188 C 528.746094 1211.691406 539.269531 1205.355469 550.800781 1206.566406 C 550.921875 1206.574219 551.023438 1206.484375 551.039062 1206.363281 C 551.039062 1206.28125 551.011719 1206.210938 550.960938 1206.167969 Z M 964.710938 1267.203125 C 974.128906 1256.007812 985.601562 1240.070312 980.621094 1224.761719 C 978.949219 1219.613281 975.929688 1215.613281 971.566406 1212.761719 C 962.917969 1207.101562 950.453125 1206.957031 943.816406 1215.714844 C 938.589844 1222.613281 938.386719 1234.953125 941.210938 1242.484375 C 943.027344 1247.328125 945.03125 1251.359375 947.226562 1254.582031 C 952.089844 1261.703125 954.519531 1265.261719 954.519531 1265.269531 C 954.714844 1265.71875 955.121094 1266.039062 955.601562 1266.125 L 963.546875 1267.617188 C 963.988281 1267.695312 964.429688 1267.542969 964.710938 1267.203125 Z M 538.664062 1266.152344 C 543.394531 1266.726562 547.839844 1266.101562 551.996094 1264.285156 C 552.523438 1264.054688 552.992188 1263.691406 553.363281 1263.246094 C 563.703125 1250.460938 571.035156 1232.746094 562.445312 1216.988281 C 561.027344 1214.390625 559.078125 1212.53125 556.605469 1211.398438 C 545.445312 1206.320312 533.007812 1211.839844 527.695312 1221.808594 C 519.980469 1236.3125 526.792969 1252.84375 536.519531 1264.964844 C 537.054688 1265.625 537.824219 1266.050781 538.664062 1266.152344 Z M 568.285156 1223.414062 C 570.355469 1235.921875 567.78125 1247.53125 560.554688 1258.234375 C 560.542969 1258.265625 560.550781 1258.300781 560.578125 1258.324219 L 560.859375 1258.511719 C 560.960938 1258.582031 561.097656 1258.570312 561.1875 1258.480469 C 569.402344 1249.492188 572.296875 1238.890625 569.855469 1226.679688 C 569.710938 1225.949219 569.269531 1224.839844 568.546875 1223.34375 C 568.523438 1223.269531 568.445312 1223.226562 568.375 1223.253906 C 568.300781 1223.269531 568.257812 1223.34375 568.285156 1223.414062 Z M 800.84375 1290.710938 C 801.167969 1289.308594 801.585938 1287.105469 802.09375 1284.125 C 803.339844 1276.765625 806.472656 1270.429688 811.488281 1265.113281 C 811.734375 1264.859375 811.828125 1264.496094 811.75 1264.148438 C 810.339844 1257.925781 808.355469 1252.199219 805.808594 1246.972656 C 805.757812 1246.886719 805.699219 1246.800781 805.625 1246.734375 L 805.324219 1246.460938 C 805.140625 1246.285156 804.84375 1246.285156 804.671875 1246.472656 C 804.648438 1246.496094 804.632812 1246.519531 804.621094 1246.539062 C 803.550781 1248.140625 802.722656 1250.308594 802.152344 1253.066406 C 799.605469 1265.328125 799.0625 1277.871094 800.523438 1290.703125 C 800.515625 1290.789062 800.582031 1290.863281 800.667969 1290.871094 C 800.761719 1290.871094 800.84375 1290.796875 800.84375 1290.710938 Z M 629.421875 1309.992188 C 636.871094 1309.492188 643.246094 1308.472656 648.546875 1306.925781 C 672.609375 1299.890625 685.660156 1282.140625 693.644531 1259.242188 C 693.738281 1258.964844 693.59375 1258.664062 693.316406 1258.5625 C 688.441406 1256.757812 683.488281 1255.644531 678.460938 1255.203125 C 678.183594 1255.175781 677.921875 1255.355469 677.851562 1255.621094 C 674.753906 1266.167969 669.816406 1277.488281 662.125 1285.347656 C 654.0625 1293.59375 643.914062 1298.875 634.238281 1304.761719 C 631.484375 1306.425781 629.757812 1307.996094 629.0625 1309.464844 C 628.976562 1309.644531 629.054688 1309.871094 629.242188 1309.957031 C 629.300781 1309.984375 629.367188 1309.992188 629.421875 1309.992188 Z M 876.339844 1308.820312 C 876.5 1308.804688 876.605469 1308.660156 876.585938 1308.5 C 876.578125 1308.421875 876.527344 1308.34375 876.460938 1308.292969 C 873.496094 1306.15625 870.238281 1304.238281 866.683594 1302.539062 C 860.871094 1299.757812 854.835938 1296.871094 848.566406 1293.875 C 840.0625 1289.808594 834.585938 1283.308594 832.136719 1274.359375 C 830.75 1269.308594 829.902344 1264.03125 829.597656 1258.539062 C 829.574219 1258.222656 829.300781 1257.980469 828.984375 1257.996094 C 828.910156 1258.003906 828.832031 1258.019531 828.765625 1258.054688 L 816.816406 1263.96875 C 815.925781 1264.410156 815.46875 1265.414062 815.722656 1266.386719 C 819.785156 1281.519531 822.390625 1297.925781 836.597656 1306.894531 C 838.941406 1308.371094 840.9375 1309.195312 842.589844 1309.371094 C 853.96875 1310.550781 865.214844 1310.363281 876.339844 1308.820312 Z M 611.496094 1323.347656 C 611.511719 1323.425781 611.566406 1323.492188 611.65625 1323.511719 C 621.789062 1326.039062 631.632812 1325.613281 641.191406 1322.230469 C 648.226562 1319.742188 653.472656 1317.449219 656.933594 1315.363281 C 668.074219 1308.640625 674.304688 1304.910156 675.636719 1304.203125 C 677.792969 1303.042969 679.9375 1303.074219 682.070312 1304.273438 C 690.320312 1308.957031 686.847656 1355.140625 685.941406 1369.878906 C 685.25 1381.277344 685.691406 1391.84375 687.253906 1401.585938 C 687.652344 1404.078125 689.207031 1410.597656 691.609375 1412.023438 C 692.398438 1412.488281 693.414062 1412.234375 693.875 1411.445312 C 693.882812 1411.4375 693.882812 1411.429688 693.890625 1411.421875 C 695.351562 1408.890625 696.625 1405.777344 697.703125 1402.101562 C 699.671875 1395.375 701.292969 1388.234375 702.574219 1380.691406 C 704.679688 1368.359375 706.699219 1353.847656 708.625 1337.15625 C 710.507812 1320.914062 711.195312 1305.75 710.683594 1291.660156 C 710.304688 1281.222656 707.632812 1265.878906 697.058594 1260.429688 C 696.800781 1260.292969 696.472656 1260.394531 696.335938 1260.652344 C 696.320312 1260.675781 696.316406 1260.703125 696.300781 1260.734375 C 690.367188 1277.800781 681.070312 1292.757812 666.15625 1302.640625 C 664.773438 1303.550781 661.929688 1305.554688 657.628906 1308.652344 C 652.25 1312.535156 646.382812 1315.277344 640.019531 1316.898438 C 635.714844 1317.992188 628.976562 1318.511719 626.09375 1314.25 C 625.847656 1313.878906 625.429688 1313.65625 624.980469 1313.667969 C 619.609375 1313.828125 614.933594 1313.519531 610.9375 1312.722656 C 610.726562 1312.679688 610.527344 1312.816406 610.480469 1313.027344 C 610.476562 1313.0625 610.476562 1313.105469 610.476562 1313.140625 Z M 549.613281 1268.289062 C 546.355469 1269.230469 542.933594 1269.621094 539.34375 1269.476562 C 539.097656 1269.46875 538.886719 1269.65625 538.871094 1269.910156 C 538.863281 1270.019531 538.902344 1270.121094 538.964844 1270.199219 C 542.128906 1274.441406 546.066406 1282.640625 540.109375 1286.527344 C 539.894531 1286.664062 539.660156 1286.789062 539.414062 1286.882812 C 537.976562 1287.425781 534.890625 1288.308594 532.980469 1288.53125 C 513.785156 1290.667969 492.917969 1297.414062 488.1875 1319.070312 C 484.457031 1336.128906 483.019531 1354.273438 466.011719 1363.125 C 456.925781 1367.859375 446.539062 1371.492188 437.726562 1378.078125 C 434.132812 1380.757812 432.050781 1384.351562 431.476562 1388.847656 C 431.382812 1389.566406 431.890625 1390.214844 432.601562 1390.308594 C 432.707031 1390.324219 432.816406 1390.324219 432.925781 1390.308594 C 449.09375 1388.289062 467.144531 1382.269531 478.582031 1371.1875 C 489.386719 1360.730469 490.503906 1346.363281 492.671875 1330.816406 C 496.140625 1306.085938 513.054688 1289.9375 538.546875 1290.234375 C 540.261719 1290.253906 542.050781 1290.515625 543.910156 1291.023438 C 549.597656 1292.558594 555.488281 1295.125 560.28125 1296.445312 C 567.859375 1298.519531 573.824219 1301.082031 581.523438 1303.457031 C 581.828125 1303.550781 582.152344 1303.382812 582.242188 1303.089844 C 582.242188 1303.082031 582.242188 1303.074219 582.246094 1303.074219 L 585.648438 1291.261719 C 585.722656 1290.992188 585.5625 1290.71875 585.300781 1290.644531 C 585.296875 1290.644531 585.28125 1290.640625 585.273438 1290.640625 C 578.949219 1289.359375 572.316406 1288.503906 565.398438 1288.070312 C 560.902344 1287.792969 550.667969 1285.035156 548.375 1280.410156 C 547.253906 1278.152344 547.1875 1275.597656 548.164062 1272.753906 C 548.207031 1272.625 548.808594 1271.269531 549.976562 1268.707031 C 550.046875 1268.558594 549.976562 1268.375 549.824219 1268.304688 C 549.757812 1268.273438 549.683594 1268.265625 549.613281 1268.289062 Z M 820.128906 1347.511719 C 820.695312 1340.6875 821.621094 1332.207031 822.894531 1322.074219 C 823.75 1315.277344 826.574219 1310.824219 833.882812 1309.492188 C 834.035156 1309.472656 834.144531 1309.328125 834.121094 1309.167969 C 834.105469 1309.089844 834.0625 1309.023438 834 1308.980469 C 826.617188 1303.730469 821.476562 1296.640625 818.597656 1287.707031 C 816.476562 1281.148438 814.738281 1275 813.378906 1269.25 C 813.304688 1268.925781 812.980469 1268.730469 812.660156 1268.800781 C 812.53125 1268.832031 812.414062 1268.902344 812.328125 1269.011719 C 808.78125 1273.347656 806.386719 1278.378906 805.148438 1284.101562 C 803.621094 1291.125 802.898438 1298.363281 802.960938 1305.816406 C 802.976562 1307.402344 803.695312 1310.1875 805.105469 1314.183594 C 809.296875 1326.039062 813.296875 1337.15625 819.574219 1347.65625 C 819.660156 1347.800781 819.839844 1347.851562 819.992188 1347.765625 C 820.074219 1347.703125 820.128906 1347.613281 820.128906 1347.511719 Z M 957.34375 1276.183594 L 961.75 1270.851562 C 961.800781 1270.800781 961.796875 1270.722656 961.746094 1270.671875 C 961.722656 1270.65625 961.699219 1270.640625 961.679688 1270.640625 L 956.808594 1269.597656 C 956.535156 1269.539062 956.265625 1269.714844 956.214844 1269.988281 C 956.191406 1270.078125 956.199219 1270.171875 956.238281 1270.257812 C 957.011719 1272.335938 957.171875 1274.203125 956.707031 1275.84375 C 956.648438 1276.039062 956.75 1276.242188 956.945312 1276.308594 C 957.089844 1276.351562 957.25 1276.300781 957.34375 1276.183594 Z M 936.804688 1295.859375 C 941.839844 1293.78125 947.675781 1290.5 950.664062 1285.820312 C 950.765625 1285.660156 950.722656 1285.441406 950.554688 1285.339844 C 950.453125 1285.277344 950.324219 1285.269531 950.207031 1285.328125 C 945.46875 1287.789062 940.941406 1291.226562 936.644531 1295.625 C 936.59375 1295.691406 936.609375 1295.785156 936.671875 1295.828125 C 936.710938 1295.863281 936.761719 1295.871094 936.804688 1295.859375 Z M 941.695312 1285.457031 L 925.742188 1287.042969 C 925.445312 1287.078125 925.222656 1287.339844 925.257812 1287.636719 C 925.265625 1287.6875 925.273438 1287.730469 925.296875 1287.78125 C 926.53125 1290.796875 927.21875 1293.679688 927.363281 1296.421875 C 927.378906 1296.734375 927.648438 1296.972656 927.957031 1296.957031 C 928.082031 1296.949219 928.191406 1296.90625 928.285156 1296.835938 L 941.914062 1286.007812 C 942.050781 1285.90625 942.070312 1285.71875 941.976562 1285.578125 C 941.914062 1285.484375 941.804688 1285.441406 941.695312 1285.457031 Z M 901.136719 1305.128906 C 908.671875 1303.703125 916.449219 1301.515625 924.476562 1298.585938 C 924.78125 1298.484375 924.949219 1298.160156 924.867188 1297.847656 L 922.589844 1288.777344 C 922.480469 1288.367188 922.074219 1288.105469 921.660156 1288.179688 C 911.824219 1289.929688 904.167969 1294.9375 900.621094 1304.515625 C 900.535156 1304.753906 900.65625 1305.019531 900.890625 1305.105469 C 900.96875 1305.144531 901.046875 1305.152344 901.136719 1305.128906 Z M 585.738281 1304.917969 L 605.84375 1309.203125 C 606.105469 1309.261719 606.355469 1309.089844 606.414062 1308.820312 C 606.429688 1308.742188 606.429688 1308.652344 606.398438 1308.574219 C 603.578125 1299.859375 597.808594 1294.242188 589.09375 1291.730469 C 588.855469 1291.660156 588.601562 1291.804688 588.53125 1292.042969 C 588.53125 1292.042969 588.53125 1292.050781 588.53125 1292.050781 L 585.128906 1303.890625 C 585.003906 1304.316406 585.25 1304.765625 585.679688 1304.898438 C 585.691406 1304.910156 585.714844 1304.917969 585.738281 1304.917969 Z M 911.226562 1389.816406 C 911.484375 1389.507812 911.6875 1389.121094 911.847656 1388.652344 C 920.417969 1362.242188 926.734375 1334.441406 926.003906 1307.171875 C 925.953125 1305.402344 925.738281 1303.898438 925.347656 1302.652344 C 925.289062 1302.464844 925.09375 1302.355469 924.90625 1302.398438 L 899.847656 1308.71875 C 899.6875 1308.753906 899.566406 1308.894531 899.550781 1309.066406 C 899.160156 1313.8125 899.289062 1318.894531 899.941406 1324.324219 C 899.96875 1324.511719 900.144531 1324.640625 900.339844 1324.613281 C 900.449219 1324.597656 900.542969 1324.527344 900.59375 1324.425781 C 901.984375 1321.566406 903.792969 1319.367188 906.042969 1317.816406 C 910.683594 1314.625 915.480469 1316.007812 916.320312 1321.976562 C 916.738281 1324.988281 916.738281 1328.246094 916.320312 1331.757812 C 914.027344 1350.957031 912.195312 1370.253906 910.828125 1389.644531 C 910.820312 1389.765625 910.914062 1389.882812 911.03125 1389.898438 C 911.101562 1389.910156 911.179688 1389.875 911.226562 1389.816406 Z M 576.625 1305.945312 C 577.277344 1306.679688 578.59375 1307.617188 580.582031 1308.785156 C 580.835938 1308.929688 581.15625 1308.84375 581.300781 1308.597656 C 581.328125 1308.546875 581.351562 1308.496094 581.359375 1308.445312 L 581.566406 1307.464844 C 581.675781 1306.945312 581.34375 1306.433594 580.820312 1306.324219 L 576.890625 1305.484375 C 576.738281 1305.449219 576.589844 1305.546875 576.558594 1305.707031 C 576.542969 1305.789062 576.566406 1305.882812 576.625 1305.945312 Z M 607.609375 1312.671875 C 607.59375 1312.503906 607.472656 1312.367188 607.304688 1312.34375 C 600.40625 1311.359375 593.039062 1309.761719 585.195312 1307.554688 C 584.855469 1307.453125 584.5 1307.648438 584.398438 1307.988281 C 584.398438 1307.996094 584.398438 1307.996094 584.390625 1308.003906 C 584.152344 1308.871094 584.050781 1309.679688 584.085938 1310.425781 C 584.101562 1310.761719 584.273438 1311.070312 584.558594 1311.265625 L 593.25 1317.15625 C 593.632812 1317.417969 594.082031 1317.554688 594.539062 1317.550781 C 597.207031 1317.519531 599.121094 1317.867188 600.25 1318.578125 C 603.976562 1320.9375 606.625 1322.210938 608.195312 1322.398438 C 608.230469 1322.398438 608.261719 1322.371094 608.261719 1322.332031 Z M 648.703125 1310.230469 L 630.394531 1313.683594 C 630.199219 1313.71875 630.074219 1313.910156 630.109375 1314.105469 C 630.140625 1314.234375 630.234375 1314.34375 630.363281 1314.378906 C 636.207031 1316.035156 643.21875 1313.417969 648.769531 1310.390625 C 648.8125 1310.375 648.835938 1310.324219 648.820312 1310.28125 C 648.800781 1310.238281 648.75 1310.21875 648.703125 1310.230469 Z M 848.105469 1313.410156 C 852.570312 1315.789062 857.316406 1317.808594 862.355469 1319.480469 C 866.648438 1320.898438 875.238281 1322.253906 878.84375 1318.800781 C 880.5 1317.207031 880.636719 1315.007812 879.257812 1312.1875 C 879.089844 1311.839844 878.714844 1311.636719 878.320312 1311.679688 C 868.132812 1313.074219 858.101562 1313.515625 848.226562 1313.003906 C 848.105469 1313.003906 848.003906 1313.097656 848.003906 1313.222656 C 847.996094 1313.292969 848.039062 1313.367188 848.105469 1313.410156 Z M 583.289062 1315.261719 C 582.269531 1326.71875 583.378906 1338.066406 585.179688 1347.316406 C 587.488281 1359.1875 590.789062 1371.90625 595.074219 1385.46875 C 595.132812 1385.605469 595.289062 1385.671875 595.429688 1385.613281 C 595.527344 1385.570312 595.59375 1385.46875 595.59375 1385.359375 C 594.53125 1371.738281 592.046875 1359.882812 589.1875 1344.878906 C 587.820312 1337.707031 586.65625 1326.550781 591.546875 1320.457031 C 591.722656 1320.25 591.6875 1319.929688 591.46875 1319.757812 C 591.460938 1319.75 591.445312 1319.742188 591.433594 1319.734375 L 584.195312 1314.828125 C 583.925781 1314.648438 583.558594 1314.71875 583.378906 1314.988281 C 583.332031 1315.074219 583.296875 1315.167969 583.289062 1315.261719 Z M 803.910156 1322.085938 C 803.824219 1322.6875 803.800781 1323.222656 803.839844 1323.695312 C 805.378906 1346.289062 808.535156 1369.285156 813.320312 1392.667969 C 814.382812 1397.867188 815.953125 1402.941406 818.03125 1407.90625 C 818.242188 1408.398438 818.804688 1408.628906 819.296875 1408.417969 C 819.492188 1408.332031 819.660156 1408.1875 819.761719 1408 C 824.886719 1398.914062 824.003906 1387.550781 823.046875 1376.972656 C 822.773438 1373.917969 822.425781 1371.628906 822 1370.09375 C 820.644531 1365.1875 820.59375 1361.988281 820.085938 1355.519531 C 820.035156 1354.859375 819.828125 1354.214844 819.480469 1353.65625 C 813.285156 1343.859375 808.28125 1333.3125 804.484375 1322.027344 C 804.4375 1321.871094 804.28125 1321.777344 804.121094 1321.820312 C 804.003906 1321.863281 803.917969 1321.964844 803.910156 1322.085938 Z M 605.792969 1327.488281 C 606.589844 1328.78125 607.167969 1329.605469 607.515625 1329.960938 C 607.644531 1330.097656 607.871094 1330.105469 608.007812 1329.96875 C 608.058594 1329.917969 608.09375 1329.859375 608.109375 1329.796875 C 608.355469 1328.617188 608.441406 1327.449219 608.382812 1326.300781 C 608.382812 1326.257812 608.332031 1326.15625 608.222656 1325.996094 C 608.121094 1325.835938 608.058594 1325.742188 608.023438 1325.71875 C 607.023438 1325.148438 605.9375 1324.699219 604.777344 1324.386719 C 604.597656 1324.339844 604.402344 1324.445312 604.351562 1324.628906 C 604.332031 1324.699219 604.335938 1324.773438 604.359375 1324.835938 C 604.519531 1325.316406 605.003906 1326.199219 605.792969 1327.488281 Z M 502.515625 1336.332031 C 501.699219 1339.378906 501.128906 1342.691406 500.808594 1346.277344 C 499.898438 1356.320312 499.875 1368.011719 500.738281 1381.335938 C 500.773438 1381.804688 500.835938 1382.09375 500.925781 1382.203125 C 501.164062 1382.484375 501.605469 1382.5 501.917969 1382.234375 C 501.953125 1382.203125 501.988281 1382.167969 502.019531 1382.132812 C 512.199219 1369.558594 509.21875 1350.082031 503.191406 1336.273438 C 503.109375 1336.09375 502.902344 1336.011719 502.71875 1336.09375 C 502.625 1336.136719 502.546875 1336.222656 502.515625 1336.332031 Z M 1067.039062 1400.261719 C 1067.25 1400.09375 1067.277344 1399.792969 1067.105469 1399.582031 C 1067.046875 1399.515625 1066.972656 1399.457031 1066.886719 1399.429688 C 1055.117188 1395.515625 1044.226562 1390.0625 1034.203125 1383.070312 C 1022 1374.554688 1016.152344 1362.167969 1009.96875 1349.105469 C 1009.773438 1348.6875 1009.390625 1348.148438 1008.8125 1347.5 C 1008.457031 1347.09375 1007.839844 1347.042969 1007.4375 1347.398438 C 1007.292969 1347.519531 1007.183594 1347.6875 1007.132812 1347.875 C 1006.828125 1348.9375 1006.710938 1350.0625 1006.761719 1351.246094 C 1007.191406 1360.496094 1008.574219 1372.445312 1008.441406 1384 C 1008.433594 1384.628906 1008.566406 1385.25 1008.832031 1385.824219 C 1011.75 1392.125 1016.195312 1396.628906 1022.15625 1399.328125 C 1033.144531 1404.285156 1044.78125 1405.949219 1057.074219 1404.335938 C 1061.082031 1403.808594 1064.40625 1402.449219 1067.039062 1400.261719 Z M 610.917969 1373.953125 C 611.820312 1381.597656 613.117188 1389.1875 614.804688 1396.730469 C 614.859375 1396.992188 614.984375 1397.105469 615.179688 1397.085938 C 615.382812 1397.054688 615.484375 1396.910156 615.476562 1396.644531 C 615.359375 1388.921875 614.847656 1381.242188 613.941406 1373.597656 C 613.039062 1365.949219 611.75 1358.355469 610.070312 1350.820312 C 610.011719 1350.554688 609.882812 1350.4375 609.679688 1350.464844 C 609.484375 1350.488281 609.382812 1350.632812 609.382812 1350.894531 C 609.5 1358.617188 610.011719 1366.300781 610.917969 1373.953125 Z M 898.609375 1350.9375 L 893.96875 1392.980469 C 893.964844 1393.046875 894.007812 1393.105469 894.078125 1393.117188 L 894.203125 1393.125 C 895.351562 1393.242188 897.320312 1383.957031 898.601562 1372.390625 L 898.644531 1372.035156 C 899.917969 1360.476562 900.027344 1350.996094 898.878906 1350.84375 L 898.753906 1350.820312 C 898.683594 1350.8125 898.617188 1350.863281 898.609375 1350.9375 C 898.609375 1350.929688 898.609375 1350.9375 898.609375 1350.9375 Z M 1002.964844 1351.796875 C 1000.394531 1365.058594 998.945312 1377.816406 998.628906 1390.070312 C 998.496094 1395.179688 998.988281 1399.761719 1000.113281 1403.816406 C 1000.226562 1404.234375 1000.660156 1404.480469 1001.082031 1404.359375 C 1001.210938 1404.320312 1001.335938 1404.25 1001.4375 1404.148438 C 1001.683594 1403.902344 1001.863281 1403.582031 1001.992188 1403.1875 C 1003.613281 1398.175781 1004.65625 1392.871094 1005.097656 1387.292969 C 1005.164062 1386.496094 1005.089844 1385.683594 1004.894531 1384.910156 C 1003.230469 1378.300781 1002.710938 1371.019531 1003.339844 1363.058594 C 1003.636719 1359.296875 1003.703125 1355.554688 1003.550781 1351.847656 C 1003.5625 1351.6875 1003.441406 1351.542969 1003.273438 1351.53125 C 1003.117188 1351.507812 1002.976562 1351.632812 1002.964844 1351.796875 Z M 1002.964844 1351.796875 " fill-opacity="1" fill-rule="nonzero"/></g></svg>