<svg xmlns="http://www.w3.org/2000/svg" xmlns:xlink="http://www.w3.org/1999/xlink" width="2000" zoomAndPan="magnify" viewBox="0 0 1500 1499.999933" height="2000" preserveAspectRatio="xMidYMid meet" version="1.0"><defs><clipPath id="8242106758"><path d="M 50.039062 973.3125 L 1450 973.3125 L 1450 1393.3125 L 50.039062 1393.3125 Z M 50.039062 973.3125 " clip-rule="nonzero"/></clipPath></defs><g clip-path="url(#8242106758)"><path fill="#000000" d="M 895.074219 1383.503906 L 894.730469 1387.648438 C 894.683594 1388.285156 894.117188 1388.761719 893.472656 1388.703125 C 893.359375 1388.695312 893.253906 1388.667969 893.148438 1388.628906 L 893.101562 1388.605469 C 892.28125 1388.242188 891.769531 1387.402344 891.828125 1386.507812 C 892.167969 1380.757812 892.402344 1375.167969 892.503906 1369.734375 C 892.871094 1352.867188 889.203125 1339.371094 884.5625 1321.023438 C 881.84375 1310.328125 882.277344 1299.570312 884.28125 1287.140625 C 886.003906 1276.4375 887.558594 1265.289062 888.941406 1253.691406 C 889.222656 1251.332031 890.390625 1247.859375 889.957031 1245.585938 C 887.863281 1234.742188 886.253906 1223.585938 885.140625 1212.132812 C 884.484375 1205.273438 883.964844 1196.347656 886.289062 1189.859375 C 887.871094 1185.457031 891.566406 1187.207031 892.925781 1190.449219 C 895.578125 1196.824219 895.726562 1205.867188 895.527344 1212.660156 C 895.257812 1222.4375 894.71875 1230.871094 893.917969 1237.96875 C 893.304688 1243.398438 892.996094 1246.292969 892.980469 1246.648438 C 892.917969 1247.433594 892.96875 1248.214844 893.128906 1248.992188 L 904.3125 1303.46875 C 904.347656 1303.667969 904.539062 1303.800781 904.734375 1303.765625 C 904.84375 1303.742188 904.945312 1303.667969 904.992188 1303.570312 C 907.070312 1299.515625 909.773438 1296.136719 913.085938 1293.433594 C 924.429688 1284.152344 937.476562 1280.945312 951.078125 1288.636719 C 951.371094 1288.804688 951.742188 1288.785156 952.015625 1288.589844 C 953.121094 1287.792969 953.597656 1286.679688 953.429688 1285.265625 C 952.785156 1279.777344 950.488281 1260.789062 946.535156 1228.289062 C 943.457031 1202.90625 939.4375 1179.082031 931.21875 1155.820312 C 929.617188 1151.285156 927.566406 1146.945312 925.082031 1142.804688 C 919.117188 1132.84375 909.992188 1127.878906 899.328125 1123.847656 C 895.675781 1122.460938 883.9375 1118.214844 864.121094 1111.101562 C 863.878906 1111.011719 863.609375 1111.121094 863.5 1111.359375 C 861.59375 1115.546875 858.65625 1119.09375 854.671875 1121.992188 C 841.21875 1131.792969 821.117188 1135.957031 804.046875 1134.71875 C 797.453125 1134.234375 788.8125 1132.261719 788.738281 1124.003906 C 788.710938 1120.929688 789.039062 1117.792969 789.730469 1114.585938 C 790.003906 1113.292969 789.367188 1111.984375 788.183594 1111.402344 C 786.945312 1110.792969 785.433594 1110.484375 783.648438 1110.464844 C 773.457031 1110.367188 763.558594 1111.808594 753.957031 1114.796875 C 739.335938 1119.355469 727.097656 1121.714844 711.8125 1119.761719 C 708.039062 1119.277344 702.054688 1117.5625 697.664062 1116.742188 C 693.570312 1115.980469 691.007812 1116.15625 687.664062 1118.15625 C 686.339844 1118.949219 685.222656 1119.472656 684.296875 1119.726562 C 683.332031 1119.984375 682.308594 1119.558594 681.796875 1118.667969 C 681.335938 1117.847656 681.734375 1116.625 682.230469 1115.917969 C 687.097656 1109.191406 691.554688 1102.660156 695.609375 1096.324219 C 698.792969 1091.355469 704.203125 1088.386719 706.378906 1082.1875 C 707.472656 1079.078125 708.621094 1076.433594 709.84375 1074.242188 C 710.125 1073.730469 710.476562 1073.261719 710.886719 1072.847656 C 713.679688 1070 717.207031 1066.863281 721.472656 1063.433594 C 724.207031 1061.230469 726.28125 1058.71875 727.679688 1055.902344 C 728.183594 1054.886719 727.769531 1053.648438 726.757812 1053.144531 C 726.523438 1053.035156 726.28125 1052.964844 726.027344 1052.9375 C 717.0625 1052.066406 710.054688 1047.980469 704.996094 1040.679688 C 702.824219 1037.535156 703.007812 1034.421875 705.535156 1031.335938 C 705.625 1031.230469 705.617188 1031.074219 705.519531 1030.984375 C 705.457031 1030.929688 705.367188 1030.90625 705.28125 1030.929688 C 702.824219 1031.539062 700.558594 1032.992188 698.476562 1035.3125 C 697.386719 1036.523438 694.382812 1040.316406 689.457031 1046.691406 C 683.386719 1054.539062 677.199219 1060.355469 669.246094 1066.757812 C 664.65625 1070.460938 661.519531 1073.703125 657.300781 1077.328125 C 656.929688 1077.644531 656.667969 1078.070312 656.566406 1078.539062 C 650.867188 1102.890625 643.042969 1126.527344 633.09375 1149.460938 C 632.960938 1149.761719 633.046875 1150.109375 633.304688 1150.320312 C 636.007812 1152.496094 638.84375 1154.429688 641.824219 1156.109375 C 653.546875 1162.730469 666.433594 1168.265625 680.46875 1172.71875 C 685.660156 1174.371094 693.597656 1176.765625 704.28125 1179.894531 C 706.984375 1180.675781 709.921875 1182.054688 713.09375 1184.03125 C 724.460938 1191.078125 724.789062 1209.277344 724.675781 1221.234375 C 724.542969 1236.605469 722.78125 1256.082031 719.386719 1279.664062 C 714.527344 1313.472656 709.742188 1344.054688 703.550781 1374.964844 C 703.496094 1375.265625 703.285156 1375.515625 703.007812 1375.636719 C 702.335938 1375.910156 701.71875 1375.8125 701.164062 1375.335938 C 700.921875 1375.132812 700.800781 1374.804688 700.863281 1374.488281 C 708.859375 1334.269531 715.339844 1292.648438 720.316406 1249.621094 C 721.511719 1239.277344 722.082031 1229.296875 722.011719 1219.664062 C 721.96875 1213.332031 721.511719 1207.472656 720.644531 1202.082031 C 719.257812 1193.554688 715.402344 1186.894531 706.878906 1183.75 C 701.746094 1181.859375 695.230469 1179.859375 687.339844 1177.746094 C 682.335938 1176.414062 674.898438 1173.867188 665.007812 1170.109375 C 653.226562 1165.621094 642.1875 1159.957031 631.90625 1153.121094 C 631.675781 1152.964844 631.359375 1153.023438 631.207031 1153.253906 C 631.191406 1153.265625 631.183594 1153.289062 631.175781 1153.300781 C 630.105469 1155.324219 628.753906 1157.992188 627.125 1161.300781 C 616.175781 1183.359375 597.621094 1202.535156 577.09375 1217.734375 C 549.234375 1238.355469 518.828125 1252.878906 485.867188 1261.304688 C 465.574219 1266.484375 443.75 1269.542969 420.386719 1270.480469 C 390.503906 1271.679688 362.808594 1269.914062 329.875 1266.203125 C 303.996094 1263.277344 266.347656 1258.785156 233.324219 1256.46875 C 189.527344 1253.394531 144.121094 1255.769531 101.648438 1266.148438 C 84.34375 1270.375 67.726562 1276.367188 51.78125 1284.109375 C 51.195312 1284.390625 50.496094 1284.152344 50.214844 1283.570312 C 50.171875 1283.480469 50.136719 1283.390625 50.125 1283.289062 L 50.039062 1282.878906 C 49.914062 1282.269531 50.214844 1281.652344 50.773438 1281.378906 C 68.929688 1272.566406 88.371094 1265.96875 109.09375 1261.578125 C 150.167969 1252.878906 191.164062 1250.757812 233.589844 1253.703125 C 269.132812 1256.175781 304.941406 1260.816406 339.039062 1264.484375 C 380.242188 1268.929688 422.085938 1270.230469 462.789062 1263.378906 C 499.390625 1257.21875 532.855469 1244.078125 563.183594 1223.96875 C 587.535156 1207.828125 606.785156 1190.421875 621.070312 1166.609375 C 623.660156 1162.296875 626.402344 1157.265625 629.292969 1151.511719 C 629.441406 1151.195312 629.351562 1150.824219 629.078125 1150.628906 C 620.921875 1144.644531 613.574219 1136.59375 616.066406 1125.730469 C 616.101562 1125.5625 615.996094 1125.394531 615.835938 1125.359375 C 615.757812 1125.339844 615.679688 1125.351562 615.609375 1125.402344 C 606.175781 1131.15625 594.316406 1132.449219 583.425781 1132.183594 C 581.480469 1132.140625 571.5 1131.554688 553.46875 1130.421875 C 550.554688 1130.230469 543.320312 1130.203125 531.753906 1130.328125 C 509.019531 1130.574219 486.292969 1132.914062 463.371094 1135.816406 C 451.519531 1137.328125 443.164062 1138.289062 438.304688 1138.707031 C 418.007812 1140.484375 398.660156 1142.117188 380.097656 1140.113281 C 376.359375 1139.710938 365.894531 1138.289062 365.089844 1133.757812 C 364.261719 1129.132812 372.425781 1126.277344 375.875 1125.234375 C 381.8125 1123.441406 386.621094 1122.246094 390.300781 1121.636719 C 418.070312 1117.023438 438.625 1114.992188 457.964844 1106.847656 C 478.609375 1098.167969 491.429688 1086.972656 512.058594 1071.035156 C 529.648438 1057.457031 548.023438 1045.949219 567.1875 1036.527344 C 577.609375 1031.40625 586.847656 1028.339844 594.898438 1027.339844 C 609.625 1025.511719 614.761719 1033.289062 622.289062 1043.316406 C 629.449219 1052.867188 640.5 1048.132812 649.3125 1052.734375 C 657.222656 1056.855469 657.8125 1065.21875 657.257812 1073.058594 C 657.242188 1073.226562 657.371094 1073.367188 657.539062 1073.382812 C 657.621094 1073.386719 657.707031 1073.359375 657.769531 1073.296875 C 662.320312 1068.84375 666.625 1064.960938 670.695312 1061.648438 C 679.160156 1054.753906 684.464844 1048.636719 691.085938 1039.988281 C 693.96875 1036.234375 697.609375 1031.613281 700.472656 1029.753906 C 703.089844 1028.046875 707.667969 1026.105469 709.804688 1029.3125 C 710.035156 1029.664062 709.992188 1030.125 709.699219 1030.417969 L 707.121094 1032.992188 C 706.128906 1033.988281 705.792969 1035.480469 706.261719 1036.816406 C 708.683594 1043.554688 716.300781 1048.296875 722.976562 1049.941406 C 723.363281 1050.039062 723.605469 1049.890625 723.699219 1049.5 C 724.089844 1047.929688 709.117188 1038.59375 710.558594 1032.320312 C 710.777344 1031.363281 710.921875 1030.480469 710.992188 1029.667969 C 711.054688 1028.84375 711.273438 1028.039062 711.636719 1027.289062 C 715.84375 1018.53125 720.484375 1011.28125 725.546875 1005.535156 C 735.210938 994.558594 750.527344 990.570312 764.785156 991.996094 C 769.601562 992.480469 773.738281 994.007812 777.1875 996.589844 C 777.945312 997.164062 778.386719 998.050781 778.386719 998.996094 L 778.386719 999.304688 C 778.386719 999.695312 778.070312 1000.019531 777.683594 1000.027344 C 777.539062 1000.027344 777.390625 999.984375 777.273438 999.894531 C 773.4375 997.238281 769.957031 995.644531 766.84375 995.097656 C 759.78125 993.867188 752.375 994.425781 744.632812 996.769531 C 729.5 1001.371094 721.941406 1013.710938 714.878906 1026.707031 C 714.214844 1027.917969 713.191406 1029.003906 712.078125 1029.964844 C 711.972656 1030.054688 711.964844 1030.207031 712.058594 1030.3125 C 712.105469 1030.375 712.191406 1030.402344 712.265625 1030.398438 C 714.324219 1030.144531 716.25 1030.769531 718.042969 1032.265625 C 723.269531 1036.632812 727.644531 1041.660156 731.164062 1047.335938 C 731.410156 1047.726562 731.867188 1047.925781 732.3125 1047.832031 C 743.121094 1045.570312 753.277344 1041.714844 762.78125 1036.269531 C 763.9375 1035.605469 764.890625 1034.800781 765.640625 1033.863281 C 765.898438 1033.53125 766.074219 1033.15625 766.15625 1032.75 C 766.722656 1029.90625 767.757812 1025.160156 770.230469 1023.601562 C 771.175781 1023.003906 772.464844 1023.375 773.105469 1024.433594 C 773.148438 1024.496094 773.183594 1024.566406 773.21875 1024.636719 C 773.800781 1025.804688 773.980469 1027.121094 773.765625 1028.578125 C 773.746094 1028.730469 773.847656 1028.871094 774.003906 1028.890625 C 774.074219 1028.898438 774.144531 1028.886719 774.199219 1028.84375 C 778.316406 1026.191406 783.328125 1022.816406 786.582031 1018.253906 C 790.527344 1012.703125 787.679688 1005.066406 782.421875 1001.574219 C 782.066406 1001.335938 781.835938 1000.964844 781.792969 1000.550781 C 781.507812 998.128906 781.652344 996.105469 782.25 994.476562 C 784.027344 989.574219 787.253906 985.367188 791.921875 981.855469 C 811.011719 967.5 835.058594 973.527344 854.863281 984.117188 C 866.320312 990.234375 875.65625 1000.054688 877.917969 1013.3125 C 880.808594 1030.242188 876.484375 1046.328125 866.984375 1060.398438 C 861.015625 1069.222656 855.605469 1076.144531 850.527344 1085.40625 C 850.054688 1086.265625 849.3125 1086.6875 848.792969 1087.375 C 848.589844 1087.644531 848.492188 1087.980469 848.527344 1088.324219 C 848.953125 1093.027344 850.109375 1097.234375 852 1100.929688 C 852.382812 1101.679688 853.292969 1101.972656 854.035156 1101.597656 C 854.085938 1101.574219 854.128906 1101.546875 854.167969 1101.519531 C 855.96875 1100.363281 858.003906 1098.84375 860.195312 1099.8125 C 863.128906 1101.105469 864.578125 1103.5625 864.535156 1107.183594 C 864.527344 1107.742188 864.878906 1108.238281 865.402344 1108.414062 C 869.660156 1109.847656 875.203125 1112.230469 879.484375 1113.664062 C 889.019531 1116.875 896.976562 1119.816406 903.347656 1122.476562 C 913.910156 1126.90625 922.601562 1132.414062 928.078125 1142.433594 C 930.941406 1147.660156 933.613281 1153.757812 935.371094 1159.496094 C 941.171875 1178.457031 945.003906 1195.335938 946.851562 1210.125 C 951.769531 1249.390625 954.84375 1273.90625 956.070312 1283.667969 C 956.097656 1283.90625 956.304688 1284.082031 956.542969 1284.054688 C 956.664062 1284.039062 956.769531 1283.984375 956.839844 1283.886719 C 964.132812 1274.6875 968.492188 1264.378906 969.914062 1252.953125 C 970.460938 1248.558594 971.761719 1244.609375 973.820312 1241.117188 C 976.03125 1237.386719 980.796875 1236.15625 985.613281 1234.371094 C 1001.972656 1228.296875 1011.316406 1213.359375 1022.703125 1198.527344 C 1029.726562 1189.398438 1038.46875 1179.933594 1050.039062 1177.667969 C 1064.324219 1174.890625 1080.492188 1187.117188 1090.265625 1195.753906 C 1104.382812 1208.226562 1120.460938 1225.769531 1138.085938 1239.066406 C 1163.871094 1258.539062 1194.019531 1269.667969 1226.53125 1267.914062 C 1227.40625 1267.871094 1228.183594 1268.480469 1228.351562 1269.347656 L 1228.371094 1269.433594 C 1228.519531 1270.203125 1228.007812 1270.9375 1227.238281 1271.082031 C 1227.210938 1271.089844 1227.1875 1271.089844 1227.160156 1271.097656 C 1197.238281 1274.917969 1165.671875 1274.394531 1137.203125 1265.265625 C 1134.886719 1264.523438 1125.507812 1261.453125 1109.050781 1256.046875 C 1068.796875 1242.832031 1026.371094 1239.375 985.796875 1250.6875 C 985.089844 1250.882812 984.359375 1250.476562 984.171875 1249.777344 C 984.15625 1249.714844 984.144531 1249.65625 984.136719 1249.59375 L 984.117188 1249.460938 C 984.003906 1248.613281 984.535156 1247.816406 985.367188 1247.59375 C 1025.519531 1236.875 1066.464844 1240.257812 1106.167969 1252.171875 C 1119.359375 1256.132812 1134.339844 1262.054688 1147.835938 1265.253906 C 1166.335938 1269.648438 1184.871094 1271.328125 1203.445312 1270.285156 C 1203.585938 1270.265625 1203.683594 1270.132812 1203.664062 1269.992188 C 1203.648438 1269.886719 1203.574219 1269.800781 1203.46875 1269.78125 C 1185.171875 1267.359375 1167.691406 1261.09375 1151.046875 1250.996094 C 1139.316406 1243.875 1128.878906 1236.023438 1119.753906 1227.433594 C 1114.886719 1222.851562 1105.601562 1213.980469 1091.878906 1200.820312 C 1086.15625 1195.320312 1079.90625 1190.476562 1073.136719 1186.269531 C 1060.515625 1178.445312 1048.042969 1177.003906 1036.289062 1187.914062 C 1026.253906 1197.238281 1019.023438 1207.785156 1010.824219 1218.433594 C 1002.609375 1229.101562 992.570312 1235.261719 980.019531 1239.53125 C 974.855469 1241.285156 972.902344 1249.554688 972.910156 1254.558594 C 972.910156 1254.976562 972.867188 1255.398438 972.777344 1255.8125 C 971.277344 1262.605469 969.199219 1268.703125 966.53125 1274.101562 C 964.214844 1278.796875 961.136719 1283.339844 957.285156 1287.734375 C 955.699219 1289.554688 955.90625 1291.394531 957.917969 1293.265625 C 965.691406 1300.503906 972.34375 1306.921875 977.851562 1312.527344 C 980.6875 1315.40625 984.746094 1319.023438 990.039062 1323.371094 C 1006.394531 1336.816406 1025.195312 1343.523438 1046.445312 1343.472656 C 1059.542969 1343.445312 1072.75 1341.835938 1086.070312 1338.644531 C 1097.402344 1335.933594 1106.796875 1333.359375 1114.25 1330.902344 C 1131.300781 1325.300781 1149.152344 1319.5625 1167.796875 1313.695312 C 1183.191406 1308.847656 1197.652344 1305.472656 1211.179688 1303.570312 C 1232.453125 1300.578125 1252.820312 1302.527344 1272.988281 1307.84375 C 1285.277344 1311.09375 1295.890625 1313.792969 1304.820312 1315.972656 C 1352.488281 1327.550781 1403.046875 1329.066406 1447.96875 1307.136719 C 1448.605469 1306.824219 1449.367188 1307.089844 1449.683594 1307.726562 C 1449.734375 1307.824219 1449.769531 1307.921875 1449.789062 1308.027344 L 1449.894531 1308.566406 C 1449.992188 1309.019531 1449.769531 1309.484375 1449.347656 1309.691406 C 1436.972656 1315.824219 1423.527344 1320.304688 1409.003906 1323.125 C 1391.148438 1326.589844 1374.242188 1327.835938 1358.3125 1326.863281 C 1339.734375 1325.730469 1322.046875 1323.089844 1305.242188 1318.945312 C 1298.386719 1317.257812 1286.25 1314.171875 1268.84375 1309.6875 C 1247.164062 1304.101562 1225.347656 1303.421875 1203.382812 1307.648438 C 1190.628906 1310.097656 1179.578125 1312.828125 1170.226562 1315.832031 C 1133.4375 1327.652344 1113.808594 1333.945312 1111.359375 1334.703125 C 1092.769531 1340.46875 1072.910156 1345.195312 1053.035156 1346.082031 C 1032.585938 1347 1012.988281 1342.640625 996.253906 1331.378906 C 982.105469 1321.859375 973.421875 1312.179688 957.929688 1297.042969 C 957.789062 1296.90625 957.574219 1296.90625 957.433594 1297.042969 C 957.355469 1297.121094 957.320312 1297.21875 957.328125 1297.324219 C 958.855469 1320.421875 957.257812 1343.171875 952.554688 1365.5625 C 950.601562 1374.84375 947.632812 1383.628906 943.636719 1391.917969 C 943.238281 1392.75 942.347656 1393.238281 941.433594 1393.128906 L 941.304688 1393.121094 C 940.734375 1393.050781 940.328125 1392.539062 940.390625 1391.972656 C 940.402344 1391.839844 940.445312 1391.714844 940.507812 1391.59375 C 947.296875 1378.933594 950.75 1364.976562 952.785156 1349.304688 C 955.128906 1331.257812 955.796875 1314.402344 954.78125 1298.730469 C 954.585938 1295.800781 954.933594 1294.894531 952.917969 1293.035156 C 952.335938 1292.496094 951.441406 1292.453125 950.796875 1292.941406 C 942.238281 1299.425781 932.613281 1302.832031 921.925781 1303.15625 C 918.480469 1303.261719 913.007812 1301.988281 913.558594 1297.71875 C 913.625 1297.226562 913.910156 1296.800781 914.335938 1296.546875 C 915.847656 1295.644531 917.304688 1295.042969 918.710938 1294.742188 C 922.96875 1293.832031 927.347656 1292.886719 931.855469 1291.90625 C 933.949219 1291.453125 935.460938 1290.757812 936.394531 1289.820312 C 936.734375 1289.472656 937.304688 1289.464844 937.652344 1289.8125 C 937.855469 1290.011719 937.945312 1290.296875 937.910156 1290.578125 C 937.671875 1292.25 936.660156 1293.285156 934.875 1293.679688 C 932.488281 1294.203125 927.929688 1295.308594 921.203125 1296.996094 C 919.867188 1297.324219 918.433594 1297.886719 916.890625 1298.683594 C 916.617188 1298.828125 916.515625 1299.164062 916.660156 1299.4375 C 916.738281 1299.578125 916.863281 1299.675781 917.019531 1299.71875 C 927.371094 1302.324219 939.96875 1297.28125 948.53125 1291.285156 C 948.753906 1291.128906 948.804688 1290.828125 948.640625 1290.605469 C 948.59375 1290.542969 948.535156 1290.484375 948.46875 1290.453125 C 938.507812 1285.453125 929.035156 1285.851562 920.054688 1291.648438 C 917.835938 1293.082031 914.636719 1294.945312 912.894531 1297.207031 C 910.1875 1300.707031 907.882812 1304.476562 905.992188 1308.523438 C 905.699219 1309.148438 905.601562 1309.847656 905.726562 1310.527344 C 909.96875 1335.527344 908.4375 1360.074219 901.128906 1384.175781 C 900.589844 1385.933594 897.902344 1386.976562 896.769531 1385.644531 C 896.578125 1385.421875 896.265625 1384.699219 895.816406 1383.460938 C 895.738281 1383.277344 895.53125 1383.1875 895.339844 1383.265625 C 895.179688 1383.265625 895.09375 1383.378906 895.074219 1383.503906 Z M 845.683594 1036.5 C 855.6875 1029.164062 864.589844 1037.691406 859.550781 1048.023438 C 857.5 1052.230469 854.457031 1055.378906 850.425781 1057.472656 C 850.152344 1057.605469 849.96875 1057.871094 849.925781 1058.171875 C 848.808594 1066.347656 848.183594 1074.453125 848.078125 1082.488281 C 848.078125 1082.683594 848.234375 1082.84375 848.421875 1082.84375 C 848.5 1082.84375 848.570312 1082.824219 848.632812 1082.773438 C 848.917969 1082.558594 849.179688 1082.230469 849.394531 1081.792969 C 851.230469 1078.160156 854.476562 1073.148438 859.140625 1066.757812 C 870.136719 1051.710938 877.765625 1036.898438 875.832031 1017.59375 C 874.460938 1003.882812 866.738281 994.144531 854.882812 987.386719 C 841.269531 979.621094 823.734375 973.527344 808.59375 976.992188 C 798.332031 979.335938 790.480469 985.039062 785.019531 994.105469 C 784.9375 994.238281 784.976562 994.417969 785.113281 994.503906 C 785.1875 994.550781 785.285156 994.558594 785.371094 994.523438 C 808.386719 986.0625 825.8125 1005.800781 833.730469 1024.839844 C 833.941406 1025.351562 834.296875 1025.792969 834.753906 1026.097656 C 839.070312 1029.046875 841.472656 1031.105469 844.992188 1036.375 C 845.144531 1036.597656 845.449219 1036.65625 845.664062 1036.5 C 845.679688 1036.5 845.683594 1036.5 845.683594 1036.5 Z M 829.433594 1023.601562 C 829.59375 1023.671875 829.777344 1023.59375 829.839844 1023.433594 C 829.875 1023.355469 829.875 1023.265625 829.839844 1023.1875 C 826.421875 1014.78125 821.25 1007.78125 814.328125 1002.175781 C 805.152344 994.75 795.042969 993.300781 784.011719 997.820312 C 783.664062 997.96875 783.488281 998.367188 783.628906 998.71875 C 783.683594 998.851562 783.773438 998.960938 783.898438 999.039062 C 788.078125 1001.671875 790.570312 1005.4375 791.363281 1010.34375 C 791.710938 1012.519531 791.886719 1013.863281 791.878906 1014.359375 C 791.867188 1014.761719 792.097656 1015.132812 792.460938 1015.292969 C 793.847656 1015.921875 794.785156 1016.257812 795.28125 1016.3125 C 808.53125 1017.875 818.273438 1019.210938 829.433594 1023.601562 Z M 789.6875 1017.246094 C 788.308594 1020.492188 786.496094 1023.054688 784.25 1024.9375 C 781.667969 1027.101562 777.578125 1030.039062 771.980469 1033.765625 C 771.714844 1033.9375 771.511719 1034.183594 771.378906 1034.464844 C 770.550781 1036.289062 770.117188 1037.816406 770.078125 1039.042969 C 769.796875 1046.300781 770.042969 1053.964844 770.8125 1062.027344 C 771.804688 1072.324219 771.617188 1078.75 782.894531 1078.855469 C 791.726562 1078.9375 801.722656 1077.742188 812.886719 1075.269531 C 816.050781 1074.570312 819.214844 1073.578125 822.382812 1072.304688 C 830.167969 1069.179688 831.449219 1062.980469 834.296875 1056.140625 C 835.445312 1053.390625 838.441406 1052.84375 840.976562 1054.40625 C 842.90625 1055.601562 844.097656 1056.402344 845.75 1056.191406 C 846.699219 1056.070312 847.371094 1055.203125 847.253906 1054.246094 C 847.246094 1054.203125 847.238281 1054.167969 847.230469 1054.125 L 844.851562 1042.113281 C 844.808594 1041.917969 844.621094 1041.792969 844.425781 1041.828125 C 844.363281 1041.839844 844.300781 1041.871094 844.25 1041.917969 C 843.347656 1042.75 842.589844 1043.347656 841.988281 1043.695312 C 839.734375 1044.992188 837.558594 1043.085938 836.804688 1041.042969 C 834.640625 1035.226562 833.210938 1031.453125 832.527344 1029.71875 C 831.929688 1028.21875 830.882812 1027.164062 829.375 1026.546875 C 820.695312 1022.96875 811.066406 1020.820312 800.480469 1020.101562 C 797.03125 1019.871094 793.664062 1018.832031 790.394531 1017.015625 C 790.152344 1016.882812 789.84375 1016.964844 789.710938 1017.210938 C 789.710938 1017.210938 789.695312 1017.230469 789.6875 1017.246094 Z M 654.410156 1067.339844 C 654.246094 1061.355469 651.957031 1057.234375 647.535156 1054.980469 C 643.796875 1053.070312 639.296875 1052.832031 634.542969 1052.507812 C 627.878906 1052.066406 623.070312 1049.023438 619.019531 1043.269531 C 615.070312 1037.675781 610.191406 1031.210938 602.90625 1030.089844 C 592.335938 1028.480469 579.890625 1033.46875 569.988281 1038.242188 C 552.921875 1046.453125 536.039062 1056.730469 519.34375 1069.046875 C 514.632812 1072.527344 505.824219 1079.296875 492.90625 1089.355469 C 483.023438 1097.054688 472.804688 1103.261719 462.242188 1108 C 442.433594 1116.875 418.601562 1119.976562 395.398438 1123.335938 C 390.246094 1124.085938 384.421875 1125.421875 377.933594 1127.347656 C 374.25 1128.441406 371.152344 1129.832031 368.632812 1131.539062 C 367.953125 1131.996094 367.777344 1132.914062 368.230469 1133.589844 C 368.289062 1133.683594 368.359375 1133.757812 368.433594 1133.835938 C 369.140625 1134.515625 370.164062 1135.054688 371.488281 1135.4375 C 380.636719 1138.09375 390.292969 1138.308594 399.722656 1138.238281 C 412.292969 1138.148438 426.488281 1137.167969 442.300781 1135.304688 C 453.394531 1133.996094 469.824219 1132.199219 491.597656 1129.902344 C 519.273438 1126.992188 547.257812 1126.65625 575.550781 1128.910156 C 590.238281 1130.078125 604.53125 1129.621094 617.085938 1121.097656 C 617.589844 1120.753906 617.988281 1120.269531 618.234375 1119.710938 C 622.15625 1110.800781 629.167969 1102.597656 636.28125 1095.675781 C 637.671875 1094.332031 638.777344 1092.726562 639.484375 1091.246094 C 642.808594 1084.292969 646.339844 1077.910156 650.054688 1072.09375 C 650.914062 1070.742188 652.21875 1069.453125 653.960938 1068.230469 C 654.246094 1068.019531 654.414062 1067.691406 654.410156 1067.339844 Z M 836.3125 1031.320312 L 839.660156 1040.519531 C 839.8125 1040.925781 840.253906 1041.148438 840.671875 1041.015625 C 841.367188 1040.804688 842.019531 1040.21875 842.621094 1039.238281 C 842.800781 1038.9375 842.808594 1038.566406 842.640625 1038.257812 C 841.101562 1035.386719 839.167969 1032.953125 836.84375 1030.949219 C 836.710938 1030.832031 836.503906 1030.839844 836.375 1030.972656 C 836.285156 1031.070312 836.265625 1031.203125 836.3125 1031.320312 Z M 727.519531 1046.957031 C 724.152344 1041.589844 719.777344 1036.941406 714.394531 1033.007812 C 714.050781 1032.761719 713.574219 1032.839844 713.324219 1033.183594 C 713.238281 1033.292969 713.191406 1033.429688 713.183594 1033.566406 C 713.03125 1035.714844 716.632812 1039.378906 718.175781 1040.742188 C 721.367188 1043.585938 724.355469 1045.78125 727.15625 1047.34375 C 727.28125 1047.421875 727.449219 1047.386719 727.527344 1047.257812 C 727.582031 1047.160156 727.574219 1047.050781 727.519531 1046.957031 Z M 767.4375 1036.445312 C 757.273438 1043.640625 745.796875 1048.273438 733 1050.351562 C 732.371094 1050.457031 731.832031 1050.820312 731.375 1051.453125 C 731.144531 1051.78125 730.683594 1051.859375 730.347656 1051.625 C 730.261719 1051.570312 730.199219 1051.5 730.144531 1051.417969 C 729.199219 1049.910156 728.121094 1049.15625 726.910156 1049.140625 C 726.722656 1049.136719 726.566406 1049.289062 726.558594 1049.476562 C 726.558594 1049.554688 726.582031 1049.632812 726.628906 1049.695312 C 727.511719 1050.828125 728.582031 1051.558594 729.835938 1051.863281 C 730.171875 1051.949219 730.425781 1052.230469 730.464844 1052.566406 C 731.222656 1058.121094 727.238281 1062.371094 723.003906 1065.75 C 719.226562 1068.769531 715.824219 1071.839844 712.8125 1074.964844 C 710.664062 1077.195312 709.269531 1083.636719 706.984375 1087.191406 C 704.148438 1091.601562 699.613281 1094.742188 697.160156 1098.8125 C 693.664062 1104.613281 690.308594 1109.714844 687.105469 1114.125 C 687.011719 1114.238281 687.039062 1114.398438 687.160156 1114.488281 C 687.230469 1114.539062 687.320312 1114.550781 687.40625 1114.53125 C 695.425781 1111.816406 703.195312 1115.484375 712.253906 1116.898438 C 723.859375 1118.703125 735.421875 1117.339844 747.214844 1113.726562 C 759.835938 1109.863281 772.457031 1106.910156 785.644531 1107.910156 C 790.089844 1108.253906 792.972656 1111.3125 792.257812 1115.855469 C 791.648438 1119.710938 790.109375 1127.089844 794.335938 1129.449219 C 796.457031 1130.636719 799.671875 1131.570312 802.007812 1131.792969 C 817.097656 1133.214844 831.476562 1130.777344 845.132812 1124.484375 C 851.003906 1121.789062 858.332031 1116.476562 861.160156 1110.414062 C 861.28125 1110.164062 861.183594 1109.871094 860.945312 1109.738281 L 854.195312 1105.839844 C 853.890625 1105.65625 853.496094 1105.691406 853.222656 1105.921875 C 842.640625 1114.910156 830.671875 1120.878906 817.308594 1123.835938 C 809.980469 1125.449219 803.308594 1125.625 797.296875 1124.351562 C 794.28125 1123.707031 793.320312 1121.550781 793.453125 1118.429688 C 793.875 1108.230469 793.042969 1098.628906 790.960938 1089.605469 C 790.023438 1085.527344 792.039062 1084.488281 795.800781 1084.148438 C 803.996094 1083.425781 812.367188 1081.117188 819.351562 1076.902344 C 819.429688 1076.875 819.464844 1076.78125 819.429688 1076.714844 C 819.402344 1076.636719 819.3125 1076.601562 819.242188 1076.636719 C 808.070312 1079.667969 796.941406 1080.886719 785.019531 1081.667969 C 782.488281 1081.84375 780.253906 1081.695312 778.320312 1081.242188 C 769.054688 1079.058594 769.019531 1072.570312 768.222656 1063.238281 C 767.402344 1053.710938 766.378906 1045.320312 767.828125 1036.710938 C 767.851562 1036.570312 767.753906 1036.4375 767.613281 1036.417969 C 767.554688 1036.394531 767.492188 1036.410156 767.4375 1036.445312 Z M 850.179688 1053.875 C 850.1875 1054.011719 850.304688 1054.125 850.445312 1054.117188 C 850.492188 1054.117188 850.550781 1054.097656 850.59375 1054.070312 C 853.238281 1052.128906 855.304688 1049.910156 856.792969 1047.414062 C 861.34375 1039.777344 854.777344 1032.441406 847.113281 1038.777344 C 846.875 1038.972656 846.792969 1039.300781 846.917969 1039.582031 C 848.917969 1044.136719 850.011719 1048.902344 850.179688 1053.875 Z M 837.550781 1055.695312 L 831.0625 1068.488281 C 831.035156 1068.550781 831.0625 1068.621094 831.125 1068.65625 L 831.167969 1068.675781 C 832.253906 1069.222656 834.570312 1066.835938 836.347656 1063.335938 L 836.523438 1063.007812 C 838.300781 1059.507812 838.859375 1056.21875 837.777344 1055.671875 L 837.734375 1055.652344 C 837.679688 1055.617188 837.601562 1055.636719 837.566406 1055.695312 C 837.558594 1055.6875 837.550781 1055.6875 837.550781 1055.695312 Z M 840.503906 1058.359375 C 840.191406 1062.308594 838.441406 1065.941406 835.257812 1069.25 C 832.332031 1072.304688 828.234375 1073.878906 825.101562 1076.328125 C 816.46875 1083.074219 805.585938 1086.351562 794.519531 1087.003906 C 793.761719 1087.042969 793.183594 1087.695312 793.222656 1088.453125 C 793.230469 1088.542969 793.246094 1088.640625 793.265625 1088.722656 C 795.910156 1098.601562 796.828125 1108.632812 796.015625 1118.828125 C 795.882812 1120.480469 796.652344 1121.460938 798.320312 1121.753906 C 810.371094 1123.875 824.105469 1120.171875 834.863281 1114.496094 C 842.90625 1110.261719 848.199219 1106.726562 850.746094 1103.90625 C 850.964844 1103.667969 850.96875 1103.304688 850.765625 1103.058594 C 848.882812 1100.828125 847.582031 1097.929688 846.847656 1094.367188 C 844.972656 1085.273438 844.734375 1076.210938 846.132812 1067.1875 C 846.699219 1063.589844 847.042969 1061.070312 847.175781 1059.621094 C 847.199219 1059.332031 846.988281 1059.089844 846.707031 1059.058594 C 846.617188 1059.054688 846.527344 1059.066406 846.441406 1059.109375 C 845.679688 1059.472656 843.84375 1059.117188 840.953125 1058.046875 C 840.777344 1057.980469 840.582031 1058.074219 840.519531 1058.253906 C 840.519531 1058.296875 840.511719 1058.324219 840.503906 1058.359375 Z M 645.785156 1085.371094 L 653.617188 1077.539062 C 653.917969 1077.230469 654.078125 1076.824219 654.078125 1076.40625 L 654.078125 1072.898438 C 654.078125 1072.714844 653.933594 1072.570312 653.75 1072.570312 C 653.660156 1072.570312 653.570312 1072.613281 653.503906 1072.679688 C 649.921875 1076.894531 647.25 1081.058594 645.484375 1085.175781 C 645.433594 1085.257812 645.46875 1085.371094 645.5625 1085.414062 C 645.636719 1085.449219 645.730469 1085.433594 645.785156 1085.371094 Z M 652.027344 1083.460938 C 649.914062 1085.441406 647.386719 1087.925781 644.457031 1090.9375 C 638.707031 1096.808594 638.007812 1099.285156 633.808594 1107.007812 C 631.414062 1111.417969 627.207031 1116.148438 621.1875 1121.195312 C 620.707031 1121.609375 620.300781 1122.105469 620 1122.664062 C 614.664062 1132.746094 622.148438 1142.257812 629.953125 1147.871094 C 630.246094 1148.082031 630.652344 1148.015625 630.863281 1147.730469 C 630.890625 1147.6875 630.917969 1147.648438 630.933594 1147.605469 C 639.925781 1126.859375 647.109375 1105.570312 652.484375 1083.734375 C 652.511719 1083.578125 652.421875 1083.433594 652.265625 1083.40625 C 652.183594 1083.382812 652.097656 1083.40625 652.027344 1083.460938 Z M 856.640625 1104.367188 L 861.125 1106.292969 C 861.203125 1106.320312 861.289062 1106.285156 861.324219 1106.210938 L 861.351562 1106.144531 C 861.863281 1104.941406 861.253906 1103.535156 859.984375 1102.996094 L 859.796875 1102.914062 C 858.53125 1102.375 857.085938 1102.90625 856.578125 1104.101562 C 856.578125 1104.101562 856.578125 1104.109375 856.578125 1104.109375 L 856.554688 1104.160156 C 856.519531 1104.242188 856.554688 1104.332031 856.640625 1104.367188 Z M 631.765625 1104.835938 C 631.554688 1104.667969 629.964844 1106.3125 628.214844 1108.503906 C 626.464844 1110.703125 625.214844 1112.613281 625.421875 1112.78125 C 625.632812 1112.949219 627.222656 1111.304688 628.972656 1109.113281 C 630.722656 1106.921875 631.976562 1105.003906 631.765625 1104.835938 Z M 891.300781 1236.296875 C 891.460938 1236.289062 891.566406 1235.980469 891.625 1235.363281 C 892.476562 1226.054688 892.882812 1216.933594 892.839844 1208.011719 C 892.820312 1203.644531 892.359375 1199.316406 891.449219 1195.039062 C 890.785156 1191.941406 890.113281 1190.40625 889.410156 1190.441406 C 888.710938 1190.46875 888.160156 1192.050781 887.757812 1195.195312 C 887.207031 1199.535156 887.101562 1203.882812 887.4375 1208.234375 C 888.128906 1217.136719 889.292969 1226.1875 890.921875 1235.394531 C 891.027344 1235.996094 891.15625 1236.296875 891.300781 1236.296875 Z M 894.871094 1353.867188 C 895.082031 1352.347656 895.234375 1350.5 895.347656 1348.308594 C 896 1335.648438 897.867188 1321.789062 902.4375 1309.902344 C 902.59375 1309.511719 902.625 1309.085938 902.542969 1308.664062 L 891.828125 1256.441406 C 891.804688 1256.320312 891.6875 1256.246094 891.574219 1256.273438 C 891.527344 1256.28125 891.476562 1256.308594 891.449219 1256.347656 C 891.34375 1256.46875 891.28125 1256.601562 891.257812 1256.761719 C 890.019531 1267.738281 888.796875 1276.800781 887.578125 1283.960938 C 884.996094 1299.214844 884.363281 1310.121094 887.824219 1322.699219 C 890.972656 1334.128906 893.183594 1344.515625 894.457031 1353.867188 C 894.457031 1353.980469 894.550781 1354.078125 894.667969 1354.078125 C 894.789062 1354.078125 894.871094 1353.980469 894.871094 1353.867188 Z M 898.085938 1349.03125 C 897.144531 1361.285156 896.515625 1371.234375 898.132812 1381.992188 C 898.160156 1382.1875 898.34375 1382.328125 898.539062 1382.300781 C 898.566406 1382.292969 898.59375 1382.292969 898.617188 1382.277344 C 898.726562 1382.238281 898.8125 1382.117188 898.859375 1381.929688 C 901.96875 1371.835938 903.964844 1361.042969 904.84375 1349.5625 C 905.734375 1338.070312 905.417969 1327.101562 903.90625 1316.644531 C 903.878906 1316.441406 903.816406 1316.316406 903.710938 1316.257812 C 903.535156 1316.160156 903.320312 1316.214844 903.214844 1316.390625 C 903.199219 1316.414062 903.1875 1316.441406 903.179688 1316.46875 C 899.933594 1326.847656 899.035156 1336.773438 898.085938 1349.03125 Z M 898.085938 1349.03125 " fill-opacity="1" fill-rule="nonzero"/></g><path fill="#000000" d="M 780 1001.609375 C 784.488281 1002.433594 787.324219 1007.4375 786.34375 1012.792969 C 785.363281 1018.148438 780.925781 1021.824219 776.4375 1021.003906 C 771.953125 1020.179688 769.117188 1015.171875 770.097656 1009.820312 C 771.078125 1004.457031 775.515625 1000.78125 780 1001.609375 Z M 780.46875 1004.527344 C 777.574219 1003.660156 774.332031 1005.917969 773.234375 1009.585938 C 772.132812 1013.25 773.589844 1016.921875 776.488281 1017.789062 C 779.386719 1018.660156 782.625 1016.398438 783.726562 1012.730469 C 784.824219 1009.0625 783.367188 1005.394531 780.46875 1004.527344 Z M 780.46875 1004.527344 " fill-opacity="1" fill-rule="nonzero"/></svg>