<svg xmlns="http://www.w3.org/2000/svg" xmlns:xlink="http://www.w3.org/1999/xlink" width="2000" zoomAndPan="magnify" viewBox="0 0 1500 1499.999933" height="2000" preserveAspectRatio="xMidYMid meet" version="1.0"><defs><clipPath id="ec9dbc2ecb"><path d="M 247.464844 97.03125 L 1349.964844 97.03125 L 1349.964844 1435 L 247.464844 1435 Z M 247.464844 97.03125 " clip-rule="nonzero"/></clipPath></defs><g clip-path="url(#ec9dbc2ecb)"><path fill="#d3d360" d="M 748.335938 691.292969 C 744.992188 697.695312 741.511719 706.605469 738.449219 715.792969 C 735.386719 725.117188 733.019531 734.722656 732.1875 742.378906 C 731.628906 747.113281 731.628906 751.011719 732.605469 753.378906 C 736.082031 762.148438 745.132812 776.484375 752.648438 782.332031 C 754.042969 783.445312 755.433594 784.144531 756.6875 784.558594 C 757.523438 784.699219 758.21875 784.558594 758.914062 784.144531 C 763.925781 780.105469 774.367188 761.730469 779.378906 747.949219 C 780.628906 744.46875 781.605469 741.265625 782.023438 738.761719 C 782.300781 737.367188 782.300781 736.117188 782.023438 735.140625 C 780.210938 727.902344 776.035156 702.429688 772.417969 693.101562 C 772.136719 692.265625 771.582031 691.429688 771.441406 691.011719 C 767.542969 691.847656 758.496094 693.796875 753.902344 693.9375 C 752.09375 693.9375 750.699219 693.65625 750.144531 693.238281 C 750.003906 693.238281 749.308594 692.40625 748.332031 691.292969 Z M 747.636719 684.46875 C 749.167969 682.105469 750.699219 680.292969 751.953125 679.457031 C 754.597656 677.648438 757.660156 677.09375 760.863281 677.230469 C 765.179688 677.371094 769.773438 678.902344 773.253906 680.15625 C 774.503906 680.574219 776.035156 680.988281 776.871094 681.128906 C 776.871094 680.851562 776.871094 680.574219 777.011719 680.292969 C 777.429688 678.902344 778.261719 676.953125 779.378906 674.585938 C 785.640625 661.777344 802.066406 635.746094 804.992188 631.015625 C 804.992188 631.015625 805.128906 630.734375 805.269531 630.597656 C 805.128906 630.597656 804.714844 630.320312 804.433594 630.320312 C 804.015625 630.320312 803.460938 630.179688 802.902344 630.039062 C 797.472656 629.621094 787.171875 631.710938 774.367188 636.304688 C 762.671875 640.480469 753.484375 637.558594 745.410156 632.683594 C 740.261719 629.621094 735.527344 625.722656 730.65625 622.246094 C 726.894531 627.535156 719.9375 630.179688 712.976562 630.875 C 712.835938 630.875 712.695312 630.875 712.558594 630.875 C 712.417969 631.015625 712.558594 631.292969 712.558594 631.570312 C 712.558594 632.546875 712.835938 633.660156 713.394531 635.050781 C 717.988281 647.441406 738.171875 673.054688 747.636719 684.46875 Z M 851.207031 600.804688 C 845.222656 606.792969 839.515625 617.652344 833.808594 631.152344 C 833.527344 631.988281 833.113281 632.824219 832.832031 633.519531 C 837.007812 636.304688 840.210938 639.226562 841.601562 642.011719 C 841.742188 641.871094 841.882812 641.59375 842.019531 641.316406 C 842.855469 639.921875 843.832031 637.835938 844.664062 635.050781 C 847.449219 626.976562 849.957031 614.03125 851.070312 600.667969 Z M 528.246094 640.621094 C 525.742188 642.152344 523.515625 643.542969 521.566406 644.933594 C 518.085938 647.300781 515.441406 649.25 513.910156 650.921875 C 513.910156 650.921875 513.910156 650.921875 513.769531 651.058594 C 514.742188 651.058594 515.859375 650.363281 516.972656 649.667969 C 519.199219 648.136719 521.566406 645.910156 524.347656 643.683594 C 525.601562 642.707031 526.855469 641.734375 528.246094 640.757812 Z M 655.761719 629.484375 C 647.546875 611.804688 641.839844 598.996094 640.449219 595.238281 C 640.167969 594.542969 639.335938 594.402344 638.222656 594.125 C 636.410156 593.847656 633.90625 594.125 630.84375 594.679688 C 608.011719 598.996094 557.898438 622.941406 530.753906 639.226562 C 533.816406 637.558594 537.15625 636.445312 540.914062 636.304688 C 547.597656 636.027344 555.671875 638.808594 565.695312 647.996094 C 576.832031 658.160156 586.574219 664.703125 594.648438 667.347656 C 599.660156 668.878906 603.976562 669.019531 607.734375 667.347656 C 614.136719 664.285156 618.175781 656.210938 620.261719 642.847656 C 621.515625 635.050781 624.300781 630.179688 628.058594 627.394531 C 633.628906 623.21875 641.421875 623.777344 649.496094 626.699219 C 651.585938 627.535156 653.8125 628.507812 655.898438 629.484375 Z M 668.429688 564.335938 C 662.582031 569.207031 657.015625 573.9375 653.394531 577.835938 C 651.722656 579.507812 650.472656 581.039062 649.914062 582.292969 C 649.773438 582.570312 649.636719 582.988281 649.636719 583.128906 C 649.773438 583.128906 650.191406 583.265625 650.472656 583.40625 C 653.253906 583.824219 655.761719 582.847656 657.988281 580.898438 C 660.492188 578.671875 662.859375 575.472656 664.949219 571.574219 C 666.203125 569.34375 667.316406 566.839844 668.566406 564.335938 Z M 658.683594 361.089844 C 658.960938 360.535156 659.101562 359.976562 659.101562 359.421875 C 659.101562 358.445312 658.960938 357.191406 658.265625 355.941406 C 658.40625 357.890625 658.546875 359.558594 658.683594 361.089844 Z M 899.234375 290.234375 C 896.3125 293.019531 894.222656 295.523438 893.527344 297.335938 C 890.605469 307.21875 889.210938 384.339844 893.25 414.824219 C 893.804688 419.140625 894.5 422.621094 895.335938 424.570312 C 895.335938 424.847656 895.617188 425.265625 895.753906 425.542969 C 900.765625 425.542969 906.613281 425.824219 910.789062 425.542969 C 912.042969 425.542969 913.015625 425.265625 913.992188 424.988281 C 914.269531 424.988281 914.410156 424.847656 914.546875 424.707031 C 914.546875 424.011719 914.410156 421.925781 914.128906 419.558594 C 912.597656 400.90625 905.636719 342.019531 899.234375 290.375 Z M 902.160156 282.300781 C 912.878906 273.390625 928.328125 262.671875 938.628906 253.761719 C 942.667969 250.28125 945.730469 247.082031 947.402344 244.574219 C 948.097656 243.320312 948.652344 242.347656 948.375 241.652344 C 948.234375 241.09375 947.402344 240.398438 946.425781 239.421875 C 943.085938 236.222656 936.542969 231.070312 927.910156 224.667969 C 878.074219 187.5 756.824219 107.734375 744.019531 101.46875 C 743.601562 101.328125 743.183594 101.46875 742.488281 101.46875 C 741.375 101.609375 739.980469 102.027344 738.449219 102.722656 C 733.4375 104.808594 726.0625 108.847656 717.289062 114.414062 C 669.683594 144.484375 577.664062 217.566406 539.941406 249.726562 C 530.753906 257.519531 524.765625 262.949219 523.792969 264.480469 C 523.792969 264.621094 523.792969 264.757812 523.792969 265.039062 C 523.792969 265.457031 524.070312 265.875 524.347656 266.289062 C 525.183594 267.683594 526.855469 269.351562 528.941406 271.300781 C 547.734375 287.730469 606.480469 317.519531 638.636719 335.476562 C 645.042969 339.097656 649.914062 342.160156 653.394531 344.941406 C 652.003906 324.617188 651.304688 295.664062 656.875 270.746094 C 661.746094 249.027344 671.628906 230.234375 689.589844 222.578125 C 722.71875 208.378906 764.480469 206.152344 797.753906 214.921875 C 820.164062 220.769531 838.679688 231.628906 848.007812 246.800781 C 855.523438 258.914062 859.003906 276.730469 860.257812 294.6875 C 860.257812 296.359375 860.394531 298.03125 860.535156 299.699219 C 863.039062 298.308594 865.824219 296.917969 868.609375 295.804688 C 873.761719 293.574219 879.050781 291.488281 883.226562 289.261719 C 885.730469 287.867188 887.679688 286.476562 888.792969 284.945312 C 889.351562 283.96875 889.90625 282.4375 890.1875 280.351562 C 890.742188 276.730469 891.023438 271.859375 891.023438 266.152344 C 891.023438 243.738281 887.261719 210.609375 887.542969 203.507812 L 887.542969 202.8125 C 887.542969 202.8125 887.820312 202.117188 887.820312 202.117188 L 888.375 201.558594 L 889.210938 201.28125 L 889.769531 201.28125 C 889.769531 201.28125 890.464844 201.558594 890.464844 201.558594 L 890.882812 201.835938 L 891.300781 202.394531 C 891.4375 202.671875 891.855469 204.34375 892.273438 206.988281 C 894.085938 217.566406 897.980469 247.914062 902.296875 282.578125 Z M 856.636719 306.9375 C 854.550781 308.75 853.019531 310.835938 852.320312 313.34375 C 850.929688 318.910156 849.257812 331.71875 848.144531 344.804688 C 849.539062 348.5625 850.652344 352.042969 851.347656 355.246094 C 851.90625 353.574219 852.601562 351.207031 853.15625 348.285156 C 855.105469 338.679688 856.777344 323.367188 856.636719 306.9375 Z M 844.109375 345.5 C 836.3125 325.730469 816.40625 300.953125 768.9375 295.664062 C 712.140625 289.398438 686.804688 306.523438 677.476562 330.1875 C 670.796875 347.03125 672.464844 379.328125 670.65625 390.601562 C 670.238281 392.691406 669.820312 394.222656 669.265625 395.058594 L 668.847656 395.476562 L 668.289062 395.894531 L 667.871094 396.171875 L 667.316406 396.171875 C 667.316406 396.3125 666.757812 396.3125 666.757812 396.3125 L 666.203125 396.3125 C 666.203125 396.3125 665.503906 396.03125 665.503906 396.03125 L 664.949219 395.753906 C 664.113281 395.195312 663 393.804688 661.746094 391.300781 C 659.519531 386.84375 657.015625 383.78125 654.367188 382.113281 C 652.28125 380.71875 650.054688 380.300781 648.242188 381.277344 C 646.710938 381.972656 645.460938 383.503906 644.484375 385.730469 C 642.816406 389.628906 642.117188 395.335938 642.953125 402.992188 C 645.179688 421.230469 655.066406 433.898438 662.582031 439.882812 C 664.390625 441.273438 666.0625 442.386719 667.453125 442.945312 C 668.011719 443.222656 668.566406 443.363281 668.984375 443.363281 C 670.097656 443.363281 671.214844 443.78125 672.1875 444.894531 C 673.023438 445.867188 673.996094 447.679688 674.691406 449.90625 C 677.199219 457.5625 678.730469 472.039062 680.679688 484.707031 C 684.855469 511.714844 704.761719 534.960938 728.425781 541.921875 C 741.511719 545.820312 784.527344 551.804688 810.003906 509.625 C 815.988281 499.742188 815.710938 493.753906 815.988281 492.921875 L 815.988281 492.363281 C 816.128906 492.363281 816.40625 491.945312 816.40625 491.945312 L 816.824219 491.527344 L 817.382812 491.25 L 817.796875 491.25 C 817.796875 491.25 818.214844 491.25 818.214844 491.25 L 818.632812 491.25 C 818.632812 491.25 819.050781 491.667969 819.050781 491.667969 L 819.46875 492.085938 C 819.46875 492.085938 819.746094 492.503906 819.886719 492.921875 C 825.59375 505.308594 822.253906 522.851562 812.648438 538.582031 C 799.285156 560.4375 774.503906 578.8125 747.359375 575.054688 C 729.402344 572.546875 710.332031 560.4375 693.207031 532.734375 C 692.371094 531.34375 691.398438 530.226562 690.703125 529.671875 C 690.144531 529.253906 689.726562 529.113281 689.308594 529.113281 C 688.753906 529.113281 688.195312 529.53125 687.777344 529.949219 C 686.945312 530.644531 686.246094 531.621094 685.550781 532.875 C 684.160156 535.238281 682.765625 538.300781 681.375 541.78125 C 680.121094 544.707031 679.007812 547.90625 677.753906 551.25 C 680.957031 548.464844 683.878906 545.820312 686.109375 543.59375 C 687.640625 541.921875 688.890625 540.53125 689.308594 539.414062 C 690.144531 537.46875 691.257812 536.769531 692.511719 536.769531 C 693.484375 536.769531 694.738281 537.1875 696.132812 538.441406 C 697.941406 540.25 700.308594 544.289062 703.089844 549.71875 C 709.078125 561.550781 717.011719 579.785156 725.921875 593.289062 C 733.300781 604.566406 734.414062 612.777344 732.464844 618.484375 C 737.335938 621.828125 742.207031 625.863281 747.5 629.066406 C 754.738281 633.382812 762.8125 636.027344 773.113281 632.40625 C 782.578125 629.066406 790.652344 627.117188 796.5 626.28125 C 800.816406 625.722656 804.015625 625.863281 805.964844 626.421875 C 807.636719 626.976562 808.609375 627.953125 809.027344 628.925781 C 809.445312 630.039062 809.445312 631.433594 808.472656 632.964844 C 805.964844 637.140625 793.019531 657.464844 785.78125 670.96875 C 783.972656 674.308594 782.441406 677.371094 781.605469 679.457031 C 781.1875 680.574219 780.910156 681.269531 780.910156 681.6875 L 780.910156 683.078125 C 780.910156 683.078125 780.351562 684.050781 780.351562 684.050781 L 779.515625 684.75 L 778.960938 685.027344 L 778.402344 685.027344 C 777.566406 685.304688 776.316406 685.027344 774.785156 684.75 C 772.136719 684.050781 768.242188 682.519531 764.34375 681.6875 C 760.863281 680.988281 757.242188 680.851562 754.460938 682.800781 C 753.207031 683.636719 751.953125 685.304688 750.5625 687.671875 C 751.535156 688.785156 752.230469 689.621094 752.511719 689.898438 C 752.925781 689.898438 754.460938 689.898438 755.710938 689.898438 C 760.863281 689.34375 768.65625 687.671875 771.441406 686.976562 L 772 686.976562 C 772 686.976562 772.554688 686.976562 772.554688 686.976562 L 773.113281 687.253906 L 773.808594 687.671875 C 774.503906 688.230469 775.480469 689.761719 776.175781 691.847656 C 779.792969 701.3125 783.972656 727.066406 785.917969 734.445312 C 786.617188 737.367188 785.503906 743.078125 783.136719 749.480469 C 777.847656 763.816406 766.710938 783.027344 761.417969 787.34375 C 758.636719 789.570312 754.597656 788.875 750.28125 785.535156 C 742.207031 779.269531 732.601562 764.097656 728.984375 754.769531 C 727.871094 751.984375 727.730469 747.390625 728.425781 741.960938 C 729.261719 734.167969 731.769531 724.285156 734.832031 714.679688 C 738.03125 704.65625 742.070312 694.910156 745.6875 688.230469 C 736.082031 676.8125 714.644531 649.527344 709.773438 636.582031 C 709.078125 634.773438 708.660156 633.101562 708.660156 631.851562 C 708.660156 630.457031 708.9375 629.484375 709.496094 628.648438 C 710.191406 627.8125 711.164062 627.117188 712.695312 626.976562 C 718.402344 626.421875 724.390625 624.472656 727.453125 620.15625 C 726.199219 619.320312 724.808594 618.625 723.554688 617.929688 C 720.492188 616.535156 717.289062 617.929688 713.949219 620.574219 C 707.964844 625.167969 701.699219 633.519531 695.992188 640.203125 C 691.953125 644.933594 688.058594 648.972656 684.855469 650.503906 C 681.933594 651.894531 679.425781 651.757812 677.199219 649.527344 C 674.832031 647.164062 670.378906 643.402344 665.085938 639.644531 C 681.234375 673.75 703.925781 719.828125 724.113281 754.074219 C 732.882812 768.828125 741.09375 781.496094 748.054688 789.988281 C 752.511719 795.417969 756.40625 799.039062 759.609375 800.429688 C 762.253906 801.542969 764.898438 800.011719 767.683594 796.949219 C 772.835938 791.242188 777.984375 780.523438 783.414062 766.878906 C 797.472656 730.546875 812.371094 673.890625 827.960938 635.328125 C 827.683594 635.050781 827.265625 634.914062 826.847656 634.632812 C 813.34375 626.839844 793.296875 620.15625 786.617188 617.511719 C 785.222656 616.953125 784.25 615.839844 783.972656 614.03125 C 783.691406 612.359375 784.109375 609.992188 785.222656 607.070312 C 791.628906 590.226562 820.445312 552.222656 824.480469 544.84375 C 826.289062 541.363281 826.707031 536.632812 826.570312 531.0625 C 826.289062 522.015625 824.621094 511.15625 824.621094 500.4375 C 824.621094 489.71875 827.402344 463.128906 834.644531 448.375 C 837.984375 441.554688 842.4375 436.820312 847.867188 435.707031 C 853.851562 434.453125 858.863281 429.859375 862.625 423.59375 C 868.609375 413.710938 871.394531 399.652344 869.304688 387.121094 C 868.050781 379.464844 865.546875 375.570312 862.484375 374.316406 C 860.8125 373.621094 859.003906 373.757812 857.332031 374.453125 C 854.410156 375.707031 851.625 378.351562 849.675781 381.414062 C 849.257812 381.972656 848.980469 382.390625 848.703125 382.667969 L 848.144531 383.085938 L 847.589844 383.363281 L 846.894531 383.363281 C 846.894531 383.363281 846.195312 383.363281 846.195312 383.363281 L 845.640625 383.085938 L 845.222656 382.667969 C 844.664062 382.113281 843.96875 380.859375 843.691406 378.769531 C 842.855469 372.921875 843.414062 359.28125 844.527344 345.640625 Z M 842.160156 551.25 C 839.933594 547.769531 837.707031 545.261719 835.757812 543.730469 C 834.644531 542.894531 833.667969 542.199219 832.832031 541.921875 C 832.832031 541.921875 832.554688 541.921875 832.414062 541.921875 C 832.414062 541.921875 832.414062 542.0625 832.414062 542.199219 C 832.695312 542.894531 833.113281 543.730469 833.808594 544.566406 C 835.339844 546.375 838.121094 548.605469 842.019531 551.25 Z M 829.074219 543.871094 C 828.65625 544.84375 828.378906 545.820312 827.820312 546.65625 C 823.785156 554.03125 795.246094 591.617188 788.84375 608.324219 C 788.148438 610.132812 787.730469 611.664062 787.730469 612.777344 C 787.730469 613.890625 787.730469 613.195312 787.730469 613.335938 C 794.550781 615.980469 814.875 622.800781 828.515625 630.734375 C 828.796875 630.734375 828.933594 631.015625 829.214844 631.152344 C 829.492188 630.597656 829.769531 629.902344 830.050781 629.34375 C 837.007812 612.917969 844.246094 600.527344 851.488281 594.960938 C 852.042969 582.847656 851.207031 571.015625 848.007812 562.804688 C 847.3125 561.132812 846.613281 559.460938 845.917969 558.070312 C 845.917969 558.070312 845.777344 558.070312 845.640625 557.929688 C 838.261719 553.613281 833.113281 549.71875 830.882812 546.933594 C 829.910156 545.820312 829.351562 544.707031 828.933594 543.730469 Z M 851.765625 561.410156 C 851.765625 561.410156 851.765625 561.410156 851.765625 561.550781 C 854.96875 569.625 855.941406 580.898438 855.523438 592.730469 C 864.574219 588.554688 878.773438 588.277344 895.058594 590.644531 C 919.421875 594.261719 948.652344 603.589844 972.320312 613.335938 C 956.308594 604.703125 940.023438 597.882812 924.847656 592.59375 C 894.78125 582.011719 868.75 570.597656 851.625 561.410156 Z M 1089.671875 1318.558594 C 1102.757812 1266.496094 1106.515625 1185.476562 1101.78125 1158.332031 C 1101.226562 1155.546875 1100.667969 1153.320312 1099.972656 1151.789062 C 1099.832031 1151.371094 1099.414062 1150.953125 1099.277344 1150.816406 C 1099.136719 1150.953125 1098.859375 1151.234375 1098.71875 1151.371094 C 1098.023438 1152.207031 1097.328125 1153.460938 1096.632812 1155.128906 C 1084.242188 1182.414062 1078.535156 1246.730469 1087.445312 1305.476562 C 1088.140625 1309.929688 1088.835938 1314.246094 1089.671875 1318.558594 Z M 860.257812 1217.21875 C 833.113281 1244.917969 805.128906 1273.316406 801.234375 1276.519531 C 800.675781 1276.9375 800.257812 1277.355469 799.980469 1277.773438 C 799.839844 1278.050781 799.703125 1278.328125 799.703125 1278.609375 C 799.703125 1278.886719 800.121094 1279.164062 800.535156 1279.441406 C 801.652344 1280.140625 803.460938 1280.695312 805.6875 1280.972656 C 809.308594 1281.390625 814.039062 1281.113281 818.914062 1279.859375 C 822.671875 1278.886719 827.125 1275.546875 831.582031 1271.648438 C 838.820312 1265.382812 846.058594 1257.449219 851.207031 1253.410156 C 853.019531 1252.019531 854.550781 1251.042969 855.664062 1250.628906 C 857.054688 1250.210938 858.167969 1250.347656 859.003906 1250.628906 C 859.839844 1251.183594 860.675781 1252.019531 860.953125 1253.828125 C 861.371094 1255.917969 860.953125 1258.003906 859.699219 1260.230469 C 858.167969 1263.15625 855.664062 1266.21875 852.320312 1269.558594 C 844.804688 1277.214844 833.808594 1285.984375 828.933594 1296.007812 C 827.683594 1298.652344 827.402344 1300.601562 828.101562 1301.996094 C 828.796875 1303.386719 830.328125 1304.082031 832.414062 1304.640625 C 840.210938 1306.726562 853.4375 1304.777344 860.394531 1305.335938 C 870.28125 1306.171875 915.382812 1310.207031 929.164062 1311.460938 C 922.066406 1300.183594 898.957031 1263.710938 880.304688 1239.210938 C 874.59375 1231.695312 869.445312 1225.429688 865.128906 1221.253906 C 863.179688 1219.445312 861.511719 1217.914062 860.257812 1217.21875 Z M 802.207031 1270.253906 C 810.976562 1261.761719 833.113281 1239.210938 855.246094 1216.660156 C 854.828125 1216.660156 854.410156 1216.800781 854.132812 1216.9375 C 850.929688 1217.914062 847.3125 1220 843.550781 1222.925781 C 828.101562 1234.617188 809.445312 1258.144531 802.625 1269.558594 C 802.484375 1269.835938 802.347656 1269.976562 802.207031 1270.253906 Z M 620.820312 1318.976562 C 619.984375 1318.421875 619.289062 1318.003906 618.3125 1318.003906 C 616.921875 1317.863281 615.113281 1318.28125 612.746094 1319.394531 C 601.050781 1324.683594 543.140625 1347.933594 528.527344 1361.574219 C 527.550781 1362.410156 526.714844 1363.386719 526.296875 1364.082031 C 525.878906 1364.636719 525.742188 1365.195312 525.742188 1365.613281 C 525.742188 1366.03125 526.160156 1366.308594 526.714844 1366.585938 C 526.992188 1366.726562 527.410156 1366.726562 527.828125 1366.726562 C 528.527344 1366.726562 529.5 1366.726562 530.472656 1366.449219 C 533.953125 1365.75 538.828125 1363.941406 544.8125 1361.296875 C 563.1875 1353.222656 591.726562 1336.933594 620.820312 1318.839844 Z M 653.8125 1181.996094 C 631.121094 1158.472656 609.40625 1126.453125 598.269531 1082.601562 C 578.640625 1004.230469 566.527344 882.144531 555.390625 806.695312 C 550.660156 774.816406 546.203125 751.429688 541.332031 743.492188 C 541.054688 742.9375 540.496094 742.378906 540.21875 741.960938 C 540.21875 742.242188 539.941406 742.519531 539.800781 742.796875 C 539.382812 744.050781 538.964844 746 538.6875 748.226562 C 534.234375 781.21875 543.558594 902.46875 537.714844 947.988281 C 537.15625 952.027344 536.460938 954.671875 535.625 956.34375 C 534.789062 958.011719 533.675781 958.847656 532.5625 958.988281 L 531.867188 958.988281 C 531.867188 958.988281 531.171875 958.988281 531.171875 958.988281 C 530.753906 958.988281 530.335938 958.707031 529.917969 958.429688 C 529.082031 957.875 528.109375 956.898438 527.132812 955.507812 C 519.617188 944.371094 508.0625 901.632812 498.316406 869.894531 C 493.722656 855.136719 489.546875 842.75 486.34375 837.460938 C 485.929688 836.761719 485.648438 836.34375 485.230469 835.929688 C 485.09375 836.34375 484.953125 836.902344 484.675781 837.597656 C 484.257812 839.546875 483.839844 842.332031 483.699219 846.230469 C 482.167969 872.816406 501.796875 927.386719 527.96875 985.714844 C 567.503906 1073.414062 622.351562 1169.46875 645.320312 1191.324219 C 647.128906 1192.996094 648.523438 1193.96875 649.636719 1193.832031 C 650.609375 1193.832031 651.167969 1192.855469 651.863281 1191.464844 C 652.835938 1189.238281 653.535156 1186.035156 653.8125 1181.996094 Z M 923.316406 1156.382812 C 926.660156 1155.6875 930.558594 1154.992188 934.871094 1154.296875 C 961.042969 1149.839844 1004.199219 1144.132812 1035.242188 1127.566406 C 1039.417969 1125.339844 1042.199219 1123.253906 1044.011719 1121.441406 C 1045.261719 1119.910156 1045.960938 1118.660156 1045.820312 1117.40625 C 1045.679688 1115.734375 1044.289062 1114.34375 1042.480469 1112.949219 C 1039.136719 1110.445312 1034.128906 1108.21875 1029.117188 1105.992188 C 1021.738281 1102.789062 1014.21875 1099.863281 1011.15625 1096.523438 C 1009.207031 1094.574219 1008.652344 1092.347656 1009.488281 1090.261719 C 1009.90625 1089.144531 1010.738281 1088.03125 1012.269531 1086.78125 C 1014.082031 1085.386719 1016.863281 1083.855469 1020.902344 1082.1875 C 1037.328125 1075.503906 1048.742188 1068.683594 1055.984375 1057.964844 C 1066.980469 1041.675781 1068.234375 1016.480469 1063.082031 969.84375 C 1056.816406 911.515625 1059.460938 804.328125 1067.121094 757.277344 C 1065.867188 762.984375 1064.195312 768.96875 1062.109375 774.953125 C 1048.1875 817.550781 1019.648438 867.667969 999.882812 931.007812 C 995.84375 943.953125 993.476562 950.496094 992.503906 951.886719 L 991.667969 952.722656 L 991.25 953 L 990.832031 953 C 990.832031 953 990.277344 953.140625 990.277344 953.140625 L 989.71875 953.140625 C 989.71875 953.140625 989.300781 952.863281 989.300781 952.863281 L 989.023438 952.582031 L 988.605469 951.886719 L 988.605469 951.191406 C 988.328125 950.632812 988.328125 949.242188 988.605469 947.292969 C 991.808594 923.769531 1023.824219 788.597656 1021.179688 757.554688 C 1021.179688 756.160156 1020.902344 755.046875 1020.625 754.074219 C 1020.625 753.65625 1020.207031 753.238281 1020.066406 752.960938 C 1019.929688 752.960938 1019.511719 753.238281 1019.371094 753.378906 C 1018.257812 754.214844 1016.867188 755.746094 1015.332031 758.109375 C 1008.375 768.132812 1002.804688 774.398438 998.351562 777.878906 C 995.007812 780.523438 992.085938 781.496094 989.582031 781.359375 C 987.214844 781.21875 985.265625 780.105469 983.59375 778.015625 C 982.203125 776.207031 981.089844 773.703125 980.253906 770.640625 C 977.46875 760.894531 976.773438 744.886719 975.9375 727.902344 C 973.433594 789.015625 971.902344 945.761719 977.886719 1010.078125 C 984.429688 1079.261719 941.972656 1141.210938 923.316406 1156.382812 Z M 657.988281 1180.605469 C 681.375 1204.410156 705.738281 1219.027344 720.214844 1227.9375 C 724.667969 1230.71875 728.148438 1232.808594 730.515625 1234.617188 C 732.324219 1236.011719 733.578125 1237.261719 734.136719 1238.238281 L 734.550781 1239.210938 L 734.550781 1239.90625 C 734.550781 1240.046875 734.550781 1240.324219 734.550781 1240.605469 C 734.414062 1241.300781 733.855469 1242.273438 733.019531 1243.386719 C 730.515625 1246.730469 724.53125 1252.160156 715.898438 1258.980469 C 695.851562 1274.847656 661.746094 1298.097656 627.917969 1319.257812 C 632.511719 1322.875 640.03125 1327.609375 657.152344 1330.113281 C 679.425781 1333.316406 696.410156 1330.113281 709.214844 1326.914062 C 717.988281 1324.683594 724.808594 1322.457031 730.097656 1322.179688 C 737.335938 1321.902344 746.941406 1316.054688 751.8125 1309.652344 C 754.597656 1305.890625 755.851562 1301.855469 753.066406 1298.652344 C 750.699219 1296.007812 745.828125 1293.085938 740.121094 1290.023438 C 731.210938 1285.148438 720.632812 1280.140625 715.34375 1276.242188 C 713.8125 1275.128906 712.558594 1274.015625 712 1273.039062 C 711.722656 1272.480469 711.445312 1271.925781 711.304688 1271.367188 L 711.304688 1270.671875 C 711.304688 1270.671875 711.304688 1269.976562 711.304688 1269.976562 C 711.582031 1268.722656 712.695312 1267.472656 715.480469 1266.773438 C 718.683594 1265.941406 723.832031 1266.773438 730.097656 1269.003906 C 743.460938 1273.457031 762.117188 1283.0625 774.785156 1287.238281 C 778.402344 1288.492188 781.464844 1289.1875 783.691406 1289.1875 C 784.945312 1289.1875 785.921875 1289.046875 786.199219 1288.074219 C 786.335938 1287.238281 786.199219 1286.402344 785.78125 1285.429688 C 785.085938 1283.480469 783.554688 1281.390625 781.742188 1279.023438 C 779.238281 1275.960938 776.175781 1272.761719 772.695312 1269.558594 C 761.976562 1263.433594 751.257812 1254.386719 745.828125 1249.511719 C 744.574219 1248.398438 744.019531 1247.703125 743.878906 1247.425781 L 743.878906 1246.867188 C 743.742188 1246.867188 743.742188 1246.171875 743.742188 1246.171875 L 743.742188 1245.617188 C 743.742188 1245.617188 744.15625 1245.058594 744.15625 1245.058594 L 744.574219 1244.640625 L 744.992188 1244.363281 L 745.550781 1244.363281 C 745.550781 1244.222656 746.105469 1244.363281 746.105469 1244.363281 C 746.386719 1244.363281 747.21875 1244.78125 748.472656 1245.476562 C 752.929688 1248.121094 765.179688 1257.03125 775.199219 1266.355469 C 777.429688 1267.609375 779.65625 1268.722656 781.742188 1269.558594 C 789.121094 1272.621094 795.804688 1273.457031 799.285156 1267.75 C 806.246094 1256.054688 825.316406 1231.972656 841.183594 1220 C 845.5 1216.800781 849.539062 1214.433594 853.019531 1213.457031 C 855.246094 1212.761719 857.472656 1212.625 859.28125 1212.902344 C 883.921875 1187.84375 907.585938 1164.039062 911.902344 1160.558594 C 912.320312 1160.28125 912.738281 1160.003906 913.296875 1159.722656 C 912.320312 1159.027344 911.625 1157.636719 911.765625 1155.410156 C 912.460938 1140.097656 912.042969 982.792969 902.019531 916.808594 C 900.488281 907.0625 898.816406 899.40625 896.867188 894.394531 C 896.3125 892.863281 895.617188 891.609375 895.058594 890.777344 C 894.640625 890.21875 894.222656 889.660156 893.804688 889.523438 C 890.882812 888.410156 882.25 887.851562 870 887.851562 C 819.46875 887.574219 707.546875 895.371094 654.230469 904.140625 C 642.816406 906.089844 634.042969 907.898438 629.449219 909.847656 C 628.617188 910.265625 627.917969 910.542969 627.363281 910.960938 C 627.085938 911.101562 626.804688 911.238281 626.804688 911.515625 C 626.527344 912.074219 626.527344 913.046875 626.527344 914.578125 C 626.527344 919.035156 627.085938 926.691406 628.476562 936.714844 C 635.714844 994.902344 661.191406 1131.1875 658.546875 1179.074219 C 658.546875 1179.632812 658.546875 1180.1875 658.546875 1180.746094 Z M 1012.550781 640.203125 C 1009.070312 637.277344 1005.449219 634.632812 1001.832031 631.988281 C 979.835938 619.183594 931.390625 600.25 894.363281 594.679688 C 877.65625 592.175781 863.457031 592.316406 855.246094 597.328125 C 855.105469 600.25 854.828125 603.035156 854.550781 605.816406 C 852.738281 621.828125 849.121094 636.582031 845.777344 642.429688 C 845.082031 643.820312 844.246094 644.65625 843.550781 645.214844 C 843.132812 645.492188 842.855469 645.632812 842.4375 645.910156 L 841.882812 645.910156 C 841.882812 646.050781 841.183594 646.1875 841.183594 646.1875 C 840.070312 646.1875 838.679688 645.632812 837.84375 643.820312 C 836.730469 641.59375 834.226562 639.367188 831.023438 637.140625 C 815.570312 675.699219 800.816406 731.941406 786.753906 767.996094 C 781.1875 782.332031 775.617188 793.46875 770.328125 799.316406 C 766.152344 803.910156 761.835938 805.441406 757.660156 803.769531 C 754.042969 802.238281 749.585938 798.203125 744.574219 792.214844 C 737.476562 783.585938 729.125 770.777344 720.214844 755.882812 C 698.777344 719.550781 674.554688 670.132812 658.40625 635.328125 C 654.925781 633.242188 651.304688 631.433594 647.828125 630.179688 C 641.144531 627.671875 634.742188 626.839844 630.148438 630.179688 C 627.085938 632.40625 624.855469 636.582031 623.882812 642.984375 C 621.515625 658.160156 616.367188 667.070312 609.125 670.550781 C 604.671875 672.636719 599.242188 672.777344 593.117188 670.828125 C 584.625 668.042969 574.324219 661.222656 562.632812 650.644531 C 554.277344 642.984375 547.597656 640.0625 541.890625 639.921875 C 533.398438 639.644531 527.550781 645.492188 522.679688 649.667969 C 520.730469 651.339844 518.78125 652.871094 516.972656 653.707031 C 514.742188 654.820312 512.65625 655.097656 510.429688 654.121094 L 509.871094 653.84375 L 509.316406 653.425781 L 508.898438 652.871094 L 508.617188 652.175781 L 508.617188 651.058594 C 508.617188 651.058594 508.617188 650.363281 508.617188 650.363281 C 508.617188 650.226562 508.757812 649.945312 508.898438 649.808594 C 509.734375 647.996094 513.351562 644.933594 518.921875 641.175781 C 542.585938 625.308594 603.558594 595.097656 629.589844 590.226562 C 633.90625 589.390625 637.246094 589.390625 639.472656 589.949219 C 641.5625 590.503906 642.953125 591.617188 643.511719 593.148438 C 645.179688 597.328125 651.722656 612.222656 661.191406 632.265625 C 669.125 637.140625 676.085938 642.847656 679.289062 646.1875 C 680.539062 647.441406 682.070312 646.746094 683.742188 645.632812 C 686.386719 643.820312 689.171875 640.757812 692.234375 637.140625 C 698.082031 630.179688 704.621094 621.6875 710.75 616.816406 C 715.480469 613.054688 720.214844 611.664062 724.53125 613.753906 C 725.78125 614.449219 727.175781 615.144531 728.425781 615.839844 C 729.679688 610.96875 728.148438 604.285156 722.023438 595.097656 C 710.746094 578.117188 701.144531 553.613281 694.878906 543.871094 C 694.183594 542.757812 693.484375 541.78125 692.929688 541.085938 C 692.929688 541.085938 692.652344 540.808594 692.511719 540.667969 C 691.539062 542.894531 688.476562 546.238281 684.160156 549.996094 C 681.234375 552.640625 677.894531 555.425781 674.277344 558.488281 C 671.769531 565.03125 668.847656 571.574219 665.644531 576.585938 C 661.050781 583.683594 655.621094 587.859375 649.078125 586.886719 C 647.128906 586.605469 646.15625 585.773438 645.460938 584.9375 C 644.625 583.683594 644.625 581.734375 646.015625 579.367188 C 649.21875 573.9375 660.632812 564.75 670.796875 556.261719 C 674.414062 547.074219 677.476562 537.882812 680.679688 532.039062 C 682.210938 529.394531 683.601562 527.304688 685.273438 526.191406 C 686.664062 525.214844 688.058594 524.800781 689.589844 524.9375 C 691.539062 525.214844 693.902344 526.746094 696.132812 530.507812 C 712.417969 556.816406 730.375 568.648438 747.5 570.875 C 772.972656 574.355469 796.359375 556.816406 808.890625 536.351562 C 816.128906 524.382812 819.886719 511.296875 817.9375 500.855469 C 816.964844 503.777344 815.433594 507.398438 812.925781 511.574219 C 786.058594 556.121094 740.539062 549.71875 726.757812 545.679688 C 701.839844 538.300781 680.679688 513.941406 676.226562 485.265625 C 674.277344 472.875 672.882812 458.535156 670.378906 451.019531 C 669.960938 449.628906 669.542969 448.511719 668.984375 447.679688 C 668.847656 447.398438 668.566406 447.261719 668.429688 447.121094 C 666.621094 447.121094 663.417969 445.730469 659.660156 442.667969 C 651.585938 436.261719 640.867188 422.761719 638.636719 403.132812 C 637.523438 394.5 638.5 388.097656 640.449219 383.78125 C 641.980469 380.582031 643.929688 378.351562 646.296875 377.378906 C 648.800781 376.265625 651.445312 376.265625 654.230469 377.378906 C 657.847656 379.050781 661.746094 382.808594 664.949219 389.210938 C 665.226562 389.90625 665.644531 390.464844 665.921875 390.882812 C 665.921875 390.882812 665.921875 390.601562 665.921875 390.464844 C 666.203125 388.792969 666.480469 386.425781 666.621094 383.78125 C 667.59375 369.304688 667.316406 343.132812 673.164062 328.378906 C 683.046875 303.460938 709.21875 284.804688 768.796875 291.347656 C 813.34375 296.21875 834.363281 317.660156 844.25 337.007812 C 845.363281 326.289062 846.613281 316.683594 847.867188 312.089844 C 848.703125 308.886719 850.652344 306.105469 853.4375 303.738281 C 854.269531 303.042969 854.96875 302.34375 855.941406 301.789062 C 855.941406 297.195312 855.523438 292.601562 855.105469 288.144531 C 853.574219 273.25 850.375 258.773438 843.96875 248.613281 C 835.058594 234.132812 817.382812 223.972656 796.082031 218.542969 C 763.785156 210.050781 722.859375 212.140625 690.5625 226.058594 C 671.492188 234.273438 662.582031 255.710938 658.683594 279.375 C 654.648438 303.738281 655.761719 330.464844 657.152344 348.5625 C 658.265625 349.675781 659.101562 350.652344 659.796875 351.625 C 662.164062 354.828125 662.722656 357.609375 662.582031 359.839844 C 662.304688 362.203125 661.050781 364.292969 659.9375 365.964844 C 659.519531 366.519531 659.101562 367.078125 658.824219 367.496094 L 658.824219 367.914062 C 658.824219 369.304688 658.824219 370.140625 658.824219 370.558594 L 658.824219 371.113281 C 658.683594 371.113281 658.265625 371.671875 658.265625 371.671875 L 657.710938 372.089844 L 657.292969 372.089844 C 657.292969 372.226562 656.875 372.367188 656.875 372.367188 L 656.316406 372.367188 C 656.316406 372.367188 655.761719 372.089844 655.761719 372.089844 L 655.34375 371.671875 L 655.066406 371.253906 C 653.953125 369.722656 654.089844 368.191406 655.066406 366.519531 C 655.066406 364.710938 654.648438 362.34375 654.507812 359.421875 C 654.230469 356.777344 653.953125 353.714844 653.8125 350.371094 C 650.332031 347.171875 644.902344 343.273438 636.691406 338.816406 C 604.253906 320.722656 545.089844 290.652344 526.296875 274.085938 C 523.234375 271.300781 521.148438 268.9375 520.3125 266.988281 C 519.476562 265.039062 519.617188 263.367188 520.453125 262.113281 C 521.566406 260.445312 527.691406 254.875 537.433594 246.523438 C 575.300781 214.226562 667.453125 141.003906 715.203125 110.933594 C 725.78125 104.253906 734.273438 99.660156 739.5625 97.988281 C 742.488281 97.152344 744.574219 97.152344 745.828125 97.710938 C 758.773438 103.976562 880.304688 184.019531 930.277344 221.1875 C 939.046875 227.730469 945.730469 233.019531 949.210938 236.222656 C 951.019531 237.890625 951.996094 239.285156 952.273438 240.121094 C 952.832031 241.789062 952.414062 244.019531 950.882812 246.523438 C 949.070312 249.445312 945.589844 252.925781 941.277344 256.683594 C 930.417969 266.152344 913.574219 277.707031 902.855469 286.894531 C 909.257812 339.097656 916.496094 399.789062 918.167969 418.863281 C 918.445312 421.925781 918.585938 423.875 918.585938 424.707031 C 918.585938 424.988281 918.585938 425.265625 918.585938 425.40625 L 918.585938 425.960938 C 917.890625 427.355469 916.078125 428.46875 913.433594 429.023438 C 909.117188 429.859375 901.742188 429.441406 895.476562 429.441406 L 894.503906 429.441406 C 894.503906 429.304688 893.667969 428.886719 893.667969 428.886719 C 893.109375 428.605469 892.554688 428.050781 892.136719 427.214844 C 891.023438 425.265625 890.046875 421.089844 889.210938 415.382812 C 885.175781 384.476562 886.707031 306.242188 889.628906 296.21875 C 890.464844 293.4375 893.667969 289.675781 898.539062 285.363281 C 897.007812 273.667969 895.617188 262.394531 894.363281 252.230469 C 894.503906 256.964844 894.78125 261.558594 894.78125 265.734375 C 894.78125 271.582031 894.503906 276.730469 893.945312 280.628906 C 893.527344 283.550781 892.691406 285.640625 891.855469 286.894531 C 890.464844 288.980469 887.960938 290.792969 884.898438 292.460938 C 880.71875 294.828125 875.292969 296.917969 870 299.144531 C 866.660156 300.675781 863.320312 302.207031 860.394531 304.015625 C 860.8125 327.402344 857.75 349.257812 854.828125 356.777344 C 854.269531 358.445312 853.4375 359.558594 852.878906 359.976562 L 852.460938 360.257812 L 851.90625 360.535156 L 851.070312 360.535156 C 851.070312 360.671875 850.511719 360.535156 850.511719 360.535156 L 849.957031 360.535156 C 849.957031 360.394531 849.121094 359.699219 849.121094 359.699219 C 848.5625 359.140625 847.867188 358.027344 847.449219 355.941406 C 847.449219 355.800781 847.449219 355.523438 847.3125 355.382812 C 846.894531 361.789062 846.753906 367.632812 846.894531 372.226562 C 846.894531 374.175781 846.894531 375.707031 847.171875 377.101562 C 849.398438 374.039062 852.460938 371.671875 855.523438 370.417969 C 858.167969 369.304688 861.09375 369.164062 863.597656 370.277344 C 867.636719 371.808594 871.253906 376.542969 872.925781 386.148438 C 875.152344 399.511719 872.230469 414.6875 865.824219 425.265625 C 861.371094 432.644531 855.382812 437.933594 848.425781 439.324219 C 845.640625 439.882812 843.273438 441.832031 841.1875 444.617188 C 838.820312 447.679688 837.007812 451.855469 835.339844 456.449219 C 830.328125 470.648438 828.378906 489.71875 828.378906 500.296875 C 828.378906 510.878906 830.050781 521.875 830.328125 530.785156 C 830.328125 533.429688 830.328125 535.9375 830.050781 538.164062 C 830.605469 537.746094 831.441406 537.605469 832.277344 537.605469 C 833.945312 537.605469 836.589844 538.859375 839.375 541.503906 C 842.300781 544.148438 845.640625 548.605469 848.84375 555.144531 C 865.546875 564.75 893.25 577.140625 925.964844 588.554688 C 950.742188 597.328125 978.582031 609.992188 1003.640625 628.230469 C 1006.285156 629.761719 1008.511719 631.152344 1010.324219 632.546875 C 1012.96875 634.496094 1014.777344 636.164062 1015.613281 637.558594 C 1034.824219 653.566406 1051.667969 673.054688 1062.804688 696.859375 C 1070.183594 712.589844 1071.433594 729.292969 1068.652344 747.253906 C 1068.652344 746.972656 1068.652344 746.695312 1068.789062 746.417969 C 1070.320312 740.152344 1072.128906 735.835938 1073.800781 734.027344 C 1074.777344 733.054688 1075.75 732.636719 1076.863281 732.496094 C 1077.839844 732.496094 1078.953125 732.773438 1080.066406 733.75 C 1081.457031 735.003906 1083.40625 737.785156 1085.496094 741.960938 C 1090.226562 751.011719 1096.492188 766.601562 1103.453125 786.371094 C 1126.5625 851.9375 1155.792969 962.1875 1151.617188 1021.492188 C 1149.113281 1056.851562 1114.726562 1112.394531 1075.054688 1165.851562 C 1030.925781 1225.429688 980.53125 1282.644531 961.183594 1307.285156 C 958.257812 1310.902344 956.171875 1313.828125 954.777344 1315.914062 C 954.082031 1317.027344 953.527344 1317.863281 953.527344 1318.28125 C 953.246094 1319.535156 954.082031 1320.925781 955.335938 1322.457031 C 957.839844 1325.660156 962.296875 1329.558594 968.144531 1333.457031 C 991.53125 1349.324219 1036.355469 1367.421875 1065.03125 1362.828125 C 1068.652344 1362.269531 1071.851562 1359.625 1074.777344 1355.449219 C 1079.507812 1348.90625 1083.683594 1338.882812 1087.164062 1326.773438 C 1085.632812 1319.953125 1084.382812 1312.851562 1083.265625 1305.753906 C 1074.359375 1246.035156 1080.34375 1180.882812 1092.871094 1153.183594 C 1093.988281 1150.675781 1095.101562 1149.003906 1096.074219 1148.03125 C 1097.050781 1147.058594 1098.023438 1146.5 1098.996094 1146.5 L 1099.972656 1146.5 C 1099.972656 1146.5 1100.945312 1146.777344 1100.945312 1146.777344 C 1101.503906 1147.058594 1101.921875 1147.335938 1102.339844 1147.890625 C 1103.589844 1149.421875 1104.84375 1152.625 1105.679688 1157.359375 C 1110.691406 1186.035156 1106.238281 1274.015625 1091.621094 1326.078125 C 1091.621094 1326.355469 1091.480469 1326.632812 1091.339844 1327.050781 C 1098.164062 1357.675781 1109.4375 1385.101562 1126.699219 1402.78125 C 1139.785156 1416.144531 1156.351562 1421.433594 1174.726562 1422.410156 C 1193.519531 1423.382812 1213.984375 1420.042969 1234.585938 1416.285156 C 1255.46875 1412.386719 1276.625 1408.210938 1295.976562 1407.375 C 1315.882812 1406.539062 1333.980469 1409.324219 1348.875 1419.625 C 1349.710938 1420.320312 1349.988281 1421.433594 1349.433594 1422.410156 C 1348.734375 1423.246094 1347.484375 1423.523438 1346.648438 1422.964844 C 1332.449219 1413.082031 1315.046875 1410.578125 1296.117188 1411.410156 C 1276.90625 1412.246094 1255.882812 1416.421875 1235.28125 1420.320312 C 1214.261719 1424.21875 1193.378906 1427.558594 1174.449219 1426.445312 C 1155.097656 1425.332031 1137.699219 1419.765625 1123.777344 1405.703125 C 1107.351562 1388.859375 1096.074219 1363.386719 1088.976562 1334.707031 C 1085.773438 1344.453125 1082.152344 1352.527344 1077.976562 1358.09375 C 1074.21875 1363.246094 1070.042969 1366.308594 1065.589844 1367.144531 C 1036.074219 1371.875 989.859375 1353.363281 965.777344 1337.074219 C 959.371094 1332.757812 954.640625 1328.582031 951.996094 1325.101562 C 949.90625 1322.179688 949.070312 1319.675781 949.488281 1317.585938 C 949.628906 1317.027344 950.046875 1316.054688 950.742188 1314.941406 C 951.996094 1312.714844 954.5 1309.371094 957.980469 1305.058594 C 977.332031 1280.558594 1027.722656 1223.34375 1071.714844 1163.761719 C 1110.832031 1110.863281 1144.9375 1056.292969 1147.582031 1021.492188 C 1151.898438 962.605469 1122.664062 853.050781 1099.695312 788.039062 C 1092.871094 768.550781 1086.609375 753.097656 1081.875 744.191406 C 1080.066406 740.570312 1078.535156 738.203125 1077.28125 737.089844 C 1077.28125 737.089844 1077.140625 736.953125 1077.003906 736.953125 C 1076.863281 736.953125 1076.445312 737.507812 1076.167969 737.925781 C 1074.914062 739.875 1073.800781 743.214844 1072.6875 747.808594 C 1063.5 786.507812 1059.742188 906.785156 1066.5625 969.707031 C 1071.714844 1017.734375 1070.042969 1043.625 1058.765625 1060.46875 C 1051.25 1071.746094 1039.277344 1079.125 1021.875 1086.082031 C 1018.953125 1087.335938 1016.585938 1088.449219 1015.054688 1089.5625 C 1013.804688 1090.398438 1012.96875 1091.234375 1012.6875 1091.929688 C 1012.550781 1092.488281 1012.6875 1092.90625 1012.96875 1093.460938 C 1013.386719 1094.019531 1014.082031 1094.574219 1014.777344 1095.132812 C 1018.257812 1097.636719 1024.242188 1100.003906 1030.089844 1102.511719 C 1035.519531 1104.875 1040.808594 1107.242188 1044.429688 1110.027344 C 1047.210938 1112.117188 1049.023438 1114.621094 1049.300781 1117.128906 C 1049.578125 1118.9375 1049.023438 1120.886719 1047.628906 1122.972656 C 1045.820312 1125.480469 1042.339844 1128.265625 1036.632812 1131.328125 C 1005.171875 1148.171875 961.601562 1154.015625 935.152344 1158.472656 C 928.46875 1159.585938 922.898438 1160.699219 918.863281 1161.8125 C 916.496094 1162.507812 914.828125 1163.066406 913.851562 1163.902344 C 909.535156 1167.242188 886.707031 1190.351562 862.761719 1214.851562 C 863.597656 1215.40625 864.570312 1216.105469 865.40625 1216.9375 C 870 1220.976562 876.265625 1228.355469 883.085938 1237.261719 C 905.359375 1266.636719 934.175781 1313.132812 934.175781 1313.132812 C 934.59375 1313.828125 934.59375 1314.523438 934.175781 1315.21875 C 933.757812 1315.914062 933.0625 1316.195312 932.226562 1316.195312 C 932.226562 1316.195312 871.113281 1310.625 859.5625 1309.789062 C 852.460938 1309.234375 838.820312 1311.042969 830.882812 1308.957031 C 827.683594 1308.121094 825.175781 1306.589844 824.0625 1304.222656 C 822.949219 1301.996094 822.808594 1298.933594 824.898438 1294.757812 C 829.910156 1284.316406 841.183594 1275.128906 848.980469 1267.191406 C 851.488281 1264.6875 853.574219 1262.460938 854.96875 1260.234375 C 856.082031 1258.421875 856.777344 1256.613281 856.5 1255.082031 C 856.5 1255.082031 856.5 1254.941406 856.5 1254.804688 C 856.21875 1254.804688 855.800781 1255.082031 855.523438 1255.222656 C 855.382812 1255.222656 855.105469 1255.5 854.96875 1255.636719 C 854.410156 1256.054688 853.714844 1256.472656 853.15625 1257.03125 C 848.144531 1261.066406 840.90625 1269.003906 833.667969 1275.265625 C 828.65625 1279.722656 823.507812 1283.203125 819.328125 1284.316406 C 810.003906 1286.683594 801.371094 1285.707031 797.753906 1283.339844 C 795.941406 1282.089844 795.109375 1280.558594 795.246094 1278.886719 C 795.246094 1277.773438 795.941406 1276.378906 797.335938 1274.988281 C 794.273438 1276.519531 790.515625 1276.660156 786.199219 1275.824219 C 785.085938 1275.546875 783.832031 1275.265625 782.578125 1274.847656 C 782.578125 1274.847656 782.578125 1274.988281 782.71875 1275.128906 C 785.363281 1278.191406 787.453125 1281.253906 788.703125 1283.757812 C 789.539062 1285.847656 789.957031 1287.65625 789.539062 1289.1875 C 789.121094 1291.554688 787.589844 1292.945312 784.945312 1293.503906 C 782.300781 1293.921875 778.125 1293.222656 772.972656 1291.554688 C 760.304688 1287.378906 741.792969 1277.773438 728.289062 1273.316406 C 723 1271.507812 718.683594 1270.535156 715.898438 1271.230469 C 715.480469 1271.230469 715.0625 1271.507812 714.785156 1271.648438 C 714.785156 1271.648438 714.925781 1271.925781 715.0625 1272.066406 C 715.480469 1272.621094 716.175781 1273.179688 717.011719 1273.734375 C 722.164062 1277.496094 732.464844 1282.367188 741.375 1287.238281 C 747.5 1290.578125 752.929688 1293.921875 755.433594 1296.84375 C 759.46875 1301.4375 758.355469 1307.421875 754.320312 1312.851562 C 748.890625 1320.230469 737.753906 1326.632812 729.542969 1327.050781 C 724.53125 1327.332031 717.988281 1329.417969 709.496094 1331.644531 C 696.410156 1334.988281 678.871094 1338.328125 655.898438 1334.988281 C 636.410156 1332.203125 628.753906 1326.632812 623.882812 1322.597656 C 623.882812 1322.597656 623.742188 1322.457031 623.605469 1322.320312 C 593.8125 1340.832031 564.71875 1357.398438 545.925781 1365.75 C 538.546875 1368.953125 532.703125 1371.042969 528.941406 1371.320312 C 526.855469 1371.597656 525.324219 1371.320312 524.210938 1370.625 C 522.679688 1369.789062 521.984375 1368.675781 521.566406 1367.5625 C 521.148438 1366.449219 521.285156 1365.195312 521.703125 1363.941406 C 522.261719 1362.550781 523.515625 1360.878906 525.324219 1359.210938 C 540.078125 1345.289062 598.824219 1321.621094 610.65625 1316.195312 C 614 1314.664062 616.367188 1314.246094 618.453125 1314.382812 C 620.542969 1314.664062 622.210938 1315.636719 624.023438 1317.027344 C 658.128906 1295.730469 692.652344 1272.203125 712.835938 1256.335938 C 721.050781 1249.929688 726.757812 1244.78125 729.261719 1241.578125 C 729.542969 1241.160156 729.820312 1240.605469 729.957031 1240.324219 C 729.261719 1239.351562 727.453125 1238.097656 725.085938 1236.429688 C 720.492188 1233.367188 713.53125 1229.328125 705.179688 1223.898438 C 691.539062 1215.128906 674.136719 1203.019531 657.015625 1186.035156 C 656.457031 1189.375 655.761719 1192.019531 654.925781 1193.96875 C 653.535156 1196.613281 651.722656 1198.007812 649.636719 1198.144531 C 647.6875 1198.285156 645.179688 1197.3125 642.257812 1194.527344 C 619.011719 1172.394531 563.746094 1075.921875 523.933594 987.664062 C 497.34375 928.640625 477.855469 873.375 479.246094 846.367188 C 479.664062 839.269531 480.636719 835.09375 481.75 833.5625 C 481.890625 833.28125 482.167969 833.003906 482.308594 832.867188 L 483.144531 832.308594 L 483.699219 832.308594 C 483.699219 832.167969 484.257812 832.03125 484.257812 832.03125 L 485.371094 832.03125 C 486.484375 832.449219 487.875 833.699219 489.269531 835.929688 C 492.609375 841.355469 496.925781 854.164062 501.660156 869.335938 C 510.011719 896.34375 519.476562 931.285156 526.714844 947.710938 C 528.109375 950.773438 529.359375 953.140625 530.472656 954.671875 C 530.753906 955.089844 531.171875 955.367188 531.449219 955.644531 C 531.726562 955.230469 531.867188 954.8125 532.003906 954.253906 C 532.5625 952.863281 532.839844 950.914062 533.257812 948.40625 C 539.105469 902.886719 529.777344 781.777344 534.234375 748.644531 C 534.789062 744.746094 535.484375 742.101562 536.460938 740.570312 C 537.15625 739.457031 537.851562 738.898438 538.6875 738.621094 L 539.382812 738.621094 C 539.382812 738.484375 540.21875 738.621094 540.21875 738.621094 L 540.914062 738.621094 C 541.054688 738.898438 541.332031 739.039062 541.472656 739.179688 C 542.308594 739.734375 543.28125 740.710938 544.257812 742.378906 C 549.265625 750.453125 554 774.398438 558.871094 807.113281 C 570.007812 882.421875 581.980469 1004.367188 601.609375 1082.605469 C 612.050781 1123.949219 632.097656 1154.714844 653.535156 1177.542969 C 655.34375 1127.984375 630.566406 995.179688 623.464844 937.828125 C 622.210938 927.527344 621.515625 919.589844 621.515625 914.996094 C 621.515625 912.632812 621.792969 910.960938 622.351562 910.125 C 622.90625 909.011719 624.4375 907.757812 627.085938 906.785156 C 631.957031 904.835938 640.867188 902.746094 652.699219 900.796875 C 706.015625 892.027344 818.355469 884.234375 869.027344 884.371094 C 882.113281 884.371094 891.160156 885.066406 894.363281 886.320312 C 895.894531 886.878906 897.425781 888.410156 898.679688 891.054688 C 901.183594 895.925781 903.273438 904.835938 905.082031 916.667969 C 915.105469 982.929688 915.660156 1140.652344 914.828125 1155.964844 C 914.828125 1156.246094 914.828125 1156.664062 914.828125 1156.800781 C 914.828125 1156.800781 914.964844 1156.800781 915.105469 1156.800781 C 915.523438 1156.800781 915.941406 1156.523438 916.359375 1156.382812 C 916.914062 1156.105469 917.75 1155.546875 918.445312 1154.992188 C 935.847656 1142.742188 979.558594 1080.65625 973.015625 1011.191406 C 967.027344 947.710938 968.421875 794.582031 970.925781 731.382812 C 971.621094 715.234375 972.320312 704.933594 973.015625 703.125 L 973.433594 702.289062 L 973.988281 701.871094 L 974.683594 701.59375 L 975.519531 701.59375 C 975.519531 701.59375 975.9375 701.871094 975.9375 701.871094 L 976.355469 702.289062 L 976.632812 702.707031 L 976.632812 703.261719 C 977.050781 703.960938 977.46875 705.910156 977.609375 709.25 C 978.863281 728.179688 979 748.226562 981.089844 762.289062 C 981.785156 767.160156 982.757812 771.335938 984.152344 774.257812 C 985.265625 776.625 986.519531 778.15625 988.328125 778.296875 C 990.136719 778.433594 992.085938 777.601562 994.59375 775.652344 C 998.769531 772.449219 1004.058594 766.324219 1010.738281 756.859375 C 1012.96875 753.65625 1014.917969 751.707031 1016.449219 750.734375 C 1018.117188 749.757812 1019.511719 749.757812 1020.625 750.316406 C 1021.597656 750.871094 1022.574219 751.847656 1023.128906 753.515625 C 1023.6875 755.328125 1024.105469 757.972656 1024.105469 761.453125 C 1024.523438 786.09375 1010.738281 852.910156 1000.855469 900.519531 C 998.628906 911.519531 996.542969 922.097656 994.871094 930.589844 C 1014.636719 867.25 1043.175781 816.996094 1057.097656 774.539062 C 1066.144531 746.695312 1068.929688 722.195312 1058.210938 699.644531 C 1047.769531 677.371094 1032.316406 658.855469 1014.5 643.542969 C 1014.359375 643.683594 1014.082031 643.960938 1013.800781 644.101562 C 1012.96875 644.65625 1011.574219 645.074219 1009.765625 645.214844 C 1006.285156 645.492188 1000.71875 647.859375 993.617188 651.757812 C 982.34375 657.742188 967.445312 667.207031 950.464844 678.761719 C 884.339844 724.003906 788.425781 800.011719 767.824219 815.324219 C 763.925781 818.25 757.242188 818.386719 748.195312 816.019531 C 735.667969 812.679688 718.683594 804.46875 699.195312 793.609375 C 639.335938 759.921875 557.0625 699.78125 520.3125 675.003906 C 511.402344 669.019531 505.277344 665.121094 502.910156 664.425781 C 501.242188 663.867188 499.429688 664.425781 497.203125 665.675781 C 493.304688 668.183594 488.851562 673.195312 483.980469 681.40625 C 464.351562 714.398438 439.710938 795 427.601562 946.042969 C 415.351562 1097.21875 468.386719 1237.542969 493.167969 1325.382812 C 499.570312 1348.210938 504.023438 1367.421875 505.136719 1382.457031 C 505.835938 1392.898438 504.859375 1401.25 501.9375 1407.652344 C 497.898438 1416.285156 489.546875 1421.15625 478.269531 1423.382812 C 462.125 1426.445312 439.570312 1424.21875 414.652344 1420.597656 C 377.761719 1415.308594 335.722656 1406.957031 302.175781 1409.878906 C 280.316406 1411.691406 262.082031 1418.234375 251.363281 1433.546875 C 250.804688 1434.382812 249.554688 1434.660156 248.578125 1434.101562 C 247.742188 1433.40625 247.464844 1432.292969 248.023438 1431.320312 C 259.296875 1415.03125 278.648438 1407.929688 301.757812 1405.984375 C 335.722656 1403.199219 378.042969 1411.410156 415.070312 1416.839844 C 439.433594 1420.320312 461.566406 1422.6875 477.4375 1419.625 C 487.320312 1417.675781 494.835938 1413.640625 498.316406 1406.121094 C 501.101562 1400.273438 501.796875 1392.480469 501.101562 1383.011719 C 499.988281 1368.117188 495.671875 1349.1875 489.269531 1326.632812 C 464.488281 1238.515625 411.3125 1097.636719 423.5625 945.902344 C 435.8125 793.886719 460.730469 712.730469 480.5 679.597656 C 485.789062 670.6875 490.800781 665.257812 495.117188 662.613281 C 498.457031 660.527344 501.519531 660.109375 504.023438 660.945312 C 506.53125 661.78125 513.074219 665.675781 522.539062 672.082031 C 559.289062 696.71875 641.285156 756.859375 701.144531 790.546875 C 720.214844 801.265625 736.917969 809.339844 749.167969 812.679688 C 753.066406 813.792969 756.546875 814.351562 759.332031 814.210938 C 761.835938 814.210938 763.925781 813.65625 765.316406 812.679688 C 785.921875 797.226562 881.972656 721.222656 948.097656 675.976562 C 968.003906 662.335938 985.265625 651.476562 996.957031 645.910156 C 1002.25 643.402344 1006.425781 642.011719 1009.347656 641.734375 C 1010.042969 641.734375 1010.738281 641.59375 1011.15625 641.453125 Z M 1012.550781 640.203125 " fill-opacity="1" fill-rule="evenodd"/></g></svg>