<svg width="118" height="100" viewBox="0 0 118 100" fill="none" xmlns="http://www.w3.org/2000/svg">
<g clip-path="url(#clip0_45_874)">
<path d="M13.7318 87.067C12.1276 85.2899 10.1776 84.3869 7.94418 84.3869C5.71079 84.3869 3.80879 85.1506 2.29104 86.6588C0.773293 88.1669 0 89.9776 0 92.0429C0 94.1082 0.773307 95.9382 2.30546 97.4895C3.83282 99.0409 5.65792 99.8286 7.72321 99.8286H8.01143C10.2064 99.8286 12.0988 98.9688 13.6405 97.2782L13.6886 97.2254V94.9391L13.3572 95.429C12.7136 96.38 11.8922 97.1533 10.9076 97.7201C9.92779 98.2868 8.8039 98.575 7.56473 98.575C6.32555 98.575 5.12961 98.0707 3.8424 97.0765L13.8518 87.1967L13.7366 87.067H13.7318ZM2.90584 96.1591C1.89721 94.9535 1.38327 93.5367 1.38327 91.9517C1.38327 90.3667 2.02686 88.8249 3.29485 87.5569C4.56285 86.2889 6.03736 85.6453 7.67038 85.6453C9.3034 85.6453 10.6771 86.1688 11.9258 87.2015L2.90584 96.1591Z" fill="#161616"/>
<path d="M29.7786 87.7106C29.1926 86.7884 28.3809 86.0248 27.3483 85.434C26.0995 84.7183 24.7883 84.3581 23.4387 84.3581C21.2917 84.3581 19.4377 85.1218 17.9296 86.6299C16.4214 88.1381 15.6578 89.9728 15.6578 92.0765C15.6578 94.1803 16.4214 96.015 17.9296 97.5231C19.4377 99.0313 21.2917 99.795 23.4387 99.795C24.7403 99.795 26.0275 99.4396 27.2667 98.7335C28.3041 98.1427 29.1494 97.3695 29.7786 96.4281V99.4444H31.1619V75.1219H29.7786V87.7106ZM27.9295 96.6298C26.6615 97.8978 25.1341 98.5414 23.3906 98.5414C21.6471 98.5414 20.139 97.8978 18.9046 96.6298C17.6654 95.3618 17.041 93.8344 17.041 92.091C17.041 90.3475 17.6751 88.8153 18.9238 87.5377C20.1726 86.2601 21.6807 85.6117 23.4098 85.6117C25.1389 85.6117 26.6615 86.2649 27.9295 87.5569C29.1975 88.8489 29.8411 90.3811 29.8411 92.1102C29.8411 93.8393 29.1975 95.3618 27.9295 96.6298Z" fill="#161616"/>
<path d="M46.2001 93.2581C46.2001 94.6702 45.6526 95.919 44.5767 96.9612C43.496 98.0083 42.2328 98.5414 40.8207 98.5414C39.4086 98.5414 38.1886 98.0131 37.1992 96.966C36.205 95.9189 35.7007 94.6702 35.7007 93.2581V84.7087H34.3174V93.2581C34.3174 95.0688 34.9466 96.625 36.1906 97.8882C37.4346 99.1514 38.9908 99.795 40.8255 99.795C43.251 99.795 45.0569 98.8728 46.2049 97.0429V99.4396H47.5881V84.7039H46.2049V93.2533L46.2001 93.2581Z" fill="#161616"/>
<path d="M57.8473 84.4157C55.6331 84.4157 53.7456 85.1794 52.223 86.6876C50.7053 88.1957 49.932 90.0112 49.932 92.0861C49.932 94.161 50.6909 95.991 52.1894 97.5327C53.688 99.0745 55.5035 99.8574 57.5928 99.8574H57.881C60.1192 99.8574 62.0212 99.0121 63.5437 97.3358L63.5918 97.283V94.9535L63.2603 95.453C62.6215 96.4232 61.7954 97.2013 60.8156 97.7585C59.8358 98.3156 58.7983 98.599 57.7273 98.599C56.0174 98.599 54.5045 97.9554 53.2365 96.6874C51.9685 95.4194 51.3249 93.8873 51.3249 92.1342C51.3249 90.3811 51.9685 88.8489 53.2365 87.5809C54.5045 86.3129 56.0174 85.6693 57.7273 85.6693C58.7983 85.6693 59.8358 85.9527 60.8156 86.5099C61.8002 87.067 62.6215 87.8355 63.2651 88.7865L63.5966 89.2764V86.9853L63.5485 86.9325C61.9876 85.2611 60.0711 84.4157 57.8569 84.4157H57.8473Z" fill="#161616"/>
<path d="M79.2688 87.725C78.7404 86.8172 77.9576 86.0584 76.9345 85.4628C75.6665 84.7279 74.3168 84.3533 72.9288 84.3533C70.801 84.3533 68.9519 85.117 67.4342 86.6251C65.9164 88.1333 65.1431 89.968 65.1431 92.0717C65.1431 94.1754 65.9116 96.0102 67.4342 97.5183C68.9519 99.0265 70.801 99.7901 72.9288 99.7901C74.3168 99.7901 75.6377 99.4251 76.8528 98.7095C77.8615 98.1139 78.6684 97.331 79.264 96.3752V99.4395H80.6472V84.7039H79.264V87.725H79.2688ZM77.4676 96.6298C76.2285 97.8978 74.7203 98.5414 72.9816 98.5414C71.2429 98.5414 69.7108 97.8978 68.4428 96.6298C67.1748 95.3618 66.5312 93.8392 66.5312 92.1102C66.5312 90.3811 67.1748 88.8441 68.4428 87.5569C69.7108 86.2697 71.2333 85.6117 72.9624 85.6117C74.6915 85.6117 76.2044 86.2601 77.4484 87.5377C78.6972 88.8201 79.3312 90.3523 79.3312 92.0909C79.3312 93.8296 78.702 95.3618 77.4676 96.6298Z" fill="#161616"/>
<path d="M97.4481 87.7106C96.8621 86.7884 96.0504 86.0248 95.0178 85.434C93.769 84.7183 92.4578 84.3581 91.1081 84.3581C88.9612 84.3581 87.1072 85.1218 85.5991 86.6299C84.0909 88.1381 83.3273 89.9728 83.3273 92.0765C83.3273 94.1803 84.0909 96.015 85.5991 97.5231C87.1072 99.0313 88.9612 99.795 91.1081 99.795C92.4097 99.795 93.697 99.4396 94.9361 98.7335C95.9736 98.1427 96.8189 97.3695 97.4481 96.4281V99.4444H98.8314V75.1219H97.4481V87.7106ZM95.599 96.6298C94.331 97.8978 92.8036 98.5414 91.0601 98.5414C89.3166 98.5414 87.8085 97.8978 86.5741 96.6298C85.3349 95.3618 84.7105 93.8344 84.7105 92.091C84.7105 90.3475 85.3446 88.8153 86.5933 87.5377C87.8421 86.2601 89.3502 85.6117 91.0793 85.6117C92.8084 85.6117 94.331 86.2649 95.599 87.5569C96.867 88.8489 97.5105 90.3811 97.5105 92.1102C97.5105 93.8393 96.867 95.3618 95.599 96.6298Z" fill="#161616"/>
<path d="M114.797 86.6251C113.288 85.117 111.439 84.3533 109.302 84.3533C107.165 84.3533 105.311 85.117 103.793 86.6251C102.275 88.1333 101.502 89.944 101.502 92.0093C101.502 94.0746 102.261 95.9045 103.754 97.4559C105.253 99.0073 107.069 99.795 109.158 99.795H109.446C111.555 99.795 113.37 99.0121 114.849 97.4703C116.324 95.9285 117.073 94.0986 117.073 92.0285C117.073 89.9584 116.31 88.1381 114.801 86.6299L114.797 86.6251ZM113.822 96.625C112.582 97.893 111.074 98.5366 109.336 98.5366C107.597 98.5366 106.065 97.893 104.797 96.625C103.529 95.357 102.885 93.8344 102.885 92.1053C102.885 90.3763 103.529 88.8393 104.797 87.5521C106.065 86.2649 107.587 85.6069 109.316 85.6069C111.045 85.6069 112.558 86.2553 113.802 87.5329C115.051 88.8153 115.685 90.3475 115.685 92.0861C115.685 93.8248 115.056 95.357 113.822 96.625Z" fill="#161616"/>
<path d="M88.4281 1.20075H27.7662V61.8627H88.4281V1.20075Z" fill="#8F8F2D"/>
<path d="M41.9734 44.4038L41.3347 40.4029L41.6564 36.6421L43.0973 33.3569L45.1771 28.5587L46.7764 25.1149L47.9772 22.3916L49.0627 18.7894L50.3787 13.2659L52.7802 10.3841L55.4218 9.18335H58.3372L61.9059 10.5426L63.9088 13.1843L65.4697 17.4301L66.4687 21.431L68.7118 26.796L70.633 31.037L72.7943 36.5605V41.2818L71.8337 45.2059L69.5907 49.0483L66.3103 51.2096L62.8665 52.0886L57.6649 51.5314L53.102 48.8081L50.8206 46.8917L48.4575 47.0454L44.1348 46.008L42.2136 45.1242L41.9734 44.4038Z" fill="#D3D360"/>
<path d="M50.8206 46.8917L49.0627 42.2472V38.1647L50.3403 34.5624L51.8628 31.5317L54.1058 29.4424L57.0645 28.5586L60.1096 29.0389L62.7512 30.9601L64.5908 33.6834L65.4698 37.2857V39.5287L63.7887 43.131L61.9491 45.2107L58.9857 46.8917L54.5861 47.5305H51.3009L50.8206 46.8917Z" fill="#D8B79F"/>
<path d="M89.6336 0H26.5654V63.0682H89.6336V0ZM88.4329 61.8675H27.7709V37.9149C32.1224 40.7343 36.6229 43.5824 41.4739 45.5277C42.9196 49.7879 46.493 53.4478 51.3201 55.6091C54.3556 56.9684 57.6312 57.6456 60.8396 57.6456C63.8319 57.6456 66.7665 57.0549 69.3986 55.8685C76.5935 52.6313 82.9911 44.8312 88.1351 38.5681C88.2359 38.4432 88.332 38.328 88.4329 38.2031V61.8627V61.8675ZM59.5428 47.1799C62.4102 46.3009 64.5091 44.2741 65.4553 41.4739C66.5696 38.1887 65.9308 34.2838 63.7887 31.2916C62.2902 29.1974 60.1239 27.9487 57.8473 27.867C55.6091 27.795 53.4862 28.8132 51.8772 30.7584C48.6064 34.7017 47.3096 41.9398 50.004 46.5699C47.5593 46.2769 45.0666 45.6333 42.4345 44.6199C42.0022 43.131 41.8389 41.546 41.9494 39.9033C42.2136 36.0369 43.9139 32.5644 45.715 28.8804C47.0262 26.2052 48.3758 23.4338 49.1203 20.5088C49.2548 19.9757 49.3844 19.4281 49.5093 18.8806C50.1769 16.0036 50.8638 13.0257 53.0587 11.1478C55.321 9.21216 59.2835 9.21216 61.5409 11.1478C63.5053 12.8288 64.3554 16.3206 65.0375 19.1256C65.1671 19.6683 65.2968 20.187 65.4217 20.6673C66.1277 23.3282 67.4053 25.7921 68.6397 28.1744C70.3736 31.5173 72.0114 34.6729 72.2372 38.3616C72.5349 43.1502 70.5945 48.8321 65.585 50.7341C63.318 51.5938 60.6427 51.6515 58.0443 50.8926C56.0798 50.321 54.5477 49.3172 53.0203 47.9772C55.1961 47.958 57.4006 47.8427 59.5284 47.1895L59.5428 47.1799ZM51.5842 46.7668C48.4815 42.7323 49.6678 35.3117 52.8042 31.5269C54.173 29.8795 55.9454 29.0053 57.8041 29.0726C59.7061 29.1398 61.5313 30.2061 62.8089 31.9928C64.7301 34.6777 65.3064 38.1598 64.3122 41.0897C63.4909 43.5152 61.6705 45.2683 59.1826 46.032C56.7523 46.7764 54.125 46.7716 51.5794 46.7668H51.5842ZM88.4281 36.3155C88.0294 36.7958 87.6212 37.2953 87.1985 37.8092C82.1362 43.9763 75.8346 51.6515 68.8942 54.7734C63.7502 57.0933 57.3574 56.9972 51.8004 54.5141C47.6458 52.6553 44.4902 49.6342 42.9676 46.104C45.8062 47.1174 48.5007 47.7034 51.176 47.8907C53.1885 49.8263 55.0808 51.272 57.7177 52.0405C60.5611 52.8714 63.5101 52.7994 66.0172 51.8484C71.5983 49.7255 73.7693 43.5056 73.4427 38.2799C73.1978 34.3415 71.4303 30.9217 69.7156 27.6125C68.51 25.2878 67.2661 22.8815 66.5936 20.3503C66.4688 19.8796 66.3439 19.3705 66.2142 18.8374C65.4889 15.8643 64.5908 12.1612 62.3286 10.2304C59.6053 7.90094 55.0088 7.90094 52.2855 10.2304C49.7927 12.3677 49.0579 15.5377 48.347 18.6068C48.2222 19.1496 48.0973 19.6875 47.9628 20.211C47.2471 23.0208 45.9215 25.7297 44.6391 28.3521C42.8668 31.9736 41.0368 35.7199 40.7535 39.8169C40.6526 41.277 40.7535 42.6939 41.0512 44.0531C36.3875 42.0599 32.0072 39.2309 27.7614 36.4788V1.20075H88.4233V36.3107L88.4281 36.3155Z" fill="#161616"/>
</g>
<defs>
<clipPath id="clip0_45_874">
<rect width="118" height="100" fill="white"/>
</clipPath>
</defs>
</svg>
