<svg width="95" height="82" viewBox="0 0 95 82" fill="none" xmlns="http://www.w3.org/2000/svg">
<g clip-path="url(#clip0_75_2363)">
<path d="M53.2101 78.1601C53.2401 77.7601 53.2401 77.3501 53.2301 76.9501C53.2101 76.0301 53.1901 75.1201 53.1601 74.2001C53.1301 73.3201 53.0801 72.4401 52.9701 71.5601C52.9701 71.5101 52.9501 71.4601 52.9501 71.4001C52.1701 71.3701 51.4301 71.2801 50.7301 71.1201C50.7901 71.3601 50.8601 71.5801 50.8901 71.7301C51.0501 72.5501 51.2101 73.3701 51.3401 74.2001C51.5701 75.7101 51.6001 77.2601 51.5101 78.7801C51.4301 78.8601 51.3401 78.9201 51.2901 78.9701C51.0401 79.1901 50.7501 79.3901 50.4501 79.5301C49.9001 79.7901 49.2401 79.8001 48.8301 80.3101C48.5801 80.6301 48.6301 81.0201 48.9301 81.2301C49.3501 81.7701 50.0301 81.6501 50.6501 81.6001C51.3301 81.5401 52.0201 81.4001 52.6001 81.0301C53.2901 80.5901 53.5301 80.0201 53.4201 79.2201C53.3701 78.8501 53.3001 78.5001 53.2001 78.1601H53.2101Z" fill="#161616"/>
<path d="M70.7401 79.54C70.4401 79.4 70.1501 79.2 69.9001 78.98C69.8401 78.93 69.7601 78.86 69.6801 78.79C69.5901 77.27 69.6201 75.72 69.8501 74.21C69.9701 73.38 70.1301 72.56 70.3001 71.74C70.3201 71.61 70.3801 71.44 70.4301 71.25C69.7401 71.47 69.0001 71.62 68.2101 71.71C68.1201 72.53 68.0601 73.36 68.0401 74.19C68.0101 75.11 67.9901 76.02 67.9701 76.94C67.9601 77.34 67.9501 77.75 67.9901 78.15C67.8901 78.49 67.8201 78.84 67.7701 79.21C67.6601 80.01 67.9101 80.58 68.5901 81.02C69.1701 81.39 69.8701 81.53 70.5401 81.59C71.1601 81.65 71.8401 81.76 72.2601 81.22C72.5701 81.01 72.6101 80.62 72.3601 80.3C71.9601 79.79 71.2901 79.78 70.7401 79.52V79.54Z" fill="#161616"/>
<path d="M83.1401 32.1601C83.8301 31.4801 85.3701 31.9101 86.2101 32.1301C87.2501 32.4001 88.2701 32.8701 89.1501 33.5001C90.6801 34.6001 91.7601 36.1901 92.1401 38.0301C92.8001 38.3701 93.3501 38.9901 93.6801 39.6601C93.9201 40.1501 94.2801 41.2001 93.5901 41.5001C93.3901 41.5901 93.1401 41.5201 93.0801 41.2801C93.0801 41.2501 93.0401 41.1501 93.0101 41.0301C92.9201 41.2301 92.7801 41.3701 92.5901 41.4901C92.3701 41.6301 92.0801 41.4301 92.0901 41.1901C92.0901 41.1701 92.0901 41.1401 92.0901 41.0901C91.9301 41.2901 91.5901 41.1801 91.5201 40.9501C91.3601 40.4001 91.7301 39.8301 91.5201 39.3101C91.4001 39.4501 91.3101 39.6101 91.2401 39.8101C91.1601 40.0201 91.1101 40.1701 90.9601 40.3301C90.7601 40.5401 90.2701 40.4001 90.3501 40.1601C90.5401 39.5601 90.2201 38.8301 90.8101 38.2701C90.6601 37.6801 90.4301 37.3501 90.0901 36.8701C89.6501 36.2301 89.1001 35.6401 88.5001 35.1501C88.4501 35.1101 88.3901 35.0701 88.3401 35.0201C87.8201 34.6701 87.2601 34.3801 86.6701 34.1901C86.0901 34.0001 85.4901 33.8801 84.9001 33.7701C84.5001 33.7001 84.0501 33.7401 83.7101 33.5501C83.4901 33.5101 83.3701 33.4001 83.1501 33.2201C82.8701 32.9701 82.8701 32.4201 83.1101 32.1801L83.1401 32.1601Z" fill="#161616"/>
<path d="M28.9701 22.58L30.4801 22.92C30.4801 22.79 30.5201 22.65 30.5901 22.51C30.6801 22.33 30.8001 22.21 30.9401 22.07C31.1301 21.87 31.1101 21.72 31.2001 21.47C31.3801 20.96 31.7501 20.77 32.1101 20.86C32.2201 20.86 32.3301 20.92 32.4701 21.06C32.5501 21.13 32.6301 21.22 32.6901 21.33C32.7101 21.37 32.7201 21.41 32.7201 21.44C32.9601 22.1 32.4901 23.11 32.2401 23.58C32.6901 25.12 33.5401 26.49 34.7801 27.52C35.4001 28.04 36.1101 28.47 36.8701 28.76C37.2601 28.91 37.6801 29.03 38.0901 29.1C38.5201 29.17 39.1801 29.28 39.6001 29.12C40.0801 28.94 40.6501 29.58 40.1601 29.94C40.0801 30 40.0101 30.05 39.9401 30.1C40.2701 30.61 40.0001 31.5 39.2101 31.44C35.9601 31.22 32.9901 29.32 31.5901 26.49C31.1801 25.8 30.8601 25.07 30.6601 24.3C30.1501 24.22 29.5101 24.05 29.1401 23.72C28.4501 23.09 28.9801 22.59 28.9801 22.59L28.9701 22.58Z" fill="#161616"/>
<path d="M88.7201 43.0001C88.2401 41.0001 87.5001 39.0701 86.5601 37.2401C85.4201 35.0801 83.9101 33.1701 82.5201 31.1801C81.5901 29.8501 80.8301 28.5801 80.3501 27.0901C79.6501 24.8801 79.3201 22.5501 78.9101 20.2701C78.0101 15.2401 76.8201 9.74006 72.9401 6.11006C70.7401 4.05006 67.9101 2.87006 64.9601 2.40006C61.4101 1.84006 57.5201 1.94006 54.0901 3.11006C51.4201 4.02006 49.1201 5.66006 47.4101 7.92006C45.8501 10.0001 44.8801 12.4701 44.1901 14.9601C43.5101 17.4401 43.1101 19.9801 42.6501 22.5001C42.2501 24.7001 41.8401 27.0901 40.8201 28.9901C39.7401 31.0101 38.2401 32.7701 36.9601 34.6601C35.6701 36.5601 34.6401 38.5901 33.8901 40.7701C32.4501 44.9801 32.1501 49.5901 33.1401 53.9401C34.1301 58.2901 36.4301 62.4501 39.7601 65.4301C42.4301 67.8101 45.6801 69.4401 49.1001 70.4001C51.9001 71.1901 54.8301 71.5601 57.7301 71.6001C58.6801 71.6101 59.6301 71.6001 60.5801 71.5201C61.3601 71.4701 62.1501 71.5701 62.9401 71.5901C69.0401 71.7201 75.5201 70.4201 80.5301 66.7601C87.8501 61.4101 90.7901 51.7101 88.7001 43.0001H88.7201Z" stroke="#161616" stroke-width="2" stroke-miterlimit="10"/>
<path d="M57.2401 36.29C57.2401 36.29 50.5101 37.81 48.5501 44.36C46.5901 50.91 49.6801 55.33 52.5601 57.29C55.4401 59.25 61.6201 61.93 67.4801 58.61C73.3401 55.29 74.3801 49.5 73.1301 45.41C72.2701 42.59 70.3301 38.35 65.6701 36.51C63.5601 35.68 60.3901 35.36 57.2401 36.28V36.29Z" stroke="#161616" stroke-width="2" stroke-miterlimit="10"/>
<path d="M63.5501 21.78C62.5101 23.95 58.9401 23.76 57.9501 21.66" stroke="#161616" stroke-width="2" stroke-miterlimit="10"/>
<path d="M55.5701 13.6801C55.2901 13.4101 54.9801 13.3301 54.6901 13.3801C54.4801 13.2601 54.2101 13.2501 53.9601 13.4301C53.1801 14.0201 53.0301 14.9001 53.1501 15.8301C53.2501 16.6801 53.7401 17.4701 54.6801 17.4901C56.5501 17.5301 56.6101 14.6801 55.5701 13.6801Z" fill="#161616"/>
<path d="M67.6301 13.7801C67.3501 13.5101 67.0401 13.4301 66.7501 13.4801C66.5401 13.3601 66.2701 13.3501 66.0201 13.5301C65.2401 14.1201 65.0901 15.0001 65.2101 15.9301C65.3101 16.7801 65.8001 17.5701 66.7401 17.5901C68.6101 17.6301 68.6701 14.7801 67.6301 13.7801Z" fill="#161616"/>
<path d="M21.6354 19.8061L26.1668 3.90325C29.9087 3.72803 33.2581 4.00634 35.4098 6.01988L30.932 21.7386C27.9391 19.8652 24.8154 19.58 21.6354 19.8061Z" fill="#FF0000"/>
<path d="M11.4589 20.9513L16.143 4.52338C19.4307 4.52982 22.9453 4.05299 26.1665 3.90372L21.6353 19.8063C18.2743 20.046 14.8499 20.8547 11.4589 20.9513Z" fill="white"/>
<path d="M2.32125 18.4707L4.8314 9.65165C5.70088 7.26171 6.56546 4.84934 7.43594 2.17769C9.76764 4.00785 12.8427 4.51027 16.143 4.52331L11.459 20.9513C8.36123 21.0432 5.29026 20.5428 2.32125 18.4707Z" fill="#009146"/>
<path d="M30.74 22.05C30.58 22.52 30.11 22.27 30.11 22.27C25.86 19.29 21.19 20.05 16.5 20.8C11.68 21.58 6.83005 22.37 2.19005 19.32C2.03005 19.22 1.97005 19.04 2.01005 18.87L6.79005 2.27999C6.85005 2.05999 7.09005 1.94999 7.30005 2.01999C7.35005 2.03999 14.18 4.44999 21.54 3.79999C27.14 3.23999 32.5 2.70999 35.28 6.24999C35.37 6.35999 35.38 6.50999 35.35 6.63999L30.75 22.05H30.74Z" stroke="#161616" stroke-width="2" stroke-miterlimit="10"/>
</g>
<defs>
<clipPath id="clip0_75_2363">
<rect width="95" height="82" fill="white"/>
</clipPath>
</defs>
</svg>
